<?xml version="1.0" encoding="utf-8"?>
<!-- Generator: Adobe Illustrator 16.0.3, SVG Export Plug-In . SVG Version: 6.00 Build 0)  -->
<!DOCTYPE svg PUBLIC "-//W3C//DTD SVG 1.1//EN" "http://www.w3.org/Graphics/SVG/1.1/DTD/svg11.dtd">
<svg version="1.1" id="Layer_1" xmlns="http://www.w3.org/2000/svg" xmlns:xlink="http://www.w3.org/1999/xlink" x="0px" y="0px"
	 width="70px" height="60px" viewBox="0 0 70 60" enable-background="new 0 0 70 60" xml:space="preserve">
<g>
	<path fill="#802F30" d="M66.709,51.383c0.016,0.515-0.072,0.965-0.112,0.771c0.106,1.051-0.015,1.073,0.192,1.209
		c0.102,0.675-0.039,1.396-0.123,0.628l0.126,1.944l0.033-1.164c0.172,0.317-0.052,1.859,0.148,2.229l-0.017-2.106l0.057,0.105
		c-0.062-0.479-0.035-1.411-0.012-1.735c0.028,0.052,0.074,0.019,0.08,0.39c0.013-2.541-0.301-0.685-0.358-2.793
		C66.728,50.992,66.726,51.155,66.709,51.383z"/>
	<path fill="#802F30" d="M67.129,49.222l-0.215-0.887l0.056-1.487c-0.074-0.016-0.135-1.101-0.2-0.367
		c0.012,0.145,0.033,0.428,0.026,0.657c-0.16-0.166-0.08-1.979-0.242-1.542c0.042,1.178,0.007,1.357,0.138,2.082
		c-0.015,1.078-0.053,1.863-0.111,2.368c0.024,0.319,0.123,0.364,0.144,0.771c-0.003-0.09-0.004-0.174-0.007-0.276l0.242-0.044
		c-0.051-0.339-0.027-0.661-0.032-1.037l0.282,1.742c0.227-0.563,0.094-2.272,0.188-2.957C67.193,49.094,67.296,47.57,67.129,49.222
		z"/>
	<path fill="#802F30" d="M66.724,50.817c0,0.012,0,0.029,0,0.043C66.724,50.847,66.724,50.829,66.724,50.817z"/>
	<path fill="#802F30" d="M5.684,26.292c0.004,0.371,0.062,0.479,0.09,0.533L5.77,22.657c-0.063,0.13-0.142,1.33-0.18,0.529
		c-0.07,0.358-0.01,1.447,0.076,1.604l-0.097-0.301c0.124,0.961-0.12,1.616-0.193,0.99l0.001,0.081l0.478,2.66
		C5.882,27.243,5.69,27.468,5.684,26.292z"/>
	<path fill="#802F30" d="M59.907,56.559c-0.54,0.022-0.605,0.046-0.544,0.069C59.557,56.609,59.741,56.589,59.907,56.559z"/>
	<path fill="#802F30" d="M5.966,28.841l0.149,0.834C6.076,29.341,6.022,29.048,5.966,28.841z"/>
	<path fill="#802F30" d="M3.693,23.068c-0.008-0.001-0.015-0.01-0.026,0.011l0.077,0.375c0-0.006,0-0.008,0-0.01
		C3.726,23.309,3.709,23.186,3.693,23.068z"/>
	<path fill="#802F30" d="M6.528,47.758c0.003,0.089,0.006,0.166,0.01,0.272C6.535,47.932,6.531,47.843,6.528,47.758z"/>
	<path fill="#802F30" d="M2.839,11.776l0.144,1.854c-0.068-0.248-0.048,0.647-0.127,0.256c0.011,0.142,0.038,0.804,0.072,0.624
		l-0.004-0.378c0.199,0.977,0.275,0.385,0.426,2.005c0.118-1.006,0.01-1.447-0.08-1.981c-0.01-0.183-0.019-0.332-0.027-0.484
		L2.965,12.13L2.839,11.776z"/>
	<path fill="#802F30" d="M34.082,57.685l-0.02,0.016C34.079,57.694,34.084,57.689,34.082,57.685z"/>
	<path fill="#802F30" d="M33.98,57.764l0.081-0.063C33.962,57.732,33.58,57.763,33.98,57.764z"/>
	<path fill="#802F30" d="M5.838,28.535c0.037,0.026,0.082,0.133,0.128,0.306L5.854,28.22C5.85,28.307,5.844,28.424,5.838,28.535z"/>
	<path fill="#802F30" d="M5.405,27.122L5.377,25.56l-0.103-0.576C5.311,25.584,5.353,26.269,5.405,27.122z"/>
	<path fill="#802F30" d="M6.645,45.291c0.03,3.234-0.233-0.794-0.29,0.691c0.027,0.897,0.138,1.215,0.173,1.775
		c-0.095-2.565,0.365,0.347,0.306-2.239c0.2,0.367,0.219,1.865,0.164,2.743c-0.193,0.993-0.141-0.868-0.331-1.094
		c0.031,1.038,0.066,0.855,0.174,1.297c-0.045,1.629,0.237,3.371-0.03,4.346c0.042,1.18,0.135,1.102,0.236,1.78
		c0.207,0.135,0.109-1.756,0.271-2.192c-0.018,0.09-0.052,0.268-0.082,0.216l0.043-1.02c-0.072,0.968-0.207-0.135-0.223-0.652
		c-0.004-0.376-0.014-1.125,0.044-1.021l0.044,0.569c0.065-0.733-0.15-1.618-0.039-2.393c0.046-0.04,0.068,0.252,0.097,0.297
		c-0.141-0.868-0.133-1.706-0.233-2.991l0.205,0.745C6.95,45.12,7.015,42.793,7.135,41.18c-0.035,0.18-0.059,0.502-0.099,0.308
		c-0.049-0.947,0.092-1.663,0.2-1.224c-0.17-0.926,0.143-3.527-0.078-4.789l-1.042-5.799c0.026,0.217,0.047,0.449,0.056,0.69
		c-0.18,0.526-0.158,0.81-0.328-0.113c0.095,0.907,0.24,0.561,0.248,1.922c-0.091-0.534-0.297-0.669-0.318,0.637
		c0.18,3.264,0.691,5.426,0.953,8.474c-0.139,0.112-0.1,2.505-0.132,3.668c-0.149-0.443-0.191-1.308-0.221-2.203
		c-0.005,0.563-0.014,1.53-0.02,2.249L6.645,45.291z"/>
	<path fill="#802F30" d="M6.178,37.713c-0.009,0.087-0.017,0.169-0.026,0.253C6.164,37.92,6.173,37.844,6.178,37.713z"/>
	<path fill="#802F30" d="M6.376,42.478c-0.005-0.011-0.009-0.007-0.015-0.011l0.011,0.283C6.374,42.654,6.375,42.546,6.376,42.478z"
		/>
	<path fill="#802F30" d="M5.525,29.3c-0.035-0.204-0.056-0.326-0.09-0.531c0.011,0.123,0.023,0.271,0.036,0.414
		C5.489,29.321,5.508,29.386,5.525,29.3z"/>
	<path fill="#802F30" d="M5.769,28.648l0.057,0.104c0.005-0.085,0.008-0.142,0.012-0.216C5.807,28.513,5.782,28.538,5.769,28.648z"
		/>
	<path fill="#802F30" d="M5.649,56.609l0.311-0.03C5.773,56.581,5.692,56.594,5.649,56.609z"/>
	<path fill="#802F30" d="M6.409,48.895c-0.014-1.125-0.207-0.135-0.208-1.727l-0.013,0.467c-0.088-1.142-0.048-3.147-0.055-4.504
		c0.083,0.152,0.1-0.823,0.229-0.664c-0.03-0.928-0.059-1.846-0.191-2.323c0.043-0.574-0.073-1.446-0.019-2.178
		c-0.077,0.308-0.262-1.04-0.167,0.737c-0.011-0.144-0.028-0.054-0.039-0.195c-0.108,1.146,0.075,1.604,0.078,2.591
		C5.947,41.688,5.9,40.135,5.87,40.69c0.071,1.231-0.092,3.865,0.195,3.784c0.021,0.896-0.043,1.02-0.096,1.287
		c0.306,1.418-0.131,5.262,0.26,5.248c-0.016-0.518-0.007-1.36-0.091-2.12L6.409,48.895z"/>
	<path fill="#802F30" d="M5.545,31.188c-0.001,0.07-0.003,0.161-0.004,0.22C5.542,31.344,5.543,31.263,5.545,31.188z"/>
	<path fill="#802F30" d="M6.68,16.996l0.256,0.471c0.062,2.678-0.011,3.646,0,5.988C6.9,23.633,6.878,23.35,6.867,23.206
		c0.029,1.646-0.024,4.11,0.093,5.307c-0.002,0.524-0.083,1.899-0.159,1.38c0.023,0.254,0.045,0.545,0.037,0.839
		c-0.092,0.077-0.026-0.657-0.102-0.673c-0.006,0.231-0.024,0.322,0.005,0.375c-0.079-0.392-0.312,0.405-0.306-1.417
		c0.215-0.707,0.025,1.265,0.262,0.848c0.001-0.605-0.09-0.536-0.119-0.587c0.005-0.77,0.065-0.75,0.119-0.709
		c-0.074-0.295,0.029-1.265-0.083-1.672c-0.018-1.499,0.178,0.081,0.175-0.898l-0.24-0.564l0.045-1.627
		C6.51,21.45,6.18,24.144,6.044,21.45c0.125,0.354,0.336-0.727,0.386-1.98c0.009,0.75,0.166,2.137,0.094,3.106
		c0.188-1.366,0.023,1.878,0.238,1.17c-0.102-0.675-0.116-1.801-0.061-2.677l0.022,0.287c0.025-0.932-0.226-1.639-0.13-2.926
		c-0.008-0.639,0.06-0.52,0.116-0.407C6.674,17.481,6.627,16.998,6.68,16.996z M6.73,18.389l-0.024,0.855
		C6.746,19.042,6.745,18.723,6.73,18.389z"/>
	<path fill="#802F30" d="M67.099,37.253c-0.007,0.086-0.014,0.182-0.02,0.26C67.09,37.455,67.095,37.357,67.099,37.253z"/>
	<path fill="#802F30" d="M23.294,2.81l0.495,0.008C23.594,2.814,23.438,2.812,23.294,2.81z"/>
	<path fill="#802F30" d="M34.419,2.016l0.725-0.056C34.858,1.963,34.634,1.986,34.419,2.016z"/>
	<path fill="#802F30" d="M67.114,31.343l0.002-0.024c-0.004-0.04-0.008-0.074-0.013-0.115L67.114,31.343z"/>
	<path fill="#802F30" d="M56.734,2.578c0.11,0.021,0.233,0.039,0.402,0.053C57.116,2.607,56.966,2.59,56.734,2.578z"/>
	<path fill="#802F30" d="M34.286,2.027c0.019,0.001,0.029,0.003,0.044,0.004l0.089-0.015L34.286,2.027z"/>
	<path fill="#802F30" d="M18.394,2.109c-0.106,0.008-0.202,0.015-0.317,0.023C18.226,2.128,18.318,2.119,18.394,2.109z"/>
	<path fill="#802F30" d="M19.092,2.79c-0.113,0.009-0.219,0.017-0.308,0.024L19.092,2.79z"/>
	<path fill="#802F30" d="M3.323,7.048l0.034,0.668C3.354,7.388,3.34,7.192,3.323,7.048z"/>
	<path fill="#802F30" d="M17.326,2.633c-0.037,0.012-0.073,0.023-0.104,0.033C17.314,2.658,17.359,2.644,17.326,2.633z"/>
	<path fill="#802F30" d="M66.382,41.493c0-0.015-0.001-0.031-0.001-0.04l-0.027-0.017L66.382,41.493z"/>
	<path fill="#802F30" d="M66.732,43.116c0.006,0.191,0.013,0.392,0.02,0.587C66.753,43.485,66.746,43.273,66.732,43.116z"/>
	<path fill="#802F30" d="M67.035,4.428C67,4.604,66.959,5.02,66.919,4.826C66.97,5.164,67.091,5.141,67.035,4.428z"/>
	<path fill="#802F30" d="M64.878,38.241c0.033,0.105,0.058,0.238,0.082,0.371C64.925,38.365,64.896,38.148,64.878,38.241z"/>
	<path fill="#802F30" d="M64.96,38.612c0.018,0.12,0.037,0.248,0.054,0.361C64.996,38.852,64.978,38.73,64.96,38.612z"/>
	<path fill="#802F30" d="M61.933,4.959c-0.045-0.017-0.112-0.03-0.204-0.035C61.755,4.957,61.829,4.964,61.933,4.959z"/>
	<path fill="#802F30" d="M66.713,44.176c0.058,0.105,0.183,2.656,0.211,0.511c0.179,0.084,0.083,1.375,0.127,1.947
		c0.042-0.414,0.114,0.207,0.178,0.081c-0.021-0.284-0.072-0.621-0.06-1.09c0.081-0.216,0.137,0.495,0.106,1.052
		c0.094-0.685,0.141,0.868,0.213-0.101c-0.063-2.069-0.127-3.532-0.388-4.988c0.043,1.179,0.096,2.5,0.024,3.468l-0.154-0.407
		c0.136-1.094,0.034-1.769,0.049-2.845l-0.082,2.417c-0.128,1.132-0.158,0.374-0.186-0.518C66.75,43.922,66.74,44.121,66.713,44.176
		z"/>
	<path fill="#802F30" d="M65.36,42.549l-0.004,0.04c0.005,0.035,0.009,0.079,0.015,0.102L65.36,42.549z"/>
	<path fill="#802F30" d="M6.443,6.926l0.059,0.208C6.476,6.961,6.458,6.907,6.443,6.926z"/>
	<path fill="#802F30" d="M66.107,41.106v0.002C66.105,41.093,66.105,41.088,66.107,41.106z"/>
	<path fill="#802F30" d="M7.238,5.456C7.231,5.459,7.225,5.464,7.211,5.469C7.229,5.464,7.229,5.459,7.238,5.456z"/>
	<path fill="#802F30" d="M8.62,2.131C8.61,2.124,8.606,2.117,8.584,2.109C8.474,2.119,8.528,2.125,8.62,2.131z"/>
	<path fill="#802F30" d="M7.243,5.441c0,0.004,0.003,0.009-0.004,0.014C7.243,5.45,7.252,5.446,7.243,5.441z"/>
	<path fill="#802F30" d="M32.357,4.875c0,0-0.079-0.027-0.205-0.052C32.105,4.837,32.153,4.854,32.357,4.875z"/>
	<path fill="#802F30" d="M27.399,4.647c-0.031-0.006-0.052-0.01-0.09-0.017L27.399,4.647z"/>
	<path fill="#802F30" d="M65.255,2.27c-0.245,0.003-0.429,0.006-0.585,0.008C64.85,2.282,65.043,2.282,65.255,2.27z"/>
	<path fill="#802F30" d="M7.211,5.469C7.16,5.485,7.085,5.502,6.964,5.523C7.099,5.501,7.168,5.483,7.211,5.469z"/>
	<path fill="#802F30" d="M39.916,4.096c-0.053,0.006-0.103,0.011-0.151,0.017l0.09,0.007L39.916,4.096z"/>
	<path fill="#802F30" d="M42.503,4.209c-0.087,0.018-0.128,0.036-0.178,0.052c0.923-0.064,2.62,0.005,2.82-0.159
		c-0.313,0.004-1.938-0.092-1.661-0.188c-0.644,0.041-1.596-0.074-1.942-0.047c1.059,0.09,0.115,0.139-0.599,0.193
		c-0.647-0.047,0.122-0.131-0.437-0.162l-1.501,0.018l1.308,0.022l-0.397,0.158c0.049-0.005,0.082-0.009,0.134-0.015
		C42.263,4.007,40.237,4.312,42.503,4.209z"/>
	<path fill="#802F30" d="M42.325,4.261c-0.14,0.01-0.261,0.022-0.355,0.039C42.18,4.297,42.261,4.281,42.325,4.261z"/>
	<path fill="#802F30" d="M51.364,4.521c0.111-0.007,0.234-0.015,0.392-0.025C51.681,4.501,51.513,4.512,51.364,4.521z"/>
	<path fill="#802F30" d="M5.3,23.874c0.047-0.038,0.142-1.328,0.021-1.304c-0.013,0.382-0.025,0.769-0.038,1.156L5.3,23.874z"/>
	<path fill="#802F30" d="M66.184,13.986l0.003-0.432c-0.007-0.029-0.013-0.059-0.019-0.083
		C66.15,13.559,66.172,13.842,66.184,13.986z"/>
	<path fill="#802F30" d="M43.883,3.857c-0.236,0.019-0.342,0.038-0.398,0.057C43.638,3.905,43.779,3.889,43.883,3.857z"/>
	<path fill="#802F30" d="M65.896,14.067c-0.035,0.183-0.088,0.453-0.134,0.491c-0.001,0.374,0.063,0.637,0.085,1.017
		C65.829,15.145,65.842,14.647,65.896,14.067z"/>
	<path fill="#802F30" d="M65.849,15.606l-0.002-0.032L65.849,15.606z"/>
	<path fill="#802F30" d="M5.249,24.642c0.008,0.111,0.017,0.226,0.025,0.342l-0.033-0.178l-0.037,0.887
		c0.006,0.108,0.012,0.224,0.019,0.364c-0.004-0.056-0.017-0.101-0.03-0.128L5.18,26.212c0.125,0.707,0.217,2.463,0.291,2.971
		c0.054,0.67,0.084,1.491,0.074,2.005c0.003-0.477-0.022-1.109-0.092-0.92c-0.073,0.97-0.281,1.441-0.102,3.113l-0.003-0.981
		l0.27,2.206c-0.112,0.771-0.135-1.101-0.231-1.407c0.133,1.715-0.222,3.143,0.011,3.937c-0.139,0.112-0.369,0.3-0.355,1.425
		c0.158-0.811,0.101,0.675,0.27,0.009c0.079,0.39-0.05,1.256,0.054,1.321l-0.057-0.105c-0.219,1.922,0.125,2.55,0.237,3.372
		c0.057,2.302-0.033,3.357-0.009,5.234c-0.093,0.074-0.348,0.585-0.338,1.337c0.125,0.351,0.184,2.048,0.344,2.221
		c0.067-1.346-0.135-1.101-0.172-1.906c0.168-0.671,0.167-0.061,0.268-0.977c-0.065,0.739,0.088,3.34-0.07,4.15L5.545,52.93
		c-0.096,1.292-0.493,1.539-0.253,3.693C5.304,56.749,5.316,56.874,5.316,57C5.211,56.891,5.105,56.781,5,56.676l0.649-0.066
		c-0.049,0.016-0.054,0.035-0.081,0.049c1.681,0.017,1.222,0.2,3.079,0.056c-0.143,0.011-0.053,0.029-0.198,0.04
		c1.058,0.09,2.125-0.092,2.926-0.13c0.488,0.135-0.117,0.133-0.418,0.229c1.861,0.052,3.871-0.179,5.028-0.342l1.2,0.079
		c-0.711,0.055-1.583,0.196-1.364,0.277c0.66-0.026,0.531-0.09,1.465-0.064c-0.16,0.086-0.551,0.166-0.99,0.273
		c1.931,0.144,0.432-0.304,1.782-0.041c0.608,0.002,0.959-0.123,1.026-0.227l1.099,0.135c0.121-0.132,1.479-0.139,2.368-0.159
		c0.108-0.057-0.716-0.141-1.054-0.089c0.068-0.104,1.013-0.152,1.621-0.15c0.223,0.276,3.984-0.04,3.264,0.285
		c2.732-0.09,6.572-0.118,8.375-0.232c0.594,0.076,1.807,0.08,1.08,0.21c2.199,0.001,3.333-0.283,5.516-0.208
		c0.182,0.035-0.985,0.003-0.909,0.096c1.427-0.111,2.598,0.116,4.811,0.043c-0.372,0.005-0.48,0.062-0.532,0.091
		c-0.039-0.046,0.907-0.096,1.479-0.14c0.322,0.023-0.427,0.033-0.247,0.068c4.276,0.134,7.535-0.242,11.789-0.229
		c-1.216-0.004-1.675,0.18-1.688,0.255l1.189,0.003c0.46-0.091,1.353-0.091,2.101-0.159c0.092,0.034,0.454,0.071,0.084,0.114
		c2.351,0.186,3.672-0.334,6.553-0.239l-3.488,0.369l0.863,0.129l-1.534,0.168c0.916,0.102,1.713-0.133,1.823,0.006
		c-0.193,0.039-0.659,0.027-0.676,0.102c0.881,0.055,0.95-0.049,1.61-0.076c-1.741,0.283-5.157,0.278-6.996,0.348
		c-0.288,0.022,0.248-0.068,0.3-0.097c-0.75,0.009-1.199-0.079-2.145-0.03c-0.586,0.12,0.447,0.088,0.913,0.101
		c-0.065,0.104-0.299,0.098-0.816,0.113c-0.113-0.139-2.845-0.049-3.514-0.218c-2.769,0.043,0.443,0.358-2.26,0.298l-0.808-0.158
		c-1.568,0.122-3.599,0.23-5.375,0.197l0.375-0.006c0.249-0.067-0.163-0.109-0.346-0.144c-1.341-0.068-2.548,0.124-3.359-0.034
		c-1.531,0.169-4.083,0.293-5.832,0.38c-0.473-0.209,2.282-0.177,3.011-0.308l-1.593,0.001c0.983-0.003,1.373-0.082,1.963-0.201
		c-1.396-0.039-1.854,0.145-3.178,0.197c0.104-0.057-0.074-0.092-0.684-0.094l-0.173,0.139c-0.011-0.011-0.079-0.021-0.268-0.03
		l-2.354,0.085c0.5,0.059,0.524,0.18,1.132,0.181c-0.217-0.08,0.299-0.097,0.907-0.095c-0.533,0.091,0.594,0.077,0.581,0.151
		c-1.22-0.004-2.719,0.016-3.52,0.053L30.3,57.902c-1.164-0.032-2.392,0.038-3.18,0.001l0.248-0.067
		c-1.396-0.039-2.769,0.043-4.009-0.081c-1.245,0.146-2.811,0.267-3.828,0.42c-0.544,0.164-3.653-0.207-5.055,0.024
		c-0.095-0.018,0.963-0.124,1.442-0.186c-0.934-0.025-1.677,0.179-1.969,0.006c2.095,0.058-0.112-0.139,0.832-0.188
		c-0.98,0.003-2.016,0.034-2.496,0.096c1.588-0.001-0.563,0.24,1.043,0.164c-1.245,0.146-2.944,0.205-4.428,0.148
		c0.015-0.075-0.167-0.11-0.721-0.142l-0.446,0.109c-0.695-0.021,1.341-0.129-0.056-0.168C6.984,58.13,5.952,58.108,5,58.102
		l-1.11-0.009L3.899,57c0.008-1.024,0-1.957-0.178-2.283c0.136-1.096,0.138,2.086,0.303,0.435C4.1,55.736,4.077,56.457,4.086,57
		l0.016,0.929L5,57.914c0.353-0.006,0.631-0.025,0.755-0.093c-0.8,0.042-0.491-0.092-0.755-0.134l-0.792-0.127L4.313,57
		c0.007-0.041,0.012-0.104,0.012-0.197l-0.105-1.051l-0.007,0.233c-0.162-1.764-0.084-4.557-0.111-6.808
		c-0.173-1.906-0.422-3.22-0.403-5.507c0.101,0.675,0.097-1.899,0.283-0.459c0.089-1.059-0.017-2.104-0.092-2.125
		c-0.025,0.932-0.024,0.329-0.061,1.112c-0.091-0.529-0.086-1.749-0.027-2.251c-0.007,0.231,0.011,0.144,0.039,0.195
		c0.061-1.111-0.09-0.533-0.128-1.337c0.127-0.254,0.034-1.773,0.1-2.507l-0.181-1.064c0.119,0.585,0.043-1.02,0.153-1.188
		c-0.084-0.763-0.231-1.403-0.199-2.564c0.063,0.479,0.09-1.06,0.21-1.08c0.116-1.99-0.329-3.295-0.156-5.179
		c0.028,0.059,0.108,0.439,0.138-0.113c-0.034-0.434-0.02-1.192-0.033-1.657l0.003,0.015l-0.003-0.025
		c-0.006-0.228-0.022-0.369-0.051-0.376c-0.118-0.794-0.239-1.204-0.34-2.767c-0.138,0.115-0.084,1.435-0.04,2.006l0.137,0.494
		c-0.208,0.472,0.036,1.41-0.034,1.77c-0.245-0.938-0.185-3.639-0.335-5.26c-0.193,0.988-0.223,3.138-0.2,5.012l0.083-0.826
		l0.002,0.981l0.147-0.95c-0.025,0.93,0.012,1.733,0.003,2.573c-0.002-0.984,0.188-1.366,0.158-0.811
		c-0.136,1.096,0.088,1.144,0.08,1.98c0.013-0.466,0.015-1.073,0.094-0.682c-0.166,1.652-0.058,2.098-0.235,3.601
		c0.23-0.187,0.023,1.876,0.212,2.102l0.02-0.698l0.139,1.479c-0.188,1.363-0.192-1.209-0.325,0.868
		c-0.023,1.915,0.219,1.866,0.237,3.371c-0.137-0.495-0.254-1.689-0.25-2.905l-0.066,0.736c-0.079-0.39-0.063-2.07-0.054-2.91
		c0.157,1.387,0.048-0.648,0.17-1.278c-0.132-0.117-0.111,0.774-0.217-0.277c0.002,0.984,0.014,1.127-0.036,2.381
		c0.06-2.708-0.459-2.436-0.348-4.799c0.06,1.089,0.191-0.38,0.255-0.511c-0.016-0.513-0.047-1.553-0.081-1.98l-0.191,0.387
		c-0.083-1.376,0.322-1.854,0.125-3.443c-0.114-0.208-0.039,1.397-0.061,1.112c-0.12-2.174,0.187-2.958,0.331-4.889
		c-0.057-0.108-0.178-0.085-0.279-0.761c0.115,0.211,0.173-0.288,0.257,0.472c0.049-0.645-0.035-1.41-0.08-1.979
		c-0.067,1.344-0.165-0.549-0.233-0.797c0.02-0.696,0.115,0.212,0.148,0.639c0.03-0.558,0.199-1.222,0.028-1.539
		c0.12-0.023,0.317,1.562,0.349,2.597l0.02-0.698c0.062,0.481,0.044,0.572,0.025,1.265c0.094-0.68,0.197-0.612,0.283-0.455
		c-0.018,0.09-0.029-0.049-0.046,0.036c-0.031,0.558,0.002,0.986,0.066,0.857c0.162,0.502,0.102-0.774,0.182-1.152
		c-0.011-0.286-0.021-0.571-0.032-0.853l-0.521-2.899c-0.061-1.24,0.064-1.796,0.143-2.728l-0.14-0.254
		C3.259,9.612,3.304,8.595,3.48,9.286C3.434,9.324,3.444,9.466,3.438,9.7C3.457,9.731,3.47,9.785,3.481,9.853l0.024,0.054
		C3.458,8.753,3.429,8.034,3.426,7.964c0.202,1.96,0.252,0.099,0.499,0.427l-0.08-1.979c-0.078,1.2-0.121,0.021-0.154-0.405
		C3.813,5.903,3.72,4.749,3.708,4l-0.02-1.295L5,2.708c0.104,0,0.198,0,0.282,0L5.23,2.738c0.644,0.048,1.771,0.035,2.573-0.003
		c-0.036-0.046,0.993-0.273,1.485-0.41C7.914,2.272,8.73,2.217,8.62,2.131C8.762,2.139,9.019,2.14,9.048,2.123
		C9.245,2.083,8.78,2.07,8.742,2.024C7.279,2.089,5.775,2.107,5.179,2.301c0.448,0.088,0.766-0.084,1.267-0.025
		C6.036,2.349,5.56,2.373,5,2.379L3.382,2.396L3.379,4c0,0.425-0.001,0.9-0.002,1.428L3.26,5.826l0.063,1.222
		C3.262,6.539,3.14,6.846,3.117,5.563C3.007,5.728,3.142,6.834,3.105,7.62l0.154,0.403C3.173,7.868,3.157,9.549,3.04,8.354
		L2.913,6.412l-0.105,0.54L2.778,5.309l0.08,0.387C2.806,4.41,2.877,4.192,2.943,4l0.85-2.47L5,1.943
		c0.203,0.069,0.377,0.133,1.739,0.04c0.833-0.187,1.726-0.207,3.354-0.162c-1.178,0.042-0.121,0.132-0.564,0.24
		c1.202,0.078,1.607-0.076,2.23-0.149c0.306,0.099,0.524,0.18-0.549,0.165c-0.135,0.207,1.411-0.036,1.51,0.177
		c3.556-0.006,2.85-0.688,7.006-0.421l-0.155,0.085c2.64-0.106,4.164-0.004,6.608-0.072l1.924,0.218
		c-0.43,0.034-1.587,0.197-1.047,0.302c-0.936-0.221-1.931-0.144-2.939-0.262c-0.104,0.057,0.308,0.099,0.486,0.134
		c-0.607-0.002-0.914-0.101-1.717-0.063c0.039,0.045,0.916,0.1,0.254,0.127l-1.094-0.136c-1.463,0.064-0.72,0.325-2.439,0.263
		c0.319-0.121,0.972-0.296,1.638-0.326c-0.785-0.026,1.046-0.073,0.33-0.146c-1.131,0.18-1.678,0.038-3.182,0.15
		c0.177-0.025,0.224-0.061,0.593-0.072l-2.183-0.076c0.541,0.105-1.803,0.116-1.6,0.272c2.327,0.065,1.643-0.03,4.294,0.059
		c-0.75,0.035-1.717,0.194-2.172,0.34c-0.022-0.006-0.061-0.011-0.142-0.014c-0.405,0.154,0.007,0.196,0,0.466
		c1.21-0.192,2.019-0.034,3.446-0.145c0.269-0.148-0.828-0.188-1.537-0.15l1.258-0.098L20.103,2.76l3.191,0.05
		c-0.605,0.008-0.811,0.094-1.125,0.159c0.412,0.006,0.819,0.045,1.253,0.087c-0.092-0.141-0.034-0.241,0.367-0.238
		c2.055,0.034,3.196,0.16,3.954,0.321c0.079-0.003,0.167-0.007,0.239-0.01c-0.344-0.145,1.458-0.26,2.095-0.408
		c-0.032,0.15,1.058,0.09,1.65,0.167c0.315-0.172-0.106-0.409-0.826-0.549c-1.389,0.156-0.779,0.158-1.434,0.381L27.24,2.868
		l0.497-0.137c-1.112-0.06-2.178,0.121-2.098-0.058c0.588-0.119,1.558-0.046,2.141-0.166l-0.736-0.065
		c1.298-0.175,0.666,0.168,2.237,0.046c-0.578-0.151,0.142-0.011,0.815-0.112c-0.54-0.105-2.766,0.043-2.293-0.214
		c0.817-0.112,2.748,0.302,3.828,0.046l-0.052,0.029c1.594,0.033,2.154-0.114,2.751-0.206c0.679,0.083,1.615-0.034,2.351-0.043
		l-0.018,0.075L37.7,2.031c-0.494,0.137-1.215-0.004-2.106,0.016l0.11,0.139c-1.027-0.165-1.712,0.086-2.509,0.206
		c1.159-0.121,3.275,0.034,3.547-0.238l0.718,0.141l0.342-0.051c0.536,0.105-0.011,0.271-1.047,0.302
		c-0.18-0.035-0.27-0.052-0.216-0.082c-0.481,0.062-0.923,0.17-2.086,0.138l0.622-0.074c-1.45-0.01-2.769,0.044-3.264,0.181
		c2.092,0.058,4.15,0.07,6.115,0.064c0.578-0.314,1.267-0.491,1.562-0.783c1.319-0.054,3.108-0.094,4.254,0.013l-0.105,0.058
		c0.558,0.03,1.073,0.014,1.503-0.02c0.59,0.077-0.405,0.155,0.007,0.196l1.889-0.098c-0.117,0.132-1.706,0.133-2.46,0.142
		c0.142-0.011,0.43-0.033,0.337-0.051c-0.877-0.054-2.513,0.171-2.896-0.021c-0.428,0.033,0.869-0.141-0.578-0.151
		c-0.97-0.072-1.285,0.099-1.387,0.157c-0.016,0.075,1.521,0.103,0.988,0.193c0.754-0.01,1.055-0.106,2.019-0.034
		c-0.747,0.009-1.762,0.161-2.16,0.045c-1.479,0.14-1.268,0.491-0.569,0.51c-0.167-0.11,2.696-0.136,0.759-0.279
		c0.87-0.142,2.462-0.143,3.601-0.231l-0.052,0.028l1.414-0.036c-0.199,0.039-0.626,0.073-0.64,0.147l1.958-0.201
		c-1.103,0.135,0.684,0.094,1.186,0.153c0.21-0.114,0.975-0.198,0.241-0.264c-0.826-0.083-0.48,0.062-1.231,0.071l1.063-0.181
		l0.093,0.018l0.639-0.147c1.447,0.01-0.633,0.343,1.223,0.199l-0.241-0.201c2.147,0.029,4.906,0.256,6.423,0.163
		c-0.418,0.115-0.603,0.299-0.026,0.408c-0.655-0.035-1.97-0.027-2.908-0.008c-0.181-0.036,1.173-0.238,2.192-0.195
		c-0.495-0.33-2.565,0.199-2.686-0.135c-2.597-0.117-1.938,0.322-4.143,0.126c-0.029,0.149-0.626,0.073-0.743,0.205
		c0.652,0.244,2.948-0.008,4.38,0.077c-0.141,0.011-0.423,0.033-0.478,0.062c1.022,0.043,1.445,0.01,2.16-0.045l-0.091-0.018
		c1.248-0.146,0.773,0.111,1.507,0.177c0.286-0.022,1.308,0.021,1.144-0.088l1.33,0.142L58.335,2.71
		c0.751-0.01,0.915,0.101,1.595-0.001l0.032-0.15l-1.864-0.052c0.945-0.048,0.264-0.143,1.301-0.174
		c-1.158,0.163,0.822,0.083,0.936,0.221l0.764-0.084l-0.195,0.04c0.599,0.077,0.713-0.056,1.413-0.036
		c-0.826-0.083-1.366-0.188-2.417-0.082c0.766-0.084,2.283-0.177,2.656-0.182c0.803-0.063,1.363,0.051,2.115,0.068
		c-1.442,0.06,0.506,0.453-2.386,0.346c0.054-0.029,0.288-0.022,0.378-0.005c-0.385-0.19-1.732,0.012-2.358,0.085
		c0.161,0.11-0.495,0.137,0.616,0.198c-0.364-0.07,0.937-0.245,1.994-0.155l-0.187,0.235l1.539,0.028l-0.144,0.011
		C64.55,3.133,65.24,3.063,66,3.056l0.935-0.01L66.944,4c0.003,0.27-0.002,0.548-0.025,0.826c0.084,0.766,0.018,3.7,0.264,2.438
		c-0.147,0.952,0.04,1.787,0.071,2.825l0.096-1.294c0.169,1.53,0.061,1.089,0.327,2.313c-0.063,0.124-0.117,0.396-0.185,0.148
		c-0.012,2.055-0.078,4.99,0.114,6.196c-0.011,1.449-0.287,1.676-0.179,3.709c0.033,0.427,0.22-0.333,0.152,1.013
		c-0.018,0.09-0.175-1.296-0.156,0.203c0.181,1.067-0.1,2.507,0.058,3.896c-0.065,0.734-0.041,2.005-0.184,1.74
		c0.032-1.161,0.002-2.804-0.066-3.054c0.086,0.16,0.084-0.826,0.15,0.029c0.107-1.755-0.089-1.139-0.015-2.714
		c-0.058-0.108-0.159,0.81-0.107,1.147c-0.195,0.007-0.095-3.105-0.329-1.706c-0.017,1.683,0.391,2.183,0.186,3.641
		c-0.119-0.585-0.019-1.499-0.224-2.241l-0.079,1.197l0.142,0.871l-0.028-0.052c-0.18,2.116,0.2,1.958,0.299,3.851
		c0.136-1.096,0.339,0.254,0.422-0.572c0.024,1.267-0.001,2.197-0.196,2.206c-0.16-2.37-0.207-0.135-0.402-2.325
		c-0.07,0.36-0.286-0.522-0.308,0.783c0.14,1.472,0.163-0.439,0.228,1.027c-0.018,0.087-0.035,0.177-0.063,0.125
		c0.102,0.675-0.037,0.788,0.075,1.604l-0.039-0.193c-0.118,1.006,0.135,1.101,0.005,1.967c0.146-0.347,0.119,0.582,0.21,1.119
		c0.055-0.878,0.263-1.353,0.251-3.086c-0.114-0.209-0.178-0.083-0.233-0.794l0.014,1.125c-0.025-0.235-0.047-0.43-0.071-0.65
		l0.06-1.083c0.082,1.373,0.205,0.743,0.324,1.326c-0.051,1.256,0.031,1.036-0.006,1.825c-0.169-0.079-0.288,2.421-0.396,3.866
		c0.002-0.226,0.005-0.514,0.006-0.671c-0.106-1.05-0.141,0.723-0.187,0.761l0.084,0.766c-0.012-0.145-0.051-0.342-0.074-0.016
		c0.031,1.035,0.198,0.975,0.229,2.01c-0.093,0.076-0.233-0.797-0.282-0.154c-0.081,0.222-0.296,0.929-0.214,2.301
		c0.036,0.099,0.056,0.455,0.071,0.867c-0.006-0.057-0.009-0.129-0.016-0.155l-0.102,0.913c-0.158-0.778,0.075-1.573-0.084-2.354
		l-0.15-0.067c0-0.608-0.065-1.435-0.144-1.814c-0.025,0.927,0.015,1.123,0.046,2.16c-0.096,0.145-0.166-0.585-0.176-0.69
		l0.085,0.155c0.125-1.238-0.144-1.85-0.115-3.39c0.006-0.231,0.017-0.09,0.045-0.038c-0.146-1.247,0.054-2.469-0.138-3.68
		l0.079,0.394c-0.071-0.815-0.214-2.436-0.355-4.049l-0.058-0.012c-0.036,0.179-0.033-0.427-0.01-0.75l0.001,0.002
		c-0.068-0.812-0.134-1.588-0.187-2.22c-0.036,0.204-0.066,0.462-0.075,0.762c0.068,0.252,0.013,1.733,0.169,1.531
		c-0.095,0.684,0.04,1.786-0.019,2.289c0.101-0.916,0.147,0.637,0.233,0.797c-0.099,0.308,0.007,1.356-0.125,1.237
		c-0.034,0.18,0.088-0.45,0.008-0.84c-0.123-0.958-0.108,1.756-0.226,0.561c0.093,1.52,0.053,3.522,0.175,5.089l0.055-0.878
		c-0.02,0.698,0.01,2.346-0.055,2.47c-0.012-0.52-0.025-1.119-0.04-1.785c-0.149-0.031,0.001,1.591-0.092,1.665l0.248,1.923
		l0.008-0.842c0.091,0.531-0.019,2.291-0.04,3.596c-0.204-0.748-0.005-1.969-0.087-3.342c-0.077-0.997-0.197,0.617-0.246-0.328
		c-0.048,0.245-0.042,0.861,0.01,1.165l-0.038,0.372c-0.186-0.842-0.145-2.73-0.305-3.987c0.021,0.11,0.041,0.206,0.063,0.242
		c0.071-0.968,0.069-1.951,0.02-2.895c-0.059,0.498-0.019,0.695,0.003,0.981c-0.046,0.036-0.065-0.855-0.117-1.193
		c-0.054,0.878-0.109,0.165-0.141,0.721c-0.044-0.572-0.031-1.035-0.011-1.732c0.069-0.361,0.096,0.299,0.188,0.226
		c-0.056-0.717,0.164-1.046,0.059-2.096c-0.039,1.396-0.2-0.368-0.263-0.85l-0.006,0.234c-0.108-0.442-0.113-0.818-0.014-1.124
		c0.044,0.571,0.014,1.124,0.123,0.962c-0.005-0.378-0.01-0.754-0.043-1.182l0.079,0.39l-0.022-1.877
		c-0.097-0.297-0.233-0.793-0.376-1.053c0.087-0.45,0.015-1.077-0.02-1.503l0.04,0.198c0.083-0.828,0.014-2.669-0.071-2.825
		c0.076-0.592,0.545,4.18,0.466,0c-0.001-1.589-0.273-0.99-0.368-1.897c0,0,0.027,0.052,0.046-0.038
		c0.02-0.695-0.084-0.765-0.128-1.337c-0.042,0.417-0.044,1.022-0.004,1.215c-0.114-0.209,0.01-1.447-0.08-1.98
		c0.176,0.691,0.067-1.344,0.157-0.808c0.113-1.382-0.025-2.86-0.155-3.587c0.221-0.938-0.029-1.645,0.072-3.169
		c-0.006,0.234,0.026,0.66,0.003,0.986c0.141,0.869,0.073-1.578,0.202-0.241c-0.022-0.286-0.074-0.021-0.053,0.272
		c0.016,0.513,0.078,0.995,0.142,0.866l0.124-1.241l0.034,0.433l0.172-1.884c-0.028-0.052-0.063,0.126-0.081,0.216
		c0.075-2.186-0.021-4.684,0.003-6.597C64.905,5.668,64.845,4.937,64.814,4C65.198,4.384,65.6,4.785,66,5.186
		c-1.49,0.048-3.501,0.02-4.452,0.169c0.414-0.113,0.642-0.313,0.385-0.396c0.345-0.017,1.052-0.177,1.832-0.144
		c0.126,0.063,1.092,0.136,0.471,0.208c2.161-0.045-0.293-0.174,0.345-0.321c-2.395,0.039-3.8,0.271-5.312,0.364L59.23,5.02
		l-1.142,0.088c0.932,0.026,0.887,0.251-0.316,0.172l0.146-0.011c-0.686-0.094-2.112,0.017-3.184,0.002l-0.727,0.13
		C52.935,5.386,52.89,5.145,52.541,5c-1.683-0.017-2.653,0.181-3.849,0.299c-0.54-0.105-3.059-0.13-1.724-0.258
		c-1.517,0.093-1.211,0.658-3.813,0.345l0.675-0.102c-2.486,0.021-6.035,0.224-7.182,0.117c0.918-0.366-3.106-0.372-3.549-0.73
		c0.124,0.082-0.81,0.109-0.947,0.153c-0.205-0.042-0.545-0.083-0.907-0.009c0.97,0.071-0.682,0.372,1.173,0.227
		c-0.938,0.246-2.147,0.438-4.204,0.425l0.031-0.149l1.627,0.045c-0.165-0.11,0.673-0.102,1.015-0.153
		c-3.025-0.084,0.396-0.35-2.696-0.331c-0.299,0.097-0.105,0.057-0.909,0.095c0.378-0.005,0.446-0.108-0.164-0.11l-0.585,0.12
		c-1.08-0.25,1.79-0.163,0.867-0.337c1.195-0.117,3.263-0.18,2.878-0.371c-1.951-0.07-1.755,0.357-3.794,0.271l-0.217-0.081
		c-0.717,0.055-0.834,0.187-1.226,0.266c-0.036-0.047-0.218-0.081-0.68-0.094c-1.21,0.192-2.014,0.229-3.133,0.439
		c2.976-0.157,2.543,0.146,5.613,0.006c-0.482,0.062-2.642,0.107-2.775,0.313l0.029-0.149c-1,0.078-1.997,0.155-3.25,0.105
		l0.765-0.084c-1.661,0.104-2.762-0.227-4.074,0.022c0.464,0.013,0.839,0.009,1.125-0.014c-0.855,0.067-1.929,0.052-2.858,0.027
		l-1.922,0.247c0.016-0.074-1.202-0.079-0.615-0.197c-1.384-0.114-2.037,0.109-2.838,0.146c-1.418-0.159,1.229-0.071,1.368-0.277
		C9.844,5.152,7.774,5.214,6.671,5.349c0.398,0.03,0.592,0.056,0.572,0.093C7.184,5.394,6.396,5.406,5.958,5.405L5.656,5.502
		C4.925,5.437,5.028,5.379,5.649,5.306C5.443,5.3,5.225,5.313,5,5.33C5.437,4.893,5.883,4.446,6.33,4
		c0.04,0.532,0.103,1.094,0.004,1.602C6.284,5.095,6.274,4.529,6.273,4C5.843,4.43,5.413,4.86,5,5.273
		c0.721-0.001,1.376,0.015,1.734-0.027C5.978,5.275,5.449,5.259,5,5.227C5.427,4.8,5.827,4.4,6.227,4
		C6.151,5.059,5.987,5.734,6.073,7.935C6.027,7.975,5.937,7.44,5.935,8.048c0.036,1.411,0.2,0.369,0.308,0.81
		c-0.06-1.087-0.001-1.591,0.122-2.221l0.079,0.289C6.403,6.97,6.4,7.652,6.361,7.852l0.161,0.175
		C6.344,7.946,6.208,9.038,6.275,9.896C6.404,9.029,6.397,9.263,6.6,9.027c0.192,1.206-0.188,1.361,0.015,2.712
		c-0.057-0.101-0.1-1.281-0.144-0.261c-0.007,0.844,0.131,0.731,0.175,1.298c-0.148-0.638-0.258-0.474-0.434-1.165
		c-0.019-1.499,0.002-0.605-0.063-2.07l-0.125,1.24C6,9.511,5.854,9.857,5.797,9.751c-0.15,2.169,0.226,1.636,0.187,3.032
		c0.102,0.673,0.021-1.308,0.128-0.254c-0.022,1.305,0.097,0.297,0.161,1.762l-0.068-0.245c-0.088,0.448,0.021,0.891,0.035,1.409
		c0.045,0.569,0.515-0.646,0.525,1.698c-0.041-0.115-0.067-0.157-0.085-0.157l-1.244-2.287c0.003,2.375-0.032,5.111-0.115,7.86
		c-0.243,0.647-0.201-1.962-0.31-1.795l0.05-1.253c0.103,0.07,0.032,2.627,0.214,1.495c-0.074-2.215,0.044-3.219-0.168-5.321
		c-0.244,0.653,0.043,2.769-0.145,4.134c0.016-0.574-0.011-1.058-0.046-1.528c-0.032,1.283-0.066,2.655-0.103,4.116l0.059,0.329
		c0.032-0.983,0.054-1.661,0.057-1.753c-0.021,1.306,0.114,2.406,0.292,2.492l0.006-0.232l0.056,0.473L5.249,24.642z M57.227,56.794
		c-0.078,0.017-0.142,0.037-0.187,0.062C57.088,56.83,57.033,56.813,57.227,56.794z M9.912,3.65C8.26,3.619,6.589,3.587,5,3.557
		L4.563,3.549L4.557,4C4.556,4.09,4.555,4.173,4.554,4.255C4.564,4.168,4.574,4.083,4.584,4l0.055-0.458L5,3.584
		c2.847,0.334,4.697,0.583,0,0.583C5.045,4.122,5.106,4.061,5.167,4c0,0.042,0,0.097,0,0.152l0.025,0.331
		C5.198,4.343,5.206,4.184,5.214,4C5.148,4.066,5.082,4.132,5,4.214c0.65,0.022,1.535,0.021,2.38,0.001
		c0.422-0.067,1.334-0.214,2.146-0.344c0.396-0.07,0.769-0.135,1.044-0.184c0.271-0.051,0.439-0.087,0.431-0.097
		c-0.306-0.099-0.752,0.009-1.308-0.021L9.912,3.65z M11.15,4.241c0.986,0.039,0.761-0.039,0.914-0.109
		c-0.347,0.009-0.693,0.018-1.035,0.026C11.159,4.176,11.224,4.201,11.15,4.241z M12.005,4.062c-0.11-0.002-0.205-0.005-0.254-0.015
		L12.005,4.062z M4.972,16.179c-0.002-0.045-0.003-0.061-0.004-0.101c-0.005,0.232-0.011,0.466-0.016,0.709
		C4.962,16.692,4.971,16.512,4.972,16.179z M5.145,14.176l-0.129-0.234c-0.005,0.218-0.01,0.438-0.015,0.666
		C5.059,14.534,5.11,14.455,5.145,14.176z M5.568,7.742c-0.155-0.405-0.162-1.765-0.34-1.848c-0.046-0.085-0.063,0.2-0.078,0.52
		C5.146,6.771,5.14,7.154,5.135,7.56c0.026,0.013,0.05,0.094,0.073,0.229C5.23,7.388,5.275,7.121,5.384,7.283
		c-0.239,1.028,0.17,0.922,0.109,2.034C5.619,9.67,5.618,8.079,5.568,7.742z M65.896,24.722c-0.015,0.031-0.055,0.139-0.104,0.292
		l-0.089-0.783c0.039-1.398,0.295-2.516,0.075-3.774c0.055-0.587,0.172-0.902,0.269-1.204c-0.012,0.286-0.022,0.554-0.031,0.782
		C66.339,23.56,65.675,21.872,65.896,24.722z M66.211,8.659c0.011,0.144,0.04,0.196,0.04,0.196C66.058,7.01,65.945,5.357,65.889,4
		C65.93,4.041,65.965,4.076,66,4.111c-0.995,0.039-1.832,0.052-2.521,0.047C63.801,4.286,65.275,4.386,66,4.44
		C65.824,4.264,65.65,4.09,65.561,4c-0.001,0.013-0.002,0.023-0.003,0.033C65.556,4.022,65.553,4.011,65.553,4L66,4.449L65.396,4.59
		l-0.396-0.116l-1.104,0.135c0.309,0.099,1.2,0.078,1.794,0.155c0.012-0.007,0.121-0.021,0.309-0.04
		C65.803,4.526,65.607,4.331,65.276,4c0.063,0.546,0.182,1.772,0.252,2.183l0.103-1.524c-0.042,0.412-0.008,2.433,0.03,3.234
		c0.074,0.016,0.188-1.366,0.027-1.54c0.11-0.164,0.111,1.427,0.229,0.421c0.117,1.193,0.02,3.09-0.035,3.971l-0.185,0.15
		c-0.072,0.965,0.223,0.652,0.115,1.8c-0.036-1.411-0.202,0.239-0.217-0.884c-0.069,0.358-0.194,0.007-0.182,1.132
		c0.245,0.937-0.153,1.186,0.063,2.071c-0.076,0.592-0.147-0.637-0.181,0.526c0.129,1.335,0.221,1.258,0.399,1.341
		c0.05-1.249-0.232-1.402-0.188-2.424l0.305,2.03c0.043-0.374,0.048-0.65,0.035-0.882c0.019,0.407,0.063,0.754,0.126,1.051
		c0.033,0.173,0.063,0.328,0.09,0.468c0.002-1.15,0.006-2.172,0.082-2.353l0.086,0.159c0.08-0.407,0.018-1.071-0.046-1.377
		c-0.009-1.031-0.129-2.059-0.018-2.284l0.079,0.392C66.223,10.394,66.212,10.252,66.211,8.659z M29.135,3.592
		c0.767,0.316,1.614,0.596,5.195,0.541l-0.282,0.022c1.805,0.199,3.52-0.263,5.717-0.042c-1.067,0.119-1.009,0.108-2.186,0.381
		l1.144-0.09c-0.317,0.172,0.823,0.083,1.663,0.092l-0.74,0.205c-0.505-0.059-1.81-0.08-1.771-0.033
		c0.285-0.023-1.725-0.259-2.816-0.199c0.113,0.139,2.417,0.083,1.389,0.31c0.906-0.096,1.02,0.043,1.967-0.005
		c-0.909,0.095-0.226,0.189-0.901,0.291l1.554-0.047c0.041,0.046-2.264,0.103-0.99,0.273c0.624-0.073,2.287,0.019,2.316-0.131
		l0.038,0.046c1.166,0.032,0.513-0.211,1.944-0.126c0.016-0.075-0.257-0.127-0.77-0.112c-0.433,0.033-0.5,0.136-1.391,0.157
		c-0.401-0.117,1.075,0.015,0.456-0.183c-0.308-0.099-2.356,0.085-1.703-0.137l1.163,0.032c0.029-0.15,0.871-0.141,0.849-0.262
		c0.711-0.055,1.382,0.113,2.109-0.017c0.301-0.097-0.226-0.277,0.977-0.198c0.938,0.221,3.705,0.178,4.742,0.146l0.907-0.095
		c-0.077-0.092-1.733,0.012-1.15-0.107l1.413-0.036L49.87,4.324c0.468,0.013,0.947-0.049,1.375-0.082
		c-0.441,0.108-1.461,0.064-1.259,0.221c0.664,0.031,0.766,0.088,1.378,0.059c-0.134,0.011-0.249,0.026-0.232,0.048
		c1.344,0.068,1.299-0.174,1.636-0.225c1.352-0.203-1.363-0.188-1.189-0.349l3.945-0.086c-0.337,0.051-0.676,0.101-0.55,0.165
		c0.968,0.072,0.023,0.121,1.383,0.114c-0.098-0.213,1.71-0.133,2.67-0.256c0.449,0.087,0.541,0.105-0.44,0.107
		c0.113,0.139,1.43,0.085,1.897,0.098c0.285-0.024,0.728-0.061,1.026-0.085c-0.392-0.069-0.225-0.156,0.626-0.215l0.05-0.029
		c-1.394-0.038-3.561-0.189-4.435-0.048l0.248-0.068c-1.614-0.12-3.511,0.249-4.255-0.013c0.068-0.104-0.324-0.023-0.296-0.173
		L52.26,3.624l0.248-0.068l-2.021,0.033l0.054-0.027C49.585,3.7,48.832,3.81,48.227,3.897c-0.002,0.065,0.061,0.085-0.26,0.133
		c-0.32,0.032-0.564,0.037-0.782,0.029l-0.002,0v0c-0.495-0.019-0.826-0.113-1.437-0.151l1.88-0.016
		c0.153-0.111-0.007-0.226-0.928-0.304c0.376-0.004,0.534-0.09,0.067-0.103c-0.052,0.029-1.23,0.071-0.78,0.159
		c-1.785,0.041-4.675-0.25-7.385-0.04c1.947-0.126-1.56-0.148,0.602-0.194c-1.509-0.177-1.299,0.175-2.836,0.146
		c-0.131-0.063,0.837,0.009,1.19-0.117C35,3.37,33.242,3.727,30.769,3.673l-0.106-0.138C30.195,3.553,29.675,3.572,29.135,3.592z
		 M24.242,3.765c-0.476,0.016-0.958,0.031-1.449,0.047c0.047,0.001,0.092,0.002,0.142,0.004l-1.429,0.112
		c0.878,0.054,1.458,0.206,0.228,0.276c0.104-0.057-0.257-0.127,0.171-0.161C21.08,3.96,19.271,3.88,19.743,4.089
		c1.584-0.197,0.369,0.266,1.614,0.12c-0.668,0.136-1.33,0.075-1.96,0.135c0.657-0.114-0.153-0.258-1.139-0.312
		c-0.43,0.034-1.591,0.001-2.305,0.057c0.254,0.127-0.367,0.201,0.794,0.233c-0.425,0.034-1.086,0.06-1.825-0.005
		c0.292-0.022,0.806-0.038,0.77-0.084c-0.477-0.118-1.035-0.112-1.343-0.162c-0.246,0.006-0.494,0.014-0.736,0.02
		c0.072,0.011,0.135,0.026,0.18,0.044l-0.817,0.113c1.087-0.061,0.502,0.059,0.488,0.134c0.029-0.15-0.7-0.02-1.073-0.015
		l0.81,0.158c-0.392,0.079-1.382-0.114-1.177,0.042c1.717,0.063,2.377,0.036,3.93-0.011l-0.63-0.123
		c1.751-0.087,1.08,0.21,3.045,0.205c0.817-0.112,2.955-0.008,2.996-0.232c-0.246,0.068,1.224,0.2,1.897,0.098
		c0.745-0.205,2.996-0.233,2.314-0.327c-0.608-0.002-1.427,0.11-1.916-0.023l1.18-0.043l-0.774-0.112
		C24.464,4.038,24.426,3.929,24.242,3.765z M3.506,11.169l-0.002,0.045l0-0.049L3.506,11.169z"/>
	<path fill="#802F30" d="M66.362,42.187c0.051,0.34,0.043,1.179,0.152,1.015C66.395,43.222,66.496,41.702,66.362,42.187z"/>
	<path fill="#802F30" d="M66.244,43.19c0.028,0.059,0.075,0.018,0.079,0.394l-0.03-1.035L66.244,43.19z"/>
	<path fill="#802F30" d="M65.419,44.241c0.09,0.535,0.141,0.873,0.133,1.713c-0.295,0.314-0.083-1.373-0.357-1.754
		c-0.027,1.538,0.229,2.011,0.254,3.275C65.571,46.848,65.643,44.288,65.419,44.241z"/>
	<polygon fill="#802F30" points="65.046,43.56 65.112,44.414 65.13,44.329 65.063,43.474 	"/>
	<path fill="#802F30" d="M67.606,25.037c0.092-0.077,0.001-0.61-0.021-0.896C67.579,24.373,67.555,24.699,67.606,25.037z"/>
	<path fill="#802F30" d="M38,58.702l6.522-0.089C42.646,58.639,40.915,58.662,38,58.702z"/>
	<path fill="#802F30" d="M65.39,2.996c0.229-0.014,0.44-0.027,0.61-0.037l0.97-0.06L67.042,4c0.089,1.363,0.213,2.154,0.248,3.705
		C67.426,5.981,67.206,5.118,67.155,4L67.1,2.794L66,2.845c-0.404,0.019-0.842,0.015-1.366-0.035L65.39,2.996z"/>
	<path fill="#802F30" d="M67.738,4.007C67.711,4.054,67.687,4.05,67.665,4l-0.914-2.119L66,2.335
		c-0.185,0.111-1.303,0.149-1.09,0.256c0.891-0.032,0.75-0.11,1.09-0.14l1.398-0.123L67.548,4c0.01,0.108,0.015,0.269,0.011,0.531
		L67.738,4.007z"/>
	<polygon fill="#802F30" points="64.872,11.945 64.781,11.414 64.814,11.841 	"/>
	<polygon fill="#802F30" points="58.023,2.415 58.217,2.376 57.34,2.321 	"/>
	<path fill="#802F30" d="M58.411,2.336l-0.194,0.04L58.411,2.336z"/>
	<polygon fill="#802F30" points="64.5,11.263 64.463,12.052 64.542,12.442 	"/>
	<path fill="#802F30" d="M65.431,4.295l0.056,0.707C65.476,4.861,65.547,3.894,65.431,4.295z"/>
	<polygon fill="#802F30" points="52.66,2.342 51.801,2.408 51.889,2.425 52.746,2.358 	"/>
	<path fill="#802F30" d="M60.768,5.048c0.488,0.133-1.409,0.036-0.405,0.154C61.256,5.181,60.894,5.112,60.768,5.048z"/>
	<path fill="#802F30" d="M50.4,4.144c-0.116,0-0.238,0.005-0.355,0.02C50.184,4.156,50.301,4.149,50.4,4.144z"/>
	<path fill="#802F30" d="M50.4,4.144c0.374,0,0.748,0.051,1.004,0.012C50.938,4.096,50.769,4.118,50.4,4.144z"/>
	<path fill="#802F30" d="M46.113,4.175l0.34,0.009c-0.347,0.066-0.183,0.056,0.126,0.003c0.36-0.004,0.34-0.047,0.383-0.076
		c0.07-0.017,0.144-0.034,0.221-0.052c-0.108,0.018-0.209,0.034-0.295,0.048C46.332,4.107,45.992,4.114,46.113,4.175z"/>
	<path fill="#802F30" d="M30.188,1.928c1.253,0.05,1.578,0.074,1.51,0.177c1.188,0.033,1.003-0.146,1.722-0.187
		C32.074,1.938,31.799,1.891,30.188,1.928z"/>
	<path fill="#802F30" d="M33.42,1.918c0.15-0.002,0.294-0.005,0.47-0.008C33.694,1.907,33.548,1.912,33.42,1.918z"/>
	<polygon fill="#802F30" points="51.123,5.306 50.345,5.465 50.631,5.443 	"/>
	<path fill="#802F30" d="M28.329,1.876c0.231,0.007,0.605,0.002,0.788,0.038C29.184,1.81,28.097,1.87,28.329,1.876z"/>
	<path fill="#802F30" d="M33.161,3.905c0.128,0.063,0.929,0.025,1.256,0.05C33.949,3.942,33.567,3.751,33.161,3.905z"/>
	<path fill="#802F30" d="M24.735,2.303c0.231,0.007,0.589,0.077,0.434,0.162C25.507,2.414,25.963,2.231,24.735,2.303z"/>
	<polygon fill="#802F30" points="30.872,3.887 31.05,3.922 31.907,3.855 	"/>
	<path fill="#802F30" d="M33.931,5.415c0.963-0.124-1.53-0.298,0.13-0.402c-2.143-0.129,0.165,0.175-1.416,0.155
		C33.571,5.209,34.024,5.365,33.931,5.415z"/>
	<path fill="#802F30" d="M32.646,5.167c-0.136-0.003-0.282-0.007-0.439-0.011C32.383,5.161,32.523,5.165,32.646,5.167z"/>
	<path fill="#802F30" d="M19.072,4.385c0.139-0.013,0.236-0.027,0.324-0.042C19.286,4.354,19.18,4.367,19.072,4.385z"/>
	<path fill="#802F30" d="M27.598,5.27l1.445-0.186c-0.966,0.123-3.394,0.116-3.243,0.3c0.788,0.038,1.733-0.012,2.122-0.091
		L27.598,5.27z"/>
	<path fill="#802F30" d="M11.006,1.921l0.625-0.073l-0.78-0.021C11.073,1.854,10.67,1.99,11.006,1.921z"/>
	<path fill="#802F30" d="M10.7,1.823l0.151,0.004C10.817,1.822,10.77,1.82,10.7,1.823z"/>
	<path fill="#802F30" d="M21.807,4.296c0.466,0.013,0.839,0.008,1.266-0.025C22.896,4.236,21.732,4.204,21.807,4.296z"/>
	<polygon fill="#802F30" points="6.608,2.19 7.639,2.158 6.514,2.172 	"/>
	<polygon fill="#802F30" points="2.876,7.202 2.841,7.379 2.908,8.234 2.942,8.055 	"/>
	<path fill="#802F30" d="M8.089,5.509c0.699,0.02,1.245-0.146,1.063-0.181L7.796,5.335C8.141,5.48,8.172,5.331,8.958,5.368
		L8.089,5.509z"/>
	<path fill="#802F30" d="M3.147,42.903c-0.097-0.302-0.041-1.785,0.051-1.861c0.04,0.198,0.078,1.002,0.137,0.497l-0.238-1.172
		c0.148-1.561,0.313,1.186,0.397,1.955c0.031-1.589-0.126-2.059-0.125-3.749c-0.021,0.497-0.081,0.813-0.132,1.075
		c-0.167,0.059-0.093-1.517-0.106-2.642c-0.073,0.716-0.134,0.302-0.2-0.221c-0.005-0.095-0.015-0.156-0.026-0.2l-0.023-0.178
		l0,0.135c-0.019-0.009-0.042,0.021-0.073,0.117c0.049,0.945-0.091,1.668-0.093,2.275c0.272-0.601,0.063,2.071,0.147,2.836
		l0.027,0.883l0,0.33c-0.03,0.067-0.067-0.027-0.122-0.531c0.054,0.421,0.035,1.823,0.123,1.692l0.004,3.199
		c-0.011,0.101-0.025,0.199-0.045,0.273c0.018,0.11,0.032,0.129,0.045,0.115L2.908,57l0.002,2.097L5,59.094l4.669-0.007
		c-0.678-0.039-1.289-0.074-1.992-0.114c1.064-0.181-1.162-0.032-0.85-0.203c0.478-0.063,1.178-0.043,1.595-0.002
		c0.155-0.086-0.439-0.162-0.369-0.266C6.563,58.41,6.142,58.693,5,58.743l-1.662,0.072L3.257,57c-0.009-0.202-0.01-0.431,0-0.692
		c0.104,0.068,0.194,0.599,0.18-0.526l0.022,0.286c-0.116-1.801,0.234-1.402-0.05-2.537l0.149,0.029
		c-0.113-0.816-0.114-2.405-0.134-3.301l0.029,0.054c-0.171-2.514-0.036-1.411-0.107-4.233l0.174,1.299
		c0.072-0.973-0.117-1.193-0.098-1.891c0.029,0.049,0.138-0.113,0.166,0.547L3.321,42.61C3.208,41.794,3.211,42.777,3.147,42.903z"
		/>
	<path fill="#802F30" d="M3.37,38.573c0.008-0.183,0.011-0.388,0.006-0.631C3.373,38.178,3.372,38.38,3.37,38.573z"/>
	<path fill="#802F30" d="M10.648,59.085l-0.979,0.002C9.973,59.096,10.288,59.099,10.648,59.085z"/>
	<path fill="#802F30" d="M3.043,33.664c-0.077,0.595-0.108-0.443-0.166-0.547l0.003,2.126c0.058-0.01,0.122,0.201,0.175,0.159
		L3.043,33.664z"/>
	<path fill="#802F30" d="M2.772,35.858c0.04,0.072,0.076,0.298,0.11,0.55L2.88,35.243C2.837,35.251,2.798,35.382,2.772,35.858z"/>
	<polygon fill="#802F30" points="5.845,35.634 5.85,36.01 5.895,36.579 	"/>
	<path fill="#802F30" d="M5.592,41.521c0.087-0.45,0.021-1.304-0.001-1.589C5.593,40.916,5.56,40.49,5.592,41.521z"/>
	<polygon fill="#802F30" points="6.527,40.306 6.577,41.254 6.594,41.166 	"/>
	<path fill="#802F30" d="M17.884,58.497c0.155-0.003,0.306-0.007,0.464-0.01C18.136,58.491,17.998,58.494,17.884,58.497z"/>
	<path fill="#802F30" d="M9.754,58.64c2.26,0.168-1.481,0.14-0.772,0.354l1.231-0.071l-0.106,0.058l1.501-0.02
		c-0.308-0.099-0.54-0.104-0.473-0.208c2.003,0.04,0.631,0.123,2.1,0.254l2.239-0.02l-0.182,0.031
		c0.189-0.002,0.272-0.015,0.337-0.032l7.542-0.064c1.373-0.082-0.758-0.187,0.254-0.338c-1.591,0-3.955-0.11-4.089,0.096
		c0.053-0.028,0.157-0.085-0.165-0.109l-0.92,0.17l0.878,0.055c-0.925,0.169-3.912,0.131-4.452,0.026
		c1.698-0.058,0.846-0.262,3.212-0.151c-0.106-0.052-0.539-0.145-0.007-0.173C15.111,58.558,12.626,58.463,9.754,58.64z"/>
	<path fill="#802F30" d="M37.567,58.54l-0.022,0.019C37.596,58.549,37.613,58.541,37.567,58.54z"/>
	<path fill="#802F30" d="M36.637,58.515l-1.351,0.202l2.107-0.017l0.152-0.142c-0.186,0.036-0.925,0.108-1.211,0.053L36.637,58.515z
		"/>
	<path fill="#802F30" d="M33.717,58.839c1.087-0.06,1.029-0.227,0.435-0.304c0.999-0.077,0.528,0.18,1.215,0.004
		c-0.022-0.121-1.253-0.05-1.537-0.028L33.717,58.839z"/>
	<polygon fill="#802F30" points="25.687,58.751 25.993,58.682 25.239,58.664 	"/>
	<path fill="#802F30" d="M25.993,58.682l0.75,0.019c-0.052-0.051-0.104-0.102-0.225-0.137L25.993,58.682z"/>
	<path fill="#802F30" d="M28.705,58.749c0.319,0.008,0.67,0.016,1.094,0.026L28.705,58.749z"/>
	<path fill="#802F30" d="M27.85,58.706l0.025,0.022l0.83,0.021C28.4,58.733,28.125,58.72,27.85,58.706z"/>
	<path fill="#802F30" d="M26.742,58.7c0.122,0.117,0.263,0.24,1.346,0.208l-0.214-0.18L26.742,58.7z"/>
	<polygon fill="#802F30" points="6.351,47.197 6.417,48.053 6.435,47.963 6.369,47.107 	"/>
	<path fill="#802F30" d="M6.244,52.136c0.021,0.211,0.042,0.371,0.064,0.518C6.295,52.43,6.276,52.252,6.244,52.136z"/>
	<path fill="#802F30" d="M7.043,55.806c-0.118,1.007-0.155-1.389-0.208,0.476c-0.11,0.164-0.251-0.709-0.197-1.587
		c0.104,0.069,0.066,0.855,0.171,0.315c-0.119-0.583-0.038-0.804-0.193-0.602c-0.097-0.981-0.208-1.089-0.309-1.755
		C6.365,53.641,6.264,55.532,6.344,57C5.87,56.525,5.435,56.091,5,55.656c0.302-0.017,0.581-0.039,0.832-0.073
		c0.831-0.187,0.327-0.442,0.331-0.712C6.101,54.84,5.553,54.816,5,54.822C5.729,55.551,6.458,56.279,7.178,57
		C7.172,56.426,7.135,55.848,7.043,55.806z"/>
	<path fill="#802F30" d="M7.313,54.222c0.013-0.466,0.002-0.607-0.02-0.894C7.201,53.404,7.31,53.846,7.313,54.222z"/>
	<path fill="#802F30" d="M12.928,56.721c0.09-0.038,0.932-0.086,0.752-0.152l-1.278,0.049C12.701,56.623,12.806,56.67,12.928,56.721
		z"/>
	<path fill="#802F30" d="M11.841,56.638l0.561-0.021C12.262,56.613,12.088,56.619,11.841,56.638z"/>
	<path fill="#802F30" d="M12.989,56.745l-0.061-0.024C12.91,56.729,12.915,56.737,12.989,56.745z"/>
	<path fill="#802F30" d="M31.806,58.816c-0.018,0.074,0.551,0.029,0.837,0.008C32.412,58.817,32.085,58.793,31.806,58.816z"/>
	<path fill="#802F30" d="M53.241,58.524l0.504,0.06C53.567,58.548,53.476,58.53,53.241,58.524z"/>
	<path fill="#802F30" d="M60.994,56.499c0.014-0.015,0.052-0.026,0.102-0.037C61.046,56.471,61.011,56.482,60.994,56.499z"/>
	<path fill="#802F30" d="M61.096,56.462c0.345-0.063,1.404,0.033,1.787-0.06l-0.05,0.028l0.712-0.056
		C62.878,56.383,61.48,56.371,61.096,56.462z"/>
</g>
</svg>
