<?xml version="1.0" encoding="utf-8"?>
<!-- Generator: Adobe Illustrator 16.0.3, SVG Export Plug-In . SVG Version: 6.00 Build 0)  -->
<!DOCTYPE svg PUBLIC "-//W3C//DTD SVG 1.1//EN" "http://www.w3.org/Graphics/SVG/1.1/DTD/svg11.dtd">
<svg version="1.1" id="Layer_1" xmlns="http://www.w3.org/2000/svg" xmlns:xlink="http://www.w3.org/1999/xlink" x="0px" y="0px"
	 width="247px" height="99px" viewBox="0 0 247 99" enable-background="new 0 0 247 99" xml:space="preserve">
<g>
	<g>
		<path fill="none" stroke="#FFFFFF" stroke-width="1.5" stroke-miterlimit="10" stroke-dasharray="4,2" d="M2,47.358
			c0,0,13-27,50.723-25.915c51.03,1.468,59.556,73.872,40.545,68.308c-13.557-3.969,13.813-39.72,41.977-24.337
			c55.533,30.334,51.533-44.666,90.533-55.666"/>
		<g>
			<path fill="#FFFFFF" d="M124.095,71.976c0.381-0.224,0.85-0.427,1.45-0.611c1.558-0.483,2.466-0.346,3.345-0.211
				c0.463,0.07,0.913,0.141,1.455,0.119c0.456-0.023,0.977-0.104,1.627-0.304c0.476-0.151,1.363-0.46,1.75-0.747
				c0.133-0.097,0.164-0.308,0.113-0.424c-0.772-1.743-3.314-2.561-6.037-1.715c-2.119,0.658-3.635,2.113-4.001,3.586
				C123.729,71.93,123.841,72.128,124.095,71.976z"/>
			<path fill="#FFFFFF" d="M134.036,71.353c-0.381,0.225-0.852,0.428-1.451,0.612c-1.557,0.483-2.467,0.345-3.344,0.21
				c-0.465-0.069-0.914-0.141-1.457-0.117c-0.457,0.021-0.973,0.102-1.625,0.305c-0.477,0.149-1.365,0.457-1.751,0.744
				c-0.133,0.098-0.162,0.309-0.112,0.422c0.771,1.746,3.314,2.563,6.035,1.717c2.12-0.658,3.636-2.113,4.006-3.588
				C134.401,71.399,134.288,71.203,134.036,71.353z"/>
		</g>
		<g>
			<path fill="#FFFFFF" d="M140.204,48.514c-0.633,0.031-1.355,0.159-2.217,0.409c-2.244,0.642-3.225,1.521-4.172,2.373
				c-0.498,0.448-0.982,0.887-1.652,1.285c-0.559,0.335-1.246,0.645-2.182,0.912c-0.689,0.195-1.992,0.523-2.682,0.484
				c-0.235-0.013-0.439-0.24-0.469-0.418c-0.447-2.693,1.959-5.669,5.877-6.797c3.057-0.876,6.015-0.322,7.615,1.15
				C140.604,48.173,140.623,48.496,140.204,48.514z"/>
			<path fill="#FFFFFF" d="M127.813,55.579c0.631-0.032,1.352-0.159,2.215-0.407c2.246-0.643,3.221-1.523,4.17-2.375
				c0.5-0.449,0.982-0.887,1.652-1.285c0.558-0.334,1.246-0.643,2.182-0.911c0.69-0.197,1.995-0.524,2.685-0.483
				c0.231,0.012,0.437,0.24,0.466,0.417c0.447,2.691-1.955,5.672-5.877,6.795c-3.057,0.876-6.016,0.324-7.615-1.147
				C127.413,55.921,127.388,55.597,127.813,55.579z"/>
		</g>
		<g>
			<path fill="#FFFFFF" d="M148.948,51.781c0.031,0.631,0.158,1.355,0.408,2.217c0.641,2.244,1.521,3.224,2.372,4.17
				c0.451,0.501,0.887,0.984,1.287,1.652c0.332,0.56,0.645,1.248,0.912,2.182c0.195,0.689,0.523,1.994,0.484,2.684
				c-0.012,0.233-0.242,0.439-0.42,0.466c-2.693,0.448-5.669-1.955-6.796-5.876c-0.877-3.058-0.322-6.015,1.15-7.612
				C148.606,51.38,148.931,51.359,148.948,51.781z"/>
			<path fill="#FFFFFF" d="M156.014,64.171c-0.029-0.633-0.16-1.354-0.408-2.218c-0.643-2.244-1.525-3.222-2.377-4.167
				c-0.445-0.501-0.885-0.984-1.283-1.653c-0.336-0.56-0.643-1.247-0.912-2.183c-0.195-0.689-0.523-1.994-0.482-2.684
				c0.01-0.232,0.24-0.439,0.418-0.467c2.689-0.446,5.672,1.957,6.793,5.878c0.877,3.058,0.324,6.015-1.146,7.614
				C156.354,64.57,156.033,64.594,156.014,64.171z"/>
		</g>
		<g>
			<g>
				<path fill="#FFFFFF" d="M28.383,63.876c0.01-0.441-0.043-0.951-0.175-1.565c-0.34-1.595-0.904-2.319-1.451-3.021
					c-0.288-0.37-0.569-0.728-0.815-1.211c-0.203-0.409-0.387-0.903-0.53-1.567c-0.101-0.489-0.265-1.415-0.203-1.893
					c0.019-0.163,0.188-0.293,0.313-0.306c1.899-0.179,3.854,1.641,4.447,4.429c0.461,2.171-0.068,4.204-1.173,5.243
					C28.601,64.173,28.373,64.172,28.383,63.876z"/>
				<path fill="#FFFFFF" d="M24.066,54.898c-0.008,0.441,0.045,0.951,0.176,1.565c0.338,1.594,0.904,2.32,1.451,3.021
					c0.287,0.37,0.57,0.729,0.814,1.213c0.205,0.41,0.387,0.898,0.528,1.566c0.103,0.49,0.268,1.414,0.206,1.892
					c-0.02,0.164-0.189,0.294-0.313,0.305c-1.9,0.18-3.856-1.638-4.448-4.427c-0.462-2.172,0.066-4.204,1.173-5.248
					C23.848,54.603,24.074,54.605,24.066,54.898z"/>
			</g>
			<g>
				<g>
					<path fill="#FFFFFF" d="M31.13,47.322c-0.573,0.27-1.271,0.495-2.149,0.682c-2.282,0.485-3.561,0.168-4.799-0.138
						c-0.65-0.162-1.283-0.321-2.062-0.358c-0.649-0.034-1.401,0.016-2.354,0.217c-0.7,0.153-2.005,0.475-2.597,0.834
						c-0.201,0.121-0.273,0.418-0.217,0.589c0.87,2.589,4.392,4.086,8.381,3.241c3.11-0.662,5.462-2.539,6.183-4.592
						C31.645,47.435,31.508,47.141,31.13,47.322z"/>
					<path fill="#FFFFFF" d="M16.873,46.903c0.572-0.269,1.268-0.495,2.146-0.681c2.285-0.486,3.56-0.166,4.797,0.139
						c0.652,0.162,1.284,0.322,2.063,0.359c0.65,0.033,1.401-0.018,2.354-0.221c0.702-0.149,2.008-0.473,2.598-0.833
						c0.198-0.118,0.273-0.418,0.215-0.587c-0.867-2.588-4.389-4.09-8.379-3.24c-3.109,0.662-5.463,2.539-6.184,4.59
						C16.359,46.789,16.489,47.086,16.873,46.903z"/>
				</g>
				<g>
					<path fill="#FFFFFF" d="M12.877,66.103c-0.271-0.571-0.498-1.271-0.682-2.148c-0.488-2.283-0.171-3.561,0.137-4.795
						c0.162-0.655,0.32-1.286,0.359-2.063c0.031-0.651-0.018-1.405-0.219-2.354c-0.151-0.701-0.475-2.008-0.832-2.598
						c-0.12-0.201-0.422-0.273-0.59-0.215c-2.589,0.871-4.086,4.389-3.24,8.38c0.662,3.11,2.539,5.462,4.59,6.181
						C12.762,66.619,13.059,66.482,12.877,66.103z"/>
					<path fill="#FFFFFF" d="M13.293,51.846c0.273,0.571,0.496,1.271,0.683,2.15c0.487,2.282,0.167,3.56-0.142,4.794
						c-0.158,0.652-0.318,1.285-0.356,2.063c-0.033,0.652,0.019,1.402,0.22,2.355c0.15,0.701,0.475,2.006,0.834,2.596
						c0.119,0.2,0.418,0.275,0.587,0.216c2.586-0.868,4.089-4.392,3.239-8.379c-0.662-3.11-2.539-5.464-4.588-6.185
						C13.406,51.335,13.113,51.464,13.293,51.846z"/>
				</g>
			</g>
		</g>
	</g>
	<g>
		<polygon fill="#FFFFFF" points="221,5.83 226.51,8.569 226.305,14.721 232.402,5.056 		"/>
	</g>
</g>
</svg>
