<?xml version="1.0" encoding="utf-8"?>
<!-- Generator: Adobe Illustrator 16.0.3, SVG Export Plug-In . SVG Version: 6.00 Build 0)  -->
<!DOCTYPE svg PUBLIC "-//W3C//DTD SVG 1.1//EN" "http://www.w3.org/Graphics/SVG/1.1/DTD/svg11.dtd">
<svg version="1.1" id="Layer_1" xmlns="http://www.w3.org/2000/svg" xmlns:xlink="http://www.w3.org/1999/xlink" x="0px" y="0px"
	 width="484px" height="334px" viewBox="0 0 484 334" enable-background="new 0 0 484 334" xml:space="preserve">
<path fill="none" stroke="#6E1112" stroke-width="1.5" stroke-miterlimit="10" stroke-dasharray="4,2" d="M471.849,321.896
	c-79-12-88-118-207-64c-46.489,21.096-52.01,53.564-33,48c13.557-3.969,69-122-95-97c-62.555,9.536-152-108-52-201"/>
<g>
	<path fill="#6E1112" d="M219.917,250.291c-0.381-0.224-0.85-0.427-1.451-0.611c-1.557-0.483-2.465-0.346-3.344-0.211
		c-0.463,0.07-0.914,0.141-1.455,0.119c-0.457-0.023-0.977-0.104-1.627-0.304c-0.477-0.151-1.363-0.46-1.75-0.747
		c-0.133-0.097-0.164-0.308-0.113-0.424c0.771-1.743,3.314-2.561,6.037-1.715c2.119,0.658,3.635,2.113,4,3.586
		C220.283,250.245,220.171,250.443,219.917,250.291z"/>
	<path fill="#6E1112" d="M209.976,249.668c0.381,0.225,0.852,0.428,1.451,0.612c1.557,0.483,2.467,0.345,3.344,0.21
		c0.465-0.069,0.914-0.141,1.457-0.117c0.457,0.021,0.973,0.102,1.625,0.305c0.477,0.149,1.365,0.457,1.75,0.744
		c0.133,0.098,0.162,0.309,0.113,0.422c-0.771,1.746-3.314,2.563-6.035,1.717c-2.121-0.658-3.637-2.113-4.006-3.588
		C209.611,249.714,209.724,249.518,209.976,249.668z"/>
</g>
<g>
	<path fill="#6E1112" d="M203.808,226.829c0.633,0.031,1.355,0.159,2.217,0.409c2.244,0.642,3.225,1.521,4.172,2.373
		c0.498,0.448,0.982,0.887,1.652,1.285c0.559,0.335,1.246,0.645,2.182,0.912c0.689,0.195,1.992,0.523,2.682,0.484
		c0.235-0.013,0.439-0.24,0.469-0.418c0.447-2.693-1.959-5.67-5.877-6.797c-3.057-0.876-6.015-0.322-7.615,1.15
		C203.408,226.488,203.389,226.811,203.808,226.829z"/>
	<path fill="#6E1112" d="M216.199,233.894c-0.631-0.032-1.352-0.159-2.215-0.407c-2.246-0.643-3.221-1.523-4.17-2.375
		c-0.5-0.449-0.982-0.887-1.652-1.285c-0.558-0.334-1.246-0.643-2.182-0.911c-0.69-0.197-1.995-0.524-2.685-0.483
		c-0.231,0.012-0.437,0.24-0.466,0.417c-0.447,2.691,1.955,5.672,5.877,6.795c3.057,0.876,6.016,0.324,7.615-1.147
		C216.599,234.236,216.624,233.912,216.199,233.894z"/>
</g>
<g>
	<path fill="#6E1112" d="M195.064,230.096c-0.031,0.631-0.158,1.355-0.408,2.217c-0.641,2.244-1.521,3.224-2.373,4.17
		c-0.451,0.501-0.887,0.984-1.287,1.652c-0.332,0.56-0.645,1.248-0.912,2.182c-0.195,0.689-0.523,1.994-0.484,2.684
		c0.012,0.233,0.242,0.439,0.42,0.466c2.693,0.448,5.67-1.955,6.797-5.876c0.877-3.058,0.322-6.015-1.15-7.612
		C195.406,229.695,195.082,229.674,195.064,230.096z"/>
	<path fill="#6E1112" d="M187.998,242.486c0.029-0.633,0.16-1.354,0.408-2.218c0.643-2.244,1.525-3.222,2.377-4.167
		c0.445-0.501,0.885-0.984,1.283-1.653c0.336-0.56,0.643-1.247,0.912-2.183c0.195-0.689,0.523-1.994,0.482-2.684
		c-0.01-0.232-0.24-0.439-0.418-0.467c-2.689-0.446-5.672,1.957-6.793,5.878c-0.877,3.058-0.324,6.015,1.146,7.614
		C187.658,242.885,187.978,242.909,187.998,242.486z"/>
</g>
<g>
	<g>
		<path fill="#6E1112" d="M24.012,60.828c-0.01-0.441,0.043-0.951,0.174-1.565c0.34-1.595,0.904-2.319,1.451-3.021
			c0.289-0.37,0.57-0.729,0.816-1.211c0.203-0.409,0.387-0.903,0.529-1.567c0.102-0.489,0.266-1.415,0.203-1.893
			c-0.018-0.163-0.188-0.293-0.313-0.306c-1.9-0.179-3.855,1.641-4.447,4.429c-0.461,2.171,0.068,4.204,1.172,5.243
			C23.793,61.125,24.022,61.124,24.012,60.828z"/>
		<path fill="#6E1112" d="M28.329,51.85c0.008,0.441-0.045,0.951-0.176,1.565c-0.338,1.594-0.904,2.32-1.451,3.021
			c-0.287,0.37-0.57,0.729-0.814,1.213c-0.205,0.41-0.387,0.898-0.529,1.566c-0.102,0.49-0.268,1.414-0.205,1.892
			c0.02,0.164,0.189,0.294,0.313,0.305c1.9,0.18,3.855-1.638,4.447-4.427c0.463-2.172-0.066-4.204-1.172-5.248
			C28.547,51.555,28.321,51.557,28.329,51.85z"/>
	</g>
	<g>
		<g>
			<path fill="#6E1112" d="M5.016,68.284c0.585,0.241,1.293,0.433,2.18,0.576c2.303,0.373,3.564-0.006,4.786-0.371
				c0.642-0.194,1.267-0.384,2.042-0.459c0.646-0.065,1.4-0.053,2.361,0.103c0.707,0.118,2.025,0.376,2.633,0.706
				c0.207,0.111,0.294,0.404,0.246,0.577c-0.742,2.629-4.188,4.296-8.213,3.646c-3.139-0.51-5.579-2.271-6.398-4.285
				C4.506,68.423,4.629,68.122,5.016,68.284z"/>
			<path fill="#6E1112" d="M19.235,67.171c-0.585-0.24-1.291-0.433-2.177-0.575c-2.306-0.374-3.563,0.008-4.784,0.372
				c-0.645,0.194-1.268,0.385-2.043,0.46c-0.648,0.064-1.4,0.051-2.361-0.106c-0.709-0.114-2.028-0.374-2.635-0.705
				c-0.204-0.108-0.294-0.404-0.244-0.575c0.74-2.628,4.185-4.299,8.211-3.646c3.139,0.511,5.58,2.271,6.4,4.283
				C19.743,67.032,19.627,67.336,19.235,67.171z"/>
		</g>
		<g>
			<path fill="#6E1112" d="M24.161,86.154c0.244-0.584,0.437-1.294,0.576-2.18c0.377-2.304-0.001-3.564-0.369-4.782
				c-0.194-0.646-0.383-1.27-0.46-2.044c-0.063-0.648-0.051-1.404,0.104-2.362c0.117-0.708,0.375-2.028,0.704-2.635
				c0.11-0.207,0.407-0.294,0.579-0.243c2.629,0.743,4.295,4.184,3.645,8.212c-0.51,3.139-2.271,5.579-4.283,6.396
				C24.301,86.663,23.999,86.541,24.161,86.154z"/>
			<path fill="#6E1112" d="M23.051,71.935c-0.245,0.584-0.434,1.293-0.576,2.181c-0.377,2.304,0.006,3.563,0.374,4.781
				c0.19,0.645,0.381,1.269,0.458,2.043c0.064,0.649,0.049,1.401-0.105,2.363c-0.117,0.708-0.377,2.026-0.707,2.633
				c-0.109,0.206-0.404,0.296-0.574,0.244c-2.626-0.74-4.299-4.187-3.645-8.212c0.509-3.138,2.27-5.58,4.28-6.399
				C22.913,71.43,23.211,71.544,23.051,71.935z"/>
		</g>
	</g>
</g>
<g>
	<polygon fill="#EE4632" points="467.849,327.244 471.361,322.19 468.223,316.896 478.216,322.436 	"/>
</g>
</svg>
