<?xml version="1.0" encoding="utf-8"?>
<!-- Generator: Adobe Illustrator 16.0.3, SVG Export Plug-In . SVG Version: 6.00 Build 0)  -->
<!DOCTYPE svg PUBLIC "-//W3C//DTD SVG 1.1//EN" "http://www.w3.org/Graphics/SVG/1.1/DTD/svg11.dtd">
<svg version="1.1" id="Layer_1" xmlns="http://www.w3.org/2000/svg" xmlns:xlink="http://www.w3.org/1999/xlink" x="0px" y="0px"
	 width="71.277px" height="77.222px" viewBox="0 0 71.277 77.222" enable-background="new 0 0 71.277 77.222" xml:space="preserve">
<g>
	<g>
		<circle fill="#FFFFFF" cx="34.833" cy="45.23" r="27.293"/>
		<g>
			<path fill="#802F30" d="M12.709,28.116c0.232-0.324,0.514-0.542,0.453-0.399c0.417-0.704,0.514-0.645,0.431-0.854
				c0.285-0.446,0.773-0.754,0.426-0.269l0.945-1.172l-0.645,0.628c0.045-0.297,1.031-1.004,1.09-1.354l-1.121,1.196l0.015-0.099
				c-0.212,0.313-0.732,0.818-0.923,0.987c0.004-0.049-0.047-0.059,0.149-0.273c-1.275,1.519-0.112,0.605-1.079,1.918
				C12.509,28.342,12.588,28.244,12.709,28.116z"/>
			<path fill="#802F30" d="M11.365,29.212l-0.19,0.705l-0.663,0.951c0.056,0.05-0.337,0.791,0.021,0.342
				c0.049-0.1,0.146-0.297,0.247-0.444c0.035,0.096-0.151,0.429-0.305,0.713c-0.139,0.292-0.23,0.543-0.086,0.431
				c0.385-0.819,0.531-0.894,0.703-1.442c0.467-0.688,0.784-1.205,1.088-1.462c0.131-0.208,0.073-0.294,0.25-0.554
				c-0.042,0.056-0.079,0.108-0.126,0.172l-0.216-0.117c-0.116,0.242-0.304,0.414-0.458,0.663c0,0,0.025-0.085,0.083-0.2
				c0.057-0.116,0.132-0.271,0.208-0.425c0.153-0.312,0.306-0.623,0.306-0.623c-0.225,0.105-0.52,0.445-0.807,0.806
				c-0.268,0.374-0.5,0.787-0.688,0.987C11.258,29.26,10.535,30.216,11.365,29.212z"/>
			<path fill="#802F30" d="M12.43,28.451c0.005-0.007,0.014-0.018,0.02-0.026C12.443,28.433,12.435,28.444,12.43,28.451z"/>
			<path fill="#802F30" d="M60.897,50.484c0.042-0.269-0.001-0.357-0.022-0.401c0,0-0.032,0.188-0.08,0.47
				c-0.036,0.284-0.12,0.655-0.23,1.02c-0.2,0.735-0.4,1.47-0.4,1.47c0.085-0.072,0.394-0.901,0.274-0.322
				c0.138-0.235,0.292-1.026,0.239-1.157l0.035,0.237c0.082-0.705,0.399-1.13,0.381-0.661l0.013-0.059l-0.137-2.013
				C60.82,49.764,61.038,49.633,60.897,50.484z"/>
			<path fill="#802F30" d="M19.923,22.931c0.313-0.244,0.34-0.291,0.291-0.285C20.106,22.742,20.006,22.836,19.923,22.931z"/>
			<path fill="#802F30" d="M60.937,48.606c0.018,0.001-0.092-0.617-0.092-0.617C60.861,48.233,60.916,48.453,60.937,48.606z"/>
			<path fill="#802F30" d="M62.235,53.338c0.007,0.004,0.012,0.013,0.026-0.001l0.005-0.306c-0.001,0.005-0.001,0.006-0.002,0.008
				C62.254,53.146,62.244,53.244,62.235,53.338z"/>
			<path fill="#802F30" d="M58.615,35.38c-0.028-0.057-0.052-0.105-0.086-0.174C58.561,35.268,58.588,35.325,58.615,35.38z"/>
			<path fill="#802F30" d="M59.152,61.831l0.68-1.348c-0.048,0.205,0.319-0.419,0.219-0.11c0.052-0.103,0.313-0.571,0.206-0.465
				l-0.159,0.262c0.24-0.771-0.04-0.387,0.404-1.617c-0.45,0.67-0.53,1.021-0.69,1.424c-0.069,0.131-0.125,0.235-0.183,0.343
				l-0.427,1.199L59.152,61.831z"/>
			<path fill="#802F30" d="M38.237,17.462l0.018-0.014C38.24,17.452,38.236,17.457,38.237,17.462z"/>
			<path fill="#802F30" d="M38.325,17.392l-0.07,0.056C38.335,17.423,38.63,17.447,38.325,17.392z"/>
			<path fill="#802F30" d="M61.025,48.843c-0.033-0.023-0.065-0.106-0.089-0.236l0.033,0.461
				C60.984,49.006,61.005,48.922,61.025,48.843z"/>
			<path fill="#802F30" d="M61.275,49.934l-0.169,1.146l-0.011,0.436C61.198,51.083,61.224,50.558,61.275,49.934z"/>
			<path fill="#802F30" d="M59.119,37.053c-0.729-2.168,0.396,0.458,0.125-0.563c-0.211-0.606-0.455-0.753-0.629-1.11
				c0.405,0.818,0.297,0.794,0.183,0.773c-0.12-0.018-0.199-0.048,0.093,0.809c-0.14-0.088-0.27-0.387-0.429-0.721
				c-0.169-0.331-0.324-0.712-0.42-1.004c-0.098-0.714,0.369,0.5,0.609,0.577c-0.319-0.66-0.301-0.528-0.521-0.77
				c-0.364-1.099-1.271-1.992-1.351-2.728c-0.429-0.712-0.511-0.58-0.846-0.905c-0.111,0.021,0.032,0.275,0.208,0.563
				c0.157,0.312,0.333,0.678,0.336,0.848c-0.015-0.063-0.043-0.188-0.001-0.171l0.303,0.637c-0.261-0.619,0.225-0.019,0.415,0.29
				c0.133,0.226,0.393,0.677,0.299,0.643c0.011-0.006-0.224-0.33-0.224-0.33c0.197,0.466,0.593,0.961,0.717,1.494
				c-0.032,0.044-0.132-0.134-0.171-0.15c0.353,0.501,0.635,1.016,0.969,1.848l-0.35-0.426c0.416,0.604,0.914,2.165,0.968,3.298
				c0.009-0.129-0.015-0.354,0.052-0.23c0.187,0.636,0.154,1.147-0.017,0.869c0.173,0.294,0.218,0.906,0.252,1.545
				c0.027,0.64,0.136,1.297,0.226,1.729c0,0,0.281,1.011,0.563,2.021c0.184,1.05,0.367,2.1,0.367,2.1
				c-0.015-0.159-0.023-0.328-0.019-0.501c0.207-0.362,0.201-0.574,0.319,0.11c-0.045-0.667-0.208-0.425-0.141-1.406
				c0.051,0.387,0.282,0.501,0.332-0.452c-0.139-1.193-0.247-2.179-0.587-3.105c-0.145-0.462-0.289-0.924-0.436-1.389
				c-0.142-0.469-0.362-0.937-0.527-1.449c0.059-0.054-0.01-0.491-0.109-1.019c-0.118-0.522-0.337-1.114-0.438-1.514
				c0.229,0.255,0.48,0.824,0.675,1.434c-0.083-0.393-0.313-1.046-0.455-1.539L59.119,37.053z"/>
			<path fill="#802F30" d="M60.742,42.213c0.005-0.06,0.005-0.121,0.004-0.184C60.739,42.063,60.736,42.119,60.742,42.213z"/>
			<path fill="#802F30" d="M59.95,38.89c0.007,0.006,0.01,0.002,0.017,0.004l-0.053-0.196C59.927,38.766,59.941,38.842,59.95,38.89z
				"/>
			<path fill="#802F30" d="M61.412,48.327c0.03,0.147,0.031,0.254,0.042,0.399c0.002-0.088,0.013-0.198,0.005-0.307
				C61.448,48.316,61.433,48.267,61.412,48.327z"/>
			<path fill="#802F30" d="M61.107,48.771l-0.043-0.082c-0.016,0.061-0.026,0.101-0.039,0.153
				C61.053,48.863,61.081,48.85,61.107,48.771z"/>
			<path fill="#802F30" d="M56,28.644l-0.174-0.158C55.919,28.591,55.967,28.629,56,28.644z"/>
			<path fill="#802F30" d="M58.405,34.59c0.329,0.731,0.226,0.004,0.68,1.053l-0.121-0.313c0.464,0.7,0.786,2.124,1.113,3.043
				c-0.096-0.087,0.041,0.6-0.11,0.521c0.167,0.641,0.333,1.276,0.536,1.588c0.068,0.406,0.234,1.017,0.243,1.547
				c0.052-0.231,0.347,0.717,0.105-0.552c0.021,0.103,0.032,0.035,0.055,0.136c0.033-0.847-0.263-1.137-0.405-1.833
				c-0.015-0.435,0.269,0.659,0.213,0.258c-0.132-0.43-0.246-1.124-0.386-1.69c-0.183-0.555-0.354-0.988-0.481-0.917
				c-0.216-0.61-0.183-0.715-0.191-0.917c-0.591-0.866-1.35-3.573-1.75-3.362c0.096,0.161,0.22,0.37,0.356,0.6
				c0.113,0.24,0.244,0.497,0.391,0.731L58.405,34.59z"/>
			<path fill="#802F30" d="M61.496,46.937c0.005-0.051,0.012-0.117,0.017-0.16C61.508,46.824,61.502,46.883,61.496,46.937z"/>
			<path fill="#802F30" d="M57.816,56.477l-0.083-0.406c0.424-0.834,0.576-1.46,0.823-2.014c0.113-0.282,0.224-0.558,0.344-0.856
				c0.104-0.305,0.187-0.645,0.296-1.039c0.066-0.111,0.036,0.087,0.021,0.188c0.121-0.564,0.368-1.244,0.476-1.917
				c0.109-0.671,0.204-1.306,0.218-1.727c0.1-0.354,0.199-1.313,0.264-0.939c-0.01-0.181-0.017-0.387,0.007-0.591
				c0.097-0.048-0.008,0.461,0.066,0.48c0.019-0.163,0.041-0.225,0.015-0.265c0.059,0.282,0.332-0.263,0.23,1.033
				c-0.267,0.472,0.052-0.898-0.216-0.629c-0.033,0.425,0.062,0.387,0.088,0.427c-0.063,0.542-0.146,0.516-0.187,0.481
				c0.037,0.216-0.182,0.873-0.12,1.177c-0.161,1.048-0.166-0.09-0.279,0.59c0,0.001,0.174,0.444,0.162,0.442l-0.351,1.102
				c-0.378,1.635,0.503-0.112,0.044,1.776c-0.027-0.278-0.506,0.379-0.868,1.192c0.165-0.512,0.424-1.464,0.662-2.106
				c-0.434,0.876,0.328-1.291-0.011-0.864c-0.032,0.482-0.197,1.267-0.501,1.815l0.051-0.196c-0.26,0.601-0.197,1.163-0.618,1.976
				c-0.196,0.408-0.22,0.304-0.235,0.21C57.975,56.172,57.864,56.499,57.816,56.477z M58.21,55.577
				c0.016,0.007,0.243-0.551,0.243-0.551C58.362,55.144,58.295,55.358,58.21,55.577z"/>
			<path fill="#802F30" d="M7.49,37.691c0.024-0.062,0.051-0.133,0.073-0.19C7.54,37.541,7.515,37.614,7.49,37.691z"/>
			<path fill="#802F30" d="M41.974,72.799l-0.383,0.074C41.741,72.85,41.863,72.824,41.974,72.799z"/>
			<path fill="#802F30" d="M33.279,74.44l-0.586,0.013C32.924,74.467,33.105,74.458,33.279,74.44z"/>
			<path fill="#802F30" d="M6.604,42.223l-0.003,0.019c0.002,0.031,0.003,0.059,0.006,0.09L6.604,42.223z"/>
			<path fill="#802F30" d="M17.063,67.746c-0.056-0.069-0.122-0.144-0.218-0.237C16.842,67.537,16.925,67.624,17.063,67.746z"/>
			<path fill="#802F30" d="M33.387,74.438c-0.015-0.003-0.023-0.004-0.035-0.007l-0.073,0.01L33.387,74.438z"/>
			<path fill="#802F30" d="M45.879,72.22c0.075-0.041,0.143-0.077,0.226-0.123C45.996,72.148,45.932,72.187,45.879,72.22z"/>
			<path fill="#802F30" d="M45.117,71.806c0.076-0.042,0.149-0.083,0.213-0.118L45.117,71.806z"/>
			<path fill="#802F30" d="M56.422,64.519l0.341-0.407C56.585,64.303,56.487,64.425,56.422,64.519z"/>
			<path fill="#802F30" d="M46.455,71.401l0.062-0.063C46.453,71.375,46.427,71.401,46.455,71.401z"/>
			<path fill="#802F30" d="M9.212,34.821c-0.004,0.011-0.008,0.022-0.01,0.029l0.021,0.022L9.212,34.821z"/>
			<path fill="#802F30" d="M9.377,33.537c0.061-0.135,0.123-0.276,0.184-0.414C9.484,33.273,9.418,33.423,9.377,33.537z"/>
			<path fill="#802F30" d="M12.079,62.069c-0.054-0.137-0.209-0.432-0.09-0.33C11.796,61.55,11.709,61.639,12.079,62.069z"/>
			<path fill="#802F30" d="M9.818,37.593c-0.011-0.083-0.01-0.183-0.008-0.283C9.797,37.493,9.784,37.652,9.818,37.593z"/>
			<path fill="#802F30" d="M9.811,37.31c0.006-0.089,0.012-0.184,0.017-0.269C9.818,37.135,9.813,37.226,9.811,37.31z"/>
			<path fill="#802F30" d="M15.737,63.359c0.011,0.033,0.037,0.077,0.083,0.126C15.829,63.449,15.795,63.407,15.737,63.359z"/>
			<path fill="#802F30" d="M9.759,32.813c-0.017-0.095,0.758-1.925-0.012-0.449c-0.118-0.132,0.376-1.015,0.606-1.396
				c-0.208,0.254-0.013-0.194-0.12-0.144c-0.099,0.204-0.219,0.451-0.374,0.77c-0.147,0.113,0.042-0.421,0.318-0.768
				c-0.369,0.411,0.243-0.653-0.227-0.041c-0.41,0.71-0.645,1.379-0.894,1.966c-0.238,0.593-0.421,1.141-0.485,1.73
				c0.073-0.22,0.148-0.447,0.224-0.673c0.1-0.218,0.199-0.436,0.296-0.648c0.2-0.424,0.405-0.824,0.606-1.146L9.692,32.37
				c-0.481,0.711-0.693,1.2-0.985,1.985c0,0,0.047-0.108,0.117-0.27C8.887,33.92,9,33.713,9.117,33.507
				c0.228-0.413,0.456-0.825,0.456-0.825c0.507-0.729,0.27-0.188-0.012,0.441C9.638,32.972,9.715,32.839,9.759,32.813z"/>
			<path fill="#802F30" d="M10.438,34.483l0.017-0.025c0.007-0.025,0.018-0.055,0.02-0.073L10.438,34.483z"/>
			<path fill="#802F30" d="M54.036,62.501l0.059-0.146C54.029,62.462,54.016,62.502,54.036,62.501z"/>
			<path fill="#802F30" d="M9.362,35.197l0-0.001C9.36,35.208,9.359,35.211,9.362,35.197z"/>
			<path fill="#802F30" d="M51.363,65.045l0.007-0.023C51.362,65.034,51.365,65.037,51.363,65.045z"/>
			<path fill="#802F30" d="M52.733,68.248c0.01,0,0.016,0.004,0.033-0.001C52.824,68.187,52.789,68.207,52.733,68.248z"/>
			<path fill="#802F30" d="M51.37,65.058c-0.003-0.003-0.008-0.005-0.007-0.013C51.364,65.051,51.362,65.059,51.37,65.058z"/>
			<path fill="#802F30" d="M34.93,71.619c0,0,0.058,0.025,0.149,0.049C35.114,71.653,35.079,71.638,34.93,71.619z"/>
			<path fill="#802F30" d="M38.558,71.592c0.023,0.004,0.04,0.006,0.068,0.01L38.558,71.592z"/>
			<path fill="#802F30" d="M12.1,63.247c0.118,0.142,0.211,0.244,0.292,0.329C12.307,63.472,12.212,63.361,12.1,63.247z"/>
			<path fill="#802F30" d="M51.37,65.021c0.019-0.038,0.05-0.086,0.106-0.162C51.414,64.942,51.385,64.989,51.37,65.021z"/>
			<path fill="#802F30" d="M29.309,71.844c0.041,0.002,0.078,0.002,0.116,0.003l-0.065-0.019L29.309,71.844z"/>
			<path fill="#802F30" d="M27.461,71.262c0.068,0.001,0.102-0.009,0.142-0.014c-0.34-0.062-0.812-0.188-1.22-0.293
				c-0.397-0.14-0.735-0.244-0.833-0.193c0.11,0.04,0.441,0.19,0.718,0.334c0.281,0.132,0.515,0.233,0.399,0.255
				c0.479,0.089,1.141,0.39,1.401,0.433c-0.747-0.298-0.047-0.156,0.481-0.068c0.459,0.175-0.119,0.104,0.281,0.244l1.119,0.178
				l-0.967-0.189l0.327-0.104c-0.037,0-0.062-0.001-0.102-0.002C27.578,71.535,29.12,71.596,27.461,71.262z"/>
			<path fill="#802F30" d="M27.604,71.248c0.102,0.018,0.192,0.029,0.265,0.031C27.718,71.241,27.655,71.241,27.604,71.248z"/>
			<path fill="#802F30" d="M21.531,68.458c-0.073-0.037-0.153-0.079-0.257-0.132C21.324,68.352,21.433,68.407,21.531,68.458z"/>
			<path fill="#802F30" d="M60.853,52.306c-0.053,0.017-0.396,0.911-0.276,0.93c0.087-0.271,0.175-0.543,0.264-0.817L60.853,52.306z
				"/>
			<path fill="#802F30" d="M9.246,55.218l0.126,0.302l0.042,0.051C9.405,55.503,9.3,55.313,9.246,55.218z"/>
			<path fill="#802F30" d="M26.36,71.326c0.178,0.029,0.26,0.032,0.307,0.024C26.553,71.33,26.445,71.316,26.36,71.326z"/>
			<path fill="#802F30" d="M9.491,55.058c-0.02-0.14-0.056-0.341-0.016-0.386c-0.084-0.266-0.203-0.432-0.311-0.695
				C9.29,54.272,9.351,54.645,9.491,55.058z"/>
			<path fill="#802F30" d="M9.154,53.955l0.009,0.021L9.154,53.955z"/>
			<path fill="#802F30" d="M61.053,51.769l0.043-0.253l-0.003,0.136c0.064-0.211,0.15-0.417,0.198-0.632
				c0.009-0.082,0.018-0.168,0.028-0.272c-0.004,0.043,0.003,0.078,0.013,0.102l0.05-0.206c-0.038-0.547,0.11-1.843,0.077-2.223
				c-0.017-0.501-0.001-1.105,0.037-1.483c-0.029,0.351-0.039,0.818,0.04,0.685c0.063-0.354,0.153-0.615,0.218-0.945
				c0.065-0.329,0.115-0.729-0.004-1.351c0,0,0.004,0.182,0.009,0.364c0.007,0.182,0.002,0.363,0.002,0.363
				c-0.001,0-0.009-0.103-0.04-0.256c-0.029-0.153-0.066-0.358-0.104-0.563c-0.075-0.405-0.151-0.81-0.151-0.81
				c0.101-0.573,0.151,0.807,0.253,1.035c-0.153-1.263,0.188-2.345-0.151-2.911c0.128-0.096,0.342-0.259,0.23-1.098
				c-0.086,0.624-0.158-0.486-0.269,0.03c-0.102-0.276-0.065-0.934-0.195-0.96l0.073,0.066c-0.092-1.44-0.508-1.834-0.768-2.386
				c-0.572-1.597-0.684-2.381-1.292-3.63c0.064-0.086,0.147-0.538-0.084-1.052c-0.198-0.196-0.892-1.256-1.083-1.293
				c0.421,0.898,0.513,0.646,0.835,1.153c0.045,0.529-0.131,0.115,0.044,0.777c-0.096-0.56-1.219-2.125-1.353-2.733l0.121,0.172
				c-0.366-0.881-0.212-1.22-1.295-2.405c0,0-0.127-0.141-0.254-0.281C56.154,28.769,56,28.644,56,28.644
				c0.036,0.018,0.054,0.009,0.077,0.015c-0.809-0.972-0.445-0.828-1.462-1.796c0.078,0.075,0.048,0.012,0.127,0.088
				c-0.433-0.652-1.191-1.043-1.628-1.434c-0.171-0.35,0.151-0.038,0.382,0.048c-0.931-1.054-2.329-1.726-3.078-2.134
				c0.015-0.02-0.69-0.56-0.69-0.56c0.489,0.214,1.075,0.511,0.994,0.346c-0.402-0.285-0.365-0.169-0.94-0.563
				c0.147-0.006,0.444,0.078,0.781,0.174c-1.148-0.903-0.442,0.078-1.157-0.685c-0.387-0.246-0.675-0.279-0.77-0.216
				c0,0-0.625-0.56-0.638-0.54c-0.146,0.075-1.056-0.37-1.658-0.648c-0.096,0.016,0.416,0.364,0.663,0.43
				c-0.093,0.07-0.739-0.198-1.14-0.4c-0.023-0.361-2.766-1.027-2.15-1.154c-0.477-0.185-1.036-0.277-1.593-0.422
				c-0.563-0.123-1.127-0.306-1.691-0.382c-1.13-0.137-2.157-0.358-2.835-0.308c-0.431-0.109-1.332-0.181-0.783-0.27
				c-0.818-0.074-1.442-0.041-2.06,0.056c-0.617,0.086-1.229,0.11-2.037,0.143c-0.068-0.008,0.113-0.033,0.304-0.059
				c0.191-0.012,0.393-0.031,0.362-0.077c-0.529,0.042-1.004,0.123-1.562,0.137c-0.552,0.054-1.198,0.011-1.992,0.253
				c0.27-0.063,0.339-0.136,0.372-0.173c0.036,0.039-0.646,0.236-1.051,0.368c-0.239,0.027,0.304-0.099,0.166-0.105
				c-3.151,0.556-5.349,1.758-8.042,3.336c0.786-0.431,0.998-0.758,0.972-0.83l-0.778,0.427c-0.248,0.253-0.853,0.542-1.251,0.937
				c-0.075,0.01-0.316,0.132-0.115-0.06c-0.766,0.428-1.294,0.863-1.811,1.38c-0.501,0.553-1.032,1.147-1.887,1.814l1.754-1.985
				l-0.577,0.324c0,0,0.768-0.876,0.791-0.853c-0.635,0.321-0.905,0.924-1.069,0.861c0.085-0.124,0.359-0.342,0.32-0.407
				c-0.538,0.389-0.511,0.501-0.871,0.845c0.752-1.094,2.904-2.661,4.112-3.391c0.182-0.127-0.132,0.151-0.152,0.194
				c0.498-0.286,0.84-0.375,1.448-0.768c0.337-0.323-0.34,0.088-0.659,0.25c-0.006-0.115,0.154-0.197,0.496-0.404
				c0.111,0.026,2.002-0.881,2.537-0.922c0.958-0.449,0.874-0.439,0.753-0.503c-0.113-0.044-0.229-0.074,0.775-0.364l0.64-0.038
				c0.283-0.119,0.583-0.246,0.893-0.375c0.321-0.104,0.661-0.197,1.005-0.292c0.692-0.169,1.4-0.401,2.086-0.445l-0.287,0.039
				c-0.18,0.089,0.143,0.093,0.287,0.111c1.03-0.039,1.933-0.379,2.569-0.233c0.583-0.096,1.368-0.186,2.18-0.264
				c0.811-0.037,1.646-0.002,2.329-0.001c0.343,0.243-1.78,0.024-2.342,0.149c0.001-0.036,1.222,0.073,1.222,0.073
				c-0.755-0.054-1.057-0.009-1.509,0.133c1.064,0.03,1.419-0.063,2.442-0.058c-0.085,0.05,0.048,0.096,0.514,0.132l0.149-0.127
				c0.008,0.011,0.059,0.025,0.2,0.061l1.803,0.225c-0.369-0.124-0.367-0.246-0.832-0.328c0.152,0.108-0.244,0.056-0.708-0.026
				c0.42-0.017-0.443-0.158-0.426-0.222c0.938,0.155,2.089,0.342,2.714,0.411l0.166,0.175c0.863,0.269,1.804,0.453,2.384,0.651
				l-0.206,0.014c1.01,0.377,2.031,0.701,2.873,1.167c0.914,0.307,2.084,0.704,2.843,0.984c0.451,0.093,2.334,1.658,3.287,2.213
				c0.047,0.059-0.672-0.366-1.003-0.544c0.559,0.466,1.144,0.663,1.216,0.938c-1.253-1.05-0.017,0.163-0.626-0.25
				c0.592,0.475,1.274,0.909,1.567,1.142c-0.932-0.81,0.516,0.077-0.513-0.65c0.446,0.225,0.877,0.611,1.336,1.001
				c0.468,0.419,0.871,0.781,1.34,1.303c-0.064,0.04-0.002,0.167,0.245,0.503l0.3,0.185c0.324,0.41-0.753-0.685-0.1,0.14
				c0.416,0.365,0.942,0.955,1.394,1.584c0.443,0.646,0.853,1.212,1.14,1.324c0.387,0.795-1.063-1.29-0.446-0.111
				c-0.538-0.542-1.011-1.521-1.313-1.555c0.496,0.508,0.055,0.296,0.333,0.671l0.553,0.609l-0.1-0.154
				c0.97,1.023,2.021,2.939,2.764,4.515c0.377,0.629,0.718,1.199,1.058,1.767c0.291,0.604,0.556,1.265,0.821,2.126
				c-0.238-0.481,0.324,1.455-0.164,0.42c0.122,0.819,0.371,1.596,0.456,1.597c-0.129-0.719-0.03-0.256-0.124-0.865
				c0.176,0.384,0.374,1.326,0.397,1.721c-0.031-0.179-0.034-0.108-0.07-0.143c0.121,0.863,0.174,0.394,0.297,1.014
				c-0.103,0.217,0.128,1.391,0.128,1.969c0.021-0.003,0.221,0.825,0.222,0.824c-0.129-0.455-0.027,0.807-0.134,0.939
				c0.085,0.597,0.288,1.107,0.162,2.022c-0.033-0.381-0.152,0.83-0.273,0.834c-0.059,0.387-0.08,0.742-0.083,1.083
				c-0.034,0.337-0.05,0.658-0.067,0.979c-0.043,0.638-0.054,1.283-0.31,1.987c-0.016-0.052-0.015-0.357-0.158,0.054
				c-0.057,0.337-0.228,0.909-0.312,1.265V53.02l-0.002,0.02c-0.041,0.174-0.056,0.287-0.029,0.299
				c-0.028,0.318-0.029,0.567-0.065,0.887c-0.057,0.313-0.143,0.696-0.318,1.297c0.153-0.038,0.508-1.037,0.587-1.49l-0.026-0.42
				c0.301-0.303,0.262-1.091,0.404-1.348c0.021,0.39-0.127,1.104-0.307,1.884c-0.225,0.765-0.529,1.576-0.688,2.216
				c0.231-0.335,0.51-0.908,0.794-1.577c0.297-0.664,0.461-1.469,0.667-2.199l-0.257,0.623l0.206-0.766l-0.344,0.7
				c0.204-0.718,0.396-1.338,0.498-2.005c-0.122,0.782-0.447,1.021-0.283,0.602c0.318-0.827,0.081-0.915,0.21-1.568
				c-0.076,0.364-0.161,0.839-0.186,0.518c0.371-1.27,0.392-1.627,0.633-2.809c-0.24,0.129,0.091-1.499-0.086-1.686l-0.06,0.552
				c0,0-0.014-0.294-0.026-0.588c-0.017-0.294-0.068-0.587-0.068-0.587c0.168-1.082,0.21,0.966,0.312-0.689
				c-0.009-1.534-0.225-1.482-0.391-2.665c0.09,0.188,0.191,0.517,0.283,0.92c0.076,0.404,0.1,0.886,0.112,1.371l0.054-0.591
				c0.078,0.308,0.115,1.661,0.08,2.333c-0.109-1.114-0.065,0.52-0.246,1.014c0.124,0.103,0.157-0.613,0.199,0.236
				c0.039-0.791,0.096-0.903,0.137-1.91c-0.027,1.088-0.008,1.58,0.083,2.047c0.049,0.463,0.195,0.91-0.044,1.851
				c0.089-0.882-0.241,0.278-0.322,0.37c-0.054,0.411-0.167,1.245-0.195,1.594l0.241-0.271c-0.123,1.127-0.681,1.385-0.813,2.684
				c0.064,0.196,0.338-1.085,0.298-0.854c-0.316,1.756-0.921,2.234-1.59,3.633c0.012,0.101,0.162,0.144,0.013,0.678
				c-0.033-0.203-0.251,0.141-0.075-0.451c-0.255,0.455-0.467,1.035-0.628,1.47c0.545-0.944-0.05,0.471-0.081,0.686
				c-0.271,0.497-0.023-0.209,0.102-0.533c-0.23,0.393-0.618,0.789-0.584,1.103c-0.111-0.046,0.286-1.277,0.624-2.03l-0.266,0.491
				c0.116-0.371,0.163-0.427,0.427-0.916c-0.326,0.447-0.396,0.354-0.418,0.205c0.048-0.055,0.009,0.048,0.055-0.006
				c0.229-0.381,0.339-0.703,0.235-0.637c0.014-0.425-0.347,0.515-0.564,0.74c-0.09,0.206-0.181,0.411-0.269,0.613
				c0,0-0.142,0.573-0.282,1.146c-0.169,0.563-0.378,1.116-0.378,1.116c-0.488,0.865-0.795,1.202-1.307,1.745l-0.012,0.243
				c-0.541,0.675-1.075,1.285-0.874,0.742c0.055,0.004,0.116-0.092,0.235-0.234c0-0.031,0.016-0.073,0.04-0.123l0.007-0.048
				c-0.526,0.751-0.854,1.221-0.887,1.266c0.802-1.354-0.146-0.222-0.175-0.586c0,0-0.056,0.08-0.14,0.199
				c-0.082,0.12-0.193,0.279-0.325,0.421c-0.252,0.294-0.505,0.588-0.505,0.588c0.707-0.628,0.102,0.069-0.106,0.335
				c-0.189-0.02-0.81,0.886-1.315,1.311l0.01-0.047c-0.398,0.277-1.034,0.839-1.468,1.259c0.042,0.017-0.359,0.696-0.641,1.028
				c0.935-0.614,0.422-0.186,0.566-0.17c-0.081,0.063-0.271,0.184-0.274,0.212c-0.108,0.124,0.215-0.088,0.271-0.071
				c0.799-0.764,1.644-1.513,1.859-1.951c-0.313,0.152-0.383,0.438-0.708,0.639c0.165-0.227,0.385-0.449,0.65-0.689l0.103-0.09
				l0.074-0.068l0.012-0.013l0.026-0.027l0.051-0.055c0.07-0.073,0.143-0.147,0.217-0.226c0.149-0.154,0.308-0.317,0.477-0.491
				l0.303-0.148l0.628-0.75c-0.236,0.337,0.024,0.24-0.67,1.002c0.17-0.02,0.688-0.757,1.148-1.188
				c0.008,0.005,0.087-0.35,0.087-0.35c-0.012,0.154,0.834-0.9,0.333-0.068c0,0-0.055,0.082-0.136,0.205
				c-0.079,0.126-0.19,0.288-0.319,0.437c-0.247,0.305-0.494,0.61-0.494,0.61l0.38-0.246l-0.899,0.986l0.16-0.283
				c-0.351,0.405-0.567,0.622-0.716,0.746c-0.074,0.063-0.131,0.102-0.18,0.129l-0.066,0.033l-0.03,0.014l-0.016,0.006l-0.001,0.001
				l-0.001,0.001l-0.079,0.069l-0.004,0.001l-0.007,0.003c-0.156,0.045-0.308,0.098-1.008,0.815
				c-0.382,0.547-0.765,1.005-1.974,1.757c0.786-0.603,0.003-0.163,0.239-0.461c-0.864,0.512-1.051,0.826-1.441,1.186
				c-0.266,0.063-0.457,0.097,0.285-0.398c-0.025-0.239-0.942,0.714-1.133,0.533c-1.241,0.692-1.658,1.123-2.159,1.549
				c-0.524,0.369-1.127,0.771-2.74,1.279l0.091-0.119c-0.999,0.378-1.805,0.635-2.592,0.879c-0.803,0.184-1.592,0.336-2.555,0.578
				c0.004,0.043-1.572-0.009-1.572-0.009c0.342-0.073,1.237-0.344,0.792-0.397c0.778,0.14,1.537-0.157,2.356-0.195
				c0.067-0.073-0.264-0.044-0.411-0.049c0.475-0.104,0.742-0.047,1.357-0.241c-0.037-0.017-0.739,0.064-0.229-0.069
				c0,0,0.22-0.021,0.438-0.058c0.219-0.034,0.437-0.067,0.437-0.067c1.101-0.418,0.452-0.484,1.774-0.843
				c-0.199,0.191-0.64,0.517-1.142,0.708c0.61-0.168-0.782,0.325-0.21,0.22c0.807-0.47,1.3-0.393,2.363-1.003
				c-0.121,0.079-0.143,0.127-0.413,0.255l1.649-0.627c-0.223,0.038,0.1-0.133,0.448-0.322c0.345-0.199,0.693-0.461,0.589-0.485
				c-1.687,0.783-1.183,0.581-3.154,1.357c0.54-0.27,1.188-0.721,1.457-0.996c0.02-0.002,0.049-0.009,0.109-0.032
				c0.229-0.268-0.087-0.176-0.19-0.425c-0.798,0.528-1.41,0.706-2.445,1.116c-0.158,0.191,0.692,0.009,1.188-0.255
				c0,0-0.213,0.135-0.443,0.226c-0.228,0.099-0.455,0.197-0.455,0.197l0.163-0.123c0,0-0.601,0.179-1.202,0.357
				c-0.301,0.089-0.601,0.178-0.826,0.244c-0.224,0.074-0.38,0.092-0.38,0.092c0.46-0.113,0.584-0.271,0.803-0.4
				c-0.31,0.087-0.618,0.167-0.962,0.184c0.104,0.121,0.086,0.228-0.224,0.291c-0.791,0.154-1.411,0.246-1.907,0.294
				c-0.498,0.043-0.88-0.014-1.181-0.051c-0.061,0.01-0.128,0.021-0.184,0.031c0.286,0.11-1.097,0.394-1.588,0.589
				c0.016-0.149-0.836-0.072-1.302-0.14c-0.243,0.177,0.088,0.407,0.67,0.536c1.097-0.18,0.61-0.177,1.109-0.445l1.721-0.349
				l-0.37,0.182c0.885-0.013,1.67-0.39,1.64-0.2c-0.428,0.237-1.199,0.263-1.644,0.426l0.589-0.004
				c-1.002,0.294-0.546-0.105-1.77,0.158c0.47,0.097-0.109,0.03-0.635,0.181c0.437,0.068,2.185-0.292,1.843,0.009
				c-0.319,0.094-0.877,0.083-1.454,0.091c-0.577,0.014-1.179-0.055-1.608,0.095l0.042-0.03c-1.275,0.001-1.726,0.146-2.21,0.186
				c-0.54-0.123-1.299-0.063-1.894-0.101l0.023-0.073c-0.002,0.021-0.831-0.087-0.831-0.086c0.408-0.05,0.968,0.139,1.688,0.167
				l-0.077-0.146c0.81,0.218,1.377,0.04,2.011-0.078c-0.928,0.099-2.596-0.216-2.844,0.047c-0.002,0.014-0.55-0.22-0.55-0.219
				l-0.278,0.004c-0.404-0.184,0.049-0.249,0.864-0.176c0.138,0.046,0.208,0.068,0.161,0.094c0.389-0.032,0.746-0.112,1.66-0.012
				L32.79,73.89c1.144,0.135,2.191,0.031,2.579-0.113c-0.413-0.004-0.822-0.009-1.229-0.013c-0.406-0.021-0.809-0.07-1.209-0.102
				c-0.798-0.08-1.591-0.096-2.348-0.256c-0.496,0.233-1.068,0.313-1.359,0.56c-0.264-0.035-0.554-0.065-0.849-0.118
				c-0.292-0.073-0.592-0.148-0.887-0.223c-0.59-0.157-1.159-0.331-1.588-0.505l0.1-0.032c-0.427-0.141-0.808-0.306-1.146-0.387
				c-0.417-0.241,0.356-0.03,0.062-0.187l-1.451-0.45c0.139-0.087,1.325,0.366,1.893,0.57c-0.11-0.029-0.333-0.091-0.269-0.048
				c0.629,0.346,1.969,0.424,2.209,0.702c0.34,0.059-0.711-0.048,0.411,0.269c0.735,0.288,1.025,0.154,1.117,0.108
				c0.02-0.041-1.159-0.383-0.726-0.364c-0.581-0.148-0.838-0.118-1.56-0.392c0.579,0.149,1.394,0.215,1.671,0.41
				c1.177,0.127,1.081-0.292,0.548-0.391c0.101,0.164-2.076-0.419-0.639,0.127c-0.69-0.065-1.932-0.326-2.801-0.584l0.048-0.013
				l-1.063-0.367c0.162,0.021,0.492,0.11,0.527,0.044L23.3,71.768c0.437,0.095,0.318,0.024,0.049-0.094
				c-0.267-0.126-0.667-0.345-0.833-0.456c-0.197,0.029-0.783-0.168-0.286,0.152c0.557,0.369,0.371,0.115,0.912,0.373l-0.838-0.214
				l-0.058-0.048l-0.526-0.098c-1.039-0.53,0.61-0.078-0.788-0.616l0.078,0.265c-1.521-0.847-3.236-2.266-4.217-2.979
				c0.337,0.117,0.563,0.06,0.271-0.307c0.399,0.328,1.185,1.022,1.848,1.368c0.051,0.053-0.179-0.021-0.505-0.169
				c-0.321-0.154-0.708-0.427-1.019-0.689c0.058,0.25,0.488,0.535,0.9,0.772c0.43,0.214,0.824,0.404,0.774,0.571
				c1.704,1.211,1.456,0.572,2.937,1.524c0.088-0.123,0.479,0.157,0.617,0.079c-0.354-0.448-2.106-1-2.993-1.732
				c0.1,0.049,0.3,0.148,0.351,0.147c-0.659-0.466-0.957-0.614-1.465-0.87l0.05,0.053c-0.883-0.459-0.423-0.457-0.842-0.857
				c-0.19-0.12-0.795-0.646-0.763-0.481c0,0-0.184-0.188-0.367-0.377c-0.185-0.187-0.359-0.382-0.359-0.382l-0.073,0.161
				c-0.435-0.4-0.454-0.57-0.91-0.866l-0.121,0.092c0,0,0.258,0.264,0.517,0.528c0.129,0.132,0.259,0.264,0.355,0.363
				c0.096,0.101,0.171,0.154,0.171,0.154c-0.593-0.458-0.25-0.029-0.874-0.572c0.778,0.517-0.417-0.512-0.385-0.674l-0.496-0.358
				l0.14,0.079c-0.145-0.191-0.256-0.279-0.38-0.369c-0.063-0.047-0.128-0.096-0.201-0.15l-0.057-0.047l-0.106-0.112
				c-0.035-0.041-0.072-0.086-0.115-0.137c0.042,0.065,0.082,0.129,0.122,0.191c0.064,0.08,0.127,0.158,0.189,0.234
				c0.097,0.116,0.188,0.226,0.278,0.335c0.196,0.22,0.425,0.439,0.764,0.69c-0.249-0.18-0.608-0.463-0.934-0.728
				c-0.082-0.066-0.161-0.132-0.235-0.192l-0.108-0.091l-0.026-0.021l-0.013-0.011l-0.071-0.077l-0.042-0.043
				c-0.108-0.113-0.194-0.203-0.241-0.253c-0.44-0.419-0.627-0.813-0.982-1.254c0.75,0.786,0.097-0.583,1.428,1.14
				c-0.048-0.012-0.157-0.15-0.188-0.214c0.011,0.087,0.07,0.191,0.158,0.304l0.071,0.087l0.089,0.099l0.047,0.043
				c0.065,0.054,0.135,0.111,0.208,0.172c0.291,0.229,0.621,0.449,0.824,0.593c-0.015-0.166,0.374,0.169-0.212-0.476
				c0.079,0.123-0.097,0.041-0.36-0.154c-0.066-0.053-0.137-0.108-0.211-0.166l-0.113-0.096l-0.028-0.025l-0.015-0.013l-0.057-0.061
				l-0.05-0.055c-0.133-0.148-0.265-0.313-0.377-0.479l0.27-0.046l-0.731-0.897l0.079,0.075c-0.165-0.435-0.84-0.891-1.235-1.668
				c-0.429-0.438-1.657-2.41-1.32-1.443c-0.251-0.723-0.719-1.201-1.146-1.902l0.409,0.938c-0.729-0.98-0.479-0.717-1.167-1.461
				c0.018-0.119-0.02-0.341,0.119-0.188c-0.313-0.753-0.693-1.666-1.041-2.501c-0.282-0.859-0.561-1.632-0.799-2.063
				c-0.317-1.111-0.027-1.362-0.487-2.906c-0.083-0.33-0.208,0.304-0.271-0.769c0.009-0.073,0.292,0.992,0.136-0.183
				c-0.259-0.821-0.186-1.975-0.318-3.065c0.053-0.583,0.009-1.588,0.157-1.377c-0.014,0.915,0.037,2.211,0.119,2.401
				c-0.101-0.12-0.01,0.652-0.152-0.014c0.05,1.389,0.19,0.885,0.261,2.128c0.066,0.076,0.083-0.654,0.001-0.912
				c0.18-0.022,0.398,2.4,0.48,1.281c-0.124-1.297-0.61-1.647-0.486-2.803c0.122,0.448,0.138,1.166,0.397,1.717l-0.028-0.931
				c0,0-0.225-0.659-0.206-0.661l0.03,0.038c0.16-1.649-0.268-1.513-0.323-3.005c-0.196,0.858-0.33-0.213-0.448,0.438
				c0.036-1.008,0.128-1.747,0.32-1.736c0.025,1.877,0.182,0.126,0.279,1.845c0.083-0.276,0.252,0.408,0.338-0.597
				c-0.054-1.143-0.189,0.333-0.167-0.808c0.022-0.065,0.045-0.134,0.071-0.092c-0.062-0.532,0.083-0.605,0.02-1.251l0.027,0.154
				c0.2-0.761-0.002-0.865,0.229-1.512c-0.189,0.242-0.04-0.467-0.057-0.899c-0.16,0.668-0.466,0.998-0.636,2.358
				c0.102,0.178,0.172,0.086,0.185,0.647l0.054-0.882c0.012,0.183,0.021,0.342,0.032,0.517l-0.124,0.84
				c0-1.081-0.159-0.601-0.243-1.073c0.157-0.981,0.09-0.816,0.22-1.43c0.159,0.087,0.571-1.841,1.036-2.887
				c-0.049,0.17-0.111,0.386-0.145,0.505c-0.113,0.816,0.285-0.509,0.337-0.525l0.077-0.598c-0.019,0.112-0.022,0.272,0.068,0.034
				c0.175-0.788,0.021-0.79,0.277-1.559c0.108-0.024-0.001,0.659,0.223,0.208c0.138-0.136,0.532-0.567,0.834-1.584
				c-0.014-0.088,0.084-0.344,0.216-0.635c-0.015,0.042-0.036,0.093-0.039,0.114l0.405-0.586c-0.128,0.598-0.615,1.049-0.662,1.682
				l0.121,0.104c-0.166,0.434-0.329,1.045-0.357,1.34c0.274-0.649,0.29-0.8,0.542-1.548c0.126-0.066-0.005,0.477-0.023,0.554
				l-0.038-0.141C8.899,35.896,8.9,36.393,8.599,37.51c-0.052,0.167-0.034,0.061-0.052,0.015c-0.104,0.944-0.574,1.781-0.505,2.728
				l-0.027-0.308c-0.023,0.628-0.164,1.837-0.06,3.049l0.058,0.015c0.045-0.13,0.009,0.317-0.033,0.556l-0.001-0.001
				c0.012,0.301,0.024,0.595,0.036,0.872c0.034,0.278,0.066,0.539,0.096,0.772c0.033-0.149,0.06-0.34,0.063-0.56
				c-0.085-0.188,0.076-1.271-0.098-1.133c0.136-0.496,0.05-1.321,0.154-1.685c-0.189,0.659-0.081-0.485-0.13-0.615
				c0.137-0.21,0.166-0.997,0.28-0.886c0.057-0.126-0.143,0.314-0.114,0.612c0.001,0.718,0.328-1.261,0.293-0.371
				C8.6,39.438,9.093,38.039,9.27,36.88l-0.224,0.611c0.115-0.505,0.555-1.648,0.642-1.713c-0.115,0.366-0.299,0.777-0.417,1.252
				c0.103,0.059,0.41-1.101,0.509-1.124l0.278-1.423l-0.231,0.583c0.018-0.422,0.707-1.553,1.163-2.407
				c-0.043,0.601-0.697,1.289-0.978,2.278c-0.19,0.718,0.344-0.349,0.142,0.319c0.111-0.149,0.257-0.576,0.301-0.8l0.156-0.229
				c-0.112,0.625-0.594,1.916-0.783,2.813c0.01-0.081,0.015-0.153,0.003-0.183c-0.286,0.645-0.449,1.347-0.59,2.018
				c0.153-0.335,0.152-0.483,0.186-0.689c0.051-0.012-0.101,0.616-0.116,0.863c0.221-0.599,0.138-0.088,0.273-0.466
				c-0.054,0.411-0.193,0.719-0.293,1.21c-0.112,0.242-0.058-0.232-0.157-0.2c-0.033,0.522-0.29,0.717-0.316,1.488
				c0.211-0.992,0.152,0.297,0.154,0.643l0.035-0.165c0.044,0.328,0.016,0.593-0.09,0.803c-0.031-0.417,0.099-0.802-0.039-0.702
				c-0.052,0.268-0.066,0.54-0.054,0.852l-0.058-0.289l-0.079,1.355c0.081,0.22,0.19,0.582,0.318,0.771
				C8.894,44.667,9,45.117,9.033,45.42l-0.043-0.142c-0.059,0.591-0.002,1.908,0.14,2.006c-0.101,0.446-0.654-2.975-0.464,0.037
				c0.134,1.143,0.355,0.684,0.523,1.315c0,0-0.032-0.033-0.042,0.033c0.043,0.496,0.131,0.534,0.249,0.926
				c-0.021-0.297-0.047-0.727-0.108-0.857c0.065,0.066,0.092,0.321,0.119,0.606c0.035,0.283,0.108,0.59,0.188,0.767
				c-0.277-0.447,0.135,0.948-0.034,0.593c0.058,0.492,0.139,1.001,0.313,1.421c0.174,0.421,0.357,0.774,0.498,1
				c-0.008,0.706,0.354,1.112,0.713,2.131c-0.06-0.155-0.21-0.42-0.281-0.643c-0.376-0.518,0.379,1.062-0.119,0.233
				c0.102,0.179,0.075-0.015-0.029-0.199c-0.174-0.325-0.317-0.641-0.354-0.529c-0.024,0.008,0.214,0.874,0.213,0.874l-0.156-0.274
				l0.383,1.321c0.04,0.022,0.021-0.11,0.011-0.178c0.146,0.369,0.279,0.761,0.472,1.128c0.204,0.362,0.41,0.727,0.612,1.087
				c0.206,0.357,0.408,0.71,0.602,1.048c0.219,0.315,0.428,0.616,0.623,0.896c0.26-0.011,0.685,0.651,1.335,1.396
				c0.333,0.371,0.684,0.761,1.003,1.116c0.163,0.169,0.317,0.329,0.461,0.478l0.106,0.103l0.026,0.024l0.002,0.001
				c-0.02-0.021,0.044,0.05-0.043-0.048h0.001l0.003,0.003l0.006,0.005l0.014,0.01l0.053,0.038c0.068,0.046,0.132,0.089,0.195,0.131
				c-0.148-0.063-0.288-0.088-0.382-0.075c0.03,0.09-0.062,0.041-0.065,0.086c-0.01,0.013-0.017,0.028-0.018,0.048
				c-0.069-0.057-0.016,0.018-0.021,0.024c-0.121-0.104-0.631-0.463-0.974-0.914c-0.013-0.112-0.43-0.712-0.071-0.403
				c-1.09-1.206,0.011,0.28-0.413,0.011c0.3,0.336,0.579,0.629,0.841,0.892c0.131,0.129,0.258,0.253,0.381,0.374l0.092,0.087
				c0.003,0,0.058,0.061,0.018,0.012l0.048,0.036l0.189,0.143c0.497,0.37,0.935,0.676,1.361,1.02l-0.012,0.054
				c0,0,0.647,0.515,0.664,0.494c-0.477-0.478-0.325-0.595,0.291,0.007l-0.09-0.056c0.329,0.374,1.208,0.917,1.802,1.401
				c-0.007,0.013,0.51,0.175,0.51,0.175c0.639,0.418,0.538,0.641,0.676,0.898c1.004,0.698,1.763,0.778,2.57,1.066
				c0.155,0.123,0.617,0.434,0.966,0.588c0.342,0.168,0.529,0.279,0.054,0.167c1.074,0.281,1.027-0.251,2.693,0.598l-0.496-0.029
				c0.869,0.2,1.909,0.507,2.861,0.62c0.953,0.111,1.773,0.267,2.175,0.343c-0.703,0.3,2.188,0.565,2.514,0.894
				c-0.088-0.079,0.595-0.121,0.693-0.167c0.149,0.039,0.4,0.075,0.662-0.004c-0.708-0.058,0.483-0.382-0.855-0.21
				c0.679-0.278,1.532-0.405,2.981-0.607l-0.004,0.151l-1.16,0.09c0.126,0.112-0.474,0.126-0.719,0.176
				c1.091,0.036,1.023,0.046,0.966,0.154c-0.06,0.082-0.114,0.149,1.003,0.01c0.204-0.121,0.069-0.065,0.644-0.17
				c-0.271,0.036-0.308,0.144,0.134,0.096l0.404-0.167c0.818,0.127-1.268,0.327-0.577,0.405c-0.854,0.222-2.371,0.453-2.078,0.596
				c1.454-0.063,1.261-0.493,2.763-0.577l0.17,0.047c0.509-0.166,0.566-0.313,0.832-0.451c0.034,0.04,0.172,0.045,0.506-0.013
				c0.832-0.348,1.376-0.575,2.083-1.025c-0.5,0.2-0.863,0.328-1.158,0.418c-0.299,0.074-0.532,0.095-0.765,0.128
				c-0.469,0.05-0.934,0.142-2.013,0.4c0.339-0.091,1.846-0.496,1.891-0.705l0.015,0.149c0.691-0.194,1.338-0.516,2.207-0.736
				l-0.496,0.246c0.55-0.232,1.041-0.321,1.494-0.434c0.439-0.148,0.848-0.302,1.229-0.602c-0.31,0.118-0.555,0.229-0.734,0.331
				c0.535-0.31,1.251-0.583,1.865-0.842l1.082-0.884c0.025,0.071,0.787-0.345,0.48-0.04c0.473-0.18,0.761-0.397,0.976-0.618
				c0.224-0.211,0.393-0.407,0.608-0.578c0.903-0.43-0.656,0.537-0.623,0.769c0.581-0.362,1.166-0.763,1.672-1.138
				c0.502-0.421,0.921-0.872,1.193-1.185c-0.247,0.172-0.375,0.247-0.387,0.209c0.064,0.008,0.507-0.387,0.758-0.6l0.109-0.222
				c0.461-0.307,0.439-0.213,0.131,0.146c0.104-0.082,0.203-0.178,0.302-0.278l0.037-0.038l0.01-0.01l0.004-0.005l0.003-0.003
				l0.001-0.001c0.011-0.01-0.095,0.085-0.05,0.045l0,0v-0.001l0.016-0.021l0.063-0.082l0.127-0.165
				c0.171-0.219,0.354-0.427,0.581-0.564c-0.241,0.326-0.612,0.757-0.861,0.967c-0.348,0.296-0.658,0.552-0.813,0.731
				c0.341-0.323,0.612-0.547,0.856-0.727c0.156-0.094,0.388-0.314,0.577-0.452c0.396-0.324,0.862-0.681,1.581-1.567
				c0.054,0.007-0.116,0.373,0.156,0.024c0.6-0.831,0.009-0.338,0.12-0.657c-0.417,0.666-0.723,0.886-1.128,1.125l0.085-0.203
				c0.048,0.002,0.398-0.338,0.512-0.429l-0.046-0.203c0.099,0.162,0.684-0.371,1.01-0.897c-0.483,0.41-0.374,0.282-0.636,0.288
				c0.36-0.796,0.767-0.632,1.146-1.537c0.026,0.104-0.446,0.796,0.02,0.238c0.325-0.504,0.168-0.514,0.343-0.876
				c-0.115,0.463,0.038,0.425-0.079,0.943c-0.618,0.882-0.261,0.346-0.852,1.222l0.651-0.631c-0.546,0.739-0.277,0.631-0.278,0.725
				c1.104-1.156,0.539-1.079,1.117-1.905c0.174-0.467-0.521,0.789-0.205,0.086c0.52-0.784,0.033-0.235,0.538-1.157l-0.035,0.184
				c0.244-0.229,0.339-0.544,0.478-0.891c0.141-0.384-0.655,0.159,0.069-1.319c0.002,0.09,0.012,0.128,0.027,0.136
				c0,0,0.096,0.507,0.191,1.013c0.044,0.261,0.088,0.521,0.121,0.717c0.032,0.198,0.036,0.322,0.036,0.322
				c0.421-0.77,0.826-1.624,1.289-2.49c0.35-0.915,0.793-1.836,1.123-2.803c0.174-0.198,0.144,0.175,0.042,0.575
				c-0.115,0.396-0.263,0.83-0.189,0.789l-0.382,0.862c-0.076-0.089,0.672-1.85,0.198-1.12c-0.265,0.78-0.471,1.346-0.699,1.888
				c-0.258,0.53-0.494,1.056-0.751,1.81c0.414-0.338,0.946-1.847,1.427-2.757c-0.175,0.396-0.26,0.755-0.382,1.089
				c0.389-0.884,0.81-1.837,1.19-2.874l0.01-0.257c-0.198,0.717-0.462,1.17-0.476,1.234c0.407-0.902,0.42-1.767,0.287-1.868
				l-0.052,0.165l0.039-0.354L61.053,51.769z M21.485,21.69c0.043-0.043,0.074-0.084,0.092-0.122
				C21.559,21.608,21.602,21.604,21.485,21.69z M50.938,67.662c0.275-0.188,0.563-0.363,0.831-0.56l0.762-0.615
				c0.509-0.423,1.002-0.783,1.498-1.246c-1.972,1.268-3.329,2.06-0.477-0.387l0.152-0.196c-0.336,0.326-1.038,0.85-1.617,1.399
				c-0.212,0.253-0.613,0.835-1.044,1.264c-0.414,0.452-0.778,0.856-0.757,0.866c0.251-0.054,0.47-0.337,0.84-0.557L50.938,67.662z
				 M49.823,67.718c-0.623,0.384-0.443,0.354-0.499,0.479c0.208-0.154,0.415-0.31,0.62-0.462
				C49.854,67.775,49.801,67.782,49.823,67.718z M49.398,68.23c0.069-0.046,0.129-0.083,0.164-0.097L49.398,68.23z M59.076,57.777
				c-0.013,0.03-0.018,0.042-0.03,0.07c0.083-0.154,0.167-0.31,0.253-0.472C59.258,57.436,59.189,57.553,59.076,57.777z
				 M58.205,59.01l0.018,0.215c0.091-0.136,0.185-0.274,0.279-0.416C58.422,58.827,58.346,58.852,58.205,59.01z M55.101,62.652
				c-0.087,0.318-0.779,1.05-0.693,1.219c-0.012,0.078,0.148-0.063,0.325-0.228c0.188-0.19,0.39-0.394,0.603-0.609
				c-0.014-0.025,0.016-0.08,0.059-0.175c-0.215,0.209-0.392,0.317-0.388,0.16c0.699-0.405,0.304-0.639,0.864-1.236
				C55.932,61.5,55.215,62.423,55.101,62.652z M7.731,47.303c0.012-0.025,0.043-0.108,0.08-0.226l0.155,0.573
				c0.101,1.027-0.128,1.917,0.326,2.79c0.038,0.439-0.027,0.695-0.073,0.938c-0.034-0.212-0.065-0.41-0.093-0.582
				c-0.462-1.264-0.366-1.638-0.311-1.927C7.879,48.576,7.965,48.352,7.731,47.303z M10.972,58.859
				c-0.063-0.09-0.107-0.11-0.107-0.11c1.439,1.91,2.702,3.326,3.537,4.287c-0.05-0.275-0.745-1.189-1.008-1.654
				c-0.011,0.006,0.389,0.282,0.4,0.277l0.105,0.303l0.641,0.543c-0.075-0.241-0.526-0.736-0.758-1.127
				c-0.044-0.009-0.959-1.038-1.261-1.311l0.554,0.98c-0.125-0.285-1.044-1.451-1.351-1.964c-0.093,0.041,0.374,0.963,0.592,0.971
				c-0.021,0.164-0.698-0.811-0.369-0.13c-0.607-0.673-1.162-2.008-1.448-2.596l0.112-0.18c-0.226-0.686-0.396-0.351-0.64-1.182
				c0.449,0.952,0.116-0.244,0.458,0.516c-0.042-0.272,0.175-0.087-0.165-0.841c-0.484-0.549-0.237-0.844-0.627-1.391
				c-0.06-0.44,0.28,0.395,0.053-0.429c-0.419-0.892-0.492-0.814-0.68-0.821c0.236,0.9,0.533,0.921,0.726,1.649l-0.749-1.336
				c0.044,0.279,0.103,0.479,0.167,0.64c-0.109-0.285-0.231-0.518-0.358-0.712c-0.072-0.115-0.136-0.218-0.194-0.311
				c0.262,0.827,0.492,1.562,0.462,1.718l-0.118-0.085c0.001,0.329,0.282,0.763,0.426,0.954c0.318,0.714,0.734,1.376,0.7,1.58
				l-0.188-0.238C10.277,57.738,10.407,57.793,10.972,58.859z M37.389,72.789c-0.61-0.243-1.259-0.452-3.93-0.458l0.211-0.006
				c-0.668-0.15-1.323-0.134-2.025-0.124c-0.695-0.023-1.43-0.113-2.22-0.354c0.807,0.019,0.767,0.022,1.665-0.099l-0.847-0.056
				c0.26-0.13-0.584-0.186-1.194-0.299l0.579-0.108c0.352,0.12,1.294,0.306,1.273,0.254c-0.105-0.007,0.197,0.111,0.628,0.241
				c0.437,0.088,1.005,0.175,1.41,0.176c-0.075-0.146-1.768-0.216-0.989-0.386c-0.675,0.058-0.731-0.149-1.422-0.202
				c0.668,0.02,0.192-0.159,0.689-0.175l-1.116-0.146c-0.018-0.051,1.626,0.178,0.749-0.148c-0.452-0.005-1.611-0.296-1.664-0.153
				l-0.017-0.05c-0.801-0.248-0.406,0.109-1.381-0.245c-0.032,0.068,0.145,0.171,0.507,0.255c0.313,0.043,0.378-0.019,1.011,0.096
				c0.255,0.186-0.754-0.186-0.362,0.109c0.194,0.161,1.7,0.214,1.191,0.358l-0.83-0.176c-0.056,0.159-0.652,0-0.662,0.115
				c-0.52-0.086-0.951-0.379-1.502-0.395c-0.242,0.031,0.079,0.315-0.754-0.008c-0.575-0.475-2.515-1.093-3.186-1.473l-0.643-0.214
				c0.009,0.107,1.155,0.562,0.717,0.477l-0.958-0.438l0.099-0.015c-0.302-0.172-0.661-0.258-0.948-0.397
				c0.333,0.078,1,0.436,0.934,0.235c-0.42-0.255-0.475-0.309-0.87-0.524c0.089,0.043,0.168,0.075,0.168,0.049
				c-0.802-0.585-0.899-0.359-1.138-0.45c-0.961-0.365,0.76,0.7,0.572,0.772c0-0.001-2.573-1.492-2.524-1.566
				c0.23,0.116,0.461,0.231,0.423,0.12c-0.53-0.504,0.058-0.107-0.748-0.726c-0.057,0.194-1.13-0.641-1.708-1.077
				c-0.186-0.299-0.223-0.358,0.311,0.148c0.03-0.163-0.717-0.803-0.961-1.055c-0.171-0.115-0.436-0.341-0.617-0.472
				c0.165,0.246,0.01,0.24-0.494-0.189l-0.046-0.01c0.735,0.771,1.795,2.045,2.418,2.342l-0.192-0.063
				c0.907,0.839,2.224,1.473,2.584,1.943c-0.102,0.058,0.196,0.15,0.096,0.265l0.831,0.384l-0.195-0.042
				c0,0,0.331,0.198,0.662,0.396c0.323,0.212,0.682,0.359,0.682,0.359l-0.05,0.006c0.709,0.199,1.271,0.356,1.724,0.483
				c0.029-0.059-0.005-0.098,0.23-0.033c0.228,0.081,0.395,0.154,0.546,0.214h0.001l0,0.001c0.34,0.149,0.536,0.325,0.953,0.524
				c0,0-0.333-0.122-0.665-0.245c-0.333-0.122-0.662-0.254-0.662-0.254c-0.147,0.048-0.096,0.226,0.535,0.539
				c-0.27-0.099-0.417-0.063-0.088,0.076c0.048-0.012,0.906,0.271,0.617,0.065c0.644,0.219,1.441,0.631,2.388,0.895
				c0.468,0.149,0.959,0.3,1.461,0.435c0.507,0.11,1.035,0.162,1.552,0.203c-1.49-0.129,1.153,0.35-0.487,0.113
				c1.117,0.352,1.005,0.041,2.167,0.18c0.092,0.073-0.637-0.052-0.918,0.006c1.946,0.311,3.309,0.025,5.182,0.002l0.087,0.137
				C36.588,72.922,36.981,72.863,37.389,72.789z M41.032,72.025c0.348-0.099,0.708-0.167,1.058-0.294
				c-0.035,0.011-0.066,0.02-0.104,0.029l0.998-0.436c-0.648,0.15-1.099,0.135-0.244-0.212c-0.057,0.078,0.221,0.063-0.076,0.193
				c0.613-0.108,1.941-0.448,1.53-0.536c-1.066,0.547-0.35-0.167-1.188,0.254c0.431-0.284,0.922-0.364,1.343-0.579
				c-0.416,0.28,0.197,0.209,0.896-0.046c0.283-0.158,1.098-0.474,1.565-0.735c-0.23-0.04,0.162-0.288-0.646,0.024
				c0.138-0.078,0.317-0.171,0.527-0.265c0.201-0.114,0.432-0.231,0.688-0.335c-0.181,0.124-0.507,0.323-0.463,0.353
				c0.363-0.068,0.728-0.275,0.954-0.344c0.158-0.096,0.317-0.191,0.473-0.285c-0.053,0.017-0.102,0.026-0.14,0.027l0.478-0.394
				c-0.68,0.445-0.357,0.131-0.386,0.062c0.056,0.14,0.465-0.235,0.703-0.373l-0.605,0.154c0.106-0.104,0.344-0.202,0.528-0.283
				c0.175-0.094,0.296-0.17,0.193-0.192c-1.108,0.599-1.538,0.825-2.51,1.432l0.461-0.116c-1.111,0.675-0.814,0.149-2.127,0.744
				c-0.491,0.392-2.038,0.738-1.997,0.966c0.148-0.127-0.913,0.1-1.368,0.316c-0.484,0.313-2.123,0.693-1.607,0.679
				c0.445-0.094,1.016-0.331,1.404-0.278l-0.854,0.228l0.593-0.013C40.808,71.794,40.859,71.895,41.032,72.025z M58.333,61.854
				l0.024-0.027l-0.025,0.031L58.333,61.854z"/>
			<path fill="#802F30" d="M9.418,34.334c0.026-0.27,0.35-0.827,0.185-0.765c0.058,0.019-0.065,0.277-0.167,0.496
				C9.352,34.293,9.292,34.481,9.418,34.334z"/>
			<path fill="#802F30" d="M9.846,33.691c-0.006-0.052-0.063-0.044,0.062-0.302l-0.323,0.718L9.846,33.691z"/>
			<path fill="#802F30" d="M10.94,33.344c0.095-0.392,0.162-0.641,0.445-1.192c0.361-0.065-0.379,0.947-0.258,1.319
				c0.263-0.496,0.375-0.85,0.472-1.188c0.113-0.329,0.233-0.629,0.467-1.032c-0.163,0.169-0.557,0.622-0.795,1.103
				C11.028,32.831,10.847,33.279,10.94,33.344z"/>
			<polygon fill="#802F30" points="11.053,33.953 11.27,33.368 11.228,33.416 11.009,34.001 			"/>
			<path fill="#802F30" d="M6,47.183c-0.088,0.067,0.053,0.483,0.1,0.706C6.085,47.704,6.079,47.446,6,47.183z"/>
			<path fill="#802F30" d="M35.24,16.253c0,0-0.326,0.012-0.813,0.029c-0.487,0.027-1.139,0.022-1.786,0.088
				c-1.288,0.174-2.575,0.348-2.575,0.348c0.741-0.098,1.454-0.193,2.269-0.301C33.149,16.291,34.078,16.323,35.24,16.253z"/>
			<path fill="#802F30" d="M12.586,62.699c-0.873-1.033-1.38-1.478-2.185-2.646c0.407,0.845,0.863,1.311,1.243,1.749
				c0.391,0.44,0.751,0.85,1.169,1.45L12.586,62.699z"/>
			<path fill="#802F30" d="M11.729,62.794c-0.011-0.265,0.808,0.684,0.783,0.441c-0.608-0.649-0.397-0.189-0.891-0.907
				L11.729,62.794z"/>
			<polygon fill="#802F30" points="11.05,56.092 11.283,56.404 11.132,56.136 			"/>
			<polygon fill="#802F30" points="16.152,67.242 16.005,67.177 16.522,67.65 			"/>
			<path fill="#802F30" d="M15.864,67.104c0,0,0.139,0.075,0.141,0.072C16.003,67.18,15.864,67.104,15.864,67.104z"/>
			<polygon fill="#802F30" points="11.58,56.383 11.393,55.852 11.21,55.63 			"/>
			<path fill="#802F30" d="M13.384,61.144l-0.336-0.39C13.114,60.831,13.459,61.457,13.384,61.144z"/>
			<polygon fill="#802F30" points="19.571,69.8 20.185,70.106 20.135,70.055 19.522,69.749 			"/>
			<path fill="#802F30" d="M16.412,63.88c-0.161-0.338,0.76,0.676,0.319,0.092C16.252,63.543,16.391,63.771,16.412,63.88z"/>
			<path fill="#802F30" d="M21.977,69.128c0.078,0.038,0.162,0.075,0.248,0.101C22.128,69.189,22.046,69.156,21.977,69.128z"/>
			<path fill="#802F30" d="M21.977,69.128c-0.252-0.123-0.477-0.292-0.653-0.369C21.584,69.005,21.721,69.021,21.977,69.128z"/>
			<path fill="#802F30" d="M24.898,70.436l-0.233-0.099c0.266,0.031,0.148-0.004-0.088-0.037c-0.252-0.091-0.254-0.047-0.296-0.031
				c-0.055-0.004-0.114-0.008-0.175-0.012c0.083,0.013,0.16,0.024,0.225,0.034C24.722,70.44,24.962,70.525,24.898,70.436z"/>
			<path fill="#802F30" d="M36.694,74.53c-1.016-0.027-1.277-0.047-1.224-0.151c-0.956-0.015-0.808,0.16-1.389,0.212
				C35.169,74.552,35.394,74.596,36.694,74.53z"/>
			<path fill="#802F30" d="M34.081,74.591c-0.122,0.005-0.238-0.01-0.379-0.014C33.859,74.59,33.977,74.603,34.081,74.591z"/>
			<path fill="#802F30" d="M22.066,67.869c0,0,0.571,0.113,0.571,0.112l-0.192-0.07C22.445,67.911,22.062,67.879,22.066,67.869z"/>
			<path fill="#802F30" d="M38.195,74.424c-0.188,0.015-0.487,0.054-0.638,0.035C37.514,74.569,38.383,74.408,38.195,74.424z"/>
			<path fill="#802F30" d="M34.327,72.602c-0.095-0.044-0.698-0.052-0.942-0.097C33.734,72.537,34.017,72.775,34.327,72.602z"/>
			<path fill="#802F30" d="M40.976,73.533c-0.183,0.032-0.476,0.023-0.372-0.087C40.353,73.553,40.029,73.809,40.976,73.533z"/>
			<polygon fill="#802F30" points="36.056,72.585 35.919,72.553 35.273,72.633 			"/>
			<path fill="#802F30" d="M33.808,71.073c-0.697,0.072,1.088,0.379-0.11,0.395c1.545,0.177-0.114-0.15,1.025-0.137
				C34.055,71.32,33.739,71.114,33.808,71.073z"/>
			<path fill="#802F30" d="M34.722,71.331c0.099,0.002,0.203,0.003,0.315,0.005C34.911,71.334,34.81,71.333,34.722,71.331z"/>
			<path fill="#802F30" d="M44.556,70.312c-0.091,0.053-0.151,0.095-0.206,0.134C44.421,70.403,44.488,70.361,44.556,70.312z"/>
			<path fill="#802F30" d="M38.33,70.992l-1.012,0.304c0.34-0.102,0.943-0.201,1.444-0.295c0.504-0.077,0.886-0.256,0.818-0.32
				c-0.55,0.11-1.22,0.191-1.484,0.314L38.33,70.992z"/>
			<path fill="#802F30" d="M51.243,69.556l-0.391,0.359l0.552-0.356C51.234,69.643,51.435,69.339,51.243,69.556z"/>
			<path fill="#802F30" d="M51.511,69.489l-0.106,0.069C51.43,69.546,51.464,69.524,51.511,69.489z"/>
			<path fill="#802F30" d="M42.661,71.042c-0.335,0.092-0.597,0.186-0.892,0.307C41.905,71.35,42.74,71.112,42.661,71.042z"/>
			<polygon fill="#802F30" points="53.845,67.221 53.275,67.748 53.91,67.188 			"/>
			<path fill="#802F30" d="M56.84,64.728l0.126-0.081c0,0,0.111-0.133,0.208-0.278c0.094-0.146,0.188-0.294,0.188-0.294
				l-0.116,0.093c0,0-0.089,0.151-0.192,0.289C56.946,64.592,56.84,64.728,56.84,64.728z"/>
			<path fill="#802F30" d="M50.842,65.42c-0.411,0.35-0.617,0.649-0.49,0.614c-0.001-0.01,0.194-0.111,0.387-0.292
				c0.192-0.166,0.385-0.333,0.385-0.333c-0.292,0.047-0.212,0.21-0.686,0.519C50.438,65.952,50.842,65.419,50.842,65.42z"/>
			<path fill="#802F30" d="M63.01,37.769c0.146,0.213,0.344,1.394,0.266,1.472c-0.073-0.148-0.245-0.768-0.218-0.36l0.43,0.871
				c0.115,1.248-0.505-0.872-0.716-1.443c0.118,0.62,0.234,1.012,0.356,1.415c0.124,0.403,0.265,0.816,0.325,1.488
				c-0.031-0.396,0.016-0.658,0.016-0.872c0.186-0.079,0.244,1.193,0.365,2.089c0.006-0.58,0.105-0.257,0.219,0.157
				c0.014,0.075,0.029,0.125,0.045,0.159l0.039,0.141l-0.013-0.108c0.021,0.006,0.04-0.02,0.063-0.101
				c-0.136-0.757-0.065-1.355-0.121-1.85c-0.118,0.265-0.145-0.157-0.256-0.703c-0.108-0.548-0.224-1.236-0.331-1.53L63.301,37.9
				l-0.058-0.261c0.015-0.06,0.072,0.003,0.21,0.391c-0.09-0.33-0.453-1.41-0.495-1.288c0,0-0.198-0.617-0.396-1.234
				c-0.176-0.625-0.459-1.21-0.459-1.21c-0.021-0.079-0.04-0.158-0.046-0.22c-0.052-0.076-0.07-0.084-0.078-0.068
				c0,0-0.281-0.647-0.702-1.619c-0.237-0.473-0.55-1.006-0.867-1.586c-0.316-0.579-0.654-1.196-1.098-1.792
				c-0.421-0.598-0.841-1.195-1.234-1.756c-0.399-0.467-0.772-0.903-1.092-1.277c-0.16-0.186-0.307-0.357-0.437-0.509
				c-0.065-0.076-0.126-0.146-0.183-0.212l-0.08-0.094l-0.038-0.044l-0.092-0.1l-0.021-0.02c-0.222-0.213-0.35-0.335-0.35-0.335
				l0.276,0.297l0.066,0.073l0.016,0.019l0.078,0.086l0.006,0.009l0.027,0.037l0.105,0.149c0.146,0.2,0.291,0.4,0.445,0.613
				c-0.657-0.491,0.543,0.686,0.261,0.618c-0.281-0.233-0.608-0.646-0.78-0.911c-0.142-0.032,0.09,0.357-0.021,0.385
				c0.388,0.538,0.693,0.778,1.001,1.011c0.153,0.117,0.308,0.232,0.473,0.382c0.163,0.162,0.334,0.395,0.525,0.69
				c-0.114,0.018-0.433-0.281,0.104,0.463l-0.151-0.178c0.934,1.144,0.466,1.065,1.213,1.678l-0.139,0.058
				c0.411,0.506,1.026,1.613,1.388,2.228l-0.046-0.024c0.972,1.75,0.519,0.998,1.421,3.055c0,0-0.104-0.238-0.256-0.456
				c-0.143-0.221-0.285-0.442-0.285-0.442c0.25,0.73,0.459,0.837,0.613,1.374c-0.04-0.028-0.104,0.128-0.289-0.359
				c0,0,0.27,0.625,0.539,1.251c0.135,0.315,0.271,0.631,0.371,0.868c0.103,0.237,0.144,0.403,0.144,0.403
				C63.139,38.652,62.97,37.885,63.01,37.769z"/>
			<path fill="#802F30" d="M63.453,41.211c0.009,0.145,0.024,0.308,0.052,0.499C63.485,41.523,63.469,41.364,63.453,41.211z"/>
			<path fill="#802F30" d="M55.214,24.119l0.572,0.547C55.616,24.49,55.434,24.311,55.214,24.119z"/>
			<path fill="#802F30" d="M64.054,45.104c0.068-0.479,0.115,0.358,0.174,0.443l-0.037-1.722c-0.058,0.01-0.125-0.156-0.177-0.119
				L64.054,45.104z"/>
			<path fill="#802F30" d="M64.287,43.32c-0.035-0.057-0.093-0.235-0.15-0.436c0,0,0.038,0.233,0.043,0.47
				c0.005,0.235,0.011,0.472,0.011,0.472C64.233,43.818,64.271,43.71,64.287,43.32z"/>
			<path fill="#802F30" d="M61.224,43.682l-0.012-0.273L61.119,43c0,0,0.032,0.17,0.064,0.34
				C61.217,43.51,61.225,43.682,61.224,43.682z"/>
			<path fill="#802F30" d="M60.859,39.387c-0.017,0.342,0.181,0.939,0.246,1.142C60.951,39.822,61.049,40.122,60.859,39.387z"/>
			<polygon fill="#802F30" points="60.128,40.434 59.938,39.787 59.934,39.852 			"/>
			<path fill="#802F30" d="M50.315,20.989c-0.105-0.063-0.208-0.124-0.316-0.188C50.141,20.892,50.237,20.947,50.315,20.989z"/>
			<path fill="#802F30" d="M55.418,24.933c-0.591-0.683-0.354-0.505,0.001-0.221c0.178,0.142,0.384,0.31,0.53,0.409l0.053,0.034
				l0.023,0.014l0.006,0.003l0.002,0.001l0.066,0.073l0.01,0.006c0.024,0.016,0.045,0.025,0.061,0.027
				c0.029,0.004,0.038-0.022,0.015-0.09c0,0-0.003-0.002-0.007-0.007c-0.021-0.023-0.046-0.05-0.072-0.079L56.1,25.099l-0.014-0.012
				c-0.021-0.018-0.051-0.042-0.087-0.072c-0.071-0.06-0.167-0.14-0.263-0.219c-0.191-0.159-0.383-0.317-0.383-0.317l0.102,0.018
				l-0.887-0.821c0.112,0.244,0.242,0.375,0.132,0.414c-1.145-1.123-0.255-0.468-1.079-1.322l-1.438-1.096l0.135,0.065
				c-0.122-0.092-0.183-0.123-0.234-0.141c0,0-0.075-0.058-0.208-0.158c-0.13-0.104-0.321-0.245-0.568-0.388
				c-0.486-0.298-1.134-0.696-1.782-1.095c-0.642-0.406-1.354-0.688-1.857-0.952c-0.513-0.248-0.854-0.413-0.854-0.413
				c-1.031-0.392,0.474,0.426-0.32,0.219c1.135,0.567,2.771,1.48,2.938,1.41c-0.051,0.002-0.149,0.007,0.055,0.165l0.711,0.245
				l-0.567-0.42c0.356,0.124,1.042,0.515,1.674,0.917c0.626,0.41,1.14,0.909,1.286,1.073c-1.126-0.77-0.647-0.262-2.186-1.355
				c0.044,0.089,0.284,0.35-0.089,0.148c0.973,0.527,1.773,1.201,2.608,1.843C53.79,23.44,54.514,24.221,55.418,24.933z"/>
			<path fill="#802F30" d="M35.581,16.409l0.018-0.019C35.559,16.401,35.545,16.409,35.581,16.409z"/>
			<path fill="#802F30" d="M36.316,16.484l1.087-0.121l-1.679-0.109l-0.126,0.136c0.148-0.032,0.739-0.056,0.963,0.015
				L36.316,16.484z"/>
			<path fill="#802F30" d="M38.666,16.36c-0.872-0.051-0.843,0.15-0.381,0.253c-0.798,0.015-0.4-0.211-0.962-0.078
				c0.007,0.127,0.987,0.112,1.212,0.135L38.666,16.36z"/>
			<polygon fill="#802F30" points="44.874,18.002 44.621,17.98 45.178,18.212 			"/>
			<path fill="#802F30" d="M44.621,17.98l-0.554-0.229c0.022,0.063,0.045,0.125,0.124,0.193L44.621,17.98z"/>
			<path fill="#802F30" d="M42.576,17.268c-0.246-0.075-0.515-0.157-0.839-0.256L42.576,17.268z"/>
			<path fill="#802F30" d="M43.224,17.49l-0.013-0.026l-0.635-0.196C42.806,17.347,43.014,17.418,43.224,17.49z"/>
			<path fill="#802F30" d="M44.067,17.751c-0.052-0.149-0.118-0.312-0.971-0.505l0.114,0.218
				C43.211,17.464,44.075,17.728,44.067,17.751z"/>
			<polygon fill="#802F30" points="58.938,35.679 58.635,35.144 58.644,35.21 58.946,35.745 			"/>
			<path fill="#802F30" d="M57.502,32.452c-0.091-0.123-0.166-0.212-0.235-0.292C57.355,32.292,57.434,32.394,57.502,32.452z"/>
			<path fill="#802F30" d="M55.477,30.742c-0.289-0.629,0.653,0.678-0.016-0.39c0.022-0.162,0.472,0.246,0.771,0.772
				c-0.112,0.019-0.385-0.441-0.263-0.079c0.323,0.257,0.343,0.427,0.393,0.227c0.475,0.489,0.583,0.528,0.905,0.887
				c-0.12-0.174-0.244-0.418-0.4-0.672c-0.165-0.245-0.349-0.516-0.535-0.792c-0.399-0.553-0.725-1.125-1.2-1.489
				c-0.547-0.353-0.496,0.101-0.703,0.274c-0.01,0.053,0.305,0.403,0.51,0.707C55.151,30.492,55.39,30.773,55.477,30.742z"/>
			<path fill="#802F30" d="M55.853,31.759c0.164,0.257,0.229,0.324,0.34,0.49C56.251,32.146,56.002,31.951,55.853,31.759z"/>
			<path fill="#802F30" d="M52.333,24.659c-0.077-0.012-0.602-0.359-0.537-0.225c0,0,0.781,0.54,0.763,0.562
				C52.405,24.834,52.373,24.751,52.333,24.659z"/>
			<path fill="#802F30" d="M52.873,25.268l-0.314-0.272C52.632,25.07,52.728,25.155,52.873,25.268z"/>
			<path fill="#802F30" d="M52.313,24.612l0.02,0.046C52.35,24.661,52.353,24.653,52.313,24.612z"/>
			<path fill="#802F30" d="M40.174,16.643c0.027-0.07-0.432-0.105-0.661-0.122C39.695,16.559,39.949,16.627,40.174,16.643z"/>
			<path fill="#802F30" d="M23.462,18.779l-0.392,0.104C23.215,18.859,23.289,18.847,23.462,18.779z"/>
			<path fill="#802F30" d="M19.304,23.433c0,0.017-0.015,0.042-0.038,0.072C19.29,23.477,19.304,23.452,19.304,23.433z"/>
			<path fill="#802F30" d="M19.266,23.504c-0.168,0.19-0.869,0.545-1.017,0.83l0.01-0.046l-0.371,0.39
				c0.189-0.164,0.48-0.417,0.754-0.654C18.923,23.819,19.178,23.62,19.266,23.504z"/>
		</g>
	</g>
	<polygon fill="#6E1112" points="68.676,17.313 66.712,20.397 69.038,23.217 65.499,22.302 63.536,25.387 63.312,21.737 
		59.773,20.822 63.174,19.481 62.949,15.833 65.274,18.653 	"/>
	<polygon fill="#6E1112" points="53.707,5.627 53.23,9.25 56.53,10.824 52.936,11.49 52.46,15.114 50.715,11.903 47.121,12.57 
		49.637,9.917 47.891,6.706 51.19,8.278 	"/>
	<polygon fill="#6E1112" points="35.201,1.36 36.301,4.847 39.955,4.876 36.98,6.999 38.081,10.485 35.142,8.313 32.167,10.437 
		33.326,6.97 30.387,4.797 34.042,4.826 	"/>
	<polygon fill="#6E1112" points="16.625,5.314 19.096,8.01 22.421,6.493 20.623,9.673 23.093,12.368 19.511,11.641 17.713,14.822 
		17.297,11.19 13.715,10.464 17.041,8.946 	"/>
	<polygon fill="#6E1112" points="1.462,16.749 4.84,18.147 7.213,15.368 6.927,19.01 10.304,20.407 6.75,21.264 6.466,24.907 
		4.555,21.79 1,22.646 3.374,19.864 	"/>
</g>
</svg>
