<?xml version="1.0" encoding="utf-8"?>
<!-- Generator: Adobe Illustrator 16.0.3, SVG Export Plug-In . SVG Version: 6.00 Build 0)  -->
<!DOCTYPE svg PUBLIC "-//W3C//DTD SVG 1.1//EN" "http://www.w3.org/Graphics/SVG/1.1/DTD/svg11.dtd">
<svg version="1.1" id="Layer_1" xmlns="http://www.w3.org/2000/svg" xmlns:xlink="http://www.w3.org/1999/xlink" x="0px" y="0px"
	 width="467px" height="123px" viewBox="0 0 467 123" enable-background="new 0 0 467 123" xml:space="preserve">
<g>
	<path fill="#6E1112" d="M311.081,54.677c0.385,0.218,0.856,0.414,1.461,0.59c1.563,0.461,2.469,0.311,3.346,0.162
		c0.463-0.076,0.912-0.154,1.453-0.141c0.458,0.018,0.979,0.091,1.632,0.281c0.479,0.144,1.37,0.439,1.761,0.721
		c0.134,0.095,0.168,0.305,0.119,0.422c-0.746,1.754-3.276,2.609-6.012,1.803c-2.128-0.627-3.665-2.06-4.051-3.526
		C310.718,54.728,310.825,54.53,311.081,54.677z"/>
	<path fill="#6E1112" d="M321.031,55.156c-0.384-0.22-0.858-0.416-1.46-0.592c-1.563-0.461-2.472-0.309-3.347-0.161
		c-0.464,0.076-0.911,0.153-1.455,0.139c-0.457-0.015-0.974-0.087-1.63-0.281c-0.479-0.143-1.371-0.437-1.76-0.719
		c-0.135-0.096-0.167-0.306-0.119-0.419c0.746-1.758,3.276-2.612,6.009-1.806c2.131,0.628,3.667,2.06,4.058,3.529
		C321.396,55.104,321.285,55.302,321.031,55.156z"/>
</g>
<g>
	<path fill="#6E1112" d="M327.531,77.902c-0.633-0.021-1.357-0.14-2.223-0.377c-2.253-0.609-3.246-1.475-4.206-2.313
		c-0.504-0.44-0.995-0.871-1.67-1.259c-0.564-0.329-1.256-0.627-2.195-0.882c-0.692-0.186-2-0.494-2.688-0.445
		c-0.234,0.016-0.437,0.246-0.463,0.425c-0.407,2.7,2.042,5.641,5.976,6.711c3.069,0.831,6.02,0.234,7.598-1.262
		C327.937,78.237,327.952,77.914,327.531,77.902z"/>
	<path fill="#6E1112" d="M315.039,71.019c0.632,0.023,1.354,0.139,2.221,0.375c2.255,0.609,3.242,1.476,4.204,2.313
		c0.506,0.442,0.995,0.872,1.671,1.261c0.563,0.326,1.255,0.625,2.194,0.88c0.694,0.188,2.004,0.495,2.692,0.443
		c0.23-0.015,0.433-0.246,0.459-0.422c0.407-2.699-2.038-5.644-5.976-6.709c-3.068-0.833-6.02-0.237-7.598,1.257
		C314.634,70.682,314.615,71.006,315.039,71.019z"/>
</g>
<g>
	<path fill="#6E1112" d="M336.228,74.508c0.021-0.632,0.138-1.358,0.375-2.223c0.608-2.253,1.475-3.245,2.313-4.204
		c0.443-0.508,0.872-0.998,1.263-1.671c0.323-0.564,0.626-1.256,0.88-2.194c0.186-0.693,0.494-2.002,0.445-2.69
		c-0.015-0.233-0.248-0.437-0.426-0.46c-2.7-0.408-5.642,2.037-6.711,5.975c-0.832,3.07-0.234,6.019,1.261,7.595
		C335.892,74.914,336.216,74.93,336.228,74.508z"/>
	<path fill="#6E1112" d="M343.112,62.016c-0.021,0.633-0.141,1.355-0.376,2.224c-0.61,2.253-1.479,3.243-2.315,4.201
		c-0.438,0.507-0.871,0.996-1.26,1.673c-0.328,0.563-0.624,1.256-0.88,2.194c-0.186,0.691-0.495,2.002-0.443,2.69
		c0.013,0.232,0.247,0.437,0.425,0.46c2.695,0.408,5.643-2.039,6.707-5.976c0.832-3.07,0.236-6.019-1.258-7.597
		C343.446,61.614,343.126,61.593,343.112,62.016z"/>
</g>
<g>
	<g>
		<path fill="#6E1112" d="M23.86,14.212c0.175-0.405,0.436-0.846,0.812-1.349c0.975-1.308,1.79-1.731,2.579-2.14
			c0.417-0.216,0.823-0.424,1.248-0.76c0.355-0.287,0.729-0.659,1.135-1.203c0.297-0.402,0.833-1.175,0.975-1.635
			c0.052-0.156-0.048-0.345-0.157-0.408c-1.652-0.956-4.188-0.119-5.89,2.168c-1.326,1.779-1.693,3.848-1.125,5.253
			C23.537,14.391,23.746,14.486,23.86,14.212z"/>
		<path fill="#6E1112" d="M31.531,7.856c-0.177,0.404-0.438,0.846-0.813,1.349c-0.973,1.308-1.791,1.731-2.58,2.139
			c-0.416,0.217-0.822,0.425-1.247,0.763c-0.357,0.287-0.726,0.655-1.135,1.202c-0.297,0.403-0.833,1.174-0.976,1.634
			c-0.051,0.157,0.049,0.347,0.157,0.407c1.652,0.957,4.187,0.121,5.889-2.166c1.328-1.778,1.695-3.848,1.126-5.258
			C31.853,7.679,31.646,7.587,31.531,7.856z"/>
	</g>
	<g>
		<g>
			<path fill="#6E1112" d="M3.486,13.056c0.431,0.464,0.994,0.934,1.74,1.434c1.937,1.301,3.241,1.483,4.503,1.662
				c0.665,0.091,1.312,0.18,2.047,0.436c0.615,0.21,1.294,0.536,2.103,1.078c0.593,0.402,1.684,1.188,2.098,1.74
				c0.142,0.188,0.098,0.491-0.018,0.628c-1.772,2.08-5.599,2.155-8.985-0.116c-2.639-1.772-4.122-4.392-4.025-6.564
				C2.965,12.97,3.202,12.748,3.486,13.056z"/>
			<path fill="#6E1112" d="M16.871,17.982c-0.432-0.463-0.993-0.933-1.738-1.432c-1.938-1.303-3.241-1.48-4.502-1.66
				c-0.667-0.092-1.313-0.18-2.048-0.435c-0.616-0.211-1.294-0.538-2.101-1.083c-0.597-0.398-1.687-1.186-2.1-1.74
				c-0.14-0.184-0.098-0.49,0.019-0.625c1.77-2.078,5.597-2.158,8.983,0.115c2.639,1.775,4.123,4.394,4.027,6.564
				C17.39,18.068,17.159,18.294,16.871,17.982z"/>
		</g>
		<g>
			<path fill="#6E1112" d="M13.421,37.289c0.466-0.43,0.937-0.994,1.434-1.741c1.305-1.937,1.487-3.239,1.661-4.499
				c0.094-0.669,0.183-1.314,0.436-2.05c0.213-0.616,0.54-1.297,1.081-2.103c0.402-0.595,1.188-1.688,1.74-2.1
				c0.187-0.142,0.492-0.098,0.628,0.02c2.078,1.773,2.156,5.596-0.117,8.984c-1.773,2.639-4.393,4.121-6.563,4.023
				C13.336,37.809,13.112,37.572,13.421,37.289z"/>
			<path fill="#6E1112" d="M18.35,23.905c-0.466,0.427-0.934,0.993-1.434,1.739c-1.305,1.937-1.482,3.24-1.656,4.501
				c-0.096,0.665-0.184,1.312-0.437,2.048c-0.212,0.617-0.541,1.293-1.083,2.104c-0.402,0.594-1.188,1.684-1.742,2.098
				c-0.186,0.142-0.491,0.101-0.624-0.019c-2.077-1.769-2.159-5.599,0.117-8.983c1.772-2.639,4.392-4.123,6.561-4.027
				C18.435,23.386,18.658,23.615,18.35,23.905z"/>
		</g>
	</g>
</g>
<path fill="none" stroke="#6E1112" stroke-width="1.5" stroke-miterlimit="10" stroke-dasharray="4,2" d="M36.161,31.114
	c64,4,17,110,78.127,80.322c151.469-73.537,297.239,77.373,343.873-85.322"/>
<g>
	<polygon fill="#EE4632" points="461.161,32.539 457.959,27.286 451.849,28.015 460.952,21.114 	"/>
</g>
</svg>
