<?xml version="1.0" encoding="utf-8"?>
<!-- Generator: Adobe Illustrator 16.0.3, SVG Export Plug-In . SVG Version: 6.00 Build 0)  -->
<!DOCTYPE svg PUBLIC "-//W3C//DTD SVG 1.1//EN" "http://www.w3.org/Graphics/SVG/1.1/DTD/svg11.dtd">
<svg version="1.1" id="Layer_1" xmlns="http://www.w3.org/2000/svg" xmlns:xlink="http://www.w3.org/1999/xlink" x="0px" y="0px"
	 width="233.667px" height="146.333px" viewBox="0 0 233.667 146.333" enable-background="new 0 0 233.667 146.333"
	 xml:space="preserve">
<path fill="none" stroke="#6E1112" stroke-width="1.5" stroke-miterlimit="10" stroke-dasharray="4,2" d="M225.301,8.386
	c-47-21-80,9-91,29c-24.603,44.732-21.08,110.519-2.07,104.954c13.557-3.969-13.813-39.72-41.977-24.337
	C34.721,148.337,52.301,80.386,1.301,72.386"/>
<g>
	<path fill="#6E1112" d="M101.405,124.565c-0.381-0.224-0.85-0.427-1.451-0.611c-1.557-0.483-2.465-0.346-3.344-0.211
		c-0.463,0.07-0.914,0.141-1.455,0.119c-0.457-0.023-0.977-0.104-1.627-0.304c-0.477-0.151-1.363-0.46-1.75-0.747
		c-0.133-0.097-0.164-0.308-0.113-0.424c0.771-1.743,3.314-2.561,6.037-1.715c2.119,0.658,3.635,2.113,4,3.586
		C101.77,124.52,101.659,124.718,101.405,124.565z"/>
	<path fill="#6E1112" d="M91.463,123.942c0.381,0.225,0.852,0.428,1.451,0.612c1.557,0.483,2.467,0.345,3.344,0.21
		c0.465-0.069,0.914-0.141,1.457-0.117c0.457,0.021,0.973,0.102,1.625,0.305c0.477,0.149,1.365,0.457,1.75,0.744
		c0.133,0.098,0.162,0.309,0.113,0.422c-0.771,1.746-3.314,2.563-6.035,1.717c-2.121-0.658-3.637-2.113-4.006-3.588
		C91.098,123.988,91.211,123.792,91.463,123.942z"/>
</g>
<g>
	<path fill="#6E1112" d="M85.295,101.104c0.633,0.031,1.355,0.159,2.217,0.409c2.244,0.642,3.225,1.521,4.172,2.373
		c0.498,0.448,0.982,0.887,1.652,1.285c0.559,0.335,1.246,0.645,2.182,0.912c0.689,0.195,1.992,0.523,2.682,0.484
		c0.235-0.013,0.439-0.24,0.469-0.418c0.447-2.693-1.959-5.67-5.877-6.797c-3.057-0.876-6.015-0.322-7.615,1.15
		C84.895,100.763,84.876,101.085,85.295,101.104z"/>
	<path fill="#6E1112" d="M97.686,108.168c-0.631-0.032-1.352-0.159-2.215-0.407c-2.246-0.643-3.221-1.523-4.17-2.375
		c-0.5-0.449-0.982-0.887-1.652-1.285c-0.558-0.334-1.246-0.643-2.182-0.911c-0.69-0.197-1.995-0.524-2.685-0.483
		c-0.231,0.012-0.437,0.24-0.466,0.417c-0.447,2.691,1.955,5.672,5.877,6.795c3.057,0.876,6.016,0.324,7.615-1.147
		C98.086,108.511,98.111,108.187,97.686,108.168z"/>
</g>
<g>
	<path fill="#6E1112" d="M76.551,104.37c-0.031,0.631-0.158,1.355-0.408,2.217c-0.641,2.244-1.521,3.224-2.373,4.17
		c-0.451,0.501-0.887,0.984-1.287,1.652c-0.332,0.56-0.645,1.248-0.912,2.182c-0.195,0.689-0.523,1.994-0.484,2.684
		c0.012,0.233,0.242,0.439,0.42,0.466c2.693,0.448,5.67-1.955,6.797-5.876c0.877-3.058,0.322-6.015-1.15-7.612
		C76.893,103.97,76.569,103.948,76.551,104.37z"/>
	<path fill="#6E1112" d="M69.485,116.761c0.029-0.633,0.16-1.354,0.408-2.218c0.643-2.244,1.525-3.222,2.377-4.167
		c0.445-0.501,0.885-0.984,1.283-1.653c0.336-0.56,0.643-1.247,0.912-2.183c0.195-0.689,0.523-1.994,0.482-2.684
		c-0.01-0.232-0.24-0.439-0.418-0.467c-2.689-0.446-5.672,1.957-6.793,5.878c-0.877,3.058-0.324,6.015,1.146,7.614
		C69.145,117.159,69.465,117.184,69.485,116.761z"/>
</g>
<g>
	<g>
		<path fill="#6E1112" d="M30.721,39.96c-0.01-0.441,0.043-0.951,0.174-1.565c0.34-1.595,0.904-2.319,1.451-3.021
			c0.289-0.37,0.57-0.729,0.816-1.211c0.203-0.409,0.387-0.903,0.529-1.567c0.102-0.489,0.266-1.415,0.203-1.893
			c-0.018-0.163-0.188-0.293-0.313-0.306c-1.9-0.179-3.855,1.641-4.447,4.429c-0.461,2.171,0.068,4.204,1.172,5.243
			C30.502,40.257,30.73,40.256,30.721,39.96z"/>
		<path fill="#6E1112" d="M35.037,30.981c0.008,0.441-0.045,0.951-0.176,1.565c-0.338,1.594-0.904,2.32-1.451,3.021
			c-0.287,0.37-0.57,0.729-0.814,1.213c-0.205,0.41-0.387,0.898-0.529,1.566c-0.102,0.49-0.268,1.414-0.205,1.892
			c0.02,0.164,0.189,0.294,0.313,0.305c1.9,0.18,3.855-1.638,4.447-4.427c0.463-2.172-0.066-4.204-1.172-5.248
			C35.256,30.687,35.029,30.688,35.037,30.981z"/>
	</g>
	<g>
		<g>
			<path fill="#6E1112" d="M11.725,47.416c0.585,0.241,1.293,0.433,2.18,0.576c2.303,0.373,3.564-0.006,4.786-0.371
				c0.642-0.194,1.267-0.384,2.042-0.459c0.646-0.065,1.4-0.053,2.361,0.103c0.707,0.118,2.025,0.376,2.633,0.706
				c0.207,0.111,0.294,0.404,0.246,0.577c-0.742,2.629-4.188,4.296-8.213,3.646c-3.139-0.51-5.579-2.271-6.398-4.285
				C11.215,47.555,11.338,47.254,11.725,47.416z"/>
			<path fill="#6E1112" d="M25.943,46.303c-0.585-0.24-1.291-0.433-2.177-0.575c-2.306-0.374-3.563,0.008-4.784,0.372
				c-0.645,0.194-1.268,0.385-2.043,0.46c-0.648,0.064-1.4,0.051-2.361-0.106c-0.709-0.114-2.028-0.374-2.635-0.705
				c-0.204-0.108-0.294-0.404-0.244-0.575c0.74-2.628,4.185-4.299,8.211-3.646c3.139,0.511,5.58,2.271,6.4,4.283
				C26.451,46.164,26.336,46.468,25.943,46.303z"/>
		</g>
		<g>
			<path fill="#6E1112" d="M30.869,65.286c0.244-0.584,0.437-1.294,0.576-2.18c0.377-2.304-0.001-3.564-0.369-4.782
				c-0.194-0.646-0.383-1.27-0.46-2.044c-0.063-0.648-0.051-1.404,0.104-2.362c0.117-0.708,0.375-2.028,0.704-2.635
				c0.11-0.207,0.407-0.294,0.579-0.243c2.629,0.743,4.295,4.184,3.645,8.212c-0.51,3.139-2.271,5.579-4.283,6.396
				C31.01,65.795,30.707,65.673,30.869,65.286z"/>
			<path fill="#6E1112" d="M29.76,51.066c-0.245,0.584-0.434,1.293-0.576,2.181c-0.377,2.304,0.006,3.563,0.374,4.781
				c0.19,0.645,0.381,1.269,0.458,2.043c0.064,0.649,0.049,1.401-0.105,2.363c-0.117,0.708-0.377,2.026-0.707,2.633
				c-0.109,0.206-0.404,0.296-0.574,0.244c-2.626-0.74-4.299-4.187-3.645-8.212c0.509-3.138,2.27-5.58,4.28-6.399
				C29.621,50.562,29.92,50.676,29.76,51.066z"/>
		</g>
	</g>
</g>
<g>
	<polygon fill="#EE4632" points="217.785,9.155 223.596,7.128 224.165,1 229,11.353 	"/>
</g>
</svg>
