<?xml version="1.0" encoding="utf-8"?>
<!-- Generator: Adobe Illustrator 16.0.3, SVG Export Plug-In . SVG Version: 6.00 Build 0)  -->
<!DOCTYPE svg PUBLIC "-//W3C//DTD SVG 1.1//EN" "http://www.w3.org/Graphics/SVG/1.1/DTD/svg11.dtd">
<svg version="1.1" id="Layer_1" xmlns="http://www.w3.org/2000/svg" xmlns:xlink="http://www.w3.org/1999/xlink" x="0px" y="0px"
	 width="285.667px" height="123px" viewBox="0 0 285.667 123" enable-background="new 0 0 285.667 123" xml:space="preserve">
<path fill="none" stroke="#6E1112" stroke-width="1.5" stroke-miterlimit="10" stroke-dasharray="4,2" d="M277,48.465
	c-34,52-88-28-158.744,15c-43.625,26.515-52.01,53.564-33,48C98.813,107.496,164-16.535,0,8.465"/>
<g>
	<path fill="#6E1112" d="M73.325,55.858c-0.381-0.224-0.85-0.427-1.451-0.611c-1.557-0.483-2.465-0.346-3.344-0.211
		c-0.463,0.07-0.914,0.142-1.455,0.119c-0.457-0.023-0.977-0.104-1.627-0.304c-0.477-0.151-1.363-0.46-1.75-0.747
		c-0.133-0.097-0.164-0.308-0.113-0.424c0.771-1.743,3.314-2.561,6.037-1.715c2.119,0.658,3.635,2.113,4,3.587
		C73.69,55.813,73.579,56.012,73.325,55.858z"/>
	<path fill="#6E1112" d="M63.383,55.235c0.381,0.225,0.852,0.428,1.451,0.612c1.557,0.483,2.467,0.345,3.344,0.21
		c0.465-0.069,0.914-0.141,1.457-0.117c0.457,0.021,0.973,0.102,1.625,0.305c0.477,0.149,1.365,0.457,1.75,0.744
		c0.133,0.098,0.162,0.31,0.113,0.422c-0.771,1.746-3.314,2.563-6.035,1.717c-2.121-0.657-3.637-2.113-4.006-3.588
		C63.018,55.281,63.131,55.085,63.383,55.235z"/>
</g>
<g>
	<path fill="#6E1112" d="M57.215,32.396c0.633,0.031,1.355,0.159,2.217,0.409c2.244,0.642,3.225,1.521,4.172,2.373
		c0.498,0.448,0.982,0.887,1.652,1.286c0.559,0.334,1.246,0.644,2.182,0.911c0.689,0.195,1.992,0.523,2.682,0.484
		c0.235-0.013,0.439-0.24,0.469-0.418c0.447-2.693-1.959-5.67-5.877-6.797c-3.057-0.876-6.015-0.322-7.615,1.15
		C56.815,32.056,56.796,32.378,57.215,32.396z"/>
	<path fill="#6E1112" d="M69.606,39.461c-0.631-0.032-1.352-0.158-2.215-0.406c-2.246-0.644-3.221-1.524-4.17-2.376
		c-0.5-0.449-0.982-0.887-1.652-1.285c-0.558-0.334-1.246-0.643-2.182-0.911c-0.69-0.197-1.995-0.524-2.685-0.483
		c-0.231,0.013-0.437,0.24-0.466,0.417c-0.447,2.691,1.955,5.672,5.877,6.795c3.057,0.876,6.016,0.324,7.615-1.147
		C70.006,39.805,70.031,39.479,69.606,39.461z"/>
</g>
<g>
	<path fill="#6E1112" d="M48.471,35.663c-0.031,0.631-0.158,1.355-0.408,2.218c-0.641,2.243-1.521,3.223-2.373,4.169
		c-0.451,0.501-0.887,0.984-1.287,1.652c-0.332,0.56-0.645,1.248-0.912,2.182c-0.195,0.689-0.523,1.994-0.484,2.684
		c0.012,0.233,0.242,0.439,0.42,0.466c2.693,0.448,5.67-1.955,6.797-5.876c0.877-3.058,0.322-6.015-1.15-7.612
		C48.813,35.263,48.489,35.241,48.471,35.663z"/>
	<path fill="#6E1112" d="M41.405,48.055c0.029-0.634,0.16-1.354,0.408-2.219c0.643-2.244,1.525-3.222,2.377-4.167
		c0.445-0.501,0.885-0.984,1.283-1.653c0.336-0.56,0.643-1.247,0.912-2.183c0.195-0.689,0.523-1.993,0.482-2.684
		c-0.01-0.232-0.24-0.439-0.418-0.467c-2.689-0.446-5.672,1.957-6.793,5.878c-0.877,3.058-0.324,6.015,1.146,7.614
		C41.065,48.452,41.385,48.477,41.405,48.055z"/>
</g>
<g>
	<polygon fill="#EE4632" points="277.482,55.021 275.97,49.056 269.916,47.954 280.65,44.042 	"/>
</g>
</svg>
