<?xml version="1.0" encoding="utf-8"?>
<!-- Generator: Adobe Illustrator 16.0.3, SVG Export Plug-In . SVG Version: 6.00 Build 0)  -->
<!DOCTYPE svg PUBLIC "-//W3C//DTD SVG 1.1//EN" "http://www.w3.org/Graphics/SVG/1.1/DTD/svg11.dtd">
<svg version="1.1" id="Layer_1" xmlns="http://www.w3.org/2000/svg" xmlns:xlink="http://www.w3.org/1999/xlink" x="0px" y="0px"
	 width="48px" height="48px" viewBox="0 0 48 48" enable-background="new 0 0 48 48" xml:space="preserve">
<circle fill="#EE4632" cx="24" cy="24.059" r="24"/>
<g>
	<g>
		<line fill="#FFFFFF" x1="33.443" y1="22.113" x2="15.161" y2="40.396"/>
		<g>
			<path fill="#FFFFFF" d="M16.316,40.649c-0.025,0.058-0.148,0.005-0.174-0.05c0.022,0.192-0.1,0.071,0.096,0.289
				c0.047,0.156-0.151,0.073-0.174-0.072L16.035,41.1l0.125-0.063c0.145,0.198-0.199,0.099-0.031,0.327l0.152-0.184l0.049,0.065
				c-0.022-0.102,0.078-0.151,0.127-0.151c0.025,0.03,0.073,0.074,0.049,0.11c0.217-0.192-0.244-0.354-0.132-0.579
				C16.367,40.639,16.352,40.649,16.316,40.649z"/>
			<path fill="#FFFFFF" d="M16.908,40.896l-0.143-0.286l0.174-0.065c-0.072-0.074-0.045-0.22-0.17-0.229c0,0.025,0,0.069-0.025,0.08
				c-0.146-0.173,0.078-0.239-0.117-0.365c-0.053,0.137-0.102,0.115-0.031,0.305c-0.102,0.071-0.2,0.096-0.299,0.08
				c-0.002,0.049,0.092,0.15,0.08,0.203l0.016-0.027l0.244,0.236c-0.023-0.077,0.025-0.08,0.052-0.115l0.142,0.42
				c0.27,0.181,0.274-0.088,0.423-0.05C16.982,40.948,17.206,40.93,16.908,40.896z"/>
			<path fill="#FFFFFF" d="M16.377,40.619l-0.003,0.006L16.377,40.619z"/>
			<path fill="#FFFFFF" d="M25.409,28.786c0.026-0.033-0.022-0.099-0.047-0.132l-0.329,0.338c0.073,0.055,0.248,0.035,0.221,0.137
				c0.099,0.041,0.126-0.104,0.054-0.203l0.072,0.121c-0.046-0.201,0.249-0.012,0.271,0.112l0.006-0.008l-0.261-0.689
				C25.29,28.514,25.498,28.688,25.409,28.786z"/>
			<path fill="#FFFFFF" d="M32.517,22.163c-0.021,0.066-0.003,0.094,0.024,0.112C32.54,22.243,32.535,22.207,32.517,22.163z"/>
			<path fill="#FFFFFF" d="M25.334,28.303l-0.083-0.217C25.265,28.154,25.295,28.23,25.334,28.303z"/>
			<polygon fill="#FFFFFF" points="27.131,31.024 27.157,31.049 27.112,30.945 27.11,30.945 			"/>
			<path fill="#FFFFFF" d="M26.292,26.226c0.004-0.011,0.006-0.017,0.011-0.03C26.296,26.204,26.294,26.215,26.292,26.226z"/>
			<path fill="#FFFFFF" d="M27.075,32.779l0.005-0.291c0.049,0.088,0.1-0.006,0.147,0.104c0-0.022,0.027-0.102-0.022-0.121
				l-0.025,0.036c-0.12-0.277-0.242-0.305-0.263-0.585c-0.197-0.036-0.126,0.106-0.08,0.239c0,0.027-0.007,0.046-0.011,0.065
				l0.152,0.398L27.075,32.779z"/>
			<path fill="#FFFFFF" d="M31.564,25.353l0.014,0.019L31.564,25.353z"/>
			<path fill="#FFFFFF" d="M31.636,25.44l-0.058-0.069C31.604,25.41,31.602,25.471,31.636,25.44z"/>
			<path fill="#FFFFFF" d="M25.437,28.453c-0.034-0.038-0.071-0.09-0.103-0.15l0.062,0.159
				C25.405,28.459,25.422,28.456,25.437,28.453z"/>
			<path fill="#FFFFFF" d="M25.754,28.997l-0.098,0.154l0.057,0.147C25.723,29.215,25.751,29.129,25.754,28.997z"/>
			<path fill="#FFFFFF" d="M25.978,26.309c0.229-0.289,0.169,0.296,0.344,0.233c0.045-0.099-0.04-0.236-0.029-0.316
				c-0.111,0.3-0.335-0.39-0.484-0.123c-0.169-0.229-0.067-0.368,0.058-0.385c0.271,0.112,0.07,0.212,0.24,0.417
				c0.052-0.115,0.003-0.135-0.068-0.277c0.174-0.085,0.034-0.505,0.377-0.318c0.054-0.137-0.045-0.223-0.092-0.379
				c-0.195-0.215-0.248,0.033-0.445-0.094c0.025,0.012,0.073,0.03,0.098,0.063l-0.125,0.038c0.15-0.005,0.195,0.217,0.169,0.275
				c-0.024,0.035-0.075,0.104-0.125,0.038l0.002-0.091c-0.124-0.006,0.021,0.28-0.152,0.23c-0.05-0.041-0.049-0.088-0.073-0.117
				c0.07,0.208-0.006,0.266-0.008,0.469l-0.145-0.264c0.143,0.309-0.108,0.432-0.357,0.442c0.05,0.02,0.101,0.017,0.124,0.071
				c-0.027,0.127-0.226,0.045-0.296-0.099c0.094,0.242-0.426,0.14-0.306,0.462l0.569,1.5c-0.008-0.042-0.011-0.083,0-0.11
				c0.222,0.138,0.223,0.091,0.317,0.335c-0.021-0.168-0.193-0.283-0.092-0.4c0.047,0.131,0.241,0.348,0.368,0.266
				c0.082-0.441-0.253-1.123-0.27-1.629c0.147,0.129,0.301-0.102,0.426-0.162c0.112,0.185,0.087,0.297,0.044,0.398
				c0.055-0.035,0.136-0.109,0.2-0.162L25.978,26.309z"/>
			<path fill="#FFFFFF" d="M25.833,27.379c0.02,0.006,0.033,0.006,0.047,0.006C25.865,27.377,25.85,27.374,25.833,27.379z"/>
			<polygon fill="#FFFFFF" points="26.019,26.8 26.032,26.816 26.045,26.783 			"/>
			<path fill="#FFFFFF" d="M25.811,28.703c0.019,0.058,0.025,0.074,0.046,0.132c-0.001-0.024-0.002-0.044-0.002-0.068
				C25.846,28.736,25.832,28.715,25.811,28.703z"/>
			<path fill="#FFFFFF" d="M25.515,28.514l-0.049-0.065c-0.015,0.003-0.019,0.003-0.029,0.005
				C25.466,28.486,25.493,28.512,25.515,28.514z"/>
			<path fill="#FFFFFF" d="M28.216,26.563l-0.005-0.055C28.198,26.525,28.204,26.545,28.216,26.563z"/>
			<path fill="#FFFFFF" d="M26.501,26.253c-0.075,0.104,0.195,0.218,0.068,0.347l0.051-0.025c-0.004,0.179-0.206,0.3-0.306,0.415
				c-0.07-0.093-0.167-0.032-0.282-0.173c-0.044,0.104-0.089,0.206,0.005,0.376c-0.09,0.003-0.044,0.187-0.157,0.192
				c0.102,0.053,0.178,0.344,0.226,0.107c-0.002,0.021,0.023,0.033,0.023,0.055c0.199,0.014,0.054-0.203,0.13-0.285
				c0.124,0.029,0.046,0.2,0.121,0.187c0.027-0.171,0.401-0.22,0.108-0.497c0.053-0.094,0.125-0.041,0.198-0.009
				c-0.191-0.42,0.554-0.291,0.162-0.681c-0.026,0.058-0.102,0.115-0.08,0.261L26.501,26.253z"/>
			<path fill="#FFFFFF" d="M25.94,28.533c0.007-0.006,0.014-0.014,0.022-0.014L25.94,28.533z"/>
			<path fill="#FFFFFF" d="M23.675,28.541l-0.217-0.291c0.154-0.277,0.302-0.283,0.481-0.48c0.048,0.021,0.048,0.066,0.048,0.088
				c0.102-0.162,0.353-0.305,0.333-0.52c0.044-0.038,0.235-0.068,0.268,0.05c-0.001-0.044,0-0.091,0.032-0.104
				c0.098,0.085-0.026,0.08,0.047,0.154c0.024-0.012,0.051,0,0.026-0.033c0.047,0.109,0.343,0.277,0.191,0.418
				c-0.271-0.157,0.076-0.127-0.193-0.33c-0.05,0.047,0.048,0.135,0.071,0.168c-0.066,0.055-0.124-0.006-0.174-0.063
				c0.049,0.096-0.131,0.074-0.052,0.217c-0.102,0.138-0.17-0.185-0.246-0.102l0.194,0.282l-0.176,0.086
				c-0.106,0.274,0.439,0.387,0.358,0.736c-0.096-0.151-0.392-0.275-0.542-0.223c0.051-0.071,0.007-0.338,0.155-0.344
				c-0.297-0.08,0.129-0.173-0.143-0.332c0.048,0.156-0.029,0.261-0.154,0.277l0.001-0.047c-0.1,0.05,0.092,0.357-0.106,0.365
				c-0.044,0.058-0.102-0.02-0.148-0.085C23.719,28.508,23.727,28.594,23.675,28.541z M23.735,28.379l0.093-0.044
				C23.772,28.311,23.748,28.338,23.735,28.379z"/>
			<path fill="#FFFFFF" d="M17.836,39.904h-0.039C17.812,39.913,17.826,39.91,17.836,39.904z"/>
			<path fill="#FFFFFF" d="M24.02,33.906l-0.048,0.029C23.996,33.931,24.01,33.917,24.02,33.906z"/>
			<path fill="#FFFFFF" d="M23.917,35.587l-0.003,0.112C23.933,35.675,23.929,35.634,23.917,35.587z"/>
			<polygon fill="#FFFFFF" points="18.326,39.446 18.331,39.446 18.326,39.424 			"/>
			<path fill="#FFFFFF" d="M21.568,36.817c-0.029-0.011-0.059-0.02-0.086-0.022C21.509,36.817,21.537,36.822,21.568,36.817z"/>
			<polygon fill="#FFFFFF" points="23.917,35.564 23.908,35.564 23.917,35.587 			"/>
			<path fill="#FFFFFF" d="M25.108,34.208c0.001-0.014,0.001-0.027,0.003-0.047C25.103,34.178,25.105,34.194,25.108,34.208z"/>
			<path fill="#FFFFFF" d="M24.376,33.587c0.003-0.014,0.004-0.03,0-0.046V33.587z"/>
			<path fill="#FFFFFF" d="M26.214,32.678l0.021-0.088C26.211,32.62,26.208,32.647,26.214,32.678z"/>
			<path fill="#FFFFFF" d="M24.674,33.604l-0.024-0.041C24.65,33.576,24.661,33.596,24.674,33.604z"/>
			<polygon fill="#FFFFFF" points="16.784,39.531 16.787,39.528 16.762,39.498 			"/>
			<path fill="#FFFFFF" d="M17.003,40.012l-0.028,0.066C16.994,40.062,17.004,40.037,17.003,40.012z"/>
			<path fill="#FFFFFF" d="M20.406,37.21c-0.049-0.021-0.123-0.027-0.146-0.085C20.282,37.202,20.404,37.322,20.406,37.21z"/>
			<path fill="#FFFFFF" d="M15.55,37.775c0.024,0.042,0.038,0.077,0.052,0.11C15.587,37.834,15.574,37.787,15.55,37.775z"/>
			<path fill="#FFFFFF" d="M15.602,37.886l0.025,0.085C15.621,37.943,15.613,37.916,15.602,37.886z"/>
			<path fill="#FFFFFF" d="M18.784,34.867c0.019,0.011,0.038,0.02,0.051,0.017C18.799,34.854,18.787,34.854,18.784,34.867z"/>
			<path fill="#FFFFFF" d="M16.898,40.078c0.049,0.063-0.031,0.393,0.169,0.25c0.172,0.184-0.027,0.191-0.03,0.282
				c0.076,0.009,0.098,0.13,0.172,0.182c0.001-0.044-0.023-0.121,0.027-0.146c0.098,0.063,0.096,0.176,0.021,0.189
				c0.148,0.038,0.071,0.211,0.222,0.203c0.103-0.228,0.156-0.409,0.014-0.785c-0.053,0.137-0.105,0.297-0.254,0.302l-0.121-0.185
				c0.223,0.047,0.176-0.109,0.277-0.181l-0.276,0.112c-0.218-0.035-0.187-0.126-0.144-0.225
				C16.956,40.092,16.93,40.1,16.898,40.078z"/>
			<polygon fill="#FFFFFF" points="15.685,38.6 15.676,38.6 15.685,38.622 			"/>
			<path fill="#FFFFFF" d="M23.102,29.585l-0.041-0.074C23.073,29.549,23.085,29.571,23.102,29.585z"/>
			<path fill="#FFFFFF" d="M16.543,39.229L16.543,39.229C16.541,39.227,16.543,39.224,16.543,39.229z"/>
			<path fill="#FFFFFF" d="M22.676,29.986l-0.012-0.014L22.676,29.986z"/>
			<path fill="#FFFFFF" d="M25.87,33.403l0.025,0.019C25.896,33.403,25.883,33.4,25.87,33.403z"/>
			<path fill="#FFFFFF" d="M22.689,30l-0.014-0.014L22.689,30z"/>
			<path fill="#FFFFFF" d="M21.238,32.579c0,0,0.035,0.017,0.068,0.033C21.296,32.596,21.277,32.582,21.238,32.579z"/>
			<path fill="#FFFFFF" d="M21.863,32.408l0.024,0.009L21.863,32.408z"/>
			<path fill="#FFFFFF" d="M21.191,37.807c0.021-0.017,0.033-0.036,0.039-0.056C21.213,37.762,21.197,37.779,21.191,37.807z"/>
			<path fill="#FFFFFF" d="M22.664,29.973c-0.012-0.022-0.021-0.044-0.033-0.074C22.643,29.932,22.652,29.953,22.664,29.973z"/>
			<polygon fill="#FFFFFF" points="21.407,33.958 21.403,33.931 21.389,33.931 			"/>
			<path fill="#FFFFFF" d="M21.088,34.055l-0.037-0.066c-0.01,0.137-0.217,0.203-0.069,0.385c0.021-0.03,0.247-0.066,0.319,0.052
				c0.012-0.091,0.203-0.052,0.204-0.106c-0.175-0.006-0.147-0.13-0.145-0.242c0.099-0.006,0.121,0.14,0.196,0.126l0.102-0.137
				l-0.126,0.082l-0.125-0.189l0.004,0.027C21.307,34.235,21.167,33.771,21.088,34.055z"/>
			<path fill="#FFFFFF" d="M21.051,33.988c0.001-0.021-0.002-0.044-0.012-0.068C21.025,33.941,21.035,33.963,21.051,33.988z"/>
			<path fill="#FFFFFF" d="M20.066,34.455c-0.004,0.014-0.006,0.03-0.006,0.055C20.062,34.496,20.064,34.479,20.066,34.455z"/>
			<path fill="#FFFFFF" d="M25.598,29.362c-0.049-0.044-0.248-0.035-0.125,0.085l0.13-0.055L25.598,29.362z"/>
			<path fill="#FFFFFF" d="M18.793,37.131c0.016-0.009,0.028-0.02,0.037-0.033l-0.012-0.025
				C18.793,37.062,18.793,37.105,18.793,37.131z"/>
			<path fill="#FFFFFF" d="M21.326,34.516c0.002-0.039-0.01-0.066-0.025-0.091C21.299,34.447,21.305,34.475,21.326,34.516z"/>
			<path fill="#FFFFFF" d="M18.5,36.851c-0.05-0.022-0.124-0.053-0.172-0.097c-0.031,0.03,0.011,0.115,0.003,0.168
				C18.348,36.869,18.399,36.842,18.5,36.851z"/>
			<path fill="#FFFFFF" d="M18.331,36.928v-0.006V36.928z"/>
			<path fill="#FFFFFF" d="M25.711,29.352l0.002-0.053l0.018,0.047l0.108-0.035c0-0.017,0.003-0.033,0.01-0.047
				c0,0.008,0.008,0.024,0.02,0.041l0.037-0.011c-0.067-0.182-0.019-0.412-0.051-0.527c0-0.107,0.035-0.203,0.086-0.233
				c-0.041,0.035-0.065,0.109,0.018,0.165c0.15-0.006,0.395,0.165,0.351-0.148l-0.075,0.082l-0.091-0.444
				c0.173,0.046,0.045,0.219,0.116,0.34c0.006-0.27,0.473-0.03,0.306-0.326c0.146,0.129,0.391,0.343,0.467,0.241
				c-0.222-0.093-0.046-0.156-0.268-0.272c-0.047-0.109,0.15-0.049,0.052-0.158l0.05,0.065c0.372,0.065,0.081-0.327,0.034-0.505
				c0.129-0.242,0.302-0.236,0.43-0.41c0.098,0.086,0.393,0.3,0.443,0.229c-0.098-0.154-0.019-0.346-0.165-0.52
				c-0.174,0.041,0.046,0.223,0.019,0.324c-0.222-0.115-0.171-0.162-0.344-0.189c0.124,0.008,0.18-0.354,0.402-0.261v0.044
				c0.198-0.008,0.614,0.368,0.547-0.044l-0.016-0.182l0.043,0.056c0.151-0.119,0.297,0.102,0.302-0.193
				c-0.001,0.025,0.023,0.033,0.023,0.059c0.175,0.005,0.08-0.262,0.106-0.363c0.173,0.094,0.122,0.141,0.193,0.262
				c0.202-0.1,0.133-0.489,0.064-0.745l0.175-0.017c-0.003,0.11,0.068,0.322,0.166,0.385c0.026-0.079-0.047-0.132,0.054-0.182
				c0.072,0.1,0.12,0.209,0.192,0.352c0.298-0.014-0.269-0.338,0.102-0.184c0.051-0.047-0.046-0.2-0.144-0.308l0.223,0.047
				c-0.121-0.143-0.02-0.259,0.032-0.349c-0.049-0.066-0.197-0.083-0.174-0.006c-0.098-0.107-0.069-0.23-0.019-0.277
				c0.292,0.256,0.278-0.359,0.545,0.021c0.129-0.31,0.409-0.645,0.439-0.903c0.124,0.027,0.226-0.065,0.295,0.121
				c0.178-0.173-0.014-0.547,0.236-0.648c0.05,0.022-0.075,0.083,0.022,0.168c0.004-0.226,0.324-0.091,0.429-0.344
				c-0.025,0.036,0.022,0.102,0.048,0.135c-0.05-0.044-0.022-0.168-0.021-0.259c0.049-0.002-0.002,0.069,0.048,0.088
				c0.477-0.208,0.364-0.843,0.717-1.172c-0.1,0.093,0.045,0.313,0.118,0.387l0.099-0.091c-0.053-0.129,0.018-0.2,0.01-0.327
				c0.041,0.028,0.107,0.033,0.121,0.107c0.373-0.006-0.039-0.629,0.287-0.764l0.088,0.646l0.197,0.061l0.045,0.288
				c0.174,0.028,0.005-0.269,0.152-0.14c0.023,0.055-0.027,0.08,0.047,0.157c0.123-0.018,0.027-0.127,0.053-0.207
				c0.142,0.421-0.137,0.692-0.215,0.907c-0.002,0.046-0.049-0.089-0.073-0.118c-0.051,0.068-0.175,0.016-0.202,0.14
				c0.072,0.168,0.124,0.052,0.174,0.027c0.098,0.107,0.072,0.121,0.046,0.179c-0.146-0.129-0.276,0.179-0.499,0.063
				c-0.178,0.267,0.394,0.321,0.117,0.478l-0.223-0.091c-0.004,0.247-0.059,0.517-0.234,0.627l0.024-0.036
				c-0.048-0.088-0.122-0.096-0.171-0.115c-0.175,0.041-0.08,0.327-0.305,0.236c0.046,0.288-0.035,0.618-0.089,0.846
				c-0.246-0.17,0.007-0.359-0.064-0.549l-0.126,0.129c0.075-0.082,0.027-0.192-0.043-0.357c-0.151,0.074-0.006,0.291-0.06,0.451
				c-0.048-0.066-0.097-0.086-0.147-0.039l0.123,0.151c-0.011-0.009-0.027-0.014-0.051-0.009l-0.104,0.275
				c0.099,0.016,0.222,0.137,0.271,0.088c-0.098-0.063-0.072-0.121-0.021-0.165c0.048,0.132,0.123,0.027,0.197,0.102
				c-0.102,0.096-0.203,0.233-0.229,0.335l-0.147-0.104c-0.125,0.061-0.153,0.229-0.253,0.256l-0.048-0.088
				c-0.151,0.074-0.179,0.267-0.403,0.241c0.046,0.244,0.04,0.492,0.111,0.726c0.12,0.206-0.498,0.085-0.38,0.429
				c-0.026-0.009-0.047-0.201-0.07-0.3c-0.101,0.05,0.044,0.313-0.152,0.162c0.227-0.11-0.146-0.129-0.119-0.253
				c-0.076,0.082-0.128,0.195-0.104,0.297c0.126-0.129,0.193,0.283,0.247,0.08c0.045,0.244-0.033,0.439-0.209,0.502
				c-0.072-0.076-0.122-0.096-0.197-0.082l0.072,0.143c-0.075,0.036-0.021-0.236-0.172-0.162c0.07,0.3-0.451,0.242-0.16,0.635
				c-0.223-0.047,0.031-0.305-0.267-0.335c-0.047-0.2,0.2-0.168,0.057-0.362c-0.027,0.123-0.172-0.115-0.223-0.069l0.021,0.189
				l0.026-0.014c0.019,0.302-0.282,0.45-0.436,0.657c0.02,0.326,0.162,0.678-0.04,0.843c-0.047-0.153-0.25,0.055-0.318-0.245
				c-0.175-0.002-0.152,0.185-0.08,0.262c0.101-0.05,0.05-0.003,0.15-0.027c0.048,0.132-0.056,0.225-0.154,0.206
				c0.026-0.011,0.001-0.022-0.023-0.053c-0.149,0.027,0.047,0.132,0.021,0.233c-0.146-0.107-0.176,0.107-0.301,0.102l0.095,0.267
				c-0.071-0.167-0.125,0.038-0.247-0.058c0.023,0.146,0.118,0.344-0.007,0.404c-0.023-0.102-0.175-0.006-0.297-0.124
				c-0.274,0.044,0.063,0.593-0.26,0.571c-0.022-0.033-0.071-0.143-0.146-0.129c-0.001,0.068-0.076,0.115-0.1,0.168l-0.003-0.006
				l0.001,0.006c-0.012,0.024-0.008,0.052,0.021,0.079c0.054,0.182,0.142,0.335,0.116,0.561c0.146,0.129,0.198-0.03,0.2-0.121
				l-0.097-0.176c0.246,0.171,0.077-0.148,0.176-0.107c0.169,0.319-0.108,0.476-0.088,0.753c0.271,0.115,0.473-0.027,0.601-0.203
				l-0.149-0.017l0.076-0.079l-0.222-0.072c0.1-0.047,0.126-0.15,0.203-0.209c-0.077,0.083-0.297-0.076-0.223-0.093
				c0.223,0.05,0.004-0.179,0.078-0.236c-0.049,0.024-0.101,0.068-0.148-0.041c0.298,0.032,0.227-0.11,0.523-0.056
				c-0.244-0.214,0.128-0.173-0.043-0.379l-0.073,0.039L28.04,30.33c0.297,0.076,0.094,0.288,0.394,0.252
				c0.176-0.129-0.069-0.368,0.034-0.506c0.096,0.177,0.116,0.388,0.015,0.481l0.125,0.008c0.047,0.11-0.104,0.229-0.18,0.286
				c-0.044-0.267-0.099,0.006-0.271-0.066c0.122,0.141,0.173,0.05,0.193,0.239c0.077-0.083,0.077-0.104,0.228-0.156
				c-0.277,0.159,0.262,0.65-0.039,0.73c0.028-0.146-0.22-0.159-0.294-0.212c-0.025,0.058-0.077,0.171-0.079,0.239l0.22,0.159
				c-0.027,0.192-0.468-0.173-0.399,0.151c0.098,0.129,0.149-0.074,0.149-0.03c-0.055,0.294-0.424,0.052-0.722,0.063
				c0.049,0.066,0.17,0.185,0.217,0.341c-0.097-0.132-0.195-0.15-0.217-0.294c-0.101,0.003-0.078,0.148-0.08,0.239
				c0.175-0.041,0.12,0.206,0.169,0.294c-0.075,0.039-0.098-0.129-0.096-0.197c-0.076,0.014-0.297-0.1-0.151,0.096
				c-0.121-0.118-0.19-0.442-0.139-0.555l-0.075,0.035c-0.022-0.099,0.002-0.088,0.076-0.126c-0.148-0.038-0.245-0.146-0.318-0.244
				c0.024,0.011,0.024,0.032,0.05,0.044c0.074-0.017,0.076-0.083,0.003-0.138c-0.121-0.2-0.164-0.038-0.275-0.088l-0.035,0.102
				l0.285,0.75c-0.04,0.159-0.207,0.079-0.361,0.077l0.118,0.159c-0.1,0.071-0.225,0.109-0.346-0.121
				c0.05,0.041,0.051,0.02,0.075,0.009c-0.017-0.022-0.024-0.039-0.03-0.056l-0.021-0.03c-0.048,0.138-0.077,0.226-0.077,0.236
				c-0.042-0.359-0.242-0.258-0.461-0.529l-0.08,0.235c0.175-0.017,0.123,0.121,0.121,0.187c-0.146-0.129-0.126,0.13-0.202,0.165
				l-0.023-0.03c-0.1,0.003-0.177,0.107-0.203,0.209c0.05,0.041,0.192,0.352,0.289,0.527c0.162-0.061,0.152,0.061,0.245,0.138
				c-0.019,0.005-0.041,0.021-0.025,0.044c0.023,0.055,0.074,0.03,0.123,0.071c0.053-0.182,0.155-0.318,0.01-0.561
				c-0.122-0.05,0.022,0.146-0.077,0.126c-0.071-0.187,0.03-0.235,0.131-0.329l0.148,0.083l0.034-0.16
				c0.021,0.102,0.166,0.198,0.087,0.324c0.122,0.096,0.076-0.126,0.177-0.153l-0.121-0.185c0.073,0.096,0.224-0.021,0.245,0.192
				l-0.03,0.28l0.148,0.061l-0.103,0.162l-0.049-0.11c-0.104,0.319-0.367-0.244-0.399,0.151c0.119,0.253,0.068,0.344-0.107,0.429
				c0.052-0.135-0.122-0.141-0.193-0.283c-0.175,0.02-0.054,0.203-0.032,0.327c-0.122-0.074-0.22-0.138-0.119-0.209
				c-0.195-0.217-0.078,0.148-0.298-0.055c-0.279,0.291,0.456,0.912-0.142,0.98l-0.073-0.096c-0.105,0.315-0.329,0.338-0.458,0.602
				l-0.373-0.063c0.001-0.069-0.067-0.324-0.215-0.385c0.295,0.146,0.298-0.011,0.496,0.024c-0.048-0.065-0.122-0.074-0.171-0.093
				c0.051-0.047,0.173,0.024,0.199-0.077c-0.048-0.041-0.173-0.025-0.147-0.107l0.224,0.05c0.052-0.182-0.267-0.382-0.066-0.459
				c0.095,0.148,0.217,0.374,0.192,0.456c0.089-0.035-0.011,0.156,0.118,0.173c-0.088-0.271,0.097-0.173,0.105-0.406
				c0.011,0.041,0.042,0.079,0.023,0.121l0.251-0.103c-0.148-0.06,0.029-0.258-0.142-0.397c-0.251,0.123-0.103,0.162-0.403,0.285
				c0.025-0.093-0.055-0.329-0.164-0.511c0.007,0.003,0.015,0.006,0.025,0c-0.121-0.184-0.196-0.192-0.463-0.461
				c0.093,0.288-0.129,0.194-0.133,0.42c0.125,0.168,0.254,0.121,0.273,0.024l-0.004,0.198l-0.048-0.086l-0.305,0.207
				c0.04-0.059-0.029-0.16-0.067-0.248c-0.039,0.027-0.11,0.02-0.188,0.012c0.148,0.135,0.243,0.238,0.207,0.266
				c-0.198,0.133-0.415,0.1-0.636-0.002l-0.01,0.029c0.172,0.116,0.142,0.377,0.238,0.574c-0.147-0.15-0.174-0.005-0.298-0.032
				c0.146,0.194,0.415,0.397,0.612,0.478c-0.044-0.267-0.095-0.22-0.264-0.492l0.03-0.326l0.096,0.176
				c0.149-0.03,0.056-0.294,0.227-0.109c0.07,0.164-0.078,0.17-0.007,0.334l0.124,0.006c0.07,0.28-0.221-0.112-0.225,0.135
				c0.196,0.104,0,0.021,0.046,0.176c0.148,0.063,0.179-0.264,0.397,0.03c0.045,0.176-0.521-0.079-0.353,0.261l-0.024-0.033
				c-0.161,0.094-0.061,0.286-0.017,0.426c-0.137-0.029-0.095,0.162-0.144,0.231l-0.074-0.074l-0.051,0.112
				c-0.098-0.176,0.1-0.094,0.152-0.184l-0.147-0.129c0.246,0.079,0.051-0.223-0.004-0.407c0.028,0.212-0.296,0.228-0.048,0.522
				l-0.196-0.083l0.022,0.077c-0.147-0.063-0.268-0.27-0.216-0.385c0.049,0.021,0.074,0.03,0.098,0.063
				c-0.023-0.099-0.095-0.242,0.03-0.306l0.023,0.124c0.126-0.104,0.178-0.264,0.082-0.439c-0.225,0.11-0.402,0.261-0.553,0.426
				c0.266,0.36,0.385,0.591,0.652,0.903c-0.052,0.16-0.155,0.344-0.353,0.33l-0.049-0.066c-0.074,0.014-0.099,0.072-0.101,0.138
				c-0.125-0.027-0.122-0.184-0.196-0.192l-0.054,0.248c-0.122-0.141,0.004-0.27,0.055-0.338c0,0.021-0.001,0.065,0.024,0.076
				c0.124-0.017,0.031-0.371,0.251-0.211c0.001-0.066,0.072,0.211,0.198,0.104c0.15-0.005,0.004-0.203-0.045-0.266
				c-0.073-0.077-0.224,0.019-0.271-0.113c-0.052,0.069,0.021,0.189-0.13,0.195c0.051-0.068-0.019-0.302,0.13-0.22
				c-0.021-0.255-0.388-0.588-0.462-0.552c0.123,0.096-0.082,0.352,0.216,0.338c0.071,0.211-0.055,0.34-0.058,0.519l-0.025-0.032
				l-0.078,0.147c-0.021-0.052-0.021-0.12-0.094-0.194l0.042,0.354c-0.046-0.222-0.148-0.038-0.247-0.057
				c0.098,0.131,0.119,0.277,0.243,0.282c0.147,0.017-0.023-0.099,0.028-0.167l0.094,0.264l-0.023-0.012l0.095,0.198
				c-0.126,0.106-0.291-0.39-0.295-0.099l0.22,0.181c-0.202,0.144-0.65,0.138-0.679,0.352c-0.079-0.146-0.249-0.343-0.403-0.406
				c0.086-0.02,0.186-0.132,0.241-0.226c0.05,0.022,0.144,0.33,0.019,0.368c0.367,0.292,0.008-0.403,0.35-0.079
				c0.324-0.091-0.165-0.476,0.207-0.456c-0.146-0.151-0.023-0.124-0.145-0.264c-0.295-0.189-0.228,0.244-0.428,0.274
				c0.002-0.021,0.002-0.068-0.021-0.099c-0.127,0.038-0.127,0.104-0.13,0.217l0.024,0.011c0.046,0.244-0.172-0.049-0.297-0.058
				c0,0.047-0.124,0.085-0.004,0.182l-0.246-0.036l0.17,0.162c-0.05,0.068-0.174-0.027-0.127,0.129l0.146,0.151l0.201-0.099
				c-0.027,0.123,0.121,0.164,0.068,0.277c-0.069-0.256-0.148-0.017-0.295-0.146l0.021,0.146l-0.023-0.055
				c-0.124-0.027-0.002,0.112-0.076,0.148c0.148,0.016,0.295,0.079,0.274-0.11c0.022,0.143-0.007,0.357-0.031,0.393
				c-0.003,0.126-0.161,0.058-0.237,0.102c0.057-0.176-0.49-0.409-0.152-0.535c0.024,0.032-0.002,0.047-0.026,0.036
				c0.221,0.158,0.128-0.151,0.105-0.275c-0.122-0.096-0.098-0.176-0.245-0.146c0.098,0.041,0.167,0.318-0.008,0.313l-0.219-0.248
				l-0.15,0.097v-0.024c-0.196-0.104-0.104,0.162-0.275,0.156c0.021,0.146-0.281,0.316,0.065,0.459
				c-0.223-0.072-0.103,0.184-0.155,0.297l0.199-0.009c0.045,0.291-0.027,0.148,0.141,0.511c-0.074-0.052-0.148-0.085-0.195-0.17
				c-0.178,0.15-0.479,0.321-0.385,0.609c-0.127,0.104-0.419-0.15-0.476,0.118c-0.001,0.069,0.246,0.192,0.071,0.233
				c-0.024-0.011-0.07-0.277-0.172-0.137c0.096,0.264-0.301,0.102-0.255,0.367c-0.124-0.005-0.202,0.121-0.323-0.043
				c0.127-0.061,0.229-0.223,0.18-0.311c0.073,0.099,0.15,0.016,0.147,0.153c0.249-0.035,0.003-0.181,0.204-0.233
				c-0.051-0.065-0.223-0.094-0.199-0.014c-0.195-0.195,0.154-0.344-0.189-0.464c-0.153,0.118,0.213,0.563-0.109,0.475
				c-0.071-0.165,0.102-0.137-0.043-0.4l-0.174,0.017l0.071,0.211l-0.024-0.033c-0.348-0.008,0.043,0.357-0.013,0.607
				c0.224,0.047,0.317,0.357,0.466,0.373c-0.077,0.127-0.178,0.174-0.372-0.019c0.031-0.349-0.195-0.218-0.213-0.585
				c-0.099-0.041-0.243-0.327-0.368-0.244c0.021,0.255,0.196,0.126,0.143,0.307c-0.023-0.008-0.048-0.019-0.072-0.052
				c0.047,0.153-0.101,0.027-0.054,0.203l-0.023-0.055c-0.199-0.036,0.046,0.223-0.152,0.165c0.171,0.115,0.071,0.164,0.118,0.297
				c0.125-0.018,0.371,0.153,0.497,0.002c-0.098-0.132-0.171-0.184-0.169-0.297l-0.076,0.104c0-0.038-0.014-0.082-0.019-0.123
				l0.146-0.028c-0.027,0.193,0.145,0.264,0.215,0.43c-0.148,0.052-0.051,0.115-0.15,0.14c-0.162-0.173-0.48-0.091-0.705-0.083
				c0.025-0.011,0.045-0.038,0.061-0.046c-0.02-0.19-0.197-0.083-0.246-0.127l0.022,0.146c0-0.021-0.023-0.076-0.073-0.074
				c-0.052,0.113,0.119,0.275,0.068,0.388c-0.1-0.085-0.17-0.294-0.268-0.291c-0.1-0.063-0.37-0.22-0.398-0.027
				c0.027,0.041,0.019,0.091,0.001,0.14c0-0.011,0.001-0.02-0.003-0.03l-0.174-0.027c-0.096-0.217,0.2-0.05,0.105-0.272
				l-0.145-0.153c0.049-0.05,0.049-0.181,0.003-0.288c-0.101,0.049-0.075,0.104-0.128,0.22c-0.107-0.085-0.118-0.214-0.119-0.231
				l0.072,0.097c0.223,0.024,0.004-0.291,0.155-0.388c0.024-0.011,0.024,0.012,0.05,0.045c-0.045-0.245,0.251-0.146,0.156-0.435
				l0.049,0.11c-0.006-0.121-0.018-0.404-0.029-0.676l-0.057-0.061c-0.049-0.02,0.002-0.066,0.051-0.069l0,0
				c-0.002-0.137-0.006-0.267-0.007-0.362c-0.052-0.02-0.103-0.03-0.136-0.014c0.048,0.088-0.127,0.151,0.045,0.291
				c-0.148-0.038-0.103,0.184-0.201,0.165c0.173,0.024,0.094,0.198,0.167,0.297c-0.122-0.074-0.102,0.115-0.224-0.028
				c-0.049-0.019,0.123,0.053,0.076-0.057c-0.046-0.201-0.248,0.032-0.27-0.179c-0.029,0.214-0.229,0.335-0.234,0.579l0.124-0.017
				c-0.075,0.039-0.179,0.198-0.251,0.146c0.025-0.058,0.075-0.104,0.104-0.184c-0.146-0.151-0.127,0.129-0.227,0.044l0.093,0.398
				l0.077-0.058c0.047,0.132-0.203,0.164-0.328,0.247c-0.145-0.261,0.152-0.162,0.181-0.354c0.003-0.156-0.245-0.146-0.22-0.271
				c-0.066-0.027-0.109,0.027-0.084,0.104l-0.065-0.008c-0.118-0.253,0.074-0.362,0.017-0.621c0.011,0.027,0.024,0.059,0.043,0.08
				c0.148-0.006,0.225-0.088,0.252-0.212c-0.099-0.019-0.076,0.039-0.076,0.083c-0.049-0.044,0.004-0.135-0.021-0.212
				c-0.123,0.017-0.122-0.096-0.196-0.082c0.001-0.091,0.051-0.116,0.126-0.151c0.1,0.041,0.073,0.121,0.171,0.206
				c0.001-0.112,0.247,0.079,0.226-0.11c-0.15,0.074-0.17-0.228-0.193-0.329l-0.023,0.014c-0.072-0.143-0.047-0.179,0.076-0.104
				c-0.003,0.091-0.076,0.104,0.045,0.201c0.025-0.036,0.051-0.072,0.053-0.138l0.048,0.109l0.128-0.173
				c-0.072-0.121-0.169-0.297-0.29-0.459c0.122,0.05,0.101-0.071,0.103-0.14l0.022,0.055c0.148,0.017,0.228-0.2,0.155-0.296
				c0.123,0.027,0.207,0.876,0.463,0.464c0.128-0.13-0.192-0.352-0.213-0.52c0,0,0.023,0.03,0.049,0.042
				c0.074-0.036-0.022-0.144-0.021-0.234c-0.074-0.008-0.125,0.039-0.1,0.094c-0.098-0.129,0.126-0.107,0.078-0.239
				c0.121,0.231,0.174-0.041,0.223,0.094c0.223,0,0.203-0.256,0.131-0.442c0.296,0.143,0.104-0.162,0.327-0.184
				c-0.024,0.014-0.026,0.079-0.077,0.082c0.07,0.209,0.201-0.053,0.222,0.182c0.001-0.045-0.073-0.074-0.074-0.03
				c-0.026,0.058-0.003,0.156,0.071,0.211l0.223,0.024l-0.002,0.066l0.323,0.021c-0.023-0.032-0.073-0.052-0.098-0.063
				c0.25-0.102,0.356-0.396,0.532-0.527c-0.365-0.423,0.208-0.547,0.09-0.912c0.08,0.146,0.262,0.362,0.364,0.426
				c-0.011,0.044,0.092,0.258-0.005,0.288c-0.074-0.052-0.222-0.046-0.245-0.17c-0.128,0.22,0.196,0.151,0.292,0.349
				c0.154-0.23,0.036-0.574,0.064-0.788l0.05,0.044l0.003-0.182c-0.1,0.05-0.32-0.176-0.146-0.195l-0.001,0.022
				c0.149,0.038,0.153-0.187,0.254-0.258l-0.072-0.187c0.102-0.072,0.346,0.164,0.518,0.282c0.152-0.118,0.032-0.393,0.012-0.606
				c0.148,0.063,0.375-0.116,0.395,0.117c0.029-0.214-0.557-0.75-0.037-0.647l0.048,0.156c0.177-0.223,0.261-0.706,0.458-0.692
				c0.291,0.438,0.62,0.121,1.012,0.442c-0.091-0.074-0.043-0.176-0.076-0.23c0.059,0.027,0.127,0.041,0.082-0.063
				c-0.148,0.008-0.314-0.423-0.32-0.132c-0.17-0.318-0.263-0.606-0.086-0.758l0.146,0.151l-0.176,0.084
				c0.123,0.097,0.047,0.154,0.07,0.234c0.326-0.16,0.316,0.379,0.545,0.109c-0.072-0.118-0.049-0.063-0.022-0.167
				c-0.024,0.035,0.073,0.143,0.124,0.096l-0.073-0.165c0.335,0.162,0.019,0.305,0.267,0.406c0.021,0.212-0.082,0.44,0.137,0.6
				c0.227-0.088-0.214-0.497,0.036-0.574l0.098,0.063c0.003-0.112-0.118-0.252-0.166-0.362c0.05,0.044,0.099,0.063,0.147,0.039
				c-0.093-0.289-0.065-0.391-0.185-0.687c-0.083,0.393-0.349,0.057-0.456,0.441c-0.023-0.099,0.105-0.318-0.09-0.532l0.147,0.151
				c0.001-0.157,0.005-0.313,0.155-0.366l0.021,0.146c0.031-0.238,0.448,0.003,0.305-0.349c-0.051,0.022-0.074,0.058-0.074,0.104
				c0-0.135,0.103-0.206,0.201-0.256l-0.091-0.4c0.071,0.074,0.175-0.02,0.245,0.148c0.225,0,0.055-0.272,0.082-0.374
				c0.271,0.044-0.027,0.168,0.166,0.385c0.225-0.088,0.33-0.315,0.284-0.538c-0.062,0.002-0.103-0.009-0.138-0.047
				c0.051,0.044,0.102-0.033,0.139-0.066l-0.072-0.121c0.125,0.009,0.173,0.072,0.196,0.195c0.074-0.038-0.044-0.291,0.153-0.209
				c0.021,0.212-0.204,0.234-0.18,0.354c0.104-0.294,0.496,0.094,0.626-0.282c0.049,0.044,0.096,0.176,0.147,0.129
				c0.077-0.148-0.17-0.229-0.242-0.371c-0.028,0.146-0.126,0.129-0.3,0.058l-0.055-0.102c0.044,0.036,0.102-0.017,0.157,0.009
				l-0.146-0.176c0.17,0.184,0.393,0.23,0.395,0.096c-0.198-0.058-0.172-0.071-0.392-0.253c-0.095-0.288,0.297,0.077,0.202-0.233
				c0.05,0.066-0.002,0.203,0.123,0.165c0.076-0.061-0.071-0.189-0.07-0.277c0.096,0.197,0.219,0.294,0.338,0.524
				c-0.102,0.138-0.051,0.047-0.103,0.229l0.224,0.024c-0.079,0.126,0.095,0.241,0.143,0.308c0.323-0.025-0.093-0.354,0.058-0.429
				c-0.048-0.153-0.126,0.085-0.148-0.106c0.126-0.083-0.072-0.119-0.018-0.3l0.048,0.085c0.122,0.053,0.051-0.091,0.077-0.146
				c0.001-0.091-0.563-0.462-0.386-0.659c0.031,0.049,0.055,0.08,0.073,0.096l1.053,1.42c0.188-0.191,0.441-0.376,0.746-0.514
				c0.294,0.189,0.041,0.357,0.163,0.451l-0.149,0.052c-0.098-0.106,0.179-0.241-0.094-0.332c-0.103,0.25-0.302,0.214-0.259,0.593
				c0.295,0.189,0.18-0.264,0.477-0.187c-0.063,0.03-0.074,0.097-0.077,0.168c0.133-0.071,0.274-0.146,0.431-0.229l-0.031-0.085
				c-0.105,0.053-0.182,0.085-0.197,0.085c0.126-0.085,0.079-0.308-0.091-0.491l-0.025,0.011l-0.018-0.091L25.711,29.352z
				 M32.535,22.611c0.01,0.024,0.025,0.049,0.047,0.076C32.561,22.658,32.539,22.646,32.535,22.611z M24.257,31.997
				c0.165-0.116,0.354-0.206,0.51-0.319c-0.592-0.109-1.027-0.203-0.617-0.602l0.001-0.052c-0.096,0.011-0.192,0.097-0.253,0.206
				c0.055,0.195,0.287,0.876,0.331,0.912c0.122,0.074,0.051-0.068,0.125-0.082L24.257,31.997z M23.57,31.508
				c-0.118,0.041-0.022,0.099,0.036,0.182l0.056-0.11C23.633,31.574,23.604,31.555,23.57,31.508z M23.68,31.755
				c0.011-0.005,0.021-0.011,0.034-0.005L23.68,31.755z M25.308,30.305l-0.004,0.014l0.072-0.041
				C25.356,30.274,25.335,30.28,25.308,30.305z M24.975,30.294l0.11,0.148l0.067-0.039C25.088,30.352,25.031,30.308,24.975,30.294z
				 M24.039,30.39c0.121,0.187,0.02,0.303,0.189,0.486c0.039,0.052,0.079,0.047,0.12,0.036c0.032-0.022,0.067-0.05,0.106-0.077
				c-0.025-0.027-0.042-0.058-0.054-0.091c-0.055,0.008-0.121-0.014-0.216-0.135c0.319,0.154-0.096-0.244,0.054-0.271
				C24.142,30.184,24.015,30.313,24.039,30.39z M17.646,37.705c-0.018-0.012-0.066-0.042-0.127-0.08l-0.025-0.151
				c0.151-0.074,0.494,0.091,0.377-0.228c0.103,0.008,0.244,0.099,0.363,0.17c-0.029,0.017-0.061,0.027-0.094,0.03
				C18.18,38.051,17.655,37.257,17.646,37.705z M19.248,36.729c-0.001,0.022,0.023,0.055,0.023,0.055
				c-0.075-0.574,0.037-0.876,0.184-0.997c-0.154-0.104-0.375-0.082-0.485-0.076l-0.097-0.201l0.147,0.085l-0.046-0.222
				c-0.123-0.074-0.174,0.019-0.298-0.012c0.024,0.033,0.043,0.357,0.091,0.492l0.224-0.022c-0.073-0.008-0.202,0.187-0.229,0.291
				c0.073,0.074,0.297,0.077,0.151-0.096c0.122,0.096-0.004,0.226,0.194,0.261c0.02,0.212-0.229,0.267-0.354,0.283l-0.196-0.173
				c-0.148,0.008,0.169,0.274-0.028,0.261c0.076-0.148-0.222-0.182-0.145-0.286c-0.1-0.041-0.195-0.194-0.272-0.091
				c0.169,0.319-0.247-0.057-0.103,0.229c-0.124-0.027-0.096-0.197-0.221-0.138c0.02,0.236,0.117,0.321,0.287,0.506
				c0.15-0.05-0.117-0.344,0.008-0.382l0.141,0.467c0.073,0.011,0.1-0.006,0.106-0.035c-0.015,0.049,0.001,0.123,0.04,0.208
				c0.02,0.05,0.037,0.091,0.052,0.127c0.095-0.091,0.18-0.168,0.271-0.107l0.072,0.099c0.111,0.047,0.104-0.068,0.064-0.156
				c0.074-0.091,0.037-0.294,0.167-0.201l0.046,0.11C19.121,36.881,19.121,36.858,19.248,36.729z M22.772,33.596
				c-0.376-0.253-0.723-0.465-0.954-0.121l0.001-0.044c-0.343-0.055-0.021,0.544-0.416,0.5c-0.033-0.206-0.028-0.189-0.205-0.555
				l-0.003,0.181c-0.145-0.197-0.148-0.016-0.224,0.041l-0.144-0.264c0.099,0.02,0.224-0.063,0.174-0.106
				c0,0.044,0.396,0.118,0.424-0.027c-0.146-0.13-0.275,0.109-0.418-0.198c0.021,0.168-0.125,0.039-0.152,0.162
				c-0.022-0.165-0.17-0.206-0.217-0.359l-0.078,0.17c-0.049-0.041,0.079-0.283-0.193-0.349c0.023,0.12-0.201,0.165-0.055,0.315
				l-0.049-0.044c-0.125,0.061,0.17,0.253-0.031,0.283c0.074,0.074,0.147,0.104,0.174,0.05c0.002-0.069-0.095-0.176-0.044-0.27
				c0.147,0.085-0.103,0.071,0.146,0.22c0.122,0.071,0.104-0.274,0.271,0l-0.125,0.061c0.147,0.151,0.072,0.212,0.192,0.329
				c-0.001,0.11-0.222-0.002-0.152,0.185c0.073,0.12,0.294,0.258,0.12,0.274c-0.296-0.143-0.476,0.121-0.526,0.236l0.022,0.168
				c0.097,0.085,0.125-0.151,0.199,0.014l-0.079,0.148l-0.048-0.066c-0.051,0.024-0.027,0.127-0.029,0.192
				c-0.072-0.143,0.053-0.182-0.117-0.319c-0.084,0.022-0.15-0.027-0.17,0.053c0-0.021-0.006-0.047-0.029-0.068
				c-0.175,0.041,0.069,0.277,0.093,0.357c0.093,0.307,0.297,0.076,0.442,0.249l-0.23,0.401c-0.023-0.077-0.047-0.154-0.121-0.206
				c-0.148,0.006-0.122-0.121-0.225-0.003c0.221,0.203-0.004,0.27,0.042,0.47c-0.124-0.052-0.147-0.063-0.071-0.143
				c-0.146-0.129-0.199,0.03-0.25,0.055c0.012,0.056-0.004,0.112,0.002,0.168c0.102,0.035,0.174,0.134,0.164,0.264l0.025,0.032
				c0.148-0.074,0.473-0.099,0.402-0.31l0.049,0.088c0.247-0.009,0.033-0.527,0.354-0.327c0.098,0.107,0.049-0.003,0.195,0.148
				l-0.02-0.212l0.046,0.088l0.13-0.197l0.023,0.032c-0.061-0.208-0.109-0.379-0.148-0.519c-0.064-0.065-0.092-0.079-0.113-0.153
				c-0.006-0.059,0.008-0.083,0.035-0.091v-0.003v0.003c0.059-0.022,0.178,0.044,0.266,0.035l-0.136,0.165
				c0.099,0.123,0.226,0.225,0.376,0.229c-0.025,0.032,0.047,0.131,0.098,0.106c-0.024-0.033,0.029-0.167-0.096-0.22
				c0.103-0.184,0.625-0.126,0.631-0.552c-0.029,0.28,0.273,0.021,0.146,0.241c0.297,0.055-0.07-0.28,0.08-0.373
				c0.074,0.052-0.074,0.058,0.022,0.211c0.274-0.135,0.061-0.631,0.312-0.777l0.147,0.129
				C22.727,33.719,22.75,33.658,22.772,33.596z M22.994,33.032l0.068-0.165l-0.015,0.009l0.004-0.226
				c-0.124,0.017-0.321-0.088-0.292-0.258c0.048,0.065,0.147,0.107,0.146,0.176c0.148,0.016,0.374-0.05,0.127-0.22
				c0.069,0.323-0.293-0.233-0.249,0.011c-0.081-0.189,0.033-0.182,0.023-0.291c0.061,0.164,0.268,0.241,0.401,0.217
				c0.001-0.066,0.126-0.129,0.129-0.239c-0.147-0.106-0.17-0.23-0.295-0.17c0-0.065,0.027-0.146,0.151-0.14
				c-0.001,0.046-0.026,0.102,0.022,0.145c0.155,0.08,0.195,0.028,0.269,0.056l0.039-0.08c-0.017-0.005-0.036-0.017-0.058-0.03
				l-0.046-0.178c-0.027,0.147-0.099-0.018-0.172-0.094c0.146,0.15,0.076-0.036,0.101-0.071l-0.223-0.091
				c-0.047-0.109,0.225,0.003,0.052-0.138c-0.2,0.074-0.225,0.154-0.303,0.327l0.173,0.071c-0.056,0.226-0.297-0.124-0.448,0.041
				c0.045,0.176-0.229,0.245-0.01,0.47c-0.047-0.088-0.297-0.099-0.25,0.055c0.146,0.264-0.008,0.473,0.141,0.512
				c0.051-0.047,0.004-0.226,0.176-0.132l-0.053,0.137l0.175,0.05C22.703,32.777,22.816,32.884,22.994,33.032z M26.363,32.164h0.006
				l-0.004,0.003L26.363,32.164z"/>
			<path fill="#FFFFFF" d="M16.709,39.569c0.024,0.077-0.053,0.135,0.071,0.231C16.658,39.682,16.882,39.663,16.709,39.569z"/>
			<path fill="#FFFFFF" d="M16.512,39.531c0.023,0.033,0.074,0.077,0.047,0.109l0.053-0.112L16.512,39.531z"/>
			<path fill="#FFFFFF" d="M15.605,38.795c0.047,0.132,0.07,0.209-0.005,0.27c-0.317-0.27,0.028-0.192-0.214-0.497
				c-0.151,0.096,0.066,0.39-0.01,0.517C15.55,39.154,15.826,39.021,15.605,38.795z"/>
			<polygon fill="#FFFFFF" points="15.29,38.369 15.289,38.504 15.313,38.515 15.314,38.381 			"/>
			<path fill="#FFFFFF" d="M19.322,39.43c0.098,0.085,0.05-0.047,0.051-0.094C19.349,39.35,19.298,39.353,19.322,39.43z"/>
			<path fill="#FFFFFF" d="M32.892,26.05l0.435-0.609C33.197,25.613,33.071,25.765,32.892,26.05z"/>
			<path fill="#FFFFFF" d="M20.458,37.095c-0.054,0.228,0.043,0.448-0.06,0.632c0.371-0.006-0.041-0.538,0.306-0.506L20.458,37.095z
				"/>
			<path fill="#FFFFFF" d="M21.14,37.875c-0.195-0.148-0.094-0.311-0.241-0.415c-0.052,0.135,0.121,0.209,0.02,0.277L21.14,37.875z"
				/>
			<polygon fill="#FFFFFF" points="17.652,35.661 17.605,35.529 17.604,35.595 			"/>
			<polygon fill="#FFFFFF" points="21.627,37.084 21.65,37.136 21.775,37.122 			"/>
			<path fill="#FFFFFF" d="M21.676,37.191l-0.025-0.056L21.676,37.191z"/>
			<polygon fill="#FFFFFF" points="17.336,35.235 17.238,35.263 17.284,35.373 			"/>
			<path fill="#FFFFFF" d="M18.821,35.604l-0.001,0.112C18.821,35.693,18.969,35.686,18.821,35.604z"/>
			<polygon fill="#FFFFFF" points="22.13,36.727 22.133,36.59 22.109,36.581 22.106,36.716 			"/>
			<path fill="#FFFFFF" d="M18.789,34.684c-0.172-0.094,0.078-0.148-0.12-0.185C18.617,34.59,18.715,34.631,18.789,34.684z"/>
			<path fill="#FFFFFF" d="M20.52,34.752c0.009-0.008,0.014-0.025,0.009-0.047C20.523,34.722,20.52,34.738,20.52,34.752z"/>
			<path fill="#FFFFFF" d="M20.52,34.752c-0.029,0.03-0.111,0.011-0.093,0.068C20.523,34.843,20.515,34.807,20.52,34.752z"/>
			<path fill="#FFFFFF" d="M20.832,34.378l-0.036,0.017c-0.038-0.094-0.041-0.068-0.014,0.008c-0.024,0.033,0.02,0.074,0.044,0.105
				l0.035,0.068l-0.025-0.071C20.881,34.463,20.903,34.428,20.832,34.378z"/>
			<path fill="#FFFFFF" d="M24.344,35.334c-0.15,0.053-0.201,0.055-0.298-0.055c-0.127,0.063,0.064,0.225,0.048,0.324
				C24.182,35.475,24.251,35.502,24.344,35.334z"/>
			<path fill="#FFFFFF" d="M24.094,35.604c-0.008,0.014-0.017,0.027-0.029,0.047C24.083,35.637,24.091,35.62,24.094,35.604z"/>
			<polygon fill="#FFFFFF" points="19.305,33.653 19.21,33.434 19.209,33.48 			"/>
			<path fill="#FFFFFF" d="M24.544,35.238c-0.024,0.011-0.051,0.047-0.1,0.024C24.542,35.373,24.569,35.225,24.544,35.238z"/>
			<path fill="#FFFFFF" d="M22.139,33.606c-0.074-0.052-0.1,0.05-0.15,0.052C22.039,33.634,22.26,33.793,22.139,33.606z"/>
			<path fill="#FFFFFF" d="M24.408,34.523c-0.025,0.014-0.124-0.027-0.196-0.126C24.235,34.477,24.381,34.694,24.408,34.523z"/>
			<polygon fill="#FFFFFF" points="22.342,33.441 22.291,33.422 22.289,33.557 			"/>
			<path fill="#FFFFFF" d="M20.576,32.167c0.045,0.2,0.419,0.173,0.389,0.412c0.301-0.044-0.187-0.162-0.039-0.27
				C20.811,32.343,20.617,32.225,20.576,32.167z"/>
			<path fill="#FFFFFF" d="M20.926,32.31c0.018-0.003,0.032-0.011,0.045-0.024C20.951,32.293,20.936,32.302,20.926,32.31z"/>
			<path fill="#FFFFFF" d="M22.791,32c0.002,0.024,0.008,0.046,0.016,0.068C22.805,32.049,22.801,32.027,22.791,32z"/>
			<path fill="#FFFFFF" d="M21.229,31.805l0.068,0.299c-0.045-0.197,0.157-0.387-0.039-0.557c-0.101,0.024-0.127,0.15-0.078,0.26
				L21.229,31.805z"/>
			<path fill="#FFFFFF" d="M25.889,33.805l0.021,0.12l0.084-0.041C25.949,33.875,25.847,33.708,25.889,33.805z"/>
			<path fill="#FFFFFF" d="M26.011,33.875l-0.017,0.009C26.001,33.887,26.008,33.884,26.011,33.875z"/>
			<path fill="#FFFFFF" d="M22.66,32.307c-0.05,0.025-0.074,0.061-0.076,0.127C22.633,32.455,22.759,32.393,22.66,32.307z"/>
			<polygon fill="#FFFFFF" points="25.974,33.184 25.923,33.299 26,33.194 			"/>
			<polygon fill="#FFFFFF" points="26.671,33.109 26.721,33.131 26.724,32.996 26.674,32.975 			"/>
			<path fill="#FFFFFF" d="M22.555,30.003c-0.076,0.035,0.045,0.244,0.094,0.264l0.102-0.116c-0.172-0.115-0.024,0.036-0.125,0.061
				L22.555,30.003z"/>
			<path fill="#FFFFFF" d="M29.264,29.978c0.073,0.121-0.102,0.185-0.2,0.099c-0.023-0.057,0.003-0.158-0.096-0.176l0.143,0.33
				c-0.271-0.021-0.216-0.406-0.237-0.552c-0.158,0.096-0.04,0.291-0.178,0.426c0.063-0.02,0.146,0.014,0.219,0.044
				c0.17,0.162-0.029,0.214-0.107,0.318c0.131,0.014,0.158,0.109,0.182,0.217c-0.002,0.012,0.003,0.027,0.011,0.041l0.009,0.039
				l0.011-0.012c0.018,0.02,0.042,0.039,0.081,0.061c0.027-0.123,0.225-0.041,0.275-0.088c-0.319-0.223,0.104-0.23,0.081-0.373
				l0.044-0.099l0.026-0.028c0.034,0.025,0.064,0.072,0.078,0.165c-0.021-0.088,0.111-0.181,0.014-0.258l0.253-0.261
				c0.02,0.002,0.041,0.011,0.066,0.024c-0.009-0.027-0.021-0.044-0.036-0.055l1.101-1.135c-0.076,0.033-0.186,0.02-0.272,0.047
				c-0.095-0.267-0.126,0.061-0.271-0.135c-0.024-0.102,0.051-0.138,0.126-0.129c-0.074-0.099-0.197-0.126-0.294-0.236
				c-0.25,0.033,0.141,0.467-0.06,0.541c-0.098-0.106-0.146-0.241-0.222-0.138l0.002-0.043c-0.03,0.258-0.347-0.121-0.155,0.252
				l-0.146-0.15c0.046,0.178-0.08,0.305-0.132,0.397l-0.023-0.032c-0.032,0.37-0.077,0.148-0.232,0.447l-0.07-0.277
				c-0.149,0.006,0.021,0.211-0.054,0.247c-0.024-0.032-0.146-0.126-0.12-0.209l-0.012,0.542
				C29.114,30.006,29.191,29.923,29.264,29.978z"/>
			<path fill="#FFFFFF" d="M28.695,30.104c-0.021,0.005-0.041,0.019-0.056,0.044C28.664,30.135,28.681,30.118,28.695,30.104z"/>
			<path fill="#FFFFFF" d="M31.078,28.627l-0.076,0.079C31.034,28.689,31.063,28.668,31.078,28.627z"/>
			<path fill="#FFFFFF" d="M28.627,30.821c0.125,0.03,0.071,0.143,0.121,0.208l0.167-0.172c-0.058-0.059-0.104-0.138-0.16-0.188
				L28.627,30.821z"/>
			<path fill="#FFFFFF" d="M29.073,30.914c-0.034-0.043-0.052-0.099-0.065-0.15l-0.093,0.094
				C28.959,30.9,29.009,30.928,29.073,30.914z"/>
			<polygon fill="#FFFFFF" points="25.998,27.877 26.024,27.844 26.025,27.753 			"/>
			<path fill="#FFFFFF" d="M26.724,27.657c-0.124-0.05-0.127,0.085-0.127,0.129C26.673,27.703,26.671,27.772,26.724,27.657z"/>
			<polygon fill="#FFFFFF" points="25.694,26.824 25.723,26.698 25.697,26.689 			"/>
			<path fill="#FFFFFF" d="M31.074,27.459l0.027-0.047C31.084,27.429,31.077,27.445,31.074,27.459z"/>
			<path fill="#FFFFFF" d="M30.563,28.253c0.349-0.014,0.021,0.259,0.291,0.415l0.027-0.171l0.05,0.066l0.102-0.138
				c-0.124-0.074-0.148-0.061-0.246-0.17c0.2-0.121,0.173,0.071,0.422,0.085l0.16-0.2l0.016,0.047
				c0.014-0.018,0.007-0.039-0.004-0.061l0.541-0.668c0.027-0.192-0.247-0.123-0.317-0.357c-0.126,0.13-0.426,0.209-0.232,0.424
				c-0.023-0.033-0.071-0.097-0.122-0.097l0.097,0.245l0.123-0.017c0.095,0.241-0.183,0.444-0.331,0.382
				c0.08-0.192-0.192-0.327,0.108-0.407c-0.061-0.044-0.187-0.102-0.173-0.173C30.912,27.742,30.618,27.85,30.563,28.253z"/>
			<path fill="#FFFFFF" d="M32.695,25.924l0.018,0.021C32.706,25.932,32.701,25.921,32.695,25.924z"/>
			<path fill="#FFFFFF" d="M32.596,25.973l0.093,0.311l0.152-0.184l-0.128-0.154c0.021,0.05,0.033,0.182-0.045,0.148L32.596,25.973z
				"/>
			<path fill="#FFFFFF" d="M32.684,26.531c0.027-0.146-0.143-0.309-0.266-0.338c0.002-0.157,0.221,0.137,0.1-0.094
				c-0.122-0.118-0.149,0.052-0.15,0.096L32.684,26.531z"/>
			<polygon fill="#FFFFFF" points="31.953,27.088 31.908,26.995 31.83,27.036 			"/>
			<path fill="#FFFFFF" d="M31.908,26.995l0.079-0.042c-0.056-0.049-0.109-0.093-0.155-0.117L31.908,26.995z"/>
			<path fill="#FFFFFF" d="M32.192,26.844c0.038-0.014,0.075-0.033,0.114-0.063L32.192,26.844z"/>
			<path fill="#FFFFFF" d="M32.081,26.869l0.024,0.019l0.087-0.044C32.156,26.852,32.121,26.86,32.081,26.869z"/>
			<path fill="#FFFFFF" d="M31.987,26.953c0.126,0.105,0.261,0.218,0.313,0.097l-0.195-0.162L31.987,26.953z"/>
			<polygon fill="#FFFFFF" points="26.423,26.448 26.426,26.313 26.4,26.303 26.397,26.438 			"/>
			<path fill="#FFFFFF" d="M26.925,26.157c-0.002-0.036-0.012-0.071-0.021-0.104C26.897,26.083,26.903,26.116,26.925,26.157z"/>
			<path fill="#FFFFFF" d="M26.424,25.069c0.198,0.036,0.044,0.264,0.244,0.168c0.124,0.096,0.194,0.308,0.069,0.321
				c-0.097-0.107,0.003-0.135-0.146-0.195c0.072,0.165-0.026,0.102,0.146,0.242c0.018,0.176,0.118,0.293,0.166,0.447
				c0.027-0.162,0.385-0.203,0.308-0.524c-0.119-0.25-0.415-0.464-0.683-0.733C26.456,24.74,26.252,24.883,26.424,25.069z"/>
			<path fill="#FFFFFF" d="M26.028,24.927c-0.049,0.024-0.051,0.046-0.051,0.091C26.075,25.105,26.002,24.962,26.028,24.927z"/>
			<path fill="#FFFFFF" d="M28.91,26.092c-0.03-0.045-0.01-0.16-0.091-0.212l-0.054,0.151C28.796,26.012,28.851,26.05,28.91,26.092z
				"/>
			<path fill="#FFFFFF" d="M28.741,26.097l0.024-0.065C28.751,26.039,28.742,26.059,28.741,26.097z"/>
			<path fill="#FFFFFF" d="M28.938,26.11l-0.028-0.019C28.917,26.1,28.927,26.107,28.938,26.11z"/>
			<path fill="#FFFFFF" d="M32.508,26.662c0.073,0.074,0.074-0.016,0.074-0.061C32.558,26.613,32.508,26.615,32.508,26.662z"/>
			<path fill="#FFFFFF" d="M33.937,24.652l0.099,0.019C33.986,24.649,33.961,24.641,33.937,24.652z"/>
			<path fill="#FFFFFF" d="M32.544,22.018c-0.013-0.017-0.022-0.03-0.028-0.047C32.521,21.984,32.529,21.998,32.544,22.018z"/>
			<path fill="#FFFFFF" d="M32.516,21.971c-0.035-0.088,0.146-0.079,0.084-0.203l0.023,0.033l0.002-0.112
				C32.58,21.751,32.456,21.85,32.516,21.971z"/>
		</g>
	</g>
	<g>
		<line fill="#FFFFFF" x1="14.458" y1="7.348" x2="32.74" y2="25.63"/>
		<g>
			<path fill="#FFFFFF" d="M32.994,24.474c0.059,0.027,0.006,0.151-0.049,0.173c0.19-0.021,0.072,0.102,0.288-0.094
				c0.155-0.047,0.073,0.151-0.071,0.174l0.281,0.029l-0.062-0.126c0.196-0.146,0.099,0.2,0.327,0.03l-0.186-0.151l0.066-0.049
				c-0.102,0.024-0.15-0.077-0.152-0.127c0.032-0.024,0.076-0.071,0.11-0.046c-0.19-0.218-0.354,0.241-0.579,0.129
				C32.983,24.424,32.994,24.438,32.994,24.474z"/>
			<path fill="#FFFFFF" d="M33.24,23.883l-0.285,0.143l-0.064-0.176c-0.074,0.074-0.222,0.047-0.229,0.17
				c0.023,0,0.068,0,0.08,0.028c-0.174,0.146-0.239-0.08-0.365,0.118c0.137,0.049,0.116,0.102,0.303,0.027
				c0.073,0.102,0.1,0.203,0.08,0.302c0.051,0,0.152-0.093,0.205-0.082l-0.029-0.014l0.237-0.245
				c-0.078,0.022-0.079-0.027-0.115-0.052l0.422-0.14c0.18-0.272-0.091-0.277-0.051-0.426C33.294,23.809,33.273,23.584,33.24,23.883
				z"/>
			<path fill="#FFFFFF" d="M32.965,24.413l0.004,0.003L32.965,24.413z"/>
			<path fill="#FFFFFF" d="M21.131,15.382c-0.033-0.028-0.099,0.021-0.131,0.046l0.338,0.33c0.053-0.074,0.035-0.25,0.137-0.223
				c0.041-0.099-0.105-0.126-0.203-0.052l0.119-0.074c-0.199,0.046-0.01-0.247,0.113-0.27l-0.008-0.005l-0.689,0.261
				C20.857,15.502,21.031,15.294,21.131,15.382z"/>
			<path fill="#FFFFFF" d="M14.509,8.273c0.064,0.021,0.093,0.005,0.111-0.025C14.587,8.251,14.551,8.256,14.509,8.273z"/>
			<path fill="#FFFFFF" d="M20.646,15.455l-0.216,0.083C20.498,15.524,20.575,15.494,20.646,15.455z"/>
			<polygon fill="#FFFFFF" points="23.37,13.659 23.395,13.632 23.289,13.679 23.289,13.679 			"/>
			<path fill="#FFFFFF" d="M18.571,14.5c-0.011-0.006-0.017-0.009-0.032-0.014C18.548,14.494,18.559,14.497,18.571,14.5z"/>
			<path fill="#FFFFFF" d="M25.125,13.714l-0.291-0.005c0.086-0.047-0.006-0.1,0.105-0.146c-0.022,0-0.103-0.028-0.122,0.021
				l0.034,0.024c-0.276,0.121-0.303,0.245-0.583,0.264c-0.037,0.198,0.105,0.127,0.237,0.08c0.029,0,0.047,0.006,0.067,0.011
				l0.398-0.15L25.125,13.714z"/>
			<path fill="#FFFFFF" d="M17.699,9.227l0.017-0.015L17.699,9.227z"/>
			<path fill="#FFFFFF" d="M17.785,9.154l-0.069,0.058C17.756,9.188,17.816,9.188,17.785,9.154z"/>
			<path fill="#FFFFFF" d="M20.799,15.354c-0.039,0.033-0.092,0.072-0.152,0.102l0.16-0.06
				C20.803,15.387,20.802,15.367,20.799,15.354z"/>
			<path fill="#FFFFFF" d="M21.343,15.035l0.153,0.1l0.148-0.059C21.559,15.068,21.477,15.038,21.343,15.035z"/>
			<path fill="#FFFFFF" d="M18.654,14.813c-0.291-0.23,0.295-0.17,0.231-0.343c-0.099-0.047-0.235,0.038-0.314,0.03
				c0.3,0.109-0.39,0.332-0.125,0.483c-0.228,0.167-0.366,0.065-0.384-0.058c0.113-0.272,0.211-0.071,0.418-0.242
				c-0.115-0.052-0.135-0.002-0.277,0.072c-0.086-0.177-0.507-0.036-0.318-0.38c-0.138-0.052-0.223,0.044-0.378,0.091
				c-0.217,0.195,0.032,0.25-0.095,0.447c0.01-0.024,0.03-0.074,0.063-0.099l0.041,0.124c-0.008-0.148,0.215-0.195,0.273-0.168
				c0.033,0.025,0.103,0.077,0.037,0.124h-0.089c-0.007,0.124,0.278-0.022,0.229,0.153c-0.043,0.05-0.088,0.047-0.119,0.072
				c0.21-0.072,0.27,0.005,0.471,0.008l-0.264,0.146c0.308-0.146,0.43,0.107,0.441,0.354c0.02-0.05,0.018-0.1,0.072-0.124
				c0.125,0.028,0.043,0.226-0.1,0.297c0.244-0.093,0.141,0.426,0.461,0.308l1.501-0.571c-0.042,0.009-0.083,0.011-0.111,0
				c0.138-0.22,0.093-0.22,0.335-0.315c-0.167,0.021-0.283,0.194-0.399,0.09c0.134-0.047,0.349-0.241,0.265-0.365
				c-0.439-0.085-1.121,0.253-1.625,0.267c0.127-0.146-0.102-0.3-0.164-0.426c0.184-0.112,0.295-0.085,0.396-0.044
				c-0.035-0.052-0.109-0.135-0.16-0.197L18.654,14.813z"/>
			<path fill="#FFFFFF" d="M19.725,14.956c0.006-0.02,0.006-0.033,0.006-0.047C19.723,14.926,19.719,14.939,19.725,14.956z"/>
			<polygon fill="#FFFFFF" points="19.146,14.771 19.16,14.758 19.127,14.744 			"/>
			<path fill="#FFFFFF" d="M21.049,14.98c0.058-0.02,0.074-0.024,0.133-0.047c-0.025,0-0.047,0.003-0.07,0.003
				C21.083,14.945,21.059,14.959,21.049,14.98z"/>
			<path fill="#FFFFFF" d="M20.859,15.277l-0.066,0.047c0.003,0.016,0.004,0.019,0.006,0.029
				C20.83,15.324,20.855,15.297,20.859,15.277z"/>
			<path fill="#FFFFFF" d="M18.909,12.574l-0.056,0.006C18.872,12.591,18.89,12.585,18.909,12.574z"/>
			<path fill="#FFFFFF" d="M18.599,14.288c0.104,0.077,0.217-0.194,0.345-0.068l-0.025-0.05c0.181,0.003,0.301,0.206,0.417,0.308
				c-0.095,0.069-0.033,0.165-0.175,0.28c0.104,0.044,0.207,0.088,0.377-0.006c0.002,0.092,0.188,0.045,0.193,0.157
				c0.053-0.102,0.344-0.176,0.107-0.226c0.021,0.003,0.031-0.021,0.053-0.021c0.018-0.201-0.203-0.055-0.283-0.132
				c0.028-0.121,0.199-0.044,0.185-0.118c-0.169-0.03-0.218-0.404-0.497-0.11c-0.092-0.052-0.039-0.123-0.008-0.197
				c-0.42,0.189-0.291-0.552-0.68-0.162c0.056,0.024,0.116,0.102,0.26,0.079L18.599,14.288z"/>
			<path fill="#FFFFFF" d="M20.877,14.849c-0.004-0.005-0.012-0.014-0.014-0.02L20.877,14.849z"/>
			<path fill="#FFFFFF" d="M20.887,17.117l-0.293,0.217c-0.275-0.153-0.281-0.305-0.479-0.48c0.02-0.049,0.065-0.049,0.088-0.049
				c-0.161-0.102-0.305-0.354-0.52-0.333c-0.039-0.044-0.068-0.235,0.049-0.269c-0.043,0.002-0.088,0-0.105-0.03
				c0.087-0.099,0.08,0.027,0.156-0.047c-0.014-0.024-0.002-0.05-0.035-0.024c0.109-0.05,0.277-0.344,0.418-0.192
				c-0.156,0.271-0.125-0.077-0.328,0.192c0.047,0.049,0.133-0.047,0.166-0.072c0.057,0.069-0.004,0.127-0.063,0.176
				c0.097-0.049,0.073,0.13,0.217,0.053c0.139,0.102-0.184,0.17-0.103,0.244l0.284-0.192l0.086,0.177
				c0.273,0.104,0.385-0.44,0.736-0.36c-0.153,0.096-0.275,0.393-0.225,0.544c-0.07-0.053-0.336-0.008-0.344-0.156
				c-0.076,0.296-0.172-0.127-0.329,0.143c0.155-0.047,0.259,0.03,0.274,0.153h-0.045c0.049,0.102,0.355-0.093,0.363,0.107
				c0.06,0.041-0.018,0.099-0.084,0.148C20.854,17.07,20.939,17.063,20.887,17.117z M20.725,17.055l-0.045-0.091
				C20.657,17.019,20.684,17.043,20.725,17.055z"/>
			<path fill="#FFFFFF" d="M32.25,22.954l0.002,0.039C32.257,22.979,32.254,22.965,32.25,22.954z"/>
			<path fill="#FFFFFF" d="M26.25,16.771l0.031,0.047C26.274,16.796,26.264,16.782,26.25,16.771z"/>
			<path fill="#FFFFFF" d="M27.931,16.873l0.114,0.003C28.019,16.856,27.979,16.862,27.931,16.873z"/>
			<polygon fill="#FFFFFF" points="31.791,22.463 31.791,22.46 31.77,22.463 			"/>
			<path fill="#FFFFFF" d="M29.161,19.222c-0.011,0.03-0.02,0.058-0.021,0.085C29.164,19.282,29.168,19.252,29.161,19.222z"/>
			<polygon fill="#FFFFFF" points="27.91,16.873 27.908,16.881 27.931,16.873 			"/>
			<path fill="#FFFFFF" d="M26.553,15.681c-0.015,0-0.027,0-0.048,0C26.521,15.687,26.538,15.687,26.553,15.681z"/>
			<path fill="#FFFFFF" d="M25.933,16.414c-0.016-0.002-0.032-0.002-0.049,0H25.933z"/>
			<path fill="#FFFFFF" d="M25.021,14.576l-0.086-0.019C24.966,14.579,24.995,14.582,25.021,14.576z"/>
			<path fill="#FFFFFF" d="M25.947,16.117l-0.041,0.022C25.921,16.14,25.939,16.131,25.947,16.117z"/>
			<polygon fill="#FFFFFF" points="31.878,24.006 31.874,24.004 31.844,24.031 			"/>
			<path fill="#FFFFFF" d="M32.355,23.787l0.066,0.027C32.406,23.795,32.382,23.787,32.355,23.787z"/>
			<path fill="#FFFFFF" d="M29.554,20.383c-0.019,0.05-0.027,0.124-0.082,0.148C29.549,20.51,29.667,20.387,29.554,20.383z"/>
			<path fill="#FFFFFF" d="M30.121,25.24c0.041-0.022,0.075-0.039,0.111-0.05C30.178,25.204,30.131,25.215,30.121,25.24z"/>
			<path fill="#FFFFFF" d="M30.232,25.19l0.082-0.027C30.289,25.168,30.262,25.177,30.232,25.19z"/>
			<path fill="#FFFFFF" d="M27.211,22.007c0.013-0.02,0.021-0.038,0.018-0.052C27.198,21.99,27.197,22.004,27.211,22.007z"/>
			<path fill="#FFFFFF" d="M32.422,23.891c0.066-0.047,0.395,0.033,0.252-0.167c0.184-0.171,0.191,0.027,0.281,0.03
				c0.008-0.077,0.13-0.1,0.184-0.17c-0.045-0.004-0.122,0.021-0.146-0.028c0.063-0.099,0.176-0.099,0.189-0.021
				c0.038-0.148,0.21-0.071,0.204-0.22c-0.229-0.104-0.411-0.156-0.785-0.017c0.136,0.052,0.295,0.106,0.301,0.255l-0.186,0.121
				c0.046-0.223-0.107-0.176-0.181-0.277l0.113,0.275c-0.037,0.219-0.127,0.187-0.227,0.143
				C32.438,23.836,32.445,23.861,32.422,23.891z"/>
			<polygon fill="#FFFFFF" points="30.945,25.107 30.945,25.113 30.969,25.107 			"/>
			<path fill="#FFFFFF" d="M21.93,17.688l-0.074,0.042C21.895,17.719,21.917,17.705,21.93,17.688z"/>
			<path fill="#FFFFFF" d="M31.573,24.248L31.573,24.248C31.57,24.248,31.57,24.248,31.573,24.248z"/>
			<path fill="#FFFFFF" d="M22.332,18.114l-0.016,0.011L22.332,18.114z"/>
			<path fill="#FFFFFF" d="M25.748,14.92l0.019-0.024C25.75,14.896,25.745,14.906,25.748,14.92z"/>
			<path fill="#FFFFFF" d="M22.347,18.101l-0.015,0.014L22.347,18.101z"/>
			<path fill="#FFFFFF" d="M24.923,19.551c0,0,0.018-0.035,0.036-0.068C24.939,19.493,24.927,19.516,24.923,19.551z"/>
			<path fill="#FFFFFF" d="M24.753,18.928l0.009-0.025L24.753,18.928z"/>
			<path fill="#FFFFFF" d="M30.151,19.601c-0.018-0.022-0.036-0.033-0.055-0.041C30.106,19.578,30.122,19.595,30.151,19.601z"/>
			<path fill="#FFFFFF" d="M22.316,18.125c-0.021,0.015-0.043,0.022-0.074,0.033C22.275,18.147,22.299,18.137,22.316,18.125z"/>
			<polygon fill="#FFFFFF" points="26.303,19.384 26.274,19.389 26.274,19.402 			"/>
			<path fill="#FFFFFF" d="M26.397,19.705l-0.065,0.035c0.139,0.012,0.206,0.215,0.385,0.069c-0.029-0.022-0.063-0.247,0.054-0.321
				c-0.093-0.012-0.054-0.201-0.109-0.201c-0.004,0.174-0.127,0.146-0.24,0.143c-0.004-0.099,0.141-0.12,0.127-0.194l-0.139-0.104
				l0.083,0.127l-0.189,0.126l0.026-0.006C26.58,19.482,26.115,19.623,26.397,19.705z"/>
			<path fill="#FFFFFF" d="M26.332,19.74c-0.021,0-0.043,0-0.066,0.012C26.285,19.766,26.308,19.754,26.332,19.74z"/>
			<path fill="#FFFFFF" d="M26.799,20.725c0.014,0.002,0.031,0.005,0.057,0.005C26.842,20.729,26.823,20.727,26.799,20.725z"/>
			<path fill="#FFFFFF" d="M21.708,15.191c-0.044,0.05-0.036,0.248,0.084,0.127l-0.056-0.132L21.708,15.191z"/>
			<path fill="#FFFFFF" d="M29.475,21.996c-0.009-0.014-0.019-0.027-0.032-0.036l-0.025,0.011
				C29.407,21.996,29.451,21.998,29.475,21.996z"/>
			<path fill="#FFFFFF" d="M26.859,19.463c-0.037,0-0.064,0.012-0.089,0.025C26.792,19.49,26.819,19.488,26.859,19.463z"/>
			<path fill="#FFFFFF" d="M29.194,22.289c-0.021,0.05-0.051,0.124-0.094,0.174c0.029,0.03,0.112-0.012,0.166-0.003
				C29.215,22.443,29.188,22.392,29.194,22.289z"/>
			<path fill="#FFFFFF" d="M29.271,22.46h-0.005H29.271z"/>
			<path fill="#FFFFFF" d="M21.697,15.079l-0.053-0.003l0.047-0.016l-0.034-0.107c-0.017-0.003-0.033-0.003-0.05-0.011
				c0.01,0,0.026-0.009,0.041-0.02l-0.01-0.038c-0.181,0.068-0.412,0.019-0.527,0.052c-0.106,0-0.203-0.036-0.234-0.088
				c0.035,0.041,0.113,0.068,0.166-0.017c-0.006-0.15,0.164-0.396-0.149-0.352l0.083,0.077l-0.445,0.091
				c0.049-0.174,0.223-0.047,0.344-0.118c-0.271-0.006-0.032-0.473-0.328-0.303c0.129-0.147,0.343-0.393,0.24-0.47
				c-0.093,0.223-0.156,0.047-0.27,0.27c-0.11,0.047-0.051-0.151-0.16-0.053l0.064-0.049c0.065-0.371-0.328-0.08-0.505-0.035
				c-0.24-0.127-0.236-0.303-0.411-0.43c0.087-0.099,0.3-0.393,0.23-0.441c-0.152,0.096-0.348,0.017-0.521,0.162
				c0.041,0.176,0.223-0.044,0.324-0.017c-0.113,0.22-0.16,0.17-0.188,0.343c0.006-0.123-0.354-0.181-0.263-0.403l0.046,0.003
				c-0.009-0.201,0.366-0.615-0.046-0.55l-0.18,0.017l0.055-0.041c-0.118-0.154,0.102-0.297-0.19-0.303
				c0.021,0,0.033-0.024,0.055-0.024c0.006-0.176-0.262-0.079-0.363-0.106c0.094-0.171,0.141-0.121,0.262-0.193
				c-0.098-0.2-0.488-0.134-0.743-0.063l-0.019-0.176c0.113,0.003,0.323-0.068,0.387-0.168c-0.08-0.024-0.133,0.05-0.182-0.052
				c0.098-0.071,0.209-0.121,0.351-0.192c-0.013-0.297-0.337,0.267-0.185-0.102c-0.047-0.053-0.199,0.044-0.307,0.143l0.046-0.223
				c-0.14,0.121-0.257,0.02-0.347-0.033c-0.066,0.05-0.083,0.198-0.006,0.174c-0.109,0.099-0.232,0.071-0.279,0.021
				c0.258-0.294-0.359-0.279,0.022-0.547c-0.308-0.129-0.645-0.408-0.903-0.439c0.028-0.123-0.064-0.225,0.121-0.296
				c-0.174-0.176-0.547,0.014-0.647-0.236c0.021-0.05,0.082,0.077,0.167-0.022c-0.224-0.002-0.092-0.324-0.343-0.428
				c0.036,0.024,0.101-0.022,0.133-0.047c-0.042,0.049-0.167,0.021-0.257,0.02c-0.002-0.05,0.067,0.002,0.088-0.047
				c-0.21-0.479-0.844-0.365-1.173-0.717c0.094,0.102,0.313-0.047,0.388-0.119l-0.092-0.099c-0.128,0.053-0.199-0.019-0.327-0.011
				c0.027-0.041,0.034-0.107,0.106-0.121c-0.004-0.37-0.626,0.039-0.764-0.285l0.648-0.088l0.059-0.198l0.291-0.044
				c0.025-0.173-0.271-0.005-0.142-0.15c0.055-0.025,0.079,0.024,0.155-0.05C14.958,7.188,14.85,7.287,14.77,7.26
				c0.422-0.141,0.691,0.137,0.906,0.217c0.045,0-0.088,0.047-0.119,0.071c0.068,0.05,0.018,0.173,0.142,0.2
				c0.166-0.071,0.052-0.123,0.027-0.173c0.108-0.097,0.12-0.071,0.177-0.047c-0.127,0.148,0.18,0.277,0.064,0.5
				c0.268,0.179,0.322-0.393,0.479-0.115l-0.092,0.223c0.247,0.003,0.518,0.058,0.626,0.233l-0.034-0.025
				c-0.088,0.047-0.096,0.121-0.115,0.171c0.039,0.176,0.328,0.082,0.234,0.305c0.291-0.047,0.619,0.036,0.846,0.088
				c-0.17,0.247-0.359-0.005-0.547,0.066L17.492,9.1c-0.083-0.077-0.193-0.027-0.357,0.044c0.072,0.148,0.291,0.006,0.45,0.058
				c-0.064,0.05-0.085,0.096-0.038,0.148l0.152-0.123c-0.012,0.011-0.017,0.027-0.01,0.052l0.273,0.104
				c0.02-0.1,0.137-0.223,0.09-0.272c-0.064,0.097-0.12,0.071-0.167,0.022c0.132-0.047,0.028-0.124,0.103-0.198
				c0.096,0.102,0.234,0.204,0.336,0.231l-0.105,0.145c0.061,0.127,0.23,0.154,0.256,0.256l-0.088,0.047
				c0.073,0.151,0.266,0.179,0.24,0.401c0.246-0.044,0.492-0.039,0.726-0.11c0.208-0.121,0.087,0.5,0.431,0.382
				c-0.01,0.024-0.201,0.044-0.301,0.069c0.049,0.099,0.313-0.045,0.162,0.15c-0.109-0.225-0.127,0.148-0.252,0.121
				c0.081,0.074,0.196,0.126,0.295,0.104c-0.127-0.126,0.285-0.192,0.08-0.247c0.246-0.044,0.439,0.033,0.502,0.209
				c-0.075,0.07-0.096,0.12-0.082,0.197l0.145-0.071c0.035,0.074-0.236,0.019-0.162,0.17c0.299-0.071,0.243,0.45,0.635,0.159
				c-0.047,0.223-0.304-0.03-0.337,0.267c-0.2,0.047-0.166-0.2-0.361-0.055c0.124,0.027-0.116,0.173-0.069,0.223l0.189-0.022
				l-0.013-0.024c0.302-0.02,0.449,0.282,0.656,0.434c0.325-0.017,0.679-0.159,0.843,0.042c-0.154,0.046,0.056,0.25-0.244,0.318
				c-0.004,0.173,0.186,0.15,0.262,0.079c-0.05-0.099-0.004-0.049-0.029-0.147c0.133-0.05,0.227,0.052,0.207,0.15
				c-0.011-0.024-0.021,0-0.053,0.025c0.027,0.147,0.131-0.047,0.232-0.022c-0.105,0.148,0.109,0.179,0.104,0.302l0.266-0.096
				c-0.166,0.071,0.038,0.126-0.057,0.247c0.145-0.022,0.342-0.118,0.404,0.009c-0.103,0.024-0.006,0.173-0.125,0.296
				c0.046,0.274,0.593-0.063,0.572,0.259c-0.033,0.024-0.143,0.071-0.129,0.148c0.069,0,0.115,0.074,0.166,0.099l-0.004,0.003
				l0.004-0.003c0.025,0.014,0.052,0.008,0.081-0.02c0.182-0.055,0.335-0.14,0.561-0.115c0.128-0.148-0.032-0.2-0.121-0.2
				l-0.176,0.096c0.169-0.247-0.149-0.077-0.108-0.176c0.319-0.168,0.475,0.107,0.755,0.088c0.113-0.271-0.03-0.473-0.203-0.602
				l-0.017,0.151l-0.083-0.077l-0.07,0.223c-0.048-0.099-0.151-0.127-0.209-0.203c0.081,0.076-0.078,0.297-0.092,0.223
				c0.047-0.223-0.18-0.003-0.239-0.08c0.024,0.05,0.071,0.102-0.04,0.148c0.033-0.297-0.11-0.226-0.054-0.521
				c-0.214,0.244-0.174-0.13-0.38,0.041l0.037,0.076l-0.257,0.02c0.077-0.297,0.287-0.094,0.253-0.393
				c-0.131-0.176-0.367,0.068-0.506-0.036c0.176-0.096,0.388-0.115,0.48-0.014l0.008-0.126c0.109-0.047,0.228,0.104,0.287,0.182
				c-0.267,0.043,0.004,0.099-0.067,0.271c0.142-0.123,0.049-0.173,0.239-0.195c-0.081-0.076-0.104-0.076-0.155-0.225
				c0.158,0.274,0.652-0.262,0.73,0.038c-0.147-0.027-0.159,0.22-0.213,0.294c0.058,0.024,0.172,0.077,0.239,0.08l0.159-0.223
				c0.192,0.027-0.172,0.47,0.152,0.4c0.129-0.096-0.074-0.15-0.029-0.15c0.292,0.058,0.051,0.426,0.062,0.723
				c0.066-0.047,0.184-0.171,0.339-0.218c-0.132,0.099-0.149,0.195-0.294,0.22c0.004,0.1,0.148,0.077,0.239,0.077
				c-0.042-0.173,0.207-0.118,0.295-0.167c0.037,0.073-0.13,0.096-0.198,0.096c0.015,0.074-0.1,0.297,0.096,0.15
				c-0.118,0.121-0.442,0.189-0.556,0.138l0.037,0.077c-0.1,0.021-0.089-0.003-0.126-0.077c-0.038,0.148-0.147,0.245-0.244,0.319
				c0.009-0.025,0.031-0.025,0.042-0.05c-0.015-0.074-0.081-0.077-0.135-0.003c-0.202,0.121-0.04,0.162-0.089,0.274l0.101,0.036
				l0.751-0.286c0.16,0.039,0.08,0.209,0.076,0.36l0.159-0.118c0.073,0.102,0.11,0.228-0.121,0.346
				c0.044-0.05,0.021-0.05,0.009-0.074c-0.022,0.017-0.04,0.024-0.056,0.03l-0.027,0.02c0.136,0.049,0.224,0.077,0.233,0.077
				c-0.357,0.044-0.258,0.244-0.53,0.464l0.239,0.077c-0.02-0.173,0.118-0.121,0.185-0.121c-0.129,0.148,0.129,0.126,0.165,0.203
				l-0.032,0.024c0.003,0.1,0.107,0.176,0.208,0.203c0.044-0.049,0.352-0.194,0.527-0.291c-0.059-0.162,0.062-0.15,0.139-0.244
				c0.004,0.02,0.023,0.041,0.043,0.025c0.055-0.022,0.031-0.074,0.074-0.121c-0.183-0.055-0.321-0.156-0.562-0.012
				c-0.051,0.124,0.146-0.021,0.126,0.077c-0.187,0.071-0.236-0.03-0.33-0.132l0.083-0.146l-0.161-0.036
				c0.104-0.021,0.199-0.167,0.326-0.088c0.095-0.12-0.128-0.076-0.154-0.176l-0.186,0.121c0.098-0.071-0.02-0.225,0.192-0.244
				l0.281,0.03l0.061-0.148l0.162,0.102l-0.111,0.05c0.319,0.104-0.243,0.367,0.151,0.398c0.253-0.119,0.345-0.066,0.43,0.109
				c-0.136-0.055-0.14,0.121-0.282,0.192c0.018,0.173,0.203,0.055,0.326,0.03c-0.074,0.123-0.137,0.223-0.209,0.121
				c-0.215,0.194,0.15,0.076-0.055,0.297c0.291,0.279,0.912-0.457,0.98,0.143l-0.098,0.074c0.319,0.104,0.338,0.329,0.602,0.455
				l-0.063,0.374c-0.067-0.003-0.323,0.069-0.385,0.217c0.146-0.296-0.011-0.299,0.026-0.497c-0.066,0.05-0.074,0.124-0.095,0.173
				c-0.047-0.052,0.027-0.176-0.076-0.2c-0.042,0.047-0.025,0.173-0.105,0.146l0.047-0.223c-0.182-0.052-0.381,0.267-0.457,0.066
				c0.146-0.094,0.373-0.218,0.455-0.192c-0.037-0.088,0.157,0.011,0.172-0.118c-0.269,0.088-0.172-0.099-0.405-0.107
				c0.04-0.011,0.079-0.041,0.12-0.021l-0.101-0.253c-0.061,0.148-0.26-0.027-0.398,0.143c0.122,0.25,0.162,0.102,0.286,0.404
				c-0.095-0.025-0.331,0.055-0.513,0.164c0.004-0.008,0.006-0.016,0.003-0.027c-0.187,0.124-0.195,0.198-0.464,0.465
				c0.288-0.094,0.196,0.129,0.42,0.135c0.169-0.127,0.121-0.256,0.026-0.275l0.199,0.003l-0.088,0.05l0.206,0.305
				c-0.057-0.041-0.158,0.027-0.248,0.066c0.028,0.038,0.021,0.112,0.014,0.189c0.132-0.148,0.236-0.242,0.266-0.209
				c0.132,0.197,0.098,0.417-0.003,0.637l0.03,0.009c0.115-0.171,0.375-0.141,0.572-0.236c-0.15,0.146-0.004,0.173-0.032,0.296
				c0.196-0.145,0.398-0.414,0.479-0.612c-0.267,0.047-0.22,0.097-0.493,0.267l-0.327-0.033l0.177-0.096
				c-0.03-0.148-0.295-0.055-0.111-0.226c0.165-0.071,0.172,0.08,0.337,0.006l0.006-0.124c0.278-0.068-0.114,0.223,0.133,0.229
				c0.104-0.198,0.022,0,0.177-0.047c0.063-0.148-0.265-0.179,0.029-0.398c0.177-0.047-0.08,0.521,0.263,0.352l-0.033,0.025
				c0.093,0.162,0.285,0.061,0.424,0.016c-0.027,0.138,0.164,0.097,0.232,0.146l-0.075,0.074l0.113,0.052
				c-0.176,0.096-0.093-0.102-0.185-0.154l-0.13,0.148c0.083-0.247-0.222-0.052-0.404,0.003c0.211-0.027,0.228,0.297,0.521,0.047
				l-0.083,0.197l0.078-0.021c-0.062,0.148-0.271,0.267-0.384,0.217c0.021-0.049,0.03-0.074,0.063-0.099
				c-0.1,0.021-0.243,0.093-0.305-0.03l0.124-0.025c-0.106-0.126-0.266-0.178-0.441-0.082c0.11,0.226,0.263,0.404,0.428,0.555
				c0.358-0.266,0.589-0.387,0.903-0.653c0.159,0.052,0.342,0.156,0.328,0.354l-0.065,0.049c0.015,0.074,0.072,0.1,0.14,0.102
				c-0.03,0.124-0.187,0.121-0.195,0.195l0.249,0.055c-0.141,0.121-0.27-0.005-0.338-0.058c0.021,0,0.067,0.003,0.077-0.021
				c-0.017-0.126-0.371-0.033-0.212-0.253c-0.067-0.003,0.21-0.071,0.104-0.197c-0.006-0.148-0.202-0.003-0.267,0.043
				c-0.076,0.074,0.019,0.226-0.113,0.272c0.07,0.052,0.189-0.02,0.195,0.129c-0.068-0.052-0.301,0.02-0.217-0.129
				c-0.259,0.02-0.591,0.388-0.554,0.462c0.097-0.124,0.351,0.082,0.338-0.218c0.212-0.071,0.339,0.056,0.52,0.061l-0.033,0.022
				l0.149,0.079c-0.055,0.022-0.123,0.022-0.197,0.094l0.356-0.041c-0.224,0.046-0.039,0.148-0.058,0.247
				c0.131-0.096,0.275-0.118,0.282-0.244c0.016-0.148-0.101,0.024-0.169-0.027l0.265-0.094l-0.011,0.024l0.199-0.096
				c0.105,0.126-0.394,0.291-0.101,0.296l0.182-0.219c0.143,0.2,0.139,0.647,0.353,0.675c-0.148,0.083-0.346,0.25-0.409,0.404
				c-0.018-0.085-0.131-0.185-0.224-0.242c0.021-0.049,0.331-0.143,0.369-0.017c0.288-0.367-0.403-0.008-0.081-0.352
				c-0.092-0.324-0.475,0.168-0.457-0.205c-0.151,0.145-0.124,0.021-0.264,0.145c-0.189,0.295,0.246,0.229,0.274,0.426
				c-0.021,0-0.065,0-0.099,0.025c0.038,0.123,0.105,0.126,0.217,0.126l0.011-0.024c0.245-0.044-0.049,0.173-0.055,0.299
				c0.044,0,0.084,0.124,0.18,0.003l-0.035,0.247l0.162-0.17c0.069,0.05-0.028,0.173,0.127,0.127l0.153-0.146l-0.1-0.2
				c0.125,0.024,0.164-0.124,0.277-0.071c-0.255,0.071-0.017,0.148-0.144,0.297l0.144-0.022l-0.055,0.022
				c-0.028,0.126,0.112,0.002,0.148,0.079c0.017-0.151,0.078-0.296-0.111-0.277c0.145-0.021,0.358,0.009,0.393,0.033
				c0.128,0.003,0.06,0.159,0.104,0.236c-0.176-0.056-0.411,0.491-0.536,0.153c0.033-0.024,0.046,0,0.036,0.025
				c0.158-0.221-0.151-0.127-0.273-0.104c-0.098,0.123-0.177,0.096-0.147,0.247c0.04-0.1,0.317-0.17,0.313,0.006l-0.248,0.217
				l0.096,0.15h-0.023c-0.104,0.198,0.161,0.104,0.158,0.277c0.145-0.021,0.313,0.281,0.456-0.065
				c-0.07,0.223,0.184,0.102,0.298,0.153l-0.008-0.197c0.291-0.047,0.146,0.027,0.511-0.141c-0.054,0.074-0.084,0.148-0.172,0.195
				c0.152,0.179,0.322,0.479,0.609,0.385c0.106,0.127-0.15,0.42,0.12,0.475c0.068,0,0.192-0.246,0.233-0.07
				c-0.012,0.024-0.277,0.068-0.139,0.17c0.265-0.094,0.102,0.302,0.369,0.258c-0.007,0.124,0.121,0.201-0.044,0.321
				c-0.061-0.126-0.221-0.228-0.311-0.179c0.099-0.074,0.018-0.15,0.152-0.147c-0.034-0.247-0.18-0.003-0.233-0.204
				c-0.064,0.05-0.092,0.223-0.014,0.198c-0.193,0.195-0.343-0.153-0.464,0.192c0.118,0.15,0.563-0.215,0.477,0.107
				c-0.166,0.071-0.139-0.102-0.402,0.041l0.018,0.176l0.21-0.071l-0.033,0.024c-0.008,0.349,0.357-0.044,0.607,0.011
				c0.047-0.222,0.357-0.315,0.374-0.464c0.126,0.077,0.175,0.176-0.02,0.371c-0.348-0.03-0.216,0.194-0.585,0.214
				c-0.041,0.099-0.327,0.241-0.243,0.368c0.257-0.02,0.126-0.197,0.308-0.143c-0.01,0.024-0.021,0.049-0.054,0.074
				c0.155-0.05,0.027,0.099,0.205,0.052l-0.056,0.024c-0.037,0.198,0.223-0.047,0.164,0.151c0.116-0.173,0.164-0.071,0.298-0.118
				c-0.017-0.126,0.152-0.371,0.003-0.497c-0.132,0.097-0.185,0.17-0.297,0.167l0.104,0.077c-0.039,0-0.083,0.015-0.124,0.02
				l-0.027-0.146c0.191,0.027,0.264-0.146,0.429-0.217c0.051,0.15,0.114,0.052,0.14,0.153c-0.172,0.159-0.092,0.479-0.082,0.703
				c-0.012-0.024-0.039-0.044-0.048-0.06c-0.189,0.021-0.081,0.197-0.125,0.246l0.146-0.024c-0.023,0-0.078,0.024-0.076,0.074
				c0.115,0.052,0.275-0.118,0.391-0.068c-0.086,0.099-0.297,0.17-0.294,0.269c-0.062,0.1-0.22,0.369-0.027,0.398
				c0.042-0.027,0.091-0.019,0.14-0.002c-0.01,0.002-0.02,0-0.028,0.005l-0.026,0.173c-0.22,0.094-0.053-0.2-0.273-0.106
				l-0.153,0.146c-0.05-0.05-0.182-0.05-0.289-0.003c0.048,0.099,0.104,0.077,0.219,0.129c-0.084,0.104-0.212,0.115-0.23,0.118
				l0.097-0.071c0.025-0.226-0.291-0.006-0.387-0.157c-0.013-0.024,0.01-0.024,0.042-0.049c-0.244,0.044-0.144-0.253-0.433-0.156
				l0.111-0.05c-0.123,0.006-0.405,0.02-0.678,0.03l-0.06,0.058c-0.021,0.05-0.067-0.003-0.07-0.052h0.002
				c-0.139,0.002-0.267,0.005-0.362,0.005c-0.021,0.056-0.03,0.104-0.015,0.138c0.088-0.05,0.151,0.126,0.29-0.044
				c-0.038,0.148,0.185,0.102,0.165,0.2c0.027-0.173,0.197-0.096,0.297-0.168c-0.074,0.124,0.115,0.103-0.025,0.223
				c-0.021,0.05,0.051-0.123-0.059-0.074c-0.2,0.045,0.033,0.248-0.18,0.27c0.214,0.027,0.335,0.229,0.581,0.233l-0.017-0.123
				c0.037,0.073,0.199,0.179,0.146,0.249c-0.058-0.024-0.104-0.073-0.185-0.102c-0.15,0.146,0.13,0.127,0.043,0.226l0.401-0.093
				l-0.061-0.074c0.133-0.05,0.166,0.2,0.25,0.326c-0.264,0.143-0.164-0.153-0.356-0.181c-0.156-0.003-0.146,0.247-0.271,0.22
				c-0.028,0.065,0.026,0.109,0.104,0.082l-0.009,0.068c-0.251,0.115-0.362-0.076-0.622-0.019c0.029-0.011,0.058-0.022,0.081-0.042
				c-0.005-0.15-0.086-0.225-0.211-0.252c-0.019,0.099,0.037,0.074,0.081,0.076c-0.043,0.047-0.134-0.002-0.212,0.02
				c0.017,0.127-0.096,0.124-0.082,0.198c-0.09-0.003-0.114-0.053-0.15-0.127c0.04-0.099,0.12-0.071,0.206-0.17
				c-0.113-0.003,0.08-0.247-0.109-0.226c0.072,0.148-0.229,0.168-0.33,0.192l0.013,0.024c-0.143,0.072-0.177,0.047-0.103-0.076
				c0.089,0.002,0.103,0.076,0.198-0.047c-0.034-0.025-0.069-0.05-0.137-0.053l0.109-0.046l-0.173-0.127
				c-0.119,0.071-0.295,0.168-0.459,0.288c0.051-0.123-0.071-0.102-0.139-0.102l0.056-0.024c0.017-0.148-0.201-0.228-0.299-0.153
				c0.029-0.124,0.878-0.206,0.465-0.465c-0.128-0.126-0.352,0.192-0.518,0.215c0,0,0.031-0.022,0.041-0.05
				c-0.036-0.074-0.145,0.022-0.233,0.022c-0.009,0.074,0.038,0.123,0.093,0.102c-0.13,0.096-0.105-0.127-0.238-0.08
				c0.23-0.121-0.042-0.176,0.092-0.223c0.003-0.223-0.256-0.203-0.442-0.132c0.145-0.296-0.16-0.104-0.182-0.327
				c0.013,0.025,0.079,0.025,0.081,0.077c0.211-0.071-0.053-0.2,0.183-0.222c-0.045,0-0.076,0.074-0.031,0.074
				c0.058,0.027,0.158,0.002,0.21-0.069l0.025-0.226l0.068,0.003l0.02-0.321c-0.032,0.022-0.053,0.071-0.063,0.097
				c-0.101-0.25-0.396-0.354-0.526-0.533c-0.423,0.365-0.546-0.209-0.912-0.091c0.146-0.08,0.363-0.261,0.425-0.362
				c0.044,0.011,0.261-0.091,0.29,0.005c-0.054,0.072-0.048,0.221-0.171,0.245c0.219,0.126,0.15-0.198,0.348-0.291
				c-0.229-0.157-0.574-0.036-0.787-0.066l0.043-0.05l-0.179-0.002c0.048,0.099-0.179,0.318-0.197,0.146h0.022
				c0.039-0.148-0.185-0.151-0.256-0.253l-0.188,0.071c-0.071-0.102,0.165-0.346,0.281-0.517c-0.118-0.153-0.393-0.032-0.605-0.011
				c0.062-0.148-0.115-0.376,0.118-0.396c-0.215-0.03-0.751,0.558-0.648,0.036l0.155-0.047c-0.221-0.179-0.706-0.261-0.692-0.459
				c0.436-0.291,0.121-0.62,0.442-1.011c-0.071,0.091-0.175,0.044-0.228,0.074c0.024-0.058,0.038-0.123-0.065-0.08
				c0.007,0.148-0.424,0.313-0.132,0.319c-0.32,0.17-0.607,0.264-0.759,0.085l0.151-0.146l0.085,0.176
				c0.096-0.124,0.155-0.047,0.233-0.069c-0.159-0.326,0.379-0.318,0.111-0.546c-0.12,0.074-0.064,0.05-0.167,0.021
				c0.036,0.025,0.144-0.071,0.097-0.12l-0.166,0.071c0.161-0.335,0.305-0.02,0.405-0.267c0.211-0.022,0.44,0.082,0.599-0.138
				c-0.087-0.226-0.496,0.215-0.573-0.035l0.063-0.099c-0.113-0.004-0.253,0.117-0.363,0.167c0.042-0.05,0.062-0.099,0.039-0.148
				c-0.289,0.094-0.39,0.065-0.688,0.185c0.396,0.082,0.059,0.349,0.445,0.455c-0.1,0.025-0.32-0.104-0.536,0.091l0.151-0.146
				c-0.156-0.002-0.313-0.008-0.365-0.156l0.146-0.021c-0.237-0.031,0.004-0.448-0.349-0.306c0.025,0.05,0.059,0.074,0.104,0.077
				c-0.135-0.003-0.206-0.104-0.255-0.203l-0.399,0.09c0.075-0.07-0.019-0.176,0.146-0.244c0.002-0.225-0.271-0.055-0.373-0.082
				c0.043-0.271,0.168,0.027,0.385-0.168c-0.088-0.225-0.315-0.329-0.537-0.283c0.002,0.061-0.009,0.103-0.046,0.138
				c0.041-0.052-0.033-0.102-0.067-0.14l-0.121,0.074c0.008-0.124,0.072-0.174,0.195-0.195c-0.037-0.077-0.29,0.044-0.209-0.154
				c0.212-0.021,0.232,0.204,0.354,0.179c-0.296-0.104,0.093-0.494-0.282-0.626c0.043-0.049,0.176-0.096,0.129-0.146
				c-0.148-0.077-0.23,0.171-0.373,0.241c0.148,0.028,0.129,0.127,0.059,0.3l-0.102,0.055c0.037-0.044-0.016-0.102,0.008-0.156
				l-0.174,0.146c0.184-0.17,0.23-0.393,0.096-0.396c-0.06,0.198-0.072,0.173-0.254,0.393c-0.287,0.094,0.079-0.296-0.23-0.203
				c0.064-0.05,0.201,0.003,0.162-0.12c-0.061-0.074-0.189,0.07-0.278,0.068c0.199-0.097,0.296-0.217,0.524-0.338
				c0.141,0.102,0.047,0.052,0.229,0.104l0.024-0.222c0.127,0.077,0.244-0.097,0.309-0.144c-0.025-0.323-0.355,0.091-0.429-0.057
				c-0.155,0.046,0.083,0.123-0.106,0.145c-0.084-0.126-0.121,0.074-0.302,0.02l0.088-0.047c0.051-0.123-0.092-0.052-0.148-0.079
				c-0.091,0-0.46,0.565-0.659,0.388c0.051-0.033,0.081-0.056,0.098-0.072l1.422-1.055c-0.193-0.187-0.379-0.441-0.517-0.744
				c0.19-0.294,0.356-0.044,0.452-0.165l0.052,0.148c-0.108,0.099-0.243-0.179-0.334,0.094c0.251,0.104,0.214,0.302,0.595,0.261
				c0.189-0.297-0.266-0.179-0.188-0.476c0.031,0.061,0.096,0.071,0.168,0.077c-0.07-0.135-0.145-0.277-0.228-0.434l-0.085,0.033
				c0.051,0.106,0.085,0.181,0.084,0.197c-0.084-0.127-0.307-0.08-0.49,0.091l0.012,0.024l-0.094,0.017L21.697,15.079z
				 M14.957,8.256c0.023-0.011,0.047-0.027,0.076-0.046C15.003,8.231,14.99,8.251,14.957,8.256z M24.341,16.535
				c-0.113-0.168-0.206-0.357-0.319-0.511c-0.108,0.593-0.203,1.027-0.6,0.618L23.37,16.64c0.01,0.096,0.096,0.192,0.208,0.253
				c0.194-0.055,0.874-0.289,0.911-0.33c0.074-0.123-0.069-0.052-0.084-0.126L24.341,16.535z M23.853,17.219
				c0.04,0.118,0.101,0.025,0.183-0.033l-0.11-0.057C23.919,17.156,23.898,17.186,23.853,17.219z M24.101,17.109
				c-0.007-0.008-0.011-0.02-0.007-0.033L24.101,17.109z M22.65,15.483l0.014,0.005l-0.041-0.074
				C22.619,15.434,22.624,15.455,22.65,15.483z M22.641,15.815l0.146-0.11l-0.039-0.068C22.697,15.703,22.651,15.758,22.641,15.815z
				 M22.735,16.752c0.186-0.121,0.302-0.02,0.486-0.189c0.052-0.038,0.046-0.08,0.036-0.118c-0.023-0.032-0.05-0.068-0.077-0.106
				c-0.027,0.024-0.058,0.041-0.092,0.055c0.011,0.052-0.013,0.118-0.135,0.214c0.156-0.318-0.242,0.097-0.27-0.055
				C22.529,16.647,22.658,16.774,22.735,16.752z M30.05,23.144c-0.011,0.02-0.043,0.066-0.081,0.127l-0.151,0.027
				c-0.072-0.151,0.092-0.497-0.228-0.379c0.008-0.102,0.099-0.245,0.172-0.362c0.015,0.029,0.027,0.06,0.03,0.093
				C30.396,22.611,29.601,23.136,30.05,23.144z M29.074,21.543c0.022,0,0.056-0.025,0.056-0.025
				c-0.576,0.077-0.877-0.035-0.999-0.184c-0.103,0.156-0.081,0.376-0.076,0.488l-0.199,0.097l0.083-0.148l-0.221,0.044
				c-0.074,0.123,0.018,0.176-0.011,0.299c0.032-0.024,0.356-0.043,0.49-0.09l-0.021-0.223c-0.009,0.071,0.188,0.2,0.289,0.229
				c0.076-0.074,0.079-0.297-0.096-0.151c0.096-0.124,0.226,0.003,0.263-0.195c0.211-0.02,0.266,0.23,0.282,0.354l-0.172,0.195
				c0.006,0.148,0.273-0.168,0.26,0.029c-0.149-0.076-0.183,0.221-0.287,0.144c-0.039,0.099-0.193,0.194-0.089,0.271
				c0.318-0.167-0.058,0.247,0.228,0.104c-0.028,0.124-0.197,0.096-0.137,0.223c0.234-0.021,0.321-0.121,0.505-0.291
				c-0.051-0.148-0.343,0.118-0.382-0.006l0.466-0.14c0.013-0.074-0.004-0.102-0.035-0.107c0.051,0.017,0.123-0.003,0.208-0.041
				c0.05-0.02,0.093-0.036,0.128-0.053c-0.091-0.093-0.169-0.179-0.107-0.269l0.1-0.074c0.045-0.11-0.069-0.102-0.157-0.063
				c-0.092-0.074-0.294-0.036-0.2-0.165l0.11-0.049C29.226,21.669,29.204,21.669,29.074,21.543z M25.94,18.019
				c-0.254,0.376-0.464,0.722-0.122,0.953h-0.044c-0.054,0.343,0.544,0.022,0.5,0.417c-0.203,0.033-0.188,0.025-0.555,0.203
				l0.181,0.003c-0.196,0.146-0.017,0.148,0.043,0.223l-0.264,0.146c0.018-0.099-0.064-0.225-0.108-0.176
				c0.045,0,0.119-0.396-0.027-0.423c-0.13,0.148,0.111,0.274-0.196,0.421c0.167-0.025,0.038,0.123,0.163,0.15
				c-0.168,0.022-0.206,0.17-0.361,0.217l0.172,0.077c-0.043,0.05-0.284-0.079-0.352,0.192c0.122-0.021,0.165,0.203,0.315,0.055
				l-0.042,0.05c0.061,0.126,0.251-0.168,0.281,0.03c0.075-0.074,0.105-0.146,0.05-0.174c-0.067,0-0.176,0.097-0.269,0.047
				c0.084-0.15,0.072,0.1,0.219-0.146c0.073-0.123-0.273-0.106,0-0.274l0.062,0.127c0.151-0.148,0.21-0.072,0.328-0.193
				c0.111,0.004-0.001,0.223,0.186,0.151c0.121-0.071,0.257-0.294,0.276-0.118c-0.146,0.297,0.119,0.476,0.234,0.525l0.168-0.022
				c0.085-0.097-0.152-0.126,0.014-0.198l0.148,0.077l-0.066,0.05c0.025,0.049,0.125,0.027,0.192,0.03
				c-0.143,0.071-0.181-0.056-0.319,0.118c0.021,0.082-0.027,0.148,0.052,0.168c-0.021,0-0.047,0.005-0.067,0.029
				c0.041,0.174,0.279-0.071,0.355-0.093c0.311-0.094,0.079-0.297,0.252-0.442l0.4,0.23c-0.076,0.025-0.153,0.047-0.207,0.121
				c0.006,0.148-0.118,0.121-0.003,0.223c0.205-0.22,0.27,0.005,0.47-0.041c-0.051,0.123-0.061,0.148-0.143,0.074
				c-0.128,0.145,0.03,0.197,0.055,0.246c0.057-0.011,0.113,0.006,0.168-0.002c0.037-0.1,0.137-0.174,0.264-0.162l0.033-0.025
				c-0.074-0.15-0.098-0.475-0.31-0.403l0.088-0.047c-0.01-0.25-0.528-0.035-0.328-0.354c0.108-0.099-0.003-0.049,0.148-0.197
				l-0.212,0.021l0.088-0.047l-0.194-0.129l0.031-0.024c-0.21,0.061-0.381,0.11-0.521,0.151c-0.064,0.063-0.08,0.088-0.152,0.109
				c-0.058,0.009-0.082-0.008-0.092-0.033l0,0l0,0c-0.021-0.06,0.046-0.178,0.035-0.266l0.166,0.135
				c0.123-0.097,0.225-0.226,0.227-0.377c0.035,0.027,0.134-0.047,0.109-0.096c-0.033,0.024-0.169-0.027-0.222,0.096
				c-0.183-0.104-0.125-0.623-0.552-0.632c0.281,0.03,0.021-0.274,0.241-0.146c0.056-0.297-0.278,0.068-0.373-0.082
				c0.052-0.071,0.059,0.076,0.211-0.02c-0.134-0.277-0.63-0.063-0.774-0.313l0.128-0.146C26.064,18.063,26.002,18.04,25.94,18.019z
				 M25.376,17.796l-0.163-0.068l0.008,0.017l-0.226-0.006c0.017,0.126-0.086,0.321-0.255,0.294c0.064-0.05,0.105-0.146,0.173-0.146
				c0.017-0.148-0.049-0.374-0.218-0.129c0.323-0.069-0.235,0.293,0.01,0.25c-0.188,0.079-0.18-0.033-0.292-0.022
				c0.167-0.061,0.245-0.269,0.218-0.403c-0.067,0-0.129-0.127-0.24-0.129c-0.107,0.147-0.229,0.17-0.167,0.296
				c-0.069,0-0.147-0.027-0.142-0.151c0.045,0,0.102,0.028,0.146-0.021c0.079-0.156,0.028-0.195,0.054-0.27l-0.08-0.038
				c-0.005,0.017-0.015,0.036-0.029,0.058l-0.179,0.047c0.148,0.027-0.018,0.099-0.093,0.17c0.151-0.146-0.036-0.074-0.071-0.099
				l-0.092,0.223c-0.11,0.047,0.003-0.226-0.136-0.052c0.074,0.197,0.155,0.225,0.326,0.302l0.071-0.173
				c0.227,0.055-0.123,0.296,0.041,0.447c0.177-0.044,0.245,0.23,0.471,0.011c-0.088,0.047-0.1,0.297,0.055,0.25
				c0.264-0.146,0.471,0.009,0.51-0.14c-0.046-0.053-0.224-0.006-0.13-0.176l0.137,0.052l0.049-0.173
				C25.122,18.087,25.228,17.975,25.376,17.796z M24.51,14.429V14.42l0.003,0.006L24.51,14.429z"/>
			<path fill="#FFFFFF" d="M31.913,24.08c0.079-0.021,0.137,0.053,0.233-0.068C32.027,24.133,32.007,23.91,31.913,24.08z"/>
			<path fill="#FFFFFF" d="M31.876,24.278c0.033-0.022,0.076-0.071,0.11-0.047l-0.114-0.052L31.876,24.278z"/>
			<path fill="#FFFFFF" d="M31.141,25.185c0.132-0.046,0.208-0.071,0.268,0.006c-0.267,0.318-0.191-0.03-0.494,0.214
				c0.095,0.151,0.389-0.068,0.515,0.009C31.5,25.24,31.365,24.965,31.141,25.185z"/>
			<polygon fill="#FFFFFF" points="30.715,25.501 30.849,25.504 30.86,25.479 30.724,25.476 			"/>
			<path fill="#FFFFFF" d="M31.774,21.469c0.085-0.097-0.048-0.05-0.092-0.05C31.695,21.443,31.696,21.493,31.774,21.469z"/>
			<path fill="#FFFFFF" d="M18.396,7.899l-0.611-0.435C17.959,7.592,18.108,7.721,18.396,7.899z"/>
			<path fill="#FFFFFF" d="M29.44,20.331c0.227,0.056,0.447-0.041,0.63,0.063c-0.003-0.374-0.535,0.038-0.506-0.308L29.44,20.331z"
				/>
			<path fill="#FFFFFF" d="M30.22,19.65c-0.148,0.197-0.311,0.093-0.416,0.241c0.138,0.052,0.209-0.121,0.279-0.019L30.22,19.65z"/>
			<polygon fill="#FFFFFF" points="28.006,23.139 27.874,23.186 27.94,23.188 			"/>
			<polygon fill="#FFFFFF" points="29.428,19.164 29.481,19.139 29.466,19.016 			"/>
			<path fill="#FFFFFF" d="M29.537,19.117l-0.056,0.021L29.537,19.117z"/>
			<polygon fill="#FFFFFF" points="27.582,23.454 27.607,23.553 27.718,23.507 			"/>
			<path fill="#FFFFFF" d="M27.948,21.969l0.111,0.002C28.038,21.971,28.031,21.822,27.948,21.969z"/>
			<polygon fill="#FFFFFF" points="29.07,18.661 28.935,18.658 28.925,18.681 29.06,18.684 			"/>
			<path fill="#FFFFFF" d="M27.029,22.001c-0.093,0.173-0.149-0.077-0.187,0.121C26.937,22.174,26.977,22.075,27.029,22.001z"/>
			<path fill="#FFFFFF" d="M27.097,20.271c-0.01-0.008-0.023-0.014-0.048-0.008C27.065,20.268,27.082,20.271,27.097,20.271z"/>
			<path fill="#FFFFFF" d="M27.097,20.271c0.03,0.03,0.01,0.11,0.069,0.094C27.188,20.268,27.152,20.276,27.097,20.271z"/>
			<path fill="#FFFFFF" d="M26.722,19.958l0.019,0.038c-0.094,0.035-0.07,0.041,0.007,0.011c0.032,0.024,0.074-0.019,0.105-0.044
				l0.07-0.033l-0.071,0.025C26.808,19.908,26.772,19.889,26.722,19.958z"/>
			<path fill="#FFFFFF" d="M27.68,16.447c0.051,0.151,0.053,0.2-0.056,0.297c0.063,0.129,0.226-0.063,0.324-0.047
				C27.82,16.609,27.846,16.541,27.68,16.447z"/>
			<path fill="#FFFFFF" d="M27.948,16.697c0.014,0.008,0.026,0.017,0.046,0.03C27.981,16.708,27.965,16.7,27.948,16.697z"/>
			<polygon fill="#FFFFFF" points="25.998,21.484 25.778,21.581 25.824,21.581 			"/>
			<path fill="#FFFFFF" d="M27.582,16.247c0.012,0.024,0.047,0.049,0.025,0.099C27.718,16.25,27.569,16.222,27.582,16.247z"/>
			<path fill="#FFFFFF" d="M25.951,18.652c-0.052,0.072,0.05,0.1,0.051,0.148C25.979,18.752,26.139,18.532,25.951,18.652z"/>
			<path fill="#FFFFFF" d="M26.869,16.381c0.012,0.028-0.027,0.124-0.127,0.198C26.821,16.555,27.039,16.409,26.869,16.381z"/>
			<polygon fill="#FFFFFF" points="25.787,18.449 25.767,18.499 25.9,18.502 			"/>
			<path fill="#FFFFFF" d="M24.513,20.216c0.2-0.047,0.173-0.42,0.411-0.39c-0.044-0.303-0.161,0.187-0.268,0.038
				C24.688,19.982,24.569,20.172,24.513,20.216z"/>
			<path fill="#FFFFFF" d="M24.655,19.864c-0.004-0.017-0.012-0.03-0.025-0.044C24.639,19.84,24.647,19.854,24.655,19.864z"/>
			<path fill="#FFFFFF" d="M24.345,17.999c0.023,0,0.045-0.008,0.067-0.014C24.393,17.985,24.373,17.991,24.345,17.999z"/>
			<path fill="#FFFFFF" d="M24.15,19.563l0.299-0.069c-0.199,0.044-0.387-0.156-0.559,0.039c0.026,0.102,0.151,0.129,0.261,0.079
				L24.15,19.563z"/>
			<path fill="#FFFFFF" d="M26.147,14.903l0.124-0.024l-0.043-0.082C26.221,14.84,26.053,14.945,26.147,14.903z"/>
			<path fill="#FFFFFF" d="M26.221,14.78l0.008,0.017C26.231,14.788,26.229,14.783,26.221,14.78z"/>
			<path fill="#FFFFFF" d="M24.652,18.131c0.025,0.05,0.059,0.074,0.126,0.077C24.799,18.158,24.739,18.032,24.652,18.131z"/>
			<polygon fill="#FFFFFF" points="25.528,14.815 25.643,14.868 25.539,14.791 			"/>
			<polygon fill="#FFFFFF" points="25.454,14.118 25.475,14.071 25.341,14.068 25.321,14.115 			"/>
			<path fill="#FFFFFF" d="M22.347,18.235c0.036,0.077,0.245-0.044,0.265-0.093l-0.115-0.103c-0.117,0.171,0.035,0.025,0.061,0.124
				L22.347,18.235z"/>
			<path fill="#FFFFFF" d="M22.322,11.525c0.121-0.072,0.184,0.104,0.099,0.2c-0.057,0.024-0.158-0.003-0.176,0.097l0.331-0.144
				c-0.023,0.274-0.406,0.217-0.553,0.239c0.097,0.156,0.29,0.041,0.425,0.176c-0.018-0.061,0.015-0.146,0.046-0.217
				c0.162-0.171,0.214,0.029,0.316,0.106c0.016-0.132,0.11-0.159,0.217-0.181c0.012,0.002,0.027-0.003,0.042-0.012l0.037-0.008
				l-0.011-0.011c0.019-0.02,0.04-0.044,0.063-0.083c-0.125-0.027-0.044-0.223-0.091-0.274c-0.222,0.319-0.228-0.104-0.374-0.082
				l-0.098-0.044l-0.025-0.025c0.023-0.035,0.068-0.065,0.162-0.076c-0.087,0.02-0.18-0.113-0.258-0.017l-0.26-0.253
				c0.004-0.017,0.009-0.038,0.023-0.066c-0.027,0.009-0.042,0.022-0.056,0.036l-1.134-1.099c0.033,0.077,0.019,0.187,0.046,0.271
				c-0.265,0.097,0.061,0.127-0.134,0.272c-0.102,0.022-0.137-0.052-0.13-0.126c-0.097,0.071-0.126,0.194-0.235,0.293
				c0.033,0.248,0.467-0.143,0.542,0.059c-0.108,0.099-0.241,0.146-0.138,0.223h-0.045c0.26,0.027-0.119,0.343,0.254,0.153
				L21.06,11.08c0.177-0.047,0.306,0.08,0.398,0.132l-0.032,0.024c0.37,0.03,0.147,0.077,0.445,0.23l-0.277,0.069
				c0.008,0.151,0.212-0.02,0.249,0.055c-0.033,0.024-0.128,0.146-0.209,0.121l0.54,0.011C22.351,11.676,22.27,11.6,22.322,11.525z"
				/>
			<path fill="#FFFFFF" d="M22.448,12.094c0.007,0.021,0.021,0.044,0.046,0.058C22.48,12.127,22.465,12.11,22.448,12.094z"/>
			<path fill="#FFFFFF" d="M20.971,9.712l0.08,0.077C21.035,9.756,21.014,9.726,20.971,9.712z"/>
			<path fill="#FFFFFF" d="M23.167,12.162c0.029-0.123,0.143-0.071,0.209-0.121l-0.173-0.167c-0.056,0.058-0.137,0.106-0.187,0.162
				L23.167,12.162z"/>
			<path fill="#FFFFFF" d="M23.26,11.717c-0.045,0.033-0.099,0.053-0.152,0.066l0.095,0.091C23.245,11.83,23.272,11.78,23.26,11.717
				z"/>
			<polygon fill="#FFFFFF" points="20.223,14.791 20.188,14.767 20.098,14.767 			"/>
			<path fill="#FFFFFF" d="M20.002,14.068c-0.051,0.121,0.084,0.124,0.129,0.127C20.049,14.118,20.116,14.118,20.002,14.068z"/>
			<polygon fill="#FFFFFF" points="19.17,15.096 19.045,15.068 19.034,15.093 			"/>
			<path fill="#FFFFFF" d="M19.806,9.715l-0.048-0.027C19.774,9.707,19.791,9.712,19.806,9.715z"/>
			<path fill="#FFFFFF" d="M20.598,10.226c-0.014-0.349,0.259-0.019,0.416-0.291l-0.17-0.027l0.064-0.047L20.77,9.759
				c-0.072,0.121-0.061,0.146-0.168,0.245c-0.121-0.201,0.07-0.174,0.084-0.421l-0.199-0.162l0.046-0.017
				c-0.018-0.014-0.037-0.006-0.06,0.006l-0.668-0.541c-0.192-0.027-0.125,0.247-0.357,0.315c0.128,0.13,0.207,0.429,0.424,0.233
				c-0.032,0.022-0.098,0.072-0.097,0.121l0.243-0.094l-0.017-0.126c0.243-0.093,0.444,0.185,0.384,0.333
				c-0.194-0.08-0.329,0.191-0.407-0.107c-0.044,0.061-0.102,0.187-0.172,0.17C20.088,9.88,20.193,10.171,20.598,10.226z"/>
			<path fill="#FFFFFF" d="M18.27,8.094l0.02-0.016C18.275,8.083,18.268,8.089,18.27,8.094z"/>
			<path fill="#FFFFFF" d="M18.318,8.196l0.311-0.094l-0.186-0.153l-0.154,0.129c0.051-0.022,0.182-0.033,0.15,0.044L18.318,8.196z"
				/>
			<path fill="#FFFFFF" d="M18.876,8.105c-0.147-0.027-0.31,0.146-0.337,0.27c-0.157-0.006,0.137-0.223-0.094-0.102
				c-0.119,0.12,0.051,0.15,0.096,0.15L18.876,8.105z"/>
			<polygon fill="#FFFFFF" points="19.432,8.839 19.339,8.883 19.381,8.959 			"/>
			<path fill="#FFFFFF" d="M19.339,8.883l-0.041-0.08c-0.048,0.055-0.094,0.11-0.118,0.154L19.339,8.883z"/>
			<path fill="#FFFFFF" d="M19.188,8.597c-0.012-0.035-0.031-0.074-0.062-0.112L19.188,8.597z"/>
			<path fill="#FFFFFF" d="M19.214,8.71l0.021-0.025l-0.047-0.088C19.196,8.633,19.204,8.668,19.214,8.71z"/>
			<path fill="#FFFFFF" d="M19.298,8.803c0.105-0.126,0.217-0.261,0.097-0.313l-0.16,0.194L19.298,8.803z"/>
			<polygon fill="#FFFFFF" points="18.793,14.368 18.658,14.365 18.646,14.39 18.781,14.393 			"/>
			<path fill="#FFFFFF" d="M18.502,13.865c-0.037,0.003-0.07,0.011-0.104,0.021C18.428,13.893,18.461,13.887,18.502,13.865z"/>
			<path fill="#FFFFFF" d="M17.414,14.365c0.035-0.197,0.266-0.044,0.167-0.244c0.097-0.121,0.308-0.192,0.324-0.069
				c-0.108,0.099-0.135-0.003-0.196,0.146c0.164-0.071,0.103,0.027,0.24-0.143c0.176-0.02,0.294-0.121,0.449-0.168
				c-0.164-0.027-0.205-0.384-0.523-0.307c-0.253,0.12-0.467,0.414-0.736,0.681C17.086,14.335,17.229,14.538,17.414,14.365z"/>
			<path fill="#FFFFFF" d="M17.271,14.761c0.023,0.052,0.047,0.052,0.092,0.052C17.449,14.714,17.307,14.788,17.271,14.761z"/>
			<path fill="#FFFFFF" d="M18.437,11.879c-0.046,0.031-0.161,0.012-0.212,0.091l0.15,0.056
				C18.357,11.994,18.396,11.939,18.437,11.879z"/>
			<path fill="#FFFFFF" d="M18.441,12.05l-0.066-0.024C18.383,12.041,18.402,12.05,18.441,12.05z"/>
			<path fill="#FFFFFF" d="M18.456,11.852l-0.02,0.027C18.446,11.874,18.455,11.865,18.456,11.852z"/>
			<path fill="#FFFFFF" d="M19.006,8.281c0.076-0.071-0.015-0.071-0.059-0.074C18.96,8.231,18.961,8.284,19.006,8.281z"/>
			<path fill="#FFFFFF" d="M16.997,6.853l0.019-0.099C16.994,6.803,16.984,6.828,16.997,6.853z"/>
			<path fill="#FFFFFF" d="M14.361,8.245c-0.015,0.014-0.029,0.022-0.045,0.03C14.328,8.27,14.344,8.262,14.361,8.245z"/>
			<path fill="#FFFFFF" d="M14.316,8.275c-0.09,0.033-0.08-0.146-0.203-0.085l0.033-0.024h-0.113
				C14.096,8.21,14.195,8.333,14.316,8.275z"/>
		</g>
	</g>
</g>
</svg>
