<?xml version="1.0" encoding="utf-8"?>
<!-- Generator: Adobe Illustrator 16.0.3, SVG Export Plug-In . SVG Version: 6.00 Build 0)  -->
<!DOCTYPE svg PUBLIC "-//W3C//DTD SVG 1.1//EN" "http://www.w3.org/Graphics/SVG/1.1/DTD/svg11.dtd">
<svg version="1.1" id="Layer_1" xmlns="http://www.w3.org/2000/svg" xmlns:xlink="http://www.w3.org/1999/xlink" x="0px" y="0px"
	 width="48px" height="48px" viewBox="0 0 48 48" enable-background="new 0 0 48 48" xml:space="preserve">
<circle fill="#EE4632" cx="24" cy="24.059" r="24"/>
<g>
	<g>
		<line fill="#FFFFFF" x1="14.556" y1="26.004" x2="32.839" y2="7.721"/>
		<g>
			<path fill="#FFFFFF" d="M31.684,7.468c0.025-0.058,0.148-0.005,0.174,0.05c-0.022-0.192,0.1-0.071-0.096-0.289
				c-0.047-0.156,0.151-0.073,0.174,0.072l0.029-0.283L31.84,7.081c-0.145-0.198,0.199-0.099,0.031-0.327l-0.152,0.184L31.67,6.872
				c0.022,0.102-0.078,0.151-0.127,0.151c-0.025-0.03-0.073-0.074-0.049-0.11c-0.217,0.192,0.244,0.354,0.132,0.579
				C31.633,7.479,31.648,7.468,31.684,7.468z"/>
			<path fill="#FFFFFF" d="M31.092,7.221l0.143,0.286l-0.174,0.065c0.072,0.074,0.045,0.22,0.17,0.229c0-0.025,0-0.069,0.025-0.08
				c0.146,0.173-0.078,0.239,0.117,0.365c0.053-0.137,0.102-0.115,0.031-0.305c0.102-0.071,0.2-0.096,0.299-0.08
				c0.002-0.049-0.092-0.15-0.08-0.203l-0.016,0.027l-0.244-0.236c0.023,0.077-0.025,0.08-0.052,0.115l-0.142-0.42
				c-0.27-0.181-0.274,0.088-0.423,0.05C31.018,7.169,30.794,7.188,31.092,7.221z"/>
			<path fill="#FFFFFF" d="M31.623,7.498l0.003-0.006L31.623,7.498z"/>
			<path fill="#FFFFFF" d="M22.591,19.331c-0.026,0.033,0.022,0.099,0.046,0.132l0.33-0.338c-0.074-0.055-0.249-0.035-0.221-0.137
				c-0.099-0.041-0.126,0.104-0.054,0.203L22.62,19.07c0.046,0.201-0.249,0.012-0.271-0.112l-0.006,0.008l0.261,0.689
				C22.71,19.604,22.501,19.43,22.591,19.331z"/>
			<path fill="#FFFFFF" d="M15.483,25.954c0.021-0.066,0.003-0.094-0.025-0.112C15.46,25.874,15.465,25.91,15.483,25.954z"/>
			<path fill="#FFFFFF" d="M22.666,19.814l0.083,0.217C22.735,19.963,22.705,19.887,22.666,19.814z"/>
			<polygon fill="#FFFFFF" points="20.869,17.093 20.842,17.068 20.888,17.172 20.889,17.172 			"/>
			<path fill="#FFFFFF" d="M21.708,21.892c-0.004,0.011-0.005,0.017-0.011,0.03C21.704,21.913,21.706,21.902,21.708,21.892z"/>
			<path fill="#FFFFFF" d="M20.925,15.338l-0.005,0.291c-0.048-0.088-0.099,0.006-0.147-0.104c0,0.022-0.027,0.102,0.022,0.121
				l0.026-0.036c0.12,0.277,0.242,0.305,0.262,0.585c0.198,0.036,0.126-0.106,0.08-0.239c0-0.027,0.007-0.046,0.011-0.065
				l-0.152-0.398L20.925,15.338z"/>
			<path fill="#FFFFFF" d="M16.435,22.765l-0.014-0.019L16.435,22.765z"/>
			<path fill="#FFFFFF" d="M16.364,22.677l0.058,0.069C16.396,22.707,16.398,22.646,16.364,22.677z"/>
			<path fill="#FFFFFF" d="M22.563,19.664c0.034,0.038,0.071,0.09,0.103,0.15l-0.062-0.159
				C22.595,19.658,22.578,19.661,22.563,19.664z"/>
			<path fill="#FFFFFF" d="M22.246,19.12l0.097-0.154l-0.056-0.147C22.277,18.902,22.249,18.988,22.246,19.12z"/>
			<path fill="#FFFFFF" d="M22.022,21.809c-0.229,0.289-0.169-0.296-0.343-0.233c-0.045,0.099,0.04,0.236,0.029,0.316
				c0.111-0.3,0.335,0.39,0.485,0.123c0.169,0.229,0.067,0.368-0.058,0.385c-0.271-0.112-0.07-0.212-0.24-0.417
				c-0.052,0.115-0.003,0.135,0.068,0.277c-0.174,0.085-0.034,0.505-0.377,0.318c-0.054,0.137,0.045,0.223,0.092,0.379
				c0.195,0.215,0.249-0.033,0.445,0.094c-0.025-0.012-0.073-0.03-0.098-0.063l0.125-0.038c-0.15,0.005-0.195-0.217-0.169-0.275
				c0.025-0.035,0.076-0.104,0.125-0.038l-0.001,0.091c0.124,0.006-0.021-0.28,0.152-0.23c0.05,0.041,0.048,0.088,0.073,0.117
				c-0.07-0.208,0.006-0.266,0.008-0.469l0.145,0.264c-0.143-0.309,0.108-0.432,0.357-0.442c-0.049-0.02-0.1-0.017-0.124-0.071
				c0.027-0.127,0.225-0.045,0.296,0.099c-0.095-0.242,0.426-0.14,0.306-0.462l-0.57-1.5c0.008,0.042,0.011,0.083,0,0.11
				c-0.221-0.138-0.222-0.091-0.317-0.335c0.022,0.168,0.194,0.283,0.092,0.4c-0.047-0.131-0.242-0.348-0.368-0.266
				c-0.083,0.441,0.253,1.123,0.269,1.629c-0.147-0.129-0.301,0.102-0.426,0.162c-0.112-0.185-0.086-0.297-0.044-0.398
				c-0.055,0.035-0.136,0.109-0.2,0.162L22.022,21.809z"/>
			<path fill="#FFFFFF" d="M22.167,20.738c-0.02-0.006-0.033-0.006-0.047-0.006C22.135,20.74,22.15,20.743,22.167,20.738z"/>
			<polygon fill="#FFFFFF" points="21.981,21.317 21.967,21.301 21.955,21.334 			"/>
			<path fill="#FFFFFF" d="M22.189,19.414c-0.019-0.058-0.026-0.074-0.046-0.132c0.001,0.024,0.002,0.044,0.002,0.068
				C22.154,19.381,22.167,19.402,22.189,19.414z"/>
			<path fill="#FFFFFF" d="M22.485,19.604l0.049,0.065c0.014-0.003,0.018-0.003,0.029-0.005
				C22.534,19.631,22.507,19.605,22.485,19.604z"/>
			<path fill="#FFFFFF" d="M19.784,21.554l0.005,0.055C19.801,21.592,19.796,21.572,19.784,21.554z"/>
			<path fill="#FFFFFF" d="M21.499,21.864c0.075-0.104-0.195-0.218-0.069-0.347l-0.051,0.025c0.004-0.179,0.206-0.3,0.306-0.415
				c0.07,0.093,0.167,0.032,0.282,0.173c0.044-0.104,0.089-0.206-0.004-0.376c0.089-0.003,0.044-0.187,0.157-0.192
				c-0.102-0.053-0.177-0.344-0.225-0.107c0.001-0.021-0.023-0.033-0.023-0.055c-0.199-0.014-0.054,0.203-0.13,0.285
				c-0.124-0.029-0.045-0.2-0.121-0.187c-0.027,0.171-0.401,0.22-0.108,0.497c-0.052,0.094-0.125,0.041-0.198,0.009
				c0.191,0.42-0.554,0.291-0.162,0.681c0.026-0.058,0.102-0.115,0.08-0.261L21.499,21.864z"/>
			<path fill="#FFFFFF" d="M22.059,19.584c-0.007,0.006-0.014,0.014-0.022,0.014L22.059,19.584z"/>
			<path fill="#FFFFFF" d="M24.325,19.576l0.217,0.291c-0.154,0.277-0.302,0.283-0.481,0.48c-0.048-0.021-0.048-0.066-0.048-0.088
				c-0.102,0.162-0.353,0.305-0.333,0.52c-0.044,0.038-0.235,0.068-0.268-0.05c0.001,0.044,0,0.091-0.032,0.104
				c-0.098-0.085,0.026-0.08-0.047-0.154c-0.024,0.012-0.051,0-0.026,0.033c-0.047-0.109-0.343-0.277-0.191-0.418
				c0.271,0.157-0.076,0.127,0.193,0.33c0.05-0.047-0.048-0.135-0.071-0.168c0.066-0.055,0.124,0.006,0.174,0.063
				c-0.049-0.096,0.131-0.074,0.052-0.217c0.102-0.138,0.17,0.185,0.246,0.102l-0.194-0.282l0.176-0.086
				c0.106-0.274-0.439-0.387-0.358-0.736c0.096,0.151,0.392,0.275,0.542,0.223c-0.051,0.071-0.007,0.338-0.155,0.344
				c0.297,0.08-0.129,0.173,0.143,0.332c-0.048-0.156,0.029-0.261,0.154-0.277l-0.001,0.047c0.1-0.05-0.092-0.357,0.106-0.365
				c0.044-0.058,0.102,0.02,0.148,0.085C24.281,19.609,24.273,19.523,24.325,19.576z M24.265,19.738l-0.093,0.044
				C24.228,19.807,24.252,19.779,24.265,19.738z"/>
			<path fill="#FFFFFF" d="M30.164,8.213h0.039C30.188,8.204,30.174,8.207,30.164,8.213z"/>
			<path fill="#FFFFFF" d="M23.98,14.211l0.048-0.029C24.004,14.187,23.99,14.2,23.98,14.211z"/>
			<path fill="#FFFFFF" d="M24.083,12.53l0.003-0.112C24.067,12.442,24.071,12.483,24.083,12.53z"/>
			<polygon fill="#FFFFFF" points="29.674,8.671 29.669,8.671 29.674,8.693 			"/>
			<path fill="#FFFFFF" d="M26.432,11.3c0.029,0.011,0.059,0.02,0.086,0.022C26.491,11.3,26.463,11.295,26.432,11.3z"/>
			<polygon fill="#FFFFFF" points="24.083,12.553 24.092,12.553 24.083,12.53 			"/>
			<path fill="#FFFFFF" d="M22.892,13.909c-0.001,0.014-0.001,0.027-0.003,0.047C22.897,13.939,22.894,13.923,22.892,13.909z"/>
			<path fill="#FFFFFF" d="M23.624,14.53c-0.003,0.014-0.004,0.03,0,0.046V14.53z"/>
			<path fill="#FFFFFF" d="M21.786,15.439l-0.021,0.088C21.789,15.497,21.792,15.47,21.786,15.439z"/>
			<path fill="#FFFFFF" d="M23.326,14.514l0.024,0.041C23.35,14.541,23.339,14.521,23.326,14.514z"/>
			<polygon fill="#FFFFFF" points="31.216,8.586 31.213,8.589 31.238,8.619 			"/>
			<path fill="#FFFFFF" d="M30.997,8.105l0.028-0.066C31.006,8.056,30.996,8.08,30.997,8.105z"/>
			<path fill="#FFFFFF" d="M27.594,10.907c0.049,0.021,0.123,0.027,0.146,0.085C27.718,10.915,27.596,10.795,27.594,10.907z"/>
			<path fill="#FFFFFF" d="M32.45,10.342c-0.024-0.042-0.038-0.077-0.052-0.11C32.413,10.283,32.426,10.33,32.45,10.342z"/>
			<path fill="#FFFFFF" d="M32.398,10.231l-0.025-0.085C32.379,10.174,32.387,10.201,32.398,10.231z"/>
			<path fill="#FFFFFF" d="M29.216,13.25c-0.019-0.011-0.038-0.02-0.051-0.017C29.201,13.264,29.213,13.264,29.216,13.25z"/>
			<path fill="#FFFFFF" d="M31.102,8.039c-0.049-0.063,0.031-0.393-0.169-0.25c-0.172-0.184,0.027-0.191,0.03-0.282
				c-0.076-0.009-0.098-0.13-0.172-0.182c-0.001,0.044,0.023,0.121-0.027,0.146c-0.098-0.063-0.096-0.176-0.021-0.189
				c-0.148-0.038-0.071-0.211-0.222-0.203c-0.103,0.228-0.156,0.409-0.014,0.785c0.053-0.137,0.105-0.297,0.254-0.302l0.121,0.185
				c-0.223-0.047-0.176,0.109-0.277,0.181l0.276-0.112C31.1,7.85,31.068,7.94,31.025,8.039C31.044,8.025,31.07,8.018,31.102,8.039z"
				/>
			<polygon fill="#FFFFFF" points="32.315,9.518 32.324,9.518 32.315,9.495 			"/>
			<path fill="#FFFFFF" d="M24.898,18.532l0.041,0.074C24.927,18.568,24.915,18.546,24.898,18.532z"/>
			<path fill="#FFFFFF" d="M31.457,8.889L31.457,8.889C31.459,8.891,31.457,8.894,31.457,8.889z"/>
			<path fill="#FFFFFF" d="M25.324,18.131l0.012,0.014L25.324,18.131z"/>
			<path fill="#FFFFFF" d="M22.129,14.714l-0.025-0.019C22.104,14.714,22.117,14.717,22.129,14.714z"/>
			<path fill="#FFFFFF" d="M25.311,18.117l0.014,0.014L25.311,18.117z"/>
			<path fill="#FFFFFF" d="M26.762,15.538c0,0-0.035-0.017-0.068-0.033C26.704,15.521,26.723,15.535,26.762,15.538z"/>
			<path fill="#FFFFFF" d="M26.137,15.709L26.112,15.7L26.137,15.709z"/>
			<path fill="#FFFFFF" d="M26.809,10.311c-0.021,0.017-0.033,0.036-0.039,0.056C26.787,10.355,26.803,10.338,26.809,10.311z"/>
			<path fill="#FFFFFF" d="M25.336,18.145c0.012,0.022,0.021,0.044,0.033,0.074C25.357,18.186,25.348,18.164,25.336,18.145z"/>
			<polygon fill="#FFFFFF" points="26.593,14.159 26.597,14.187 26.611,14.187 			"/>
			<path fill="#FFFFFF" d="M26.912,14.063l0.037,0.066c0.01-0.137,0.217-0.203,0.069-0.385c-0.021,0.03-0.247,0.066-0.319-0.052
				c-0.012,0.091-0.203,0.052-0.204,0.106c0.175,0.006,0.147,0.13,0.145,0.242c-0.099,0.006-0.121-0.14-0.196-0.126l-0.102,0.137
				l0.126-0.082l0.125,0.189l-0.004-0.027C26.693,13.882,26.833,14.346,26.912,14.063z"/>
			<path fill="#FFFFFF" d="M26.949,14.129c-0.001,0.021,0.002,0.044,0.012,0.068C26.975,14.176,26.965,14.154,26.949,14.129z"/>
			<path fill="#FFFFFF" d="M27.934,13.662c0.004-0.014,0.006-0.03,0.006-0.055C27.938,13.621,27.936,13.638,27.934,13.662z"/>
			<path fill="#FFFFFF" d="M22.402,18.755c0.048,0.044,0.248,0.035,0.125-0.085l-0.13,0.055L22.402,18.755z"/>
			<path fill="#FFFFFF" d="M29.207,10.986c-0.016,0.009-0.028,0.02-0.037,0.033l0.012,0.025
				C29.207,11.056,29.207,11.012,29.207,10.986z"/>
			<path fill="#FFFFFF" d="M26.674,13.602c-0.002,0.039,0.01,0.066,0.025,0.091C26.701,13.67,26.695,13.643,26.674,13.602z"/>
			<path fill="#FFFFFF" d="M29.5,11.267c0.05,0.022,0.124,0.053,0.172,0.097c0.031-0.03-0.011-0.115-0.003-0.168
				C29.652,11.248,29.601,11.275,29.5,11.267z"/>
			<path fill="#FFFFFF" d="M29.669,11.189v0.006V11.189z"/>
			<path fill="#FFFFFF" d="M22.289,18.766l-0.001,0.053l-0.018-0.047l-0.109,0.035c0,0.017-0.002,0.033-0.009,0.047
				c0-0.008-0.008-0.024-0.02-0.041l-0.037,0.011c0.067,0.182,0.018,0.412,0.051,0.527c0,0.107-0.036,0.203-0.086,0.233
				c0.042-0.035,0.066-0.109-0.018-0.165c-0.15,0.006-0.395-0.165-0.351,0.148l0.076-0.082l0.091,0.444
				c-0.173-0.046-0.045-0.219-0.117-0.34c-0.006,0.27-0.473,0.03-0.305,0.326c-0.147-0.129-0.391-0.343-0.467-0.241
				c0.221,0.093,0.045,0.156,0.268,0.272c0.047,0.109-0.151,0.049-0.052,0.158l-0.05-0.065c-0.372-0.065-0.081,0.327-0.034,0.505
				c-0.129,0.242-0.302,0.236-0.43,0.41c-0.098-0.086-0.393-0.3-0.444-0.229c0.098,0.154,0.019,0.346,0.165,0.52
				c0.174-0.041-0.045-0.223-0.018-0.324c0.221,0.115,0.17,0.162,0.343,0.189c-0.124-0.008-0.18,0.354-0.402,0.261v-0.044
				c-0.198,0.008-0.614-0.368-0.546,0.044l0.015,0.182l-0.043-0.056c-0.151,0.119-0.296-0.102-0.302,0.193
				c0.001-0.025-0.023-0.033-0.023-0.059c-0.174-0.005-0.08,0.262-0.106,0.363c-0.173-0.094-0.122-0.141-0.193-0.262
				c-0.202,0.1-0.133,0.489-0.065,0.745l-0.174,0.017c0.003-0.11-0.068-0.322-0.166-0.385c-0.026,0.079,0.047,0.132-0.054,0.182
				c-0.073-0.1-0.121-0.209-0.192-0.352c-0.298,0.014,0.268,0.338-0.102,0.184c-0.051,0.047,0.045,0.2,0.143,0.308l-0.223-0.047
				c0.121,0.143,0.02,0.259-0.032,0.349c0.048,0.066,0.197,0.083,0.173,0.006c0.098,0.107,0.07,0.23,0.019,0.277
				c-0.292-0.256-0.279,0.359-0.545-0.021c-0.129,0.31-0.41,0.645-0.439,0.903c-0.124-0.027-0.226,0.065-0.295-0.121
				c-0.177,0.173,0.014,0.547-0.236,0.648c-0.049-0.022,0.076-0.083-0.022-0.168c-0.004,0.226-0.324,0.091-0.429,0.344
				c0.025-0.036-0.023-0.102-0.048-0.135c0.049,0.044,0.022,0.168,0.021,0.259c-0.049,0.002,0.001-0.069-0.048-0.088
				c-0.477,0.208-0.364,0.843-0.717,1.172c0.1-0.093-0.045-0.313-0.118-0.387l-0.099,0.091c0.054,0.129-0.018,0.2-0.01,0.327
				c-0.041-0.028-0.107-0.033-0.121-0.107c-0.374,0.006,0.039,0.629-0.287,0.764l-0.088-0.646l-0.198-0.061l-0.044-0.288
				c-0.174-0.028-0.005,0.269-0.152,0.14c-0.023-0.055,0.027-0.08-0.047-0.157c-0.124,0.018-0.027,0.127-0.054,0.207
				c-0.141-0.421,0.138-0.692,0.216-0.907c0.001-0.046,0.048,0.089,0.073,0.118c0.051-0.068,0.174-0.016,0.202-0.14
				c-0.073-0.168-0.124-0.052-0.173-0.027c-0.099-0.107-0.073-0.121-0.046-0.179c0.146,0.129,0.276-0.179,0.499-0.063
				c0.178-0.267-0.393-0.321-0.117-0.478l0.222,0.091c0.004-0.247,0.059-0.517,0.235-0.627l-0.024,0.036
				c0.048,0.088,0.122,0.096,0.171,0.115c0.174-0.041,0.08-0.327,0.304-0.236c-0.045-0.288,0.036-0.618,0.089-0.846
				c0.246,0.17-0.007,0.359,0.064,0.549l0.126-0.129c-0.075,0.082-0.027,0.192,0.043,0.357c0.151-0.074,0.005-0.291,0.059-0.451
				c0.048,0.066,0.097,0.086,0.148,0.039l-0.124-0.151c0.011,0.009,0.028,0.014,0.051,0.009l0.104-0.275
				c-0.099-0.016-0.221-0.137-0.271-0.088c0.098,0.063,0.073,0.121,0.022,0.165c-0.048-0.132-0.124-0.027-0.198-0.102
				c0.102-0.096,0.203-0.233,0.229-0.335l0.148,0.104c0.125-0.061,0.153-0.229,0.253-0.256l0.048,0.088
				c0.151-0.074,0.179-0.267,0.403-0.241c-0.045-0.244-0.04-0.492-0.111-0.726c-0.12-0.206,0.499-0.085,0.38-0.429
				c0.026,0.009,0.046,0.201,0.07,0.3c0.101-0.05-0.044-0.313,0.153-0.162c-0.227,0.11,0.146,0.129,0.119,0.253
				c0.076-0.082,0.128-0.195,0.104-0.297c-0.126,0.129-0.194-0.283-0.247-0.08c-0.045-0.244,0.033-0.439,0.208-0.502
				c0.073,0.076,0.123,0.096,0.198,0.082l-0.073-0.143c0.076-0.036,0.021,0.236,0.172,0.162c-0.07-0.3,0.452-0.242,0.161-0.635
				c0.223,0.047-0.032,0.305,0.267,0.335c0.046,0.2-0.201,0.168-0.057,0.362c0.027-0.123,0.172,0.115,0.223,0.069l-0.021-0.189
				l-0.026,0.014c-0.019-0.302,0.282-0.45,0.436-0.657c-0.02-0.326-0.162-0.678,0.04-0.843c0.047,0.153,0.25-0.055,0.319,0.245
				c0.174,0.002,0.152-0.185,0.08-0.262c-0.1,0.05-0.049,0.003-0.15,0.027c-0.048-0.132,0.055-0.225,0.154-0.206
				c-0.026,0.011-0.001,0.022,0.023,0.053c0.15-0.027-0.046-0.132-0.021-0.233c0.147,0.107,0.176-0.107,0.301-0.102l-0.095-0.267
				c0.071,0.167,0.125-0.038,0.247,0.058c-0.023-0.146-0.118-0.344,0.007-0.404c0.023,0.102,0.175,0.006,0.297,0.124
				c0.274-0.044-0.063-0.593,0.26-0.571c0.023,0.033,0.071,0.143,0.146,0.129c0.001-0.068,0.077-0.115,0.1-0.168l0.003,0.006
				l-0.001-0.006c0.012-0.024,0.008-0.052-0.021-0.079c-0.054-0.182-0.142-0.335-0.116-0.561c-0.147-0.129-0.199,0.03-0.2,0.121
				l0.096,0.176c-0.246-0.171-0.077,0.148-0.176,0.107c-0.169-0.319,0.108-0.476,0.088-0.753c-0.271-0.115-0.473,0.027-0.601,0.203
				l0.15,0.017l-0.077,0.079l0.222,0.072c-0.1,0.047-0.126,0.15-0.203,0.209c0.077-0.083,0.296,0.076,0.223,0.093
				c-0.223-0.05-0.004,0.179-0.079,0.236c0.049-0.024,0.101-0.068,0.148,0.041c-0.298-0.032-0.227,0.11-0.523,0.056
				c0.245,0.214-0.127,0.173,0.043,0.379l0.074-0.039l0.021,0.258c-0.297-0.076-0.094-0.288-0.393-0.252
				c-0.176,0.129,0.069,0.368-0.034,0.506c-0.096-0.177-0.117-0.388-0.015-0.481l-0.125-0.008c-0.047-0.11,0.104-0.229,0.18-0.286
				c0.044,0.267,0.099-0.006,0.272,0.066c-0.122-0.141-0.173-0.05-0.193-0.239c-0.077,0.083-0.077,0.104-0.228,0.156
				c0.277-0.159-0.261-0.65,0.04-0.73c-0.029,0.146,0.22,0.159,0.294,0.212c0.025-0.058,0.077-0.171,0.079-0.239l-0.22-0.159
				c0.027-0.192,0.468,0.173,0.399-0.151c-0.098-0.129-0.149,0.074-0.149,0.03c0.055-0.294,0.424-0.052,0.722-0.063
				c-0.049-0.066-0.17-0.185-0.217-0.341c0.096,0.132,0.195,0.15,0.217,0.294c0.1-0.003,0.078-0.148,0.08-0.239
				c-0.174,0.041-0.12-0.206-0.169-0.294c0.076-0.039,0.098,0.129,0.096,0.197c0.076-0.014,0.297,0.1,0.151-0.096
				c0.121,0.118,0.19,0.442,0.139,0.555l0.075-0.035c0.022,0.099-0.002,0.088-0.077,0.126c0.148,0.038,0.246,0.146,0.318,0.244
				c-0.024-0.011-0.024-0.032-0.049-0.044c-0.074,0.017-0.077,0.083-0.003,0.138c0.121,0.2,0.164,0.038,0.275,0.088l0.036-0.102
				l-0.286-0.75c0.04-0.159,0.208-0.079,0.361-0.077l-0.118-0.159c0.1-0.071,0.225-0.109,0.346,0.121
				c-0.05-0.041-0.051-0.02-0.076-0.009c0.017,0.022,0.025,0.039,0.03,0.056l0.021,0.03c0.048-0.138,0.077-0.226,0.077-0.236
				c0.042,0.359,0.243,0.258,0.461,0.529l0.08-0.235c-0.174,0.017-0.123-0.121-0.121-0.187c0.147,0.129,0.126-0.13,0.202-0.165
				l0.023,0.03c0.1-0.003,0.177-0.107,0.203-0.209c-0.049-0.041-0.192-0.352-0.289-0.527c-0.162,0.061-0.152-0.061-0.246-0.138
				c0.019-0.005,0.041-0.021,0.026-0.044c-0.023-0.055-0.074-0.03-0.124-0.071c-0.052,0.182-0.155,0.318-0.01,0.561
				c0.123,0.05-0.022-0.146,0.077-0.126c0.071,0.187-0.03,0.235-0.13,0.329l-0.148-0.083l-0.034,0.16
				c-0.021-0.102-0.167-0.198-0.087-0.324c-0.122-0.096-0.077,0.126-0.177,0.153l0.121,0.185c-0.073-0.096-0.224,0.021-0.245-0.192
				l0.03-0.28L21.28,14.92l0.102-0.162l0.049,0.11c0.104-0.319,0.367,0.244,0.399-0.151c-0.119-0.253-0.068-0.344,0.107-0.429
				c-0.052,0.135,0.122,0.141,0.193,0.283c0.175-0.02,0.054-0.203,0.032-0.327c0.122,0.074,0.22,0.138,0.12,0.209
				c0.195,0.217,0.078-0.148,0.298,0.055c0.279-0.291-0.456-0.912,0.142-0.98l0.073,0.096c0.105-0.315,0.33-0.338,0.458-0.602
				l0.373,0.063c-0.001,0.069,0.067,0.324,0.215,0.385c-0.295-0.146-0.298,0.011-0.496-0.024c0.048,0.065,0.122,0.074,0.171,0.093
				c-0.051,0.047-0.173-0.024-0.199,0.077c0.048,0.041,0.173,0.025,0.147,0.107l-0.224-0.05c-0.052,0.182,0.267,0.382,0.066,0.459
				c-0.095-0.148-0.217-0.374-0.192-0.456c-0.089,0.035,0.011-0.156-0.118-0.173c0.088,0.271-0.097,0.173-0.105,0.406
				c-0.011-0.041-0.042-0.079-0.023-0.121l-0.251,0.103c0.148,0.06-0.029,0.258,0.142,0.397c0.251-0.123,0.103-0.162,0.404-0.285
				c-0.025,0.093,0.055,0.329,0.164,0.511c-0.007-0.003-0.015-0.006-0.025,0c0.121,0.184,0.196,0.192,0.463,0.461
				c-0.093-0.288,0.129-0.194,0.133-0.42c-0.125-0.168-0.254-0.121-0.273-0.024l0.004-0.198l0.048,0.086l0.305-0.207
				c-0.04,0.059,0.029,0.16,0.067,0.248c0.039-0.027,0.11-0.02,0.188-0.012c-0.148-0.135-0.243-0.238-0.207-0.266
				c0.198-0.133,0.415-0.1,0.636,0.002l0.01-0.029c-0.172-0.116-0.142-0.377-0.238-0.574c0.147,0.15,0.174,0.005,0.298,0.032
				c-0.146-0.194-0.415-0.397-0.612-0.478c0.044,0.267,0.095,0.22,0.264,0.492l-0.03,0.326l-0.096-0.176
				c-0.149,0.03-0.056,0.294-0.227,0.109c-0.07-0.164,0.078-0.17,0.007-0.334l-0.124-0.006c-0.07-0.28,0.221,0.112,0.225-0.135
				c-0.196-0.104,0-0.021-0.046-0.176c-0.148-0.063-0.179,0.264-0.397-0.03c-0.045-0.176,0.521,0.079,0.353-0.261l0.024,0.033
				c0.161-0.094,0.061-0.286,0.017-0.426c0.137,0.029,0.095-0.162,0.144-0.231l0.074,0.074l0.051-0.112
				c0.098,0.176-0.1,0.094-0.152,0.184l0.147,0.129c-0.246-0.079-0.051,0.223,0.004,0.407c-0.028-0.212,0.296-0.228,0.048-0.522
				l0.196,0.083l-0.022-0.077c0.147,0.063,0.268,0.27,0.216,0.385c-0.049-0.021-0.074-0.03-0.098-0.063
				c0.023,0.099,0.095,0.242-0.03,0.306l-0.023-0.124c-0.126,0.104-0.178,0.264-0.082,0.439c0.225-0.11,0.402-0.261,0.553-0.426
				c-0.266-0.36-0.385-0.591-0.652-0.903c0.052-0.16,0.155-0.344,0.353-0.33l0.049,0.066c0.074-0.014,0.099-0.072,0.101-0.138
				c0.125,0.027,0.122,0.184,0.196,0.192l0.054-0.248c0.122,0.141-0.004,0.27-0.055,0.338c0-0.021,0.001-0.065-0.024-0.076
				c-0.124,0.017-0.031,0.371-0.251,0.211c-0.001,0.066-0.072-0.211-0.198-0.104c-0.15,0.005-0.004,0.203,0.045,0.266
				c0.073,0.077,0.224-0.019,0.271,0.113c0.052-0.069-0.021-0.189,0.13-0.195c-0.051,0.068,0.019,0.302-0.13,0.22
				c0.021,0.255,0.388,0.588,0.462,0.552c-0.123-0.096,0.082-0.352-0.216-0.338c-0.071-0.211,0.055-0.34,0.058-0.519l0.025,0.032
				l0.078-0.147c0.021,0.052,0.021,0.12,0.094,0.194l-0.042-0.354c0.046,0.222,0.148,0.038,0.247,0.057
				c-0.098-0.131-0.119-0.277-0.243-0.282c-0.147-0.017,0.023,0.099-0.028,0.167l-0.094-0.264l0.023,0.012l-0.095-0.198
				c0.126-0.106,0.291,0.39,0.295,0.099l-0.22-0.181c0.202-0.144,0.65-0.138,0.679-0.352c0.079,0.146,0.249,0.343,0.403,0.406
				c-0.086,0.02-0.186,0.132-0.241,0.226c-0.05-0.022-0.144-0.33-0.019-0.368c-0.367-0.292-0.008,0.403-0.35,0.079
				c-0.324,0.091,0.165,0.476-0.207,0.456c0.146,0.151,0.023,0.124,0.145,0.264c0.295,0.189,0.228-0.244,0.428-0.274
				c-0.002,0.021-0.002,0.068,0.021,0.099c0.127-0.038,0.127-0.104,0.13-0.217l-0.024-0.011c-0.046-0.244,0.172,0.049,0.297,0.058
				c0-0.047,0.124-0.085,0.004-0.182l0.246,0.036l-0.17-0.162c0.05-0.068,0.174,0.027,0.127-0.129l-0.146-0.151l-0.201,0.099
				c0.027-0.123-0.121-0.164-0.068-0.277c0.069,0.256,0.148,0.017,0.295,0.146l-0.021-0.146l0.023,0.055
				c0.124,0.027,0.002-0.112,0.076-0.148c-0.148-0.016-0.295-0.079-0.274,0.11c-0.022-0.143,0.007-0.357,0.031-0.393
				c0.003-0.126,0.161-0.058,0.237-0.102c-0.057,0.176,0.49,0.409,0.152,0.535c-0.024-0.032,0.002-0.047,0.026-0.036
				c-0.221-0.158-0.128,0.151-0.105,0.275c0.122,0.096,0.098,0.176,0.245,0.146c-0.098-0.041-0.167-0.318,0.008-0.313l0.219,0.248
				l0.15-0.097v0.024c0.196,0.104,0.104-0.162,0.275-0.156c-0.021-0.146,0.281-0.316-0.065-0.459
				c0.223,0.072,0.103-0.184,0.155-0.297l-0.199,0.009c-0.045-0.291,0.027-0.148-0.141-0.511c0.074,0.052,0.148,0.085,0.195,0.17
				c0.178-0.15,0.479-0.321,0.385-0.609c0.127-0.104,0.419,0.15,0.476-0.118c0.001-0.069-0.246-0.192-0.071-0.233
				c0.024,0.011,0.07,0.277,0.172,0.137c-0.096-0.264,0.301-0.102,0.255-0.367c0.124,0.005,0.202-0.121,0.323,0.043
				c-0.127,0.061-0.229,0.223-0.18,0.311c-0.073-0.099-0.15-0.016-0.147-0.153c-0.249,0.035-0.003,0.181-0.204,0.233
				c0.051,0.065,0.223,0.094,0.199,0.014c0.195,0.195-0.154,0.344,0.189,0.464c0.153-0.118-0.213-0.563,0.109-0.475
				c0.071,0.165-0.102,0.137,0.043,0.4l0.174-0.017l-0.071-0.211l0.024,0.033c0.348,0.008-0.043-0.357,0.013-0.607
				c-0.224-0.047-0.317-0.357-0.466-0.373c0.077-0.127,0.178-0.174,0.372,0.019c-0.031,0.349,0.195,0.218,0.213,0.585
				c0.099,0.041,0.243,0.327,0.368,0.244c-0.021-0.255-0.196-0.126-0.143-0.307c0.023,0.008,0.048,0.019,0.072,0.052
				c-0.047-0.153,0.101-0.027,0.054-0.203l0.023,0.055c0.199,0.036-0.046-0.223,0.152-0.165c-0.171-0.115-0.071-0.164-0.118-0.297
				c-0.125,0.018-0.371-0.153-0.497-0.002c0.098,0.132,0.171,0.184,0.169,0.297l0.076-0.104c0,0.038,0.014,0.082,0.019,0.123
				l-0.146,0.028c0.027-0.193-0.145-0.264-0.215-0.43c0.148-0.052,0.051-0.115,0.15-0.14c0.162,0.173,0.48,0.091,0.705,0.083
				c-0.025,0.011-0.045,0.038-0.061,0.046c0.02,0.19,0.197,0.083,0.246,0.127L30.327,8.24c0,0.021,0.023,0.076,0.073,0.074
				c0.052-0.113-0.119-0.275-0.068-0.388c0.1,0.085,0.17,0.294,0.268,0.291c0.1,0.063,0.37,0.22,0.398,0.027
				c-0.027-0.041-0.019-0.091-0.001-0.14c0,0.011-0.001,0.02,0.003,0.03l0.174,0.027c0.096,0.217-0.2,0.05-0.105,0.272l0.145,0.153
				c-0.049,0.05-0.049,0.181-0.003,0.288c0.101-0.049,0.075-0.104,0.128-0.22c0.107,0.085,0.118,0.214,0.119,0.231l-0.072-0.097
				c-0.223-0.024-0.004,0.291-0.155,0.388c-0.024,0.011-0.024-0.012-0.05-0.045c0.045,0.245-0.251,0.146-0.156,0.435l-0.049-0.11
				c0.006,0.121,0.018,0.404,0.029,0.676l0.057,0.061c0.049,0.02-0.002,0.066-0.051,0.069l0,0c0.002,0.137,0.006,0.267,0.007,0.362
				c0.052,0.02,0.103,0.03,0.136,0.014c-0.048-0.088,0.127-0.151-0.045-0.291c0.148,0.038,0.103-0.184,0.201-0.165
				c-0.173-0.024-0.094-0.198-0.167-0.297c0.122,0.074,0.102-0.115,0.224,0.028c0.049,0.019-0.123-0.053-0.076,0.057
				c0.046,0.201,0.248-0.032,0.27,0.179c0.029-0.214,0.229-0.335,0.234-0.579l-0.124,0.017c0.075-0.039,0.179-0.198,0.251-0.146
				c-0.025,0.058-0.075,0.104-0.104,0.184c0.146,0.151,0.127-0.129,0.227-0.044L31.95,9.185l-0.077,0.058
				c-0.047-0.132,0.203-0.164,0.328-0.247c0.145,0.261-0.152,0.162-0.181,0.354c-0.003,0.156,0.245,0.146,0.22,0.271
				c0.066,0.027,0.109-0.027,0.084-0.104l0.065,0.008c0.118,0.253-0.074,0.362-0.017,0.621c-0.011-0.027-0.024-0.059-0.043-0.08
				c-0.148,0.006-0.225,0.088-0.252,0.212c0.099,0.019,0.076-0.039,0.076-0.083c0.049,0.044-0.004,0.135,0.021,0.212
				c0.123-0.017,0.122,0.096,0.196,0.082c-0.001,0.091-0.051,0.116-0.126,0.151c-0.1-0.041-0.073-0.121-0.171-0.206
				c-0.001,0.112-0.247-0.079-0.226,0.11c0.15-0.074,0.17,0.228,0.193,0.329l0.023-0.014c0.072,0.143,0.047,0.179-0.076,0.104
				c0.003-0.091,0.076-0.104-0.045-0.201c-0.025,0.036-0.051,0.072-0.053,0.138l-0.048-0.109l-0.128,0.173
				c0.072,0.121,0.169,0.297,0.29,0.459c-0.122-0.05-0.101,0.071-0.103,0.14l-0.022-0.055c-0.148-0.017-0.228,0.2-0.155,0.296
				c-0.123-0.027-0.207-0.876-0.463-0.464c-0.128,0.13,0.192,0.352,0.213,0.52c0,0-0.023-0.03-0.049-0.042
				c-0.074,0.036,0.022,0.144,0.021,0.234c0.074,0.008,0.125-0.039,0.1-0.094c0.098,0.129-0.126,0.107-0.078,0.239
				c-0.121-0.231-0.174,0.041-0.223-0.094c-0.223,0-0.203,0.256-0.131,0.442c-0.296-0.143-0.104,0.162-0.327,0.184
				c0.024-0.014,0.026-0.079,0.077-0.082c-0.07-0.209-0.201,0.053-0.222-0.182c-0.001,0.045,0.073,0.074,0.074,0.03
				c0.026-0.058,0.003-0.156-0.071-0.211l-0.223-0.024l0.002-0.066l-0.323-0.021c0.023,0.032,0.073,0.052,0.098,0.063
				c-0.25,0.102-0.356,0.396-0.532,0.527c0.365,0.423-0.208,0.547-0.09,0.912c-0.08-0.146-0.262-0.362-0.364-0.426
				c0.011-0.044-0.092-0.258,0.005-0.288c0.074,0.052,0.222,0.046,0.245,0.17c0.128-0.22-0.196-0.151-0.292-0.349
				c-0.154,0.23-0.036,0.574-0.064,0.788l-0.05-0.044l-0.003,0.182c0.1-0.05,0.32,0.176,0.146,0.195l0.001-0.022
				c-0.149-0.038-0.153,0.187-0.254,0.258l0.072,0.187c-0.102,0.072-0.346-0.164-0.518-0.282c-0.152,0.118-0.032,0.393-0.012,0.606
				c-0.148-0.063-0.375,0.116-0.395-0.117c-0.029,0.214,0.557,0.75,0.037,0.647l-0.048-0.156c-0.177,0.223-0.261,0.706-0.458,0.692
				c-0.291-0.438-0.62-0.121-1.012-0.442c0.091,0.074,0.043,0.176,0.076,0.23c-0.059-0.027-0.127-0.041-0.082,0.063
				c0.148-0.008,0.314,0.423,0.32,0.132c0.17,0.318,0.263,0.606,0.086,0.758l-0.146-0.151l0.176-0.084
				c-0.123-0.097-0.047-0.154-0.07-0.234c-0.326,0.16-0.316-0.379-0.545-0.109c0.072,0.118,0.049,0.063,0.022,0.167
				c0.024-0.035-0.073-0.143-0.124-0.096l0.073,0.165c-0.335-0.162-0.019-0.305-0.267-0.406c-0.021-0.212,0.082-0.44-0.137-0.6
				c-0.227,0.088,0.214,0.497-0.036,0.574l-0.098-0.063c-0.003,0.112,0.118,0.252,0.166,0.362c-0.05-0.044-0.099-0.063-0.147-0.039
				c0.093,0.289,0.065,0.391,0.185,0.687c0.083-0.393,0.349-0.057,0.456-0.441c0.023,0.099-0.105,0.318,0.09,0.532l-0.147-0.151
				c-0.001,0.157-0.005,0.313-0.155,0.366l-0.021-0.146c-0.031,0.238-0.448-0.003-0.305,0.349c0.051-0.022,0.074-0.058,0.074-0.104
				c0,0.135-0.103,0.206-0.201,0.256l0.091,0.4c-0.071-0.074-0.175,0.02-0.245-0.148c-0.225,0-0.055,0.272-0.082,0.374
				c-0.271-0.044,0.027-0.168-0.166-0.385c-0.225,0.088-0.33,0.315-0.284,0.538c0.062-0.002,0.103,0.009,0.138,0.047
				c-0.051-0.044-0.102,0.033-0.139,0.066l0.072,0.121c-0.125-0.009-0.173-0.072-0.196-0.195c-0.074,0.038,0.044,0.291-0.153,0.209
				c-0.021-0.212,0.204-0.234,0.18-0.354c-0.104,0.294-0.496-0.094-0.626,0.282c-0.049-0.044-0.096-0.176-0.147-0.129
				c-0.077,0.148,0.17,0.229,0.242,0.371c0.028-0.146,0.126-0.129,0.3-0.058l0.055,0.102c-0.044-0.036-0.102,0.017-0.157-0.009
				l0.146,0.176c-0.17-0.184-0.393-0.23-0.395-0.096c0.198,0.058,0.172,0.071,0.392,0.253c0.095,0.288-0.297-0.077-0.202,0.233
				c-0.05-0.066,0.002-0.203-0.123-0.165c-0.076,0.061,0.071,0.189,0.07,0.277c-0.096-0.197-0.219-0.294-0.338-0.524
				c0.102-0.138,0.051-0.047,0.103-0.229l-0.224-0.024c0.079-0.126-0.095-0.241-0.143-0.308c-0.323,0.025,0.093,0.354-0.058,0.429
				c0.048,0.153,0.126-0.085,0.148,0.106c-0.126,0.083,0.072,0.119,0.018,0.3l-0.048-0.085c-0.122-0.053-0.051,0.091-0.077,0.146
				c-0.001,0.091,0.563,0.462,0.386,0.659c-0.031-0.049-0.055-0.08-0.073-0.096l-1.053-1.42c-0.188,0.191-0.441,0.376-0.746,0.514
				c-0.294-0.189-0.042-0.357-0.164-0.451l0.149-0.052c0.098,0.106-0.178,0.241,0.094,0.332c0.103-0.25,0.302-0.214,0.259-0.593
				c-0.295-0.189-0.18,0.264-0.477,0.187c0.062-0.03,0.074-0.097,0.077-0.168c-0.133,0.071-0.275,0.146-0.431,0.229l0.031,0.085
				c0.106-0.053,0.182-0.085,0.198-0.085c-0.126,0.085-0.08,0.308,0.091,0.491l0.025-0.011l0.018,0.091L22.289,18.766z
				 M15.464,25.506c-0.01-0.024-0.025-0.049-0.047-0.076C15.439,25.459,15.461,25.471,15.464,25.506z M23.743,16.12
				c-0.165,0.116-0.354,0.206-0.51,0.319c0.592,0.109,1.027,0.203,0.617,0.602l-0.001,0.052c0.096-0.011,0.192-0.097,0.253-0.206
				c-0.055-0.195-0.287-0.876-0.331-0.912c-0.122-0.074-0.051,0.068-0.125,0.082L23.743,16.12z M24.43,16.609
				c0.118-0.041,0.022-0.099-0.036-0.182l-0.056,0.11C24.367,16.543,24.396,16.563,24.43,16.609z M24.32,16.362
				c-0.011,0.005-0.021,0.011-0.034,0.005L24.32,16.362z M22.692,17.813l0.004-0.014l-0.073,0.041
				C22.643,17.843,22.665,17.837,22.692,17.813z M23.025,17.823l-0.11-0.148l-0.067,0.039C22.912,17.766,22.968,17.81,23.025,17.823
				z M23.961,17.728c-0.121-0.187-0.02-0.303-0.189-0.486c-0.039-0.052-0.079-0.047-0.12-0.036c-0.032,0.022-0.067,0.05-0.106,0.077
				c0.025,0.027,0.042,0.058,0.054,0.091c0.055-0.008,0.121,0.014,0.216,0.135c-0.319-0.154,0.096,0.244-0.054,0.271
				C23.858,17.934,23.985,17.805,23.961,17.728z M30.354,10.412c0.018,0.012,0.066,0.042,0.127,0.08l0.025,0.151
				c-0.151,0.074-0.494-0.091-0.377,0.228c-0.103-0.008-0.244-0.099-0.363-0.17c0.029-0.017,0.061-0.027,0.094-0.03
				C29.82,10.066,30.345,10.86,30.354,10.412z M28.752,11.388c0.001-0.022-0.023-0.055-0.023-0.055
				c0.075,0.574-0.037,0.876-0.184,0.997c0.154,0.104,0.375,0.082,0.485,0.076l0.097,0.201l-0.147-0.085l0.046,0.222
				c0.123,0.074,0.174-0.019,0.298,0.012c-0.024-0.033-0.043-0.357-0.091-0.492l-0.224,0.022c0.073,0.008,0.202-0.187,0.229-0.291
				c-0.073-0.074-0.297-0.077-0.151,0.096c-0.122-0.096,0.004-0.226-0.194-0.261c-0.02-0.212,0.229-0.267,0.354-0.283l0.196,0.173
				c0.148-0.008-0.169-0.274,0.028-0.261c-0.076,0.148,0.222,0.182,0.145,0.286c0.1,0.041,0.195,0.194,0.272,0.091
				c-0.169-0.319,0.247,0.057,0.103-0.229c0.124,0.027,0.096,0.197,0.221,0.138c-0.02-0.236-0.117-0.321-0.287-0.506
				c-0.15,0.05,0.117,0.344-0.008,0.382l-0.141-0.467c-0.073-0.011-0.1,0.006-0.106,0.035c0.015-0.049-0.001-0.123-0.04-0.208
				c-0.02-0.05-0.037-0.091-0.052-0.127c-0.095,0.091-0.18,0.168-0.271,0.107l-0.072-0.099c-0.111-0.047-0.104,0.068-0.064,0.156
				c-0.074,0.091-0.037,0.294-0.167,0.201l-0.046-0.11C28.879,11.236,28.879,11.259,28.752,11.388z M25.228,14.521
				c0.376,0.253,0.723,0.465,0.954,0.121l-0.001,0.044c0.343,0.055,0.021-0.544,0.416-0.5c0.033,0.206,0.028,0.189,0.205,0.555
				l0.003-0.181c0.145,0.197,0.148,0.016,0.224-0.041l0.144,0.264c-0.099-0.02-0.224,0.063-0.174,0.106
				c0-0.044-0.396-0.118-0.424,0.027c0.146,0.13,0.275-0.109,0.418,0.198c-0.021-0.168,0.125-0.039,0.152-0.162
				c0.022,0.165,0.17,0.206,0.217,0.359l0.078-0.17c0.049,0.041-0.079,0.283,0.193,0.349c-0.023-0.12,0.201-0.165,0.055-0.315
				l0.049,0.044c0.125-0.061-0.17-0.253,0.031-0.283c-0.074-0.074-0.147-0.104-0.174-0.05c-0.002,0.069,0.095,0.176,0.044,0.27
				c-0.147-0.085,0.103-0.071-0.146-0.22c-0.122-0.071-0.104,0.274-0.271,0l0.125-0.061c-0.147-0.151-0.072-0.212-0.192-0.329
				c0.001-0.11,0.222,0.002,0.152-0.185c-0.073-0.12-0.294-0.258-0.12-0.274c0.296,0.143,0.476-0.121,0.526-0.236l-0.022-0.168
				c-0.097-0.085-0.125,0.151-0.199-0.014l0.079-0.148l0.048,0.066c0.051-0.024,0.027-0.127,0.029-0.192
				c0.072,0.143-0.053,0.182,0.117,0.319c0.084-0.022,0.15,0.027,0.17-0.053c0,0.021,0.006,0.047,0.029,0.068
				c0.175-0.041-0.069-0.277-0.093-0.357c-0.093-0.307-0.297-0.076-0.442-0.249l0.23-0.401c0.023,0.077,0.047,0.154,0.121,0.206
				c0.148-0.006,0.122,0.121,0.225,0.003c-0.221-0.203,0.004-0.27-0.042-0.47c0.124,0.052,0.147,0.063,0.071,0.143
				c0.146,0.129,0.199-0.03,0.25-0.055c-0.012-0.056,0.004-0.112-0.002-0.168c-0.102-0.035-0.174-0.134-0.164-0.264l-0.025-0.032
				c-0.148,0.074-0.473,0.099-0.402,0.31l-0.049-0.088c-0.247,0.009-0.033,0.527-0.354,0.327c-0.098-0.107-0.049,0.003-0.195-0.148
				l0.02,0.212l-0.046-0.088l-0.13,0.197l-0.023-0.032c0.061,0.208,0.109,0.379,0.148,0.519c0.064,0.065,0.092,0.079,0.113,0.153
				c0.006,0.059-0.008,0.083-0.035,0.091v0.003v-0.003c-0.059,0.022-0.178-0.044-0.266-0.035l0.136-0.165
				c-0.099-0.123-0.226-0.225-0.376-0.229c0.025-0.032-0.047-0.131-0.098-0.106c0.024,0.033-0.029,0.167,0.096,0.22
				c-0.103,0.184-0.625,0.126-0.631,0.552c0.029-0.28-0.273-0.021-0.146-0.241c-0.297-0.055,0.07,0.28-0.08,0.373
				c-0.074-0.052,0.074-0.058-0.022-0.211c-0.274,0.135-0.061,0.631-0.312,0.777l-0.147-0.129
				C25.273,14.398,25.25,14.459,25.228,14.521z M25.006,15.085l-0.068,0.165l0.015-0.009l-0.004,0.226
				c0.124-0.017,0.321,0.088,0.292,0.258c-0.048-0.065-0.147-0.107-0.146-0.176c-0.148-0.016-0.374,0.05-0.127,0.22
				c-0.069-0.323,0.293,0.233,0.249-0.011c0.081,0.189-0.033,0.182-0.023,0.291c-0.061-0.164-0.268-0.241-0.401-0.217
				c-0.001,0.066-0.126,0.129-0.129,0.239c0.147,0.106,0.17,0.23,0.295,0.17c0,0.065-0.027,0.146-0.151,0.14
				c0.001-0.046,0.026-0.102-0.022-0.145c-0.155-0.08-0.195-0.028-0.269-0.056l-0.039,0.08c0.017,0.005,0.036,0.017,0.058,0.03
				l0.046,0.178c0.027-0.147,0.099,0.018,0.172,0.094c-0.146-0.15-0.076,0.036-0.101,0.071l0.223,0.091
				c0.047,0.109-0.225-0.003-0.052,0.138c0.2-0.074,0.225-0.154,0.303-0.327l-0.173-0.071c0.056-0.226,0.297,0.124,0.448-0.041
				c-0.045-0.176,0.229-0.245,0.01-0.47c0.047,0.088,0.297,0.099,0.25-0.055c-0.146-0.264,0.008-0.473-0.141-0.512
				c-0.051,0.047-0.004,0.226-0.176,0.132l0.053-0.137l-0.175-0.05C25.297,15.34,25.184,15.233,25.006,15.085z M21.636,15.953
				h-0.005l0.004-0.003L21.636,15.953z"/>
			<path fill="#FFFFFF" d="M31.291,8.548c-0.024-0.077,0.053-0.135-0.071-0.231C31.342,8.436,31.118,8.454,31.291,8.548z"/>
			<path fill="#FFFFFF" d="M31.488,8.586c-0.023-0.033-0.074-0.077-0.047-0.109l-0.053,0.112L31.488,8.586z"/>
			<path fill="#FFFFFF" d="M32.395,9.322c-0.047-0.132-0.07-0.209,0.005-0.27c0.317,0.27-0.028,0.192,0.214,0.497
				c0.151-0.096-0.066-0.39,0.01-0.517C32.45,8.963,32.174,9.097,32.395,9.322z"/>
			<polygon fill="#FFFFFF" points="32.71,9.748 32.711,9.613 32.688,9.603 32.686,9.736 			"/>
			<path fill="#FFFFFF" d="M28.678,8.688c-0.098-0.085-0.05,0.047-0.051,0.094C28.651,8.768,28.702,8.765,28.678,8.688z"/>
			<path fill="#FFFFFF" d="M15.108,22.067l-0.434,0.609C14.802,22.504,14.929,22.353,15.108,22.067z"/>
			<path fill="#FFFFFF" d="M27.542,11.022c0.054-0.228-0.043-0.448,0.06-0.632c-0.371,0.006,0.041,0.538-0.306,0.506L27.542,11.022z
				"/>
			<path fill="#FFFFFF" d="M26.86,10.242c0.195,0.148,0.094,0.311,0.241,0.415c0.052-0.135-0.121-0.209-0.02-0.277L26.86,10.242z"/>
			<polygon fill="#FFFFFF" points="30.348,12.456 30.395,12.588 30.396,12.522 			"/>
			<polygon fill="#FFFFFF" points="26.373,11.033 26.35,10.981 26.225,10.995 			"/>
			<path fill="#FFFFFF" d="M26.324,10.926l0.025,0.056L26.324,10.926z"/>
			<polygon fill="#FFFFFF" points="30.664,12.882 30.762,12.854 30.716,12.744 			"/>
			<path fill="#FFFFFF" d="M29.179,12.514l0.001-0.112C29.179,12.424,29.031,12.432,29.179,12.514z"/>
			<polygon fill="#FFFFFF" points="25.87,11.391 25.867,11.527 25.891,11.536 25.894,11.401 			"/>
			<path fill="#FFFFFF" d="M29.211,13.434c0.172,0.094-0.078,0.148,0.12,0.185C29.383,13.527,29.285,13.486,29.211,13.434z"/>
			<path fill="#FFFFFF" d="M27.48,13.365c-0.009,0.008-0.014,0.025-0.009,0.047C27.477,13.396,27.48,13.379,27.48,13.365z"/>
			<path fill="#FFFFFF" d="M27.48,13.365c0.029-0.03,0.111-0.011,0.093-0.068C27.477,13.274,27.485,13.311,27.48,13.365z"/>
			<path fill="#FFFFFF" d="M27.168,13.739l0.036-0.017c0.038,0.094,0.041,0.068,0.014-0.008c0.024-0.033-0.02-0.074-0.044-0.105
				l-0.035-0.068l0.025,0.071C27.119,13.654,27.097,13.689,27.168,13.739z"/>
			<path fill="#FFFFFF" d="M23.656,12.783c0.15-0.053,0.201-0.055,0.298,0.055c0.127-0.063-0.064-0.225-0.048-0.324
				C23.818,12.643,23.749,12.615,23.656,12.783z"/>
			<path fill="#FFFFFF" d="M23.906,12.514c0.008-0.014,0.017-0.027,0.029-0.047C23.917,12.48,23.909,12.497,23.906,12.514z"/>
			<polygon fill="#FFFFFF" points="28.695,14.464 28.79,14.684 28.791,14.637 			"/>
			<path fill="#FFFFFF" d="M23.456,12.879c0.024-0.011,0.051-0.047,0.1-0.024C23.458,12.744,23.431,12.893,23.456,12.879z"/>
			<path fill="#FFFFFF" d="M25.861,14.511c0.074,0.052,0.1-0.05,0.15-0.052C25.961,14.483,25.74,14.324,25.861,14.511z"/>
			<path fill="#FFFFFF" d="M23.592,13.594c0.025-0.014,0.124,0.027,0.196,0.126C23.765,13.641,23.619,13.423,23.592,13.594z"/>
			<polygon fill="#FFFFFF" points="25.658,14.676 25.709,14.695 25.711,14.561 			"/>
			<path fill="#FFFFFF" d="M27.424,15.95c-0.045-0.2-0.419-0.173-0.389-0.412c-0.301,0.044,0.187,0.162,0.039,0.27
				C27.189,15.774,27.383,15.893,27.424,15.95z"/>
			<path fill="#FFFFFF" d="M27.074,15.808c-0.018,0.003-0.032,0.011-0.045,0.024C27.049,15.824,27.064,15.815,27.074,15.808z"/>
			<path fill="#FFFFFF" d="M25.209,16.117c-0.002-0.024-0.008-0.046-0.016-0.068C25.195,16.068,25.199,16.09,25.209,16.117z"/>
			<path fill="#FFFFFF" d="M26.771,16.313l-0.068-0.299c0.045,0.197-0.157,0.387,0.039,0.557c0.101-0.024,0.127-0.15,0.078-0.26
				L26.771,16.313z"/>
			<path fill="#FFFFFF" d="M22.111,14.313l-0.022-0.12l-0.083,0.041C22.051,14.242,22.153,14.409,22.111,14.313z"/>
			<path fill="#FFFFFF" d="M21.989,14.242l0.017-0.009C21.999,14.23,21.992,14.233,21.989,14.242z"/>
			<path fill="#FFFFFF" d="M25.34,15.811c0.05-0.025,0.074-0.061,0.076-0.127C25.367,15.662,25.241,15.725,25.34,15.811z"/>
			<polygon fill="#FFFFFF" points="22.026,14.934 22.077,14.818 22,14.923 			"/>
			<polygon fill="#FFFFFF" points="21.329,15.008 21.279,14.986 21.276,15.121 21.326,15.143 			"/>
			<path fill="#FFFFFF" d="M25.445,18.114c0.076-0.035-0.045-0.244-0.094-0.264l-0.102,0.116c0.172,0.115,0.024-0.036,0.125-0.061
				L25.445,18.114z"/>
			<path fill="#FFFFFF" d="M18.736,18.14c-0.073-0.121,0.102-0.185,0.2-0.099c0.023,0.057-0.002,0.158,0.096,0.176l-0.143-0.33
				c0.271,0.021,0.215,0.406,0.237,0.552c0.158-0.096,0.04-0.291,0.177-0.426c-0.062,0.02-0.146-0.014-0.218-0.044
				c-0.17-0.162,0.029-0.214,0.107-0.318c-0.13-0.014-0.158-0.109-0.181-0.217c0.001-0.012-0.003-0.027-0.011-0.041l-0.008-0.039
				l-0.011,0.012c-0.018-0.02-0.042-0.039-0.081-0.061c-0.027,0.123-0.225,0.041-0.276,0.088c0.32,0.223-0.103,0.23-0.081,0.373
				L18.5,17.864l-0.026,0.028c-0.034-0.025-0.064-0.072-0.078-0.165c0.021,0.088-0.111,0.181-0.014,0.258l-0.253,0.261
				c-0.019-0.002-0.041-0.011-0.066-0.024c0.008,0.027,0.021,0.044,0.036,0.055l-1.1,1.135c0.076-0.033,0.186-0.02,0.272-0.047
				c0.095,0.267,0.126-0.061,0.271,0.135c0.025,0.102-0.051,0.138-0.126,0.129c0.074,0.099,0.198,0.126,0.294,0.236
				c0.25-0.033-0.14-0.467,0.06-0.541c0.098,0.106,0.146,0.241,0.221,0.138l-0.001,0.043c0.03-0.258,0.346,0.121,0.155-0.252
				l0.146,0.15c-0.046-0.178,0.08-0.305,0.132-0.397l0.023,0.032c0.032-0.37,0.077-0.148,0.232-0.447l0.07,0.277
				c0.15-0.006-0.021-0.211,0.054-0.247c0.024,0.032,0.147,0.126,0.121,0.209l0.011-0.542C18.885,18.111,18.809,18.194,18.736,18.14
				z"/>
			<path fill="#FFFFFF" d="M19.304,18.013c0.022-0.005,0.041-0.019,0.056-0.044C19.336,17.982,19.319,17.999,19.304,18.013z"/>
			<path fill="#FFFFFF" d="M16.921,19.49l0.077-0.079C16.965,19.428,16.937,19.449,16.921,19.49z"/>
			<path fill="#FFFFFF" d="M19.373,17.296c-0.125-0.03-0.072-0.143-0.121-0.208l-0.167,0.172c0.058,0.059,0.104,0.138,0.161,0.188
				L19.373,17.296z"/>
			<path fill="#FFFFFF" d="M18.926,17.203c0.035,0.043,0.052,0.099,0.066,0.15l0.092-0.094
				C19.041,17.217,18.991,17.189,18.926,17.203z"/>
			<polygon fill="#FFFFFF" points="22.001,20.24 21.976,20.273 21.974,20.364 			"/>
			<path fill="#FFFFFF" d="M21.276,20.46c0.124,0.05,0.126-0.085,0.126-0.129C21.327,20.414,21.329,20.345,21.276,20.46z"/>
			<polygon fill="#FFFFFF" points="22.305,21.293 22.277,21.419 22.302,21.428 			"/>
			<path fill="#FFFFFF" d="M16.925,20.658l-0.027,0.047C16.916,20.688,16.923,20.672,16.925,20.658z"/>
			<path fill="#FFFFFF" d="M17.437,19.864c-0.349,0.014-0.021-0.259-0.292-0.415l-0.027,0.171l-0.049-0.066l-0.102,0.138
				c0.124,0.074,0.148,0.061,0.246,0.17c-0.2,0.121-0.173-0.071-0.421-0.085l-0.161,0.2l-0.015-0.047
				c-0.014,0.018-0.007,0.039,0.004,0.061l-0.541,0.668c-0.027,0.192,0.247,0.123,0.317,0.357c0.126-0.13,0.426-0.209,0.232-0.424
				c0.023,0.033,0.071,0.097,0.122,0.097l-0.096-0.245L16.53,20.46c-0.095-0.241,0.183-0.444,0.331-0.382
				c-0.08,0.192,0.192,0.327-0.108,0.407c0.061,0.044,0.187,0.102,0.173,0.173C17.087,20.375,17.381,20.268,17.437,19.864z"/>
			<path fill="#FFFFFF" d="M15.305,22.193l-0.018-0.021C15.294,22.186,15.299,22.196,15.305,22.193z"/>
			<path fill="#FFFFFF" d="M15.404,22.145l-0.092-0.311l-0.152,0.184l0.128,0.154c-0.021-0.05-0.033-0.182,0.045-0.148
				L15.404,22.145z"/>
			<path fill="#FFFFFF" d="M15.316,21.586c-0.027,0.146,0.143,0.309,0.267,0.338c-0.003,0.157-0.221-0.137-0.101,0.094
				c0.123,0.118,0.15-0.052,0.151-0.096L15.316,21.586z"/>
			<polygon fill="#FFFFFF" points="16.046,21.029 16.092,21.122 16.17,21.081 			"/>
			<path fill="#FFFFFF" d="M16.092,21.122l-0.08,0.042c0.056,0.049,0.11,0.093,0.155,0.117L16.092,21.122z"/>
			<path fill="#FFFFFF" d="M15.808,21.273c-0.039,0.014-0.076,0.033-0.114,0.063L15.808,21.273z"/>
			<path fill="#FFFFFF" d="M15.919,21.248l-0.025-0.019l-0.086,0.044C15.843,21.266,15.879,21.257,15.919,21.248z"/>
			<path fill="#FFFFFF" d="M16.012,21.164c-0.125-0.105-0.26-0.218-0.313-0.097l0.195,0.162L16.012,21.164z"/>
			<polygon fill="#FFFFFF" points="21.577,21.669 21.574,21.804 21.599,21.814 21.602,21.68 			"/>
			<path fill="#FFFFFF" d="M21.075,21.96c0.002,0.036,0.012,0.071,0.022,0.104C21.102,22.034,21.097,22.001,21.075,21.96z"/>
			<path fill="#FFFFFF" d="M21.576,23.048c-0.198-0.036-0.044-0.264-0.244-0.168c-0.124-0.096-0.194-0.308-0.069-0.321
				c0.096,0.107-0.003,0.135,0.146,0.195c-0.073-0.165,0.026-0.102-0.146-0.242c-0.018-0.176-0.118-0.293-0.166-0.447
				c-0.028,0.162-0.385,0.203-0.308,0.524c0.119,0.25,0.415,0.464,0.682,0.733C21.544,23.377,21.748,23.234,21.576,23.048z"/>
			<path fill="#FFFFFF" d="M21.971,23.19c0.049-0.024,0.051-0.046,0.051-0.091C21.925,23.012,21.998,23.155,21.971,23.19z"/>
			<path fill="#FFFFFF" d="M19.09,22.025c0.03,0.045,0.01,0.16,0.091,0.212l0.054-0.151C19.204,22.105,19.149,22.067,19.09,22.025z"
				/>
			<path fill="#FFFFFF" d="M19.259,22.021l-0.024,0.065C19.249,22.078,19.257,22.059,19.259,22.021z"/>
			<path fill="#FFFFFF" d="M19.061,22.007l0.029,0.019C19.083,22.018,19.073,22.01,19.061,22.007z"/>
			<path fill="#FFFFFF" d="M15.492,21.455c-0.073-0.074-0.074,0.016-0.074,0.061C15.442,21.504,15.492,21.502,15.492,21.455z"/>
			<path fill="#FFFFFF" d="M14.063,23.465l-0.099-0.019C14.014,23.468,14.039,23.477,14.063,23.465z"/>
			<path fill="#FFFFFF" d="M15.456,26.1c0.012,0.017,0.022,0.03,0.029,0.047C15.479,26.133,15.471,26.119,15.456,26.1z"/>
			<path fill="#FFFFFF" d="M15.485,26.146c0.034,0.088-0.147,0.079-0.084,0.203l-0.024-0.033l-0.001,0.112
				C15.42,26.366,15.544,26.268,15.485,26.146z"/>
		</g>
	</g>
	<g>
		<line fill="#FFFFFF" x1="33.542" y1="40.77" x2="15.26" y2="22.487"/>
		<g>
			<path fill="#FFFFFF" d="M15.005,23.644c-0.058-0.027-0.005-0.151,0.049-0.173c-0.19,0.021-0.073-0.102-0.288,0.094
				c-0.155,0.047-0.073-0.151,0.071-0.174l-0.282-0.029l0.062,0.126c-0.196,0.146-0.099-0.2-0.327-0.03l0.185,0.151l-0.066,0.049
				c0.101-0.024,0.15,0.077,0.151,0.127c-0.032,0.024-0.076,0.071-0.11,0.046c0.191,0.218,0.354-0.241,0.58-0.129
				C15.017,23.693,15.005,23.68,15.005,23.644z"/>
			<path fill="#FFFFFF" d="M14.76,24.234l0.286-0.143l0.064,0.176c0.074-0.074,0.221-0.047,0.228-0.17c-0.023,0-0.069,0-0.08-0.028
				c0.173-0.146,0.239,0.08,0.365-0.118c-0.137-0.049-0.117-0.102-0.304-0.027c-0.073-0.102-0.099-0.203-0.08-0.302
				c-0.051,0-0.152,0.093-0.205,0.082l0.029,0.014l-0.237,0.245c0.078-0.022,0.08,0.027,0.115,0.052l-0.422,0.14
				c-0.18,0.272,0.091,0.277,0.051,0.426C14.706,24.309,14.727,24.533,14.76,24.234z"/>
			<path fill="#FFFFFF" d="M15.036,23.704l-0.004-0.003L15.036,23.704z"/>
			<path fill="#FFFFFF" d="M26.869,32.735c0.033,0.028,0.099-0.021,0.131-0.046l-0.338-0.33c-0.053,0.074-0.035,0.25-0.137,0.223
				c-0.041,0.099,0.105,0.126,0.203,0.052l-0.119,0.074c0.199-0.046,0.01,0.247-0.113,0.27l0.008,0.005l0.689-0.261
				C27.143,32.615,26.969,32.823,26.869,32.735z"/>
			<path fill="#FFFFFF" d="M33.491,39.844c-0.064-0.021-0.093-0.005-0.111,0.025C33.413,39.866,33.449,39.861,33.491,39.844z"/>
			<path fill="#FFFFFF" d="M27.354,32.662l0.216-0.083C27.502,32.593,27.425,32.623,27.354,32.662z"/>
			<polygon fill="#FFFFFF" points="24.63,34.458 24.605,34.485 24.711,34.438 24.711,34.438 			"/>
			<path fill="#FFFFFF" d="M29.429,33.617c0.011,0.006,0.017,0.009,0.032,0.014C29.452,33.623,29.441,33.62,29.429,33.617z"/>
			<path fill="#FFFFFF" d="M22.875,34.403l0.291,0.005c-0.086,0.047,0.006,0.1-0.105,0.146c0.022,0,0.103,0.028,0.122-0.021
				l-0.034-0.024c0.276-0.121,0.303-0.245,0.583-0.264c0.037-0.198-0.105-0.127-0.237-0.08c-0.029,0-0.047-0.006-0.067-0.011
				l-0.398,0.15L22.875,34.403z"/>
			<path fill="#FFFFFF" d="M30.301,38.891l-0.017,0.015L30.301,38.891z"/>
			<path fill="#FFFFFF" d="M30.215,38.963l0.069-0.058C30.244,38.93,30.184,38.93,30.215,38.963z"/>
			<path fill="#FFFFFF" d="M27.201,32.764c0.039-0.033,0.092-0.072,0.152-0.102l-0.16,0.06C27.197,32.73,27.198,32.75,27.201,32.764
				z"/>
			<path fill="#FFFFFF" d="M26.657,33.082l-0.153-0.1l-0.148,0.059C26.441,33.049,26.523,33.079,26.657,33.082z"/>
			<path fill="#FFFFFF" d="M29.346,33.305c0.291,0.23-0.295,0.17-0.231,0.343c0.099,0.047,0.235-0.038,0.314-0.03
				c-0.3-0.109,0.39-0.332,0.125-0.483c0.228-0.167,0.366-0.065,0.384,0.058c-0.113,0.272-0.211,0.071-0.418,0.242
				c0.115,0.052,0.135,0.002,0.277-0.072c0.086,0.177,0.507,0.036,0.318,0.38c0.138,0.052,0.223-0.044,0.378-0.091
				c0.217-0.195-0.032-0.25,0.095-0.447c-0.01,0.024-0.03,0.074-0.063,0.099l-0.041-0.124c0.008,0.148-0.215,0.195-0.273,0.168
				c-0.033-0.025-0.103-0.077-0.037-0.124h0.089c0.007-0.124-0.278,0.022-0.229-0.153c0.043-0.05,0.088-0.047,0.119-0.072
				c-0.21,0.072-0.27-0.005-0.471-0.008l0.264-0.146c-0.308,0.146-0.43-0.107-0.441-0.354c-0.02,0.05-0.018,0.1-0.072,0.124
				c-0.125-0.028-0.043-0.226,0.1-0.297c-0.244,0.093-0.141-0.426-0.461-0.308l-1.501,0.571c0.042-0.009,0.083-0.011,0.111,0
				c-0.138,0.22-0.093,0.22-0.335,0.315c0.167-0.021,0.283-0.194,0.399-0.09c-0.134,0.047-0.349,0.241-0.265,0.365
				c0.439,0.085,1.121-0.253,1.625-0.267c-0.127,0.146,0.102,0.3,0.164,0.426c-0.184,0.112-0.295,0.085-0.396,0.044
				c0.035,0.052,0.109,0.135,0.16,0.197L29.346,33.305z"/>
			<path fill="#FFFFFF" d="M28.275,33.161c-0.006,0.02-0.006,0.033-0.006,0.047C28.277,33.191,28.281,33.178,28.275,33.161z"/>
			<polygon fill="#FFFFFF" points="28.854,33.346 28.84,33.359 28.873,33.373 			"/>
			<path fill="#FFFFFF" d="M26.951,33.137c-0.058,0.02-0.074,0.024-0.133,0.047c0.025,0,0.047-0.003,0.07-0.003
				C26.917,33.172,26.941,33.158,26.951,33.137z"/>
			<path fill="#FFFFFF" d="M27.141,32.84l0.066-0.047c-0.003-0.016-0.004-0.019-0.006-0.029C27.17,32.793,27.145,32.82,27.141,32.84
				z"/>
			<path fill="#FFFFFF" d="M29.091,35.543l0.056-0.006C29.128,35.526,29.11,35.532,29.091,35.543z"/>
			<path fill="#FFFFFF" d="M29.401,33.829c-0.104-0.077-0.217,0.194-0.345,0.068l0.025,0.05c-0.181-0.003-0.301-0.206-0.417-0.308
				c0.095-0.069,0.033-0.165,0.175-0.28c-0.104-0.044-0.207-0.088-0.377,0.006c-0.002-0.092-0.188-0.045-0.193-0.157
				c-0.053,0.102-0.344,0.176-0.107,0.226c-0.021-0.003-0.031,0.021-0.053,0.021c-0.018,0.201,0.203,0.055,0.283,0.132
				c-0.028,0.121-0.199,0.044-0.185,0.118c0.169,0.03,0.218,0.404,0.497,0.11c0.092,0.052,0.039,0.123,0.008,0.197
				c0.42-0.189,0.291,0.552,0.68,0.162c-0.056-0.024-0.116-0.102-0.26-0.079L29.401,33.829z"/>
			<path fill="#FFFFFF" d="M27.123,33.269c0.004,0.005,0.012,0.014,0.014,0.02L27.123,33.269z"/>
			<path fill="#FFFFFF" d="M27.113,31l0.293-0.217c0.275,0.153,0.281,0.305,0.479,0.48c-0.02,0.049-0.065,0.049-0.088,0.049
				c0.161,0.102,0.305,0.354,0.52,0.333c0.039,0.044,0.068,0.235-0.049,0.269c0.043-0.002,0.088,0,0.105,0.03
				c-0.087,0.099-0.08-0.027-0.156,0.047c0.014,0.024,0.002,0.05,0.035,0.024c-0.109,0.05-0.277,0.344-0.418,0.192
				c0.156-0.271,0.125,0.077,0.328-0.192c-0.047-0.049-0.133,0.047-0.166,0.072c-0.057-0.069,0.004-0.127,0.063-0.176
				c-0.097,0.049-0.073-0.13-0.217-0.053c-0.139-0.102,0.184-0.17,0.103-0.244l-0.284,0.192l-0.086-0.177
				c-0.273-0.104-0.385,0.44-0.736,0.36c0.153-0.096,0.275-0.393,0.225-0.544c0.07,0.053,0.336,0.008,0.344,0.156
				c0.076-0.296,0.172,0.127,0.329-0.143c-0.155,0.047-0.259-0.03-0.274-0.153h0.045c-0.049-0.102-0.355,0.093-0.363-0.107
				c-0.06-0.041,0.018-0.099,0.084-0.148C27.146,31.047,27.061,31.055,27.113,31z M27.275,31.063l0.045,0.091
				C27.343,31.099,27.316,31.074,27.275,31.063z"/>
			<path fill="#FFFFFF" d="M15.75,25.163l-0.001-0.039C15.743,25.139,15.746,25.152,15.75,25.163z"/>
			<path fill="#FFFFFF" d="M21.75,31.346l-0.031-0.047C21.726,31.321,21.736,31.335,21.75,31.346z"/>
			<path fill="#FFFFFF" d="M20.069,31.244l-0.114-0.003C19.981,31.261,20.021,31.255,20.069,31.244z"/>
			<polygon fill="#FFFFFF" points="16.208,25.654 16.208,25.657 16.23,25.654 			"/>
			<path fill="#FFFFFF" d="M18.838,28.896c0.011-0.03,0.02-0.058,0.021-0.085C18.836,28.835,18.832,28.865,18.838,28.896z"/>
			<polygon fill="#FFFFFF" points="20.09,31.244 20.091,31.236 20.069,31.244 			"/>
			<path fill="#FFFFFF" d="M21.447,32.437c0.015,0,0.027,0,0.048,0C21.478,32.431,21.462,32.431,21.447,32.437z"/>
			<path fill="#FFFFFF" d="M22.067,31.703c0.015,0.002,0.032,0.002,0.048,0H22.067z"/>
			<path fill="#FFFFFF" d="M22.978,33.541l0.086,0.019C23.034,33.538,23.005,33.535,22.978,33.541z"/>
			<path fill="#FFFFFF" d="M22.052,32l0.042-0.022C22.079,31.978,22.061,31.986,22.052,32z"/>
			<polygon fill="#FFFFFF" points="16.122,24.111 16.126,24.113 16.156,24.086 			"/>
			<path fill="#FFFFFF" d="M15.644,24.33l-0.066-0.027C15.593,24.322,15.618,24.33,15.644,24.33z"/>
			<path fill="#FFFFFF" d="M18.446,27.734c0.019-0.05,0.027-0.124,0.083-0.148C18.451,27.607,18.333,27.73,18.446,27.734z"/>
			<path fill="#FFFFFF" d="M17.878,22.877c-0.041,0.022-0.075,0.039-0.111,0.05C17.822,22.913,17.869,22.902,17.878,22.877z"/>
			<path fill="#FFFFFF" d="M17.768,22.927l-0.083,0.027C17.711,22.949,17.738,22.94,17.768,22.927z"/>
			<path fill="#FFFFFF" d="M20.789,26.11c-0.013,0.02-0.021,0.038-0.018,0.052C20.801,26.127,20.803,26.113,20.789,26.11z"/>
			<path fill="#FFFFFF" d="M15.578,24.227c-0.066,0.047-0.394-0.033-0.251,0.167c-0.184,0.171-0.192-0.027-0.281-0.03
				c-0.008,0.077-0.13,0.1-0.184,0.17c0.045,0.004,0.122-0.021,0.147,0.028c-0.063,0.099-0.176,0.099-0.189,0.021
				c-0.039,0.148-0.21,0.071-0.205,0.22c0.229,0.104,0.411,0.156,0.785,0.017c-0.136-0.052-0.295-0.106-0.301-0.255l0.186-0.121
				c-0.046,0.223,0.107,0.176,0.18,0.277l-0.113-0.275c0.037-0.219,0.126-0.187,0.227-0.143
				C15.562,24.281,15.555,24.256,15.578,24.227z"/>
			<polygon fill="#FFFFFF" points="17.055,23.01 17.055,23.004 17.031,23.01 			"/>
			<path fill="#FFFFFF" d="M26.07,30.429l0.074-0.042C26.105,30.398,26.083,30.412,26.07,30.429z"/>
			<path fill="#FFFFFF" d="M16.427,23.869L16.427,23.869C16.43,23.869,16.43,23.869,16.427,23.869z"/>
			<path fill="#FFFFFF" d="M25.668,30.003l0.016-0.011L25.668,30.003z"/>
			<path fill="#FFFFFF" d="M22.251,33.197l-0.018,0.024C22.25,33.222,22.254,33.211,22.251,33.197z"/>
			<path fill="#FFFFFF" d="M25.653,30.017l0.015-0.014L25.653,30.017z"/>
			<path fill="#FFFFFF" d="M23.077,28.566c0,0-0.018,0.035-0.036,0.068C23.061,28.624,23.073,28.602,23.077,28.566z"/>
			<path fill="#FFFFFF" d="M23.247,29.189l-0.009,0.025L23.247,29.189z"/>
			<path fill="#FFFFFF" d="M17.849,28.517c0.018,0.022,0.036,0.033,0.055,0.041C17.894,28.539,17.877,28.522,17.849,28.517z"/>
			<path fill="#FFFFFF" d="M25.684,29.992c0.021-0.015,0.043-0.022,0.074-0.033C25.725,29.97,25.701,29.98,25.684,29.992z"/>
			<polygon fill="#FFFFFF" points="21.697,28.733 21.726,28.729 21.726,28.715 			"/>
			<path fill="#FFFFFF" d="M21.602,28.412l0.066-0.035c-0.139-0.012-0.206-0.215-0.385-0.069c0.029,0.022,0.063,0.247-0.054,0.321
				c0.092,0.012,0.054,0.201,0.109,0.201c0.004-0.174,0.127-0.146,0.24-0.143c0.004,0.099-0.14,0.12-0.126,0.194l0.139,0.104
				l-0.083-0.127l0.189-0.126l-0.026,0.006C21.419,28.635,21.885,28.494,21.602,28.412z"/>
			<path fill="#FFFFFF" d="M21.668,28.377c0.021,0,0.042,0,0.066-0.012C21.714,28.352,21.692,28.363,21.668,28.377z"/>
			<path fill="#FFFFFF" d="M21.201,27.393c-0.014-0.002-0.031-0.005-0.056-0.005C21.158,27.388,21.176,27.391,21.201,27.393z"/>
			<path fill="#FFFFFF" d="M26.292,32.926c0.044-0.05,0.036-0.248-0.084-0.127l0.056,0.132L26.292,32.926z"/>
			<path fill="#FFFFFF" d="M18.525,26.121c0.008,0.014,0.018,0.027,0.032,0.036l0.026-0.011
				C18.593,26.121,18.549,26.119,18.525,26.121z"/>
			<path fill="#FFFFFF" d="M21.141,28.654c0.037,0,0.064-0.012,0.089-0.025C21.208,28.627,21.18,28.629,21.141,28.654z"/>
			<path fill="#FFFFFF" d="M18.806,25.828c0.021-0.05,0.051-0.124,0.093-0.174c-0.029-0.03-0.112,0.012-0.166,0.003
				C18.785,25.674,18.813,25.726,18.806,25.828z"/>
			<path fill="#FFFFFF" d="M18.729,25.657h0.004H18.729z"/>
			<path fill="#FFFFFF" d="M26.303,33.038l0.053,0.003l-0.047,0.016l0.034,0.107c0.017,0.003,0.033,0.003,0.05,0.011
				c-0.01,0-0.026,0.009-0.041,0.02l0.01,0.038c0.181-0.068,0.412-0.019,0.527-0.052c0.106,0,0.203,0.036,0.234,0.088
				c-0.035-0.041-0.113-0.068-0.166,0.017c0.006,0.15-0.164,0.396,0.149,0.352l-0.083-0.077l0.445-0.091
				c-0.049,0.174-0.223,0.047-0.344,0.118c0.271,0.006,0.032,0.473,0.328,0.303c-0.129,0.147-0.343,0.393-0.24,0.47
				c0.093-0.223,0.156-0.047,0.27-0.27c0.11-0.047,0.051,0.151,0.16,0.053l-0.064,0.049c-0.065,0.371,0.328,0.08,0.505,0.035
				c0.24,0.127,0.236,0.303,0.411,0.43c-0.087,0.099-0.3,0.393-0.23,0.441c0.152-0.096,0.348-0.017,0.521-0.162
				c-0.041-0.176-0.223,0.044-0.324,0.017c0.113-0.22,0.16-0.17,0.188-0.343c-0.006,0.123,0.354,0.181,0.263,0.403l-0.046-0.003
				c0.009,0.201-0.366,0.615,0.046,0.55l0.18-0.017l-0.055,0.041c0.118,0.154-0.102,0.297,0.19,0.303
				c-0.021,0-0.033,0.024-0.055,0.024c-0.006,0.176,0.262,0.079,0.363,0.106c-0.094,0.171-0.141,0.121-0.262,0.193
				c0.098,0.2,0.488,0.134,0.743,0.063l0.019,0.176c-0.113-0.003-0.323,0.068-0.387,0.168c0.08,0.024,0.133-0.05,0.182,0.052
				c-0.098,0.071-0.209,0.121-0.351,0.192c0.013,0.297,0.337-0.267,0.185,0.102c0.047,0.053,0.199-0.044,0.307-0.143l-0.046,0.223
				c0.14-0.121,0.257-0.02,0.347,0.033c0.066-0.05,0.083-0.198,0.006-0.174c0.109-0.099,0.232-0.071,0.279-0.021
				c-0.258,0.294,0.359,0.279-0.022,0.547c0.308,0.129,0.645,0.408,0.903,0.439c-0.028,0.123,0.064,0.225-0.121,0.296
				c0.174,0.176,0.547-0.014,0.647,0.236c-0.021,0.05-0.082-0.077-0.167,0.022c0.224,0.002,0.092,0.324,0.343,0.428
				c-0.036-0.024-0.101,0.022-0.133,0.047c0.042-0.049,0.167-0.021,0.257-0.02c0.002,0.05-0.067-0.002-0.088,0.047
				c0.21,0.479,0.844,0.365,1.173,0.717c-0.094-0.102-0.313,0.047-0.388,0.119l0.092,0.099c0.128-0.053,0.199,0.019,0.327,0.011
				c-0.027,0.041-0.034,0.107-0.106,0.121c0.004,0.37,0.626-0.039,0.764,0.285l-0.648,0.088l-0.059,0.198l-0.291,0.044
				c-0.025,0.173,0.271,0.005,0.142,0.15c-0.055,0.025-0.079-0.024-0.155,0.05c0.017,0.124,0.125,0.024,0.205,0.052
				c-0.422,0.141-0.691-0.137-0.906-0.217c-0.045,0,0.088-0.047,0.119-0.071c-0.068-0.05-0.018-0.173-0.142-0.2
				c-0.166,0.071-0.052,0.123-0.027,0.173c-0.108,0.097-0.12,0.071-0.177,0.047c0.127-0.148-0.18-0.277-0.064-0.5
				c-0.268-0.179-0.322,0.393-0.479,0.115l0.092-0.223c-0.247-0.003-0.518-0.058-0.626-0.233l0.034,0.025
				c0.088-0.047,0.096-0.121,0.115-0.171c-0.039-0.176-0.328-0.082-0.234-0.305c-0.291,0.047-0.619-0.036-0.846-0.088
				c0.17-0.247,0.359,0.005,0.547-0.066l-0.129-0.126c0.083,0.077,0.193,0.027,0.357-0.044c-0.072-0.148-0.291-0.006-0.45-0.058
				c0.064-0.05,0.085-0.096,0.038-0.148l-0.152,0.123c0.012-0.011,0.017-0.027,0.01-0.052l-0.273-0.104
				c-0.02,0.1-0.137,0.223-0.09,0.272c0.064-0.097,0.12-0.071,0.167-0.022c-0.132,0.047-0.028,0.124-0.103,0.198
				c-0.096-0.102-0.234-0.204-0.336-0.231l0.105-0.145c-0.061-0.127-0.23-0.154-0.256-0.256l0.088-0.047
				c-0.073-0.151-0.266-0.179-0.24-0.401c-0.246,0.044-0.492,0.039-0.726,0.11c-0.208,0.121-0.087-0.5-0.431-0.382
				c0.01-0.024,0.201-0.044,0.301-0.069c-0.049-0.099-0.313,0.045-0.162-0.15c0.109,0.225,0.127-0.148,0.252-0.121
				c-0.081-0.074-0.196-0.126-0.295-0.104c0.127,0.126-0.285,0.192-0.08,0.247c-0.246,0.044-0.439-0.033-0.502-0.209
				c0.075-0.07,0.096-0.12,0.082-0.197l-0.145,0.071c-0.035-0.074,0.236-0.019,0.162-0.17c-0.299,0.071-0.243-0.45-0.635-0.159
				c0.047-0.223,0.304,0.03,0.337-0.267c0.2-0.047,0.166,0.2,0.361,0.055c-0.124-0.027,0.116-0.173,0.069-0.223l-0.189,0.022
				l0.013,0.024c-0.302,0.02-0.449-0.282-0.656-0.434c-0.325,0.017-0.679,0.159-0.843-0.042c0.154-0.046-0.056-0.25,0.244-0.318
				c0.004-0.173-0.186-0.15-0.262-0.079c0.05,0.099,0.004,0.049,0.029,0.147c-0.133,0.05-0.227-0.052-0.207-0.15
				c0.011,0.024,0.021,0,0.053-0.025c-0.027-0.147-0.131,0.047-0.232,0.022c0.105-0.148-0.109-0.179-0.104-0.302l-0.266,0.096
				c0.166-0.071-0.038-0.126,0.057-0.247c-0.145,0.022-0.342,0.118-0.404-0.009c0.103-0.024,0.006-0.173,0.125-0.296
				c-0.046-0.274-0.593,0.063-0.572-0.259c0.033-0.024,0.143-0.071,0.129-0.148c-0.069,0-0.115-0.074-0.166-0.099l0.004-0.003
				l-0.004,0.003c-0.025-0.014-0.052-0.008-0.081,0.02c-0.182,0.055-0.335,0.14-0.561,0.115c-0.128,0.148,0.032,0.2,0.121,0.2
				l0.176-0.096c-0.169,0.247,0.149,0.077,0.108,0.176c-0.319,0.168-0.475-0.107-0.755-0.088c-0.113,0.271,0.03,0.473,0.203,0.602
				l0.017-0.151l0.083,0.077l0.07-0.223c0.048,0.099,0.151,0.127,0.209,0.203c-0.081-0.076,0.078-0.297,0.092-0.223
				c-0.047,0.223,0.18,0.003,0.239,0.08c-0.024-0.05-0.071-0.102,0.04-0.148c-0.033,0.297,0.11,0.226,0.054,0.521
				c0.214-0.244,0.174,0.13,0.38-0.041l-0.037-0.076l0.257-0.02c-0.077,0.297-0.287,0.094-0.253,0.393
				c0.131,0.176,0.367-0.068,0.506,0.036c-0.176,0.096-0.388,0.115-0.48,0.014l-0.008,0.126c-0.109,0.047-0.228-0.104-0.287-0.182
				c0.267-0.043-0.004-0.099,0.067-0.271c-0.142,0.123-0.049,0.173-0.239,0.195c0.081,0.076,0.104,0.076,0.155,0.225
				c-0.158-0.274-0.652,0.262-0.73-0.038c0.147,0.027,0.159-0.22,0.213-0.294c-0.058-0.024-0.172-0.077-0.239-0.08l-0.159,0.223
				c-0.192-0.027,0.172-0.47-0.152-0.4c-0.129,0.096,0.074,0.15,0.029,0.15c-0.292-0.058-0.051-0.426-0.062-0.723
				c-0.066,0.047-0.184,0.171-0.339,0.218c0.132-0.099,0.149-0.195,0.294-0.22c-0.004-0.1-0.148-0.077-0.239-0.077
				c0.042,0.173-0.207,0.118-0.295,0.167c-0.037-0.073,0.13-0.096,0.198-0.096c-0.015-0.074,0.1-0.297-0.096-0.15
				c0.118-0.121,0.442-0.189,0.556-0.138l-0.037-0.077c0.1-0.021,0.089,0.003,0.126,0.077c0.038-0.148,0.147-0.245,0.244-0.319
				c-0.009,0.025-0.031,0.025-0.042,0.05c0.015,0.074,0.081,0.077,0.135,0.003c0.202-0.121,0.04-0.162,0.089-0.274l-0.101-0.036
				l-0.751,0.286c-0.16-0.039-0.08-0.209-0.076-0.36l-0.159,0.118c-0.073-0.102-0.11-0.228,0.121-0.346
				c-0.044,0.05-0.021,0.05-0.009,0.074c0.022-0.017,0.04-0.024,0.056-0.03l0.027-0.02c-0.136-0.049-0.224-0.077-0.233-0.077
				c0.357-0.044,0.258-0.244,0.53-0.464l-0.239-0.077c0.02,0.173-0.118,0.121-0.185,0.121c0.129-0.148-0.129-0.126-0.165-0.203
				l0.032-0.024c-0.003-0.1-0.107-0.176-0.209-0.203c-0.044,0.049-0.352,0.194-0.527,0.291c0.059,0.162-0.062,0.15-0.139,0.244
				c-0.004-0.02-0.023-0.041-0.042-0.025c-0.055,0.022-0.032,0.074-0.074,0.121c0.183,0.055,0.321,0.156,0.562,0.012
				c0.051-0.124-0.146,0.021-0.126-0.077c0.187-0.071,0.236,0.03,0.33,0.132l-0.083,0.146l0.161,0.036
				c-0.103,0.021-0.199,0.167-0.326,0.088c-0.095,0.12,0.128,0.076,0.154,0.176l0.186-0.121c-0.098,0.071,0.021,0.225-0.192,0.244
				l-0.281-0.03l-0.061,0.148l-0.162-0.102l0.111-0.05c-0.319-0.104,0.243-0.367-0.151-0.398c-0.252,0.119-0.345,0.066-0.43-0.109
				c0.136,0.055,0.14-0.121,0.283-0.192c-0.018-0.173-0.203-0.055-0.327-0.03c0.074-0.123,0.137-0.223,0.209-0.121
				c0.215-0.194-0.15-0.076,0.055-0.297c-0.291-0.279-0.912,0.457-0.98-0.143l0.098-0.074c-0.319-0.104-0.338-0.329-0.602-0.455
				l0.063-0.374c0.067,0.003,0.323-0.069,0.385-0.217c-0.146,0.296,0.011,0.299-0.026,0.497c0.066-0.05,0.074-0.124,0.095-0.173
				c0.047,0.052-0.027,0.176,0.076,0.2c0.042-0.047,0.026-0.173,0.105-0.146l-0.046,0.223c0.181,0.052,0.38-0.267,0.457-0.066
				c-0.147,0.094-0.374,0.218-0.456,0.192c0.037,0.088-0.157-0.011-0.172,0.118c0.269-0.088,0.172,0.099,0.405,0.107
				c-0.04,0.011-0.079,0.041-0.12,0.021l0.1,0.253c0.061-0.148,0.26,0.027,0.398-0.143c-0.122-0.25-0.162-0.102-0.286-0.404
				c0.095,0.025,0.331-0.055,0.512-0.164c-0.004,0.008-0.005,0.016-0.002,0.027c0.187-0.124,0.195-0.198,0.464-0.465
				c-0.288,0.094-0.196-0.129-0.42-0.135c-0.169,0.127-0.121,0.256-0.026,0.275L21.868,31.7l0.088-0.05l-0.206-0.305
				c0.057,0.041,0.158-0.027,0.248-0.066c-0.028-0.038-0.021-0.112-0.014-0.189c-0.132,0.148-0.236,0.242-0.265,0.209
				c-0.132-0.197-0.098-0.417,0.002-0.637l-0.03-0.009c-0.115,0.171-0.375,0.141-0.572,0.236c0.151-0.146,0.004-0.173,0.033-0.296
				c-0.196,0.145-0.398,0.414-0.479,0.612c0.267-0.047,0.22-0.097,0.493-0.267l0.327,0.033l-0.177,0.096
				c0.03,0.148,0.295,0.055,0.111,0.226c-0.165,0.071-0.172-0.08-0.337-0.006l-0.005,0.124c-0.279,0.068,0.114-0.223-0.133-0.229
				c-0.104,0.198-0.022,0-0.177,0.047c-0.062,0.148,0.265,0.179-0.029,0.398c-0.177,0.047,0.08-0.521-0.263-0.352l0.033-0.025
				c-0.093-0.162-0.286-0.061-0.424-0.016c0.027-0.138-0.164-0.097-0.232-0.146l0.076-0.074l-0.114-0.052
				c0.176-0.096,0.093,0.102,0.185,0.154l0.129-0.148c-0.083,0.247,0.222,0.052,0.405-0.003c-0.211,0.027-0.228-0.297-0.521-0.047
				l0.083-0.197l-0.078,0.021c0.062-0.148,0.271-0.267,0.384-0.217c-0.021,0.049-0.03,0.074-0.063,0.099
				c0.1-0.021,0.243-0.093,0.305,0.03l-0.124,0.025c0.106,0.126,0.265,0.178,0.441,0.082c-0.11-0.226-0.262-0.404-0.427-0.555
				c-0.358,0.266-0.589,0.387-0.903,0.653c-0.16-0.052-0.342-0.156-0.329-0.354l0.066-0.049c-0.015-0.074-0.073-0.1-0.14-0.102
				c0.03-0.124,0.187-0.121,0.195-0.195l-0.249-0.055c0.14-0.121,0.269,0.005,0.338,0.058c-0.022,0-0.067-0.003-0.077,0.021
				c0.017,0.126,0.371,0.033,0.211,0.253c0.067,0.003-0.21,0.071-0.103,0.197c0.006,0.148,0.202,0.003,0.267-0.043
				c0.076-0.074-0.019-0.226,0.113-0.272c-0.07-0.052-0.189,0.02-0.195-0.129c0.069,0.052,0.301-0.02,0.217,0.129
				c0.258-0.02,0.59-0.388,0.553-0.462c-0.096,0.124-0.35-0.082-0.338,0.218c-0.211,0.071-0.339-0.056-0.519-0.061l0.033-0.022
				l-0.15-0.079c0.055-0.022,0.124-0.022,0.198-0.094l-0.357,0.041c0.224-0.046,0.04-0.148,0.058-0.247
				c-0.13,0.096-0.275,0.118-0.282,0.244c-0.016,0.148,0.101-0.024,0.169,0.027l-0.265,0.094l0.011-0.024l-0.199,0.096
				c-0.105-0.126,0.393-0.291,0.1-0.296l-0.181,0.219c-0.143-0.2-0.139-0.647-0.353-0.675c0.148-0.083,0.346-0.25,0.409-0.404
				c0.018,0.085,0.131,0.185,0.224,0.242c-0.021,0.049-0.331,0.143-0.37,0.017c-0.288,0.367,0.404,0.008,0.081,0.352
				c0.092,0.324,0.475-0.168,0.458,0.205c0.151-0.145,0.124-0.021,0.264-0.145c0.189-0.295-0.246-0.229-0.275-0.426
				c0.022,0,0.066,0,0.099-0.025c-0.039-0.123-0.106-0.126-0.217-0.126l-0.011,0.024c-0.245,0.044,0.049-0.173,0.055-0.299
				c-0.044,0-0.084-0.124-0.18-0.003l0.036-0.247l-0.162,0.17c-0.07-0.05,0.028-0.173-0.127-0.127l-0.153,0.146l0.099,0.2
				c-0.125-0.024-0.164,0.124-0.277,0.071c0.255-0.071,0.017-0.148,0.144-0.297l-0.144,0.022l0.055-0.022
				c0.029-0.126-0.112-0.002-0.148-0.079c-0.017,0.151-0.079,0.296,0.111,0.277c-0.144,0.021-0.358-0.009-0.393-0.033
				c-0.128-0.003-0.059-0.159-0.103-0.236c0.176,0.056,0.411-0.491,0.536-0.153c-0.033,0.024-0.045,0-0.036-0.025
				c-0.158,0.221,0.151,0.127,0.273,0.104c0.097-0.123,0.177-0.096,0.147-0.247c-0.04,0.1-0.317,0.17-0.313-0.006l0.249-0.217
				l-0.096-0.15h0.023c0.104-0.198-0.161-0.104-0.158-0.277c-0.145,0.021-0.313-0.281-0.456,0.065
				c0.07-0.223-0.184-0.102-0.298-0.153l0.008,0.197c-0.291,0.047-0.146-0.027-0.511,0.141c0.054-0.074,0.084-0.148,0.172-0.195
				c-0.152-0.179-0.323-0.479-0.61-0.385c-0.106-0.127,0.151-0.42-0.12-0.475c-0.068,0-0.192,0.246-0.233,0.07
				c0.011-0.024,0.277-0.068,0.139-0.17c-0.265,0.094-0.102-0.302-0.369-0.258c0.007-0.124-0.121-0.201,0.044-0.321
				c0.06,0.126,0.221,0.228,0.31,0.179c-0.099,0.074-0.018,0.15-0.152,0.147c0.034,0.247,0.18,0.003,0.233,0.204
				c0.064-0.05,0.092-0.223,0.014-0.198c0.194-0.195,0.343,0.153,0.464-0.192c-0.118-0.15-0.563,0.215-0.477-0.107
				c0.166-0.071,0.139,0.102,0.402-0.041l-0.018-0.176l-0.21,0.071l0.033-0.024c0.008-0.349-0.357,0.044-0.607-0.011
				c-0.046,0.222-0.357,0.315-0.374,0.464c-0.126-0.077-0.174-0.176,0.02-0.371c0.347,0.03,0.215-0.194,0.585-0.214
				c0.041-0.099,0.327-0.241,0.243-0.368c-0.257,0.02-0.126,0.197-0.308,0.143c0.01-0.024,0.021-0.049,0.054-0.074
				c-0.155,0.05-0.028-0.099-0.205-0.052l0.055-0.024c0.037-0.198-0.223,0.047-0.164-0.151c-0.117,0.173-0.165,0.071-0.298,0.118
				c0.017,0.126-0.152,0.371-0.003,0.497c0.132-0.097,0.184-0.17,0.297-0.167l-0.104-0.077c0.039,0,0.083-0.015,0.124-0.02
				l0.027,0.146c-0.191-0.027-0.264,0.146-0.428,0.217c-0.051-0.15-0.114-0.052-0.14-0.153c0.173-0.159,0.092-0.479,0.083-0.703
				c0.012,0.024,0.04,0.044,0.048,0.06c0.189-0.021,0.081-0.197,0.125-0.246l-0.146,0.024c0.023,0,0.078-0.024,0.076-0.074
				c-0.114-0.052-0.275,0.118-0.39,0.068c0.086-0.099,0.296-0.17,0.294-0.269c0.062-0.1,0.22-0.369,0.027-0.398
				c-0.042,0.027-0.091,0.019-0.14,0.002c0.01-0.002,0.02,0,0.029-0.005l0.026-0.173c0.22-0.094,0.052,0.2,0.273,0.106l0.154-0.146
				c0.05,0.05,0.182,0.05,0.289,0.003c-0.048-0.099-0.103-0.077-0.218-0.129c0.083-0.104,0.211-0.115,0.23-0.118L16.33,23.94
				c-0.025,0.226,0.291,0.006,0.387,0.157c0.012,0.024-0.01,0.024-0.042,0.049c0.244-0.044,0.144,0.253,0.433,0.156l-0.111,0.05
				c0.124-0.006,0.405-0.02,0.678-0.03l0.059-0.058c0.021-0.05,0.067,0.003,0.07,0.052h-0.001c0.139-0.002,0.267-0.005,0.362-0.005
				c0.021-0.056,0.03-0.104,0.014-0.138c-0.088,0.05-0.151-0.126-0.29,0.044c0.039-0.148-0.184-0.102-0.165-0.2
				c-0.028,0.173-0.198,0.096-0.297,0.168c0.074-0.124-0.115-0.103,0.025-0.223c0.021-0.05-0.051,0.123,0.059,0.074
				c0.2-0.045-0.033-0.248,0.18-0.27c-0.214-0.027-0.335-0.229-0.581-0.233l0.017,0.123c-0.037-0.073-0.199-0.179-0.146-0.249
				c0.058,0.024,0.104,0.073,0.184,0.102c0.151-0.146-0.129-0.127-0.042-0.226l-0.401,0.093l0.061,0.074
				c-0.133,0.05-0.166-0.2-0.25-0.326c0.264-0.143,0.164,0.153,0.356,0.181c0.156,0.003,0.147-0.247,0.271-0.22
				c0.029-0.065-0.026-0.109-0.103-0.082l0.008-0.068c0.251-0.115,0.362,0.076,0.622,0.019c-0.029,0.011-0.058,0.022-0.081,0.042
				c0.005,0.15,0.086,0.225,0.211,0.252c0.018-0.099-0.037-0.074-0.081-0.076c0.042-0.047,0.133,0.002,0.211-0.02
				c-0.017-0.127,0.096-0.124,0.083-0.198c0.089,0.003,0.114,0.053,0.15,0.127c-0.04,0.099-0.12,0.071-0.206,0.17
				c0.114,0.003-0.08,0.247,0.11,0.226c-0.073-0.148,0.229-0.168,0.33-0.192l-0.013-0.024c0.143-0.072,0.177-0.047,0.103,0.076
				c-0.089-0.002-0.103-0.076-0.199,0.047c0.034,0.025,0.07,0.05,0.137,0.053l-0.11,0.046l0.173,0.127
				c0.12-0.071,0.295-0.168,0.459-0.288c-0.051,0.123,0.071,0.102,0.139,0.102l-0.055,0.024c-0.017,0.148,0.201,0.228,0.298,0.153
				c-0.029,0.124-0.878,0.206-0.464,0.465c0.127,0.126,0.352-0.192,0.518-0.215c0,0-0.031,0.022-0.041,0.05
				c0.036,0.074,0.144-0.022,0.233-0.022c0.008-0.074-0.039-0.123-0.093-0.102c0.13-0.096,0.105,0.127,0.239,0.08
				c-0.23,0.121,0.042,0.176-0.092,0.223c-0.003,0.223,0.255,0.203,0.442,0.132c-0.144,0.296,0.161,0.104,0.182,0.327
				c-0.013-0.025-0.079-0.025-0.081-0.077c-0.21,0.071,0.053,0.2-0.183,0.222c0.045,0,0.077-0.074,0.031-0.074
				c-0.058-0.027-0.158-0.002-0.21,0.069L19.8,24.902l-0.068-0.003l-0.02,0.321c0.032-0.022,0.052-0.071,0.063-0.097
				c0.1,0.25,0.396,0.354,0.526,0.533c0.423-0.365,0.546,0.209,0.912,0.091c-0.146,0.08-0.363,0.261-0.424,0.362
				c-0.044-0.011-0.261,0.091-0.29-0.005c0.054-0.072,0.048-0.221,0.17-0.245c-0.218-0.126-0.15,0.198-0.348,0.291
				c0.229,0.157,0.574,0.036,0.787,0.066l-0.042,0.05l0.178,0.002c-0.048-0.099,0.179-0.318,0.198-0.146h-0.023
				c-0.039,0.148,0.185,0.151,0.256,0.253l0.188-0.071c0.071,0.102-0.165,0.346-0.282,0.517c0.118,0.153,0.393,0.032,0.606,0.011
				c-0.062,0.148,0.115,0.376-0.118,0.396c0.214,0.03,0.751-0.558,0.648-0.036l-0.155,0.047c0.221,0.179,0.706,0.261,0.692,0.459
				c-0.437,0.291-0.121,0.62-0.442,1.011c0.072-0.091,0.175-0.044,0.228-0.074c-0.024,0.058-0.038,0.123,0.065,0.08
				c-0.007-0.148,0.424-0.313,0.132-0.319c0.32-0.17,0.607-0.264,0.759-0.085l-0.151,0.146l-0.085-0.176
				c-0.096,0.124-0.155,0.047-0.233,0.069c0.159,0.326-0.379,0.318-0.111,0.546c0.12-0.074,0.064-0.05,0.167-0.021
				c-0.036-0.025-0.144,0.071-0.097,0.12l0.166-0.071c-0.161,0.335-0.305,0.02-0.405,0.267c-0.211,0.022-0.441-0.082-0.599,0.138
				c0.086,0.226,0.496-0.215,0.573,0.035l-0.063,0.099c0.113,0.004,0.253-0.117,0.363-0.167c-0.042,0.05-0.062,0.099-0.039,0.148
				c0.289-0.094,0.39-0.065,0.688-0.185c-0.396-0.082-0.059-0.349-0.445-0.455c0.1-0.025,0.32,0.104,0.536-0.091l-0.151,0.146
				c0.156,0.002,0.313,0.008,0.365,0.156l-0.146,0.021c0.237,0.031-0.004,0.448,0.349,0.306c-0.025-0.05-0.059-0.074-0.104-0.077
				c0.135,0.003,0.206,0.104,0.255,0.203l0.399-0.09c-0.075,0.07,0.019,0.176-0.146,0.244c-0.002,0.225,0.271,0.055,0.373,0.082
				c-0.043,0.271-0.168-0.027-0.385,0.168c0.088,0.225,0.315,0.329,0.537,0.283c-0.002-0.061,0.009-0.103,0.046-0.138
				c-0.041,0.052,0.033,0.102,0.067,0.14l0.121-0.074c-0.008,0.124-0.072,0.174-0.195,0.195c0.037,0.077,0.29-0.044,0.209,0.154
				c-0.212,0.021-0.232-0.204-0.354-0.179c0.296,0.104-0.093,0.494,0.282,0.626c-0.043,0.049-0.176,0.096-0.129,0.146
				c0.148,0.077,0.23-0.171,0.373-0.241c-0.148-0.028-0.129-0.127-0.059-0.3l0.102-0.055c-0.037,0.044,0.016,0.102-0.008,0.156
				l0.174-0.146c-0.184,0.17-0.23,0.393-0.096,0.396c0.06-0.198,0.072-0.173,0.254-0.393c0.287-0.094-0.079,0.296,0.23,0.203
				c-0.064,0.05-0.201-0.003-0.162,0.12c0.061,0.074,0.189-0.07,0.278-0.068c-0.199,0.097-0.296,0.217-0.524,0.338
				c-0.141-0.102-0.047-0.052-0.229-0.104l-0.024,0.222c-0.127-0.077-0.244,0.097-0.309,0.144c0.025,0.323,0.355-0.091,0.429,0.057
				c0.155-0.046-0.083-0.123,0.106-0.145c0.084,0.126,0.121-0.074,0.302-0.02l-0.088,0.047c-0.051,0.123,0.092,0.052,0.148,0.079
				c0.091,0,0.46-0.565,0.659-0.388C27.16,30.961,27.13,30.983,27.113,31l-1.422,1.055c0.193,0.187,0.379,0.441,0.517,0.744
				c-0.19,0.294-0.356,0.044-0.452,0.165l-0.052-0.148c0.108-0.099,0.243,0.179,0.334-0.094c-0.251-0.104-0.214-0.302-0.595-0.261
				c-0.189,0.297,0.266,0.179,0.188,0.476c-0.031-0.061-0.096-0.071-0.168-0.077c0.07,0.135,0.145,0.277,0.228,0.434l0.085-0.033
				c-0.051-0.106-0.085-0.181-0.084-0.197c0.084,0.127,0.307,0.08,0.49-0.091l-0.012-0.024l0.094-0.017L26.303,33.038z
				 M33.043,39.861c-0.023,0.011-0.047,0.027-0.076,0.046C32.997,39.886,33.01,39.866,33.043,39.861z M23.659,31.582
				c0.113,0.168,0.206,0.357,0.319,0.511c0.108-0.593,0.203-1.027,0.6-0.618l0.052,0.003c-0.01-0.096-0.096-0.192-0.208-0.253
				c-0.194,0.055-0.874,0.289-0.911,0.33c-0.074,0.123,0.069,0.052,0.084,0.126L23.659,31.582z M24.147,30.898
				c-0.04-0.118-0.101-0.025-0.183,0.033l0.11,0.057C24.081,30.961,24.102,30.932,24.147,30.898z M23.899,31.008
				c0.007,0.008,0.011,0.02,0.007,0.033L23.899,31.008z M25.35,32.634l-0.014-0.005l0.041,0.074
				C25.381,32.684,25.376,32.662,25.35,32.634z M25.359,32.302l-0.146,0.11l0.039,0.068C25.303,32.414,25.349,32.359,25.359,32.302z
				 M25.265,31.365c-0.186,0.121-0.302,0.02-0.486,0.189c-0.052,0.038-0.046,0.08-0.036,0.118c0.023,0.032,0.05,0.068,0.077,0.106
				c0.027-0.024,0.058-0.041,0.092-0.055c-0.011-0.052,0.013-0.118,0.135-0.214c-0.156,0.318,0.242-0.097,0.27,0.055
				C25.471,31.47,25.342,31.343,25.265,31.365z M17.95,24.974c0.011-0.02,0.042-0.066,0.081-0.127l0.151-0.027
				c0.073,0.151-0.092,0.497,0.228,0.379c-0.008,0.102-0.099,0.245-0.172,0.362c-0.015-0.029-0.027-0.06-0.03-0.093
				C17.604,25.506,18.399,24.981,17.95,24.974z M18.925,26.574c-0.022,0-0.055,0.025-0.055,0.025
				c0.576-0.077,0.876,0.035,0.999,0.184c0.103-0.156,0.081-0.376,0.077-0.488l0.199-0.097l-0.083,0.148l0.221-0.044
				c0.074-0.123-0.018-0.176,0.011-0.299c-0.033,0.024-0.357,0.043-0.49,0.09l0.021,0.223c0.008-0.071-0.188-0.2-0.29-0.229
				c-0.076,0.074-0.079,0.297,0.096,0.151c-0.096,0.124-0.226-0.003-0.263,0.195c-0.211,0.02-0.266-0.23-0.283-0.354l0.172-0.195
				c-0.006-0.148-0.273,0.168-0.26-0.029c0.15,0.076,0.183-0.221,0.287-0.144c0.04-0.099,0.193-0.194,0.089-0.271
				c-0.319,0.167,0.058-0.247-0.228-0.104c0.029-0.124,0.198-0.096,0.137-0.223c-0.235,0.021-0.321,0.121-0.505,0.291
				c0.051,0.148,0.343-0.118,0.382,0.006l-0.466,0.14c-0.012,0.074,0.004,0.102,0.036,0.107c-0.051-0.017-0.124,0.003-0.208,0.041
				c-0.049,0.02-0.092,0.036-0.128,0.053c0.091,0.093,0.169,0.179,0.107,0.269L18.4,26.094c-0.045,0.11,0.069,0.102,0.157,0.063
				c0.092,0.074,0.294,0.036,0.201,0.165l-0.11,0.049C18.774,26.448,18.796,26.448,18.925,26.574z M22.059,30.099
				c0.254-0.376,0.464-0.722,0.123-0.953h0.044c0.053-0.343-0.544-0.022-0.5-0.417c0.203-0.033,0.188-0.025,0.555-0.203
				l-0.181-0.003c0.196-0.146,0.017-0.148-0.042-0.223l0.264-0.146c-0.018,0.099,0.064,0.225,0.108,0.176
				c-0.045,0-0.12,0.396,0.027,0.423c0.129-0.148-0.111-0.274,0.196-0.421c-0.167,0.025-0.038-0.123-0.163-0.15
				c0.167-0.022,0.206-0.17,0.361-0.217l-0.171-0.077c0.042-0.05,0.284,0.079,0.352-0.192c-0.122,0.021-0.165-0.203-0.316-0.055
				l0.042-0.05c-0.061-0.126-0.251,0.168-0.281-0.03c-0.076,0.074-0.106,0.146-0.05,0.174c0.067,0,0.176-0.097,0.268-0.047
				c-0.084,0.15-0.072-0.1-0.218,0.146c-0.073,0.123,0.273,0.106,0,0.274l-0.062-0.127c-0.151,0.148-0.21,0.072-0.328,0.193
				c-0.111-0.004,0.001-0.223-0.186-0.151c-0.121,0.071-0.257,0.294-0.276,0.118c0.146-0.297-0.12-0.476-0.235-0.525l-0.167,0.022
				c-0.085,0.097,0.152,0.126-0.014,0.198l-0.148-0.077l0.066-0.05c-0.025-0.049-0.125-0.027-0.192-0.03
				c0.143-0.071,0.181,0.056,0.32-0.118c-0.022-0.082,0.027-0.148-0.052-0.168c0.022,0,0.047-0.005,0.067-0.029
				c-0.041-0.174-0.279,0.071-0.355,0.093c-0.311,0.094-0.079,0.297-0.251,0.442l-0.401-0.23c0.077-0.025,0.154-0.047,0.207-0.121
				c-0.005-0.148,0.118-0.121,0.003-0.223c-0.205,0.22-0.269-0.005-0.47,0.041c0.051-0.123,0.061-0.148,0.143-0.074
				c0.127-0.145-0.03-0.197-0.055-0.246c-0.056,0.011-0.113-0.006-0.167,0.002c-0.037,0.1-0.137,0.174-0.264,0.162l-0.033,0.025
				c0.074,0.15,0.098,0.475,0.309,0.403l-0.088,0.047c0.01,0.25,0.529,0.035,0.328,0.354c-0.108,0.099,0.003,0.049-0.148,0.197
				l0.211-0.021l-0.088,0.047l0.195,0.129l-0.031,0.024c0.21-0.061,0.38-0.11,0.521-0.151c0.064-0.063,0.08-0.088,0.152-0.109
				c0.058-0.009,0.082,0.008,0.092,0.033l0,0l0,0c0.021,0.06-0.046,0.178-0.036,0.266l-0.166-0.135
				c-0.123,0.097-0.224,0.226-0.227,0.377c-0.035-0.027-0.133,0.047-0.109,0.096c0.033-0.024,0.169,0.027,0.221-0.096
				c0.183,0.104,0.125,0.623,0.552,0.632c-0.282-0.03-0.022,0.274-0.242,0.146c-0.055,0.297,0.279-0.068,0.374,0.082
				c-0.052,0.071-0.059-0.076-0.211,0.02c0.134,0.277,0.63,0.063,0.774,0.313l-0.127,0.146
				C21.936,30.055,21.998,30.077,22.059,30.099z M22.624,30.321l0.164,0.068l-0.008-0.017l0.227,0.006
				c-0.018-0.126,0.086-0.321,0.255-0.294c-0.064,0.05-0.105,0.146-0.173,0.146c-0.017,0.148,0.049,0.374,0.218,0.129
				c-0.323,0.069,0.235-0.293-0.01-0.25c0.188-0.079,0.18,0.033,0.292,0.022c-0.167,0.061-0.245,0.269-0.218,0.403
				c0.067,0,0.129,0.127,0.24,0.129c0.107-0.147,0.229-0.17,0.167-0.296c0.069,0,0.147,0.027,0.142,0.151
				c-0.045,0-0.102-0.028-0.146,0.021c-0.079,0.156-0.028,0.195-0.054,0.27l0.08,0.038c0.005-0.017,0.015-0.036,0.029-0.058
				l0.179-0.047c-0.148-0.027,0.018-0.099,0.093-0.17c-0.151,0.146,0.036,0.074,0.071,0.099l0.092-0.223
				c0.11-0.047-0.003,0.226,0.136,0.052c-0.074-0.197-0.155-0.225-0.326-0.302l-0.071,0.173c-0.227-0.055,0.123-0.296-0.041-0.447
				c-0.177,0.044-0.245-0.23-0.471-0.011c0.088-0.047,0.1-0.297-0.055-0.25c-0.264,0.146-0.471-0.009-0.51,0.14
				c0.045,0.053,0.224,0.006,0.13,0.176l-0.137-0.052l-0.049,0.173C22.878,30.03,22.772,30.143,22.624,30.321z M23.49,33.688v0.009
				l-0.003-0.006L23.49,33.688z"/>
			<path fill="#FFFFFF" d="M16.086,24.037c-0.079,0.021-0.136-0.053-0.232,0.068C15.972,23.984,15.993,24.207,16.086,24.037z"/>
			<path fill="#FFFFFF" d="M16.124,23.839c-0.033,0.022-0.076,0.071-0.11,0.047l0.114,0.052L16.124,23.839z"/>
			<path fill="#FFFFFF" d="M16.859,22.933c-0.132,0.046-0.208,0.071-0.268-0.006c0.267-0.318,0.191,0.03,0.494-0.214
				c-0.095-0.151-0.389,0.068-0.515-0.009C16.5,22.877,16.634,23.152,16.859,22.933z"/>
			<polygon fill="#FFFFFF" points="17.285,22.616 17.151,22.613 17.14,22.639 17.276,22.642 			"/>
			<path fill="#FFFFFF" d="M16.225,26.648c-0.085,0.097,0.048,0.05,0.092,0.05C16.305,26.674,16.303,26.624,16.225,26.648z"/>
			<path fill="#FFFFFF" d="M29.604,40.218l0.611,0.435C30.041,40.525,29.892,40.396,29.604,40.218z"/>
			<path fill="#FFFFFF" d="M18.56,27.786c-0.227-0.056-0.447,0.041-0.63-0.063c0.003,0.374,0.536-0.038,0.506,0.308L18.56,27.786z"
				/>
			<path fill="#FFFFFF" d="M17.78,28.467c0.148-0.197,0.311-0.093,0.416-0.241c-0.137-0.052-0.208,0.121-0.279,0.019L17.78,28.467z"
				/>
			<polygon fill="#FFFFFF" points="19.994,24.979 20.125,24.932 20.06,24.93 			"/>
			<polygon fill="#FFFFFF" points="18.572,28.953 18.519,28.979 18.534,29.102 			"/>
			<path fill="#FFFFFF" d="M18.462,29l0.056-0.021L18.462,29z"/>
			<polygon fill="#FFFFFF" points="20.418,24.663 20.392,24.564 20.282,24.61 			"/>
			<path fill="#FFFFFF" d="M20.051,26.148l-0.111-0.002C19.962,26.146,19.969,26.295,20.051,26.148z"/>
			<polygon fill="#FFFFFF" points="18.929,29.456 19.065,29.459 19.075,29.437 18.94,29.434 			"/>
			<path fill="#FFFFFF" d="M20.97,26.116c0.093-0.173,0.149,0.077,0.187-0.121C21.063,25.943,21.023,26.042,20.97,26.116z"/>
			<path fill="#FFFFFF" d="M20.903,27.847c0.01,0.008,0.023,0.014,0.048,0.008C20.935,27.85,20.918,27.847,20.903,27.847z"/>
			<path fill="#FFFFFF" d="M20.903,27.847c-0.03-0.03-0.01-0.11-0.069-0.094C20.812,27.85,20.848,27.841,20.903,27.847z"/>
			<path fill="#FFFFFF" d="M21.278,28.159l-0.018-0.038c0.094-0.035,0.07-0.041-0.007-0.011c-0.033-0.024-0.074,0.019-0.105,0.044
				l-0.07,0.033l0.071-0.025C21.192,28.209,21.227,28.229,21.278,28.159z"/>
			<path fill="#FFFFFF" d="M20.32,31.67c-0.051-0.151-0.053-0.2,0.055-0.297c-0.063-0.129-0.225,0.063-0.324,0.047
				C20.179,31.508,20.154,31.576,20.32,31.67z"/>
			<path fill="#FFFFFF" d="M20.051,31.42c-0.014-0.008-0.026-0.017-0.045-0.03C20.019,31.409,20.035,31.417,20.051,31.42z"/>
			<polygon fill="#FFFFFF" points="22.001,26.633 22.221,26.536 22.176,26.536 			"/>
			<path fill="#FFFFFF" d="M20.418,31.87c-0.012-0.024-0.047-0.049-0.026-0.099C20.282,31.867,20.43,31.896,20.418,31.87z"/>
			<path fill="#FFFFFF" d="M22.048,29.465c0.052-0.072-0.05-0.1-0.051-0.148C22.021,29.365,21.861,29.585,22.048,29.465z"/>
			<path fill="#FFFFFF" d="M21.131,31.736c-0.012-0.028,0.027-0.124,0.126-0.198C21.179,31.563,20.96,31.708,21.131,31.736z"/>
			<polygon fill="#FFFFFF" points="22.213,29.668 22.233,29.618 22.099,29.615 			"/>
			<path fill="#FFFFFF" d="M23.487,27.901c-0.2,0.047-0.173,0.42-0.411,0.39c0.044,0.303,0.161-0.187,0.268-0.038
				C23.312,28.135,23.431,27.945,23.487,27.901z"/>
			<path fill="#FFFFFF" d="M23.345,28.253c0.004,0.017,0.012,0.03,0.025,0.044C23.361,28.277,23.353,28.264,23.345,28.253z"/>
			<path fill="#FFFFFF" d="M23.655,30.118c-0.023,0-0.045,0.008-0.067,0.014C23.607,30.132,23.627,30.126,23.655,30.118z"/>
			<path fill="#FFFFFF" d="M23.85,28.555l-0.299,0.069c0.199-0.044,0.387,0.156,0.559-0.039c-0.026-0.102-0.151-0.129-0.261-0.079
				L23.85,28.555z"/>
			<path fill="#FFFFFF" d="M21.852,33.214l-0.124,0.024l0.043,0.082C21.779,33.277,21.947,33.172,21.852,33.214z"/>
			<path fill="#FFFFFF" d="M21.779,33.337l-0.008-0.017C21.768,33.329,21.771,33.334,21.779,33.337z"/>
			<path fill="#FFFFFF" d="M23.348,29.986c-0.025-0.05-0.059-0.074-0.126-0.077C23.201,29.959,23.261,30.085,23.348,29.986z"/>
			<polygon fill="#FFFFFF" points="22.471,33.302 22.357,33.249 22.46,33.326 			"/>
			<polygon fill="#FFFFFF" points="22.545,33.999 22.525,34.046 22.659,34.049 22.679,34.002 			"/>
			<path fill="#FFFFFF" d="M25.653,29.882c-0.036-0.077-0.245,0.044-0.265,0.093l0.115,0.103c0.117-0.171-0.035-0.025-0.061-0.124
				L25.653,29.882z"/>
			<path fill="#FFFFFF" d="M25.678,36.592c-0.121,0.072-0.184-0.104-0.099-0.2c0.057-0.024,0.158,0.003,0.176-0.097l-0.331,0.144
				c0.023-0.274,0.406-0.217,0.553-0.239c-0.097-0.156-0.29-0.041-0.425-0.176c0.018,0.061-0.015,0.146-0.046,0.217
				c-0.162,0.171-0.214-0.029-0.316-0.106c-0.016,0.132-0.11,0.159-0.217,0.181c-0.012-0.002-0.027,0.003-0.042,0.012l-0.037,0.008
				l0.011,0.011c-0.019,0.02-0.04,0.044-0.063,0.083c0.125,0.027,0.044,0.223,0.091,0.274c0.222-0.319,0.228,0.104,0.374,0.082
				l0.098,0.044l0.025,0.025c-0.023,0.035-0.068,0.065-0.162,0.076c0.087-0.02,0.18,0.113,0.258,0.017l0.26,0.253
				c-0.004,0.017-0.009,0.038-0.023,0.066c0.027-0.009,0.042-0.022,0.056-0.036l1.134,1.099c-0.033-0.077-0.019-0.187-0.046-0.271
				c0.265-0.097-0.061-0.127,0.134-0.272c0.102-0.022,0.137,0.052,0.13,0.126c0.097-0.071,0.126-0.194,0.235-0.293
				c-0.033-0.248-0.467,0.143-0.542-0.059c0.108-0.099,0.241-0.146,0.138-0.223h0.045c-0.26-0.027,0.119-0.343-0.254-0.153
				l0.151-0.146c-0.177,0.047-0.306-0.08-0.398-0.132l0.032-0.024c-0.37-0.03-0.147-0.077-0.445-0.23l0.277-0.069
				c-0.008-0.151-0.212,0.02-0.249-0.055c0.033-0.024,0.128-0.146,0.209-0.121l-0.54-0.011
				C25.649,36.441,25.73,36.518,25.678,36.592z"/>
			<path fill="#FFFFFF" d="M25.552,36.023c-0.007-0.021-0.021-0.044-0.046-0.058C25.52,35.99,25.535,36.007,25.552,36.023z"/>
			<path fill="#FFFFFF" d="M27.029,38.405l-0.08-0.077C26.965,38.361,26.986,38.392,27.029,38.405z"/>
			<path fill="#FFFFFF" d="M24.833,35.955c-0.029,0.123-0.143,0.071-0.209,0.121l0.173,0.167c0.056-0.058,0.137-0.106,0.187-0.162
				L24.833,35.955z"/>
			<path fill="#FFFFFF" d="M24.74,36.4c0.045-0.033,0.099-0.053,0.152-0.066l-0.095-0.091C24.755,36.287,24.728,36.337,24.74,36.4z"
				/>
			<polygon fill="#FFFFFF" points="27.777,33.326 27.813,33.351 27.902,33.351 			"/>
			<path fill="#FFFFFF" d="M27.998,34.049c0.051-0.121-0.084-0.124-0.129-0.127C27.951,33.999,27.884,33.999,27.998,34.049z"/>
			<polygon fill="#FFFFFF" points="28.83,33.021 28.955,33.049 28.966,33.024 			"/>
			<path fill="#FFFFFF" d="M28.194,38.402l0.048,0.027C28.226,38.41,28.209,38.405,28.194,38.402z"/>
			<path fill="#FFFFFF" d="M27.402,37.892c0.014,0.349-0.259,0.019-0.416,0.291l0.17,0.027l-0.064,0.047l0.139,0.102
				c0.072-0.121,0.061-0.146,0.168-0.245c0.121,0.201-0.07,0.174-0.084,0.421l0.199,0.162l-0.046,0.017
				c0.018,0.014,0.037,0.006,0.06-0.006l0.668,0.541c0.192,0.027,0.125-0.247,0.357-0.315c-0.128-0.13-0.207-0.429-0.424-0.233
				c0.032-0.022,0.098-0.072,0.097-0.121l-0.243,0.094l0.017,0.126c-0.243,0.093-0.444-0.185-0.384-0.333
				c0.194,0.08,0.329-0.191,0.407,0.107c0.044-0.061,0.102-0.187,0.172-0.17C27.912,38.237,27.807,37.946,27.402,37.892z"/>
			<path fill="#FFFFFF" d="M29.73,40.023l-0.02,0.016C29.725,40.034,29.732,40.028,29.73,40.023z"/>
			<path fill="#FFFFFF" d="M29.682,39.921l-0.311,0.094l0.186,0.153l0.154-0.129c-0.051,0.022-0.182,0.033-0.15-0.044L29.682,39.921
				z"/>
			<path fill="#FFFFFF" d="M29.124,40.012c0.147,0.027,0.31-0.146,0.337-0.27c0.157,0.006-0.137,0.223,0.094,0.102
				c0.119-0.12-0.051-0.15-0.096-0.15L29.124,40.012z"/>
			<polygon fill="#FFFFFF" points="28.568,39.278 28.661,39.234 28.619,39.158 			"/>
			<path fill="#FFFFFF" d="M28.661,39.234l0.041,0.08c0.048-0.055,0.094-0.11,0.118-0.154L28.661,39.234z"/>
			<path fill="#FFFFFF" d="M28.813,39.521c0.012,0.035,0.031,0.074,0.062,0.112L28.813,39.521z"/>
			<path fill="#FFFFFF" d="M28.786,39.407l-0.021,0.025l0.047,0.088C28.804,39.484,28.796,39.449,28.786,39.407z"/>
			<path fill="#FFFFFF" d="M28.702,39.314c-0.105,0.126-0.217,0.261-0.097,0.313l0.16-0.194L28.702,39.314z"/>
			<polygon fill="#FFFFFF" points="29.207,33.749 29.342,33.752 29.354,33.728 29.219,33.725 			"/>
			<path fill="#FFFFFF" d="M29.498,34.252c0.037-0.003,0.07-0.011,0.104-0.021C29.572,34.225,29.539,34.23,29.498,34.252z"/>
			<path fill="#FFFFFF" d="M30.586,33.752c-0.035,0.197-0.266,0.044-0.167,0.244c-0.097,0.121-0.308,0.192-0.324,0.069
				c0.108-0.099,0.135,0.003,0.196-0.146c-0.164,0.071-0.103-0.027-0.24,0.143c-0.176,0.02-0.294,0.121-0.449,0.168
				c0.164,0.027,0.205,0.384,0.523,0.307c0.253-0.12,0.467-0.414,0.736-0.681C30.914,33.782,30.771,33.579,30.586,33.752z"/>
			<path fill="#FFFFFF" d="M30.729,33.356c-0.023-0.052-0.047-0.052-0.092-0.052C30.551,33.403,30.693,33.329,30.729,33.356z"/>
			<path fill="#FFFFFF" d="M29.563,36.238c0.046-0.031,0.161-0.012,0.212-0.091l-0.15-0.056
				C29.643,36.123,29.604,36.178,29.563,36.238z"/>
			<path fill="#FFFFFF" d="M29.559,36.067l0.066,0.024C29.617,36.076,29.598,36.067,29.559,36.067z"/>
			<path fill="#FFFFFF" d="M29.544,36.266l0.02-0.027C29.554,36.243,29.545,36.252,29.544,36.266z"/>
			<path fill="#FFFFFF" d="M28.994,39.836c-0.076,0.071,0.015,0.071,0.059,0.074C29.04,39.886,29.039,39.833,28.994,39.836z"/>
			<path fill="#FFFFFF" d="M31.003,41.265l-0.019,0.099C31.006,41.314,31.016,41.289,31.003,41.265z"/>
			<path fill="#FFFFFF" d="M33.639,39.872c0.015-0.014,0.029-0.022,0.045-0.03C33.672,39.848,33.656,39.855,33.639,39.872z"/>
			<path fill="#FFFFFF" d="M33.684,39.842c0.09-0.033,0.08,0.146,0.203,0.085l-0.033,0.024h0.113
				C33.904,39.907,33.805,39.784,33.684,39.842z"/>
		</g>
	</g>
</g>
</svg>
