<?xml version="1.0" encoding="utf-8"?>
<!-- Generator: Adobe Illustrator 16.0.3, SVG Export Plug-In . SVG Version: 6.00 Build 0)  -->
<!DOCTYPE svg PUBLIC "-//W3C//DTD SVG 1.1//EN" "http://www.w3.org/Graphics/SVG/1.1/DTD/svg11.dtd">
<svg version="1.1" id="Layer_1" xmlns="http://www.w3.org/2000/svg" xmlns:xlink="http://www.w3.org/1999/xlink" x="0px" y="0px"
	 width="56.5px" height="68px" viewBox="-16.667 -24.792 56.5 68" enable-background="new -16.667 -24.792 56.5 68"
	 xml:space="preserve">
<g>
	<path fill="#EF4632" d="M24.271,37.749c0.063-2.822-0.274-6.081-1.123-10.001c-2.173-10.201-5.781-14.833-9.273-19.306
		c-1.842-2.372-3.646-4.66-5.216-7.75C7.366-1.921,6.189-5.08,5.269-9.325c-0.641-3.125-1.695-9.052-1.296-12.102
		c0.119-1.043,1.198-1.873,2.007-1.954C18.116-24.526,30.614-12.893,34.41,4.93c2.946,13.871-0.431,26.881-7.504,33.511
		C25.658,39.646,24.209,39.646,24.271,37.749z"/>
	<path fill="#EF4632" d="M-3.322-19.641c-0.059,2.818,0.287,6.077,1.124,10.004c2.16,10.188,5.781,14.83,9.276,19.306
		c1.836,2.372,3.637,4.657,5.204,7.76c1.311,2.622,2.475,5.737,3.374,10.007c0.661,3.134,1.71,9.052,1.323,12.099
		c-0.138,1.049-1.211,1.873-1.998,1.947C2.84,42.63-9.67,31.006-13.453,13.189c-2.956-13.89,0.421-26.887,7.498-33.561
		C-4.723-21.536-3.271-21.514-3.322-19.641z"/>
</g>
</svg>
