<?xml version="1.0" encoding="utf-8"?>
<!-- Generator: Adobe Illustrator 16.0.3, SVG Export Plug-In . SVG Version: 6.00 Build 0)  -->
<!DOCTYPE svg PUBLIC "-//W3C//DTD SVG 1.1//EN" "http://www.w3.org/Graphics/SVG/1.1/DTD/svg11.dtd">
<svg version="1.1" id="Layer_1" xmlns="http://www.w3.org/2000/svg" xmlns:xlink="http://www.w3.org/1999/xlink" x="0px" y="0px"
	 width="43.167px" height="42.25px" viewBox="0 0 43.167 42.25" enable-background="new 0 0 43.167 42.25" xml:space="preserve">
<g>
	<g>
		<g>
			<g>
				<g>
					<g>
						<path fill="#F05D4C" d="M37.472,23.331c0.132,0.109,0.176,0.277,0.102,0.26c0.322,0.172,0.242,0.263,0.42,0.148
							c0.23,0.086,0.3,0.354,0.061,0.234L38.6,24.34l-0.25-0.296c0.195-0.047,0.399,0.473,0.628,0.418l-0.506-0.482l0.064-0.016
							c-0.155-0.069-0.356-0.306-0.415-0.399c0.032-0.008,0.057-0.048,0.147,0.035c-0.587-0.605-0.373,0.053-0.909-0.402
							C37.394,23.226,37.431,23.266,37.472,23.331z"/>
						<path fill="#F05D4C" d="M37.262,22.526l-0.36-0.056l-0.31-0.389c-0.057,0.049-0.354-0.163-0.228,0.056
							c0.042,0.025,0.124,0.076,0.173,0.135c-0.152,0.074-0.521-0.407-0.533-0.19c0.307,0.246,0.323,0.313,0.586,0.392
							c0.242,0.264,0.4,0.475,0.478,0.634c0.092,0.058,0.173-0.001,0.282,0.08c-0.023-0.02-0.044-0.038-0.069-0.061l0.16-0.182
							c-0.115-0.043-0.174-0.136-0.266-0.22l0.608,0.209c0.028-0.292-0.467-0.6-0.562-0.827
							C37.277,22.45,36.992,22.021,37.262,22.526z"/>
						<path fill="#F05D4C" d="M37.35,23.188l0.01,0.01L37.35,23.188z"/>
						<path fill="#F05D4C" d="M7.196,14.987c-0.081,0.093-0.063,0.158-0.055,0.191l0.938-1.017
							c-0.076-0.011-0.405,0.227-0.251,0.006c-0.132,0.039-0.334,0.345-0.307,0.442l-0.003-0.14
							c-0.126,0.318-0.453,0.312-0.365,0.11L7.136,14.6l-0.251,0.972C7.125,15.354,6.934,15.277,7.196,14.987z"/>
						<path fill="#F05D4C" d="M21.624,33.939c-0.146-0.107-0.177-0.105-0.179-0.074C21.505,33.896,21.563,33.924,21.624,33.939z"/>
						<path fill="#F05D4C" d="M6.826,15.799l-0.079,0.305C6.793,15.995,6.82,15.888,6.826,15.799z"/>
						<path fill="#F05D4C" d="M6.465,12.849c-0.006-0.006-0.009-0.013-0.021-0.015l-0.029,0.143l0.002-0.002L6.465,12.849z"/>
						<path fill="#F05D4C" d="M6.913,18.505c0.024,0.019,0.043,0.033,0.073,0.055C6.961,18.539,6.937,18.521,6.913,18.505z"/>
						<path fill="#F05D4C" d="M8.389,9.521l-0.313,0.548c0.006-0.106-0.181,0.125-0.151-0.024c-0.024,0.042-0.154,0.221-0.088,0.201
							l0.082-0.095c-0.075,0.373,0.115,0.281-0.141,0.778c0.313-0.165,0.334-0.345,0.388-0.537c0.037-0.056,0.062-0.095,0.089-0.136
							l0.145-0.563L8.389,9.521z"/>
						<path fill="#F05D4C" d="M14.626,28.86l-0.015,0.007C14.619,28.867,14.624,28.865,14.626,28.86z"/>
						<path fill="#F05D4C" d="M14.548,28.895l0.063-0.027C14.565,28.868,14.452,28.803,14.548,28.895z"/>
						<path fill="#F05D4C" d="M6.802,15.638c0.021,0.031,0.03,0.088,0.024,0.162l0.059-0.227
							C6.864,15.589,6.832,15.614,6.802,15.638z"/>
						<path fill="#F05D4C" d="M6.803,14.999L7.136,14.6l0.055-0.21C7.083,14.562,6.946,14.75,6.803,14.999z"/>
						<path fill="#F05D4C" d="M6.399,17.858c0.8,0.716-0.352-0.012-0.033,0.368c0.235,0.185,0.388,0.177,0.547,0.28
							c-0.683-0.517,0.334-0.186-0.329-0.733c0.226-0.062,0.6,0.268,0.774,0.507c0.106,0.367-0.307-0.096-0.491-0.01
							c0.271,0.214,0.251,0.147,0.432,0.169c0.362,0.405,0.976,0.598,1.026,1.014c0.313,0.238,0.358,0.153,0.592,0.234
							c0.175-0.119-0.348-0.479-0.342-0.697c0.01,0.033,0.029,0.099-0.004,0.108l-0.216-0.264c0.184,0.273-0.174,0.119-0.31,0.013
							C7.952,18.765,7.765,18.6,7.83,18.583l0.167,0.098c-0.132-0.215-0.494-0.26-0.603-0.518c0.022-0.043,0.107,0.008,0.138-0.003
							c-0.306-0.096-0.502-0.292-0.881-0.514l0.321,0.021c-0.404-0.07-0.92-0.648-1.227-1.104c0.02,0.066,0.081,0.157,0.006,0.142
							c-0.262-0.181-0.337-0.446-0.158-0.424c-0.095-0.024-0.196-0.107-0.303-0.216c0.032,1.002,0.064,2.004,0.099,3.071
							c0.275-0.274,0.723-0.583,0.812-0.913l0.546-2.12c-0.03,0.071-0.067,0.142-0.115,0.206c-0.25,0.006-0.298,0.09-0.214-0.25
							c-0.135,0.286,0.049,0.3-0.253,0.636c0.054-0.191-0.067-0.365-0.377-0.062c-0.455,0.689-0.632,1.354-0.904,2.034
							c-0.022-0.695-0.045-1.398-0.067-2.102c0.223,0.091,0.446,0.193,0.673,0.318c-0.068,0.126,0.535,0.645,0.793,0.934
							c-0.209,0.007-0.447-0.16-0.683-0.342c0.133,0.134,0.359,0.359,0.528,0.528L6.399,17.858z"/>
						<path fill="#F05D4C" d="M4.978,18.102c-0.027,0.012-0.052,0.028-0.076,0.044C4.921,18.143,4.944,18.13,4.978,18.102z"/>
						<path fill="#F05D4C" d="M5.537,17.41c-0.006,0.001-0.008,0.005-0.013,0.008L5.6,17.475C5.578,17.453,5.552,17.426,5.537,17.41
							z"/>
						<path fill="#F05D4C" d="M6.399,15.611c0.023-0.08,0.031-0.11,0.054-0.191l-0.067,0.125C6.369,15.591,6.368,15.62,6.399,15.611
							z"/>
						<path fill="#F05D4C" d="M6.726,15.618l0.018,0.064c0.025-0.019,0.038-0.029,0.058-0.044C6.784,15.611,6.76,15.6,6.726,15.618z
							"/>
						<path fill="#F05D4C" d="M8.515,21.589l0.096,0.05C8.563,21.598,8.536,21.588,8.515,21.589z"/>
						<path fill="#F05D4C" d="M7.105,18.851c-0.281-0.247-0.175,0.12-0.559-0.243l0.104,0.116c-0.336-0.197-0.792-0.684-1.124-0.988
							c0.094-0.025-0.129-0.261-0.003-0.317c-0.244-0.19-0.485-0.379-0.691-0.392c-0.053-0.078-0.147-0.146-0.247-0.217
							c0.017,0.54,0.035,1.081,0.052,1.63c0.076-0.107,0.157-0.221,0.263-0.293c-0.126,0.022,0.043-0.431-0.289,0.066
							c0.025-0.042-0.009-0.032,0.016-0.074c-0.072,0.043-0.127,0.089-0.171,0.134c-0.014-0.454-0.028-0.869-0.041-1.283
							c0.17,0.167,0.357,0.187,0.545,0.363c0.089,0.19-0.317-0.13-0.204,0.019c0.346,0.229,0.868,0.949,1.046,0.722
							c0.23,0.189,0.216,0.264,0.245,0.363c0.552,0.101,1.178,1.297,1.444,1.009c-0.136-0.106-0.333-0.305-0.574-0.417L7.105,18.851
							z"/>
						<path fill="#F05D4C" d="M5.987,16.083l-0.052,0.051L5.987,16.083z"/>
						<path fill="#F05D4C" d="M10.025,13.404l0.082,0.289c-0.56,0.693-0.832,0.88-1.353,1.457c-0.066,0.02-0.019-0.065,0.006-0.107
							c-0.35,0.42-0.946,0.983-1.13,1.354c-0.12,0.126-0.49,0.405-0.428,0.228c-0.041,0.078-0.09,0.163-0.163,0.229
							c-0.085-0.044,0.129-0.178,0.077-0.233c-0.057,0.052-0.09,0.062-0.082,0.095c0.031-0.149-0.32-0.114,0.096-0.553
							c0.317-0.025-0.268,0.325,0,0.385c0.138-0.146,0.055-0.191,0.045-0.224c0.178-0.184,0.217-0.138,0.247-0.091
							c0.013-0.122,0.307-0.288,0.317-0.463c0.325-0.377,0.112,0.141,0.332-0.099l-0.048-0.301l0.4-0.365
							c0.471-0.63-0.38-0.2,0.129-0.948c0.012,0.171,0.41,0.052,0.73-0.219c-0.163,0.188-0.361,0.632-0.632,0.819
							c0.446-0.204-0.408,0.472-0.09,0.447c0.078-0.234,0.322-0.517,0.56-0.693l-0.048,0.085c0.229-0.209,0.205-0.552,0.565-0.8
							c0.139-0.161,0.162-0.086,0.177-0.02C9.911,13.518,9.986,13.368,10.025,13.404z M9.747,13.777l-0.21,0.192
							C9.611,13.947,9.683,13.868,9.747,13.777z"/>
						<path fill="#F05D4C" d="M34.431,19.738l0.047,0.075C34.473,19.792,34.453,19.766,34.431,19.738z"/>
						<path fill="#F05D4C" d="M14.989,3.839l0.118-0.115C15.057,3.766,15.021,3.804,14.989,3.839z"/>
						<path fill="#F05D4C" d="M19.839,3.895l0.209,0.13C19.979,3.961,19.911,3.924,19.839,3.895z"/>
						<polygon fill="#F05D4C" points="33.055,18.34 33.051,18.333 33.015,18.315 						"/>
						<path fill="#F05D4C" d="M24.68,9.53c0.012,0.041,0.027,0.083,0.057,0.132C24.749,9.641,24.726,9.593,24.68,9.53z"/>
						<path fill="#F05D4C" d="M19.8,3.871c0.003,0.006,0.005,0.009,0.007,0.013l0.032,0.011L19.8,3.871z"/>
						<path fill="#F05D4C" d="M13.369,4.555c-0.018,0.031-0.033,0.057-0.054,0.094C13.345,4.608,13.359,4.58,13.369,4.555z"/>
						<path fill="#F05D4C" d="M14.026,4.848c-0.021,0.032-0.041,0.063-0.052,0.091L14.026,4.848z"/>
						<path fill="#F05D4C" d="M9.812,8.7L9.686,8.886C9.757,8.803,9.792,8.747,9.812,8.7z"/>
						<path fill="#F05D4C" d="M13.511,5.171l0.001,0.047C13.527,5.191,13.527,5.17,13.511,5.171z"/>
						<polygon fill="#F05D4C" points="34.919,21.24 34.909,21.231 34.886,21.248 						"/>
						<path fill="#F05D4C" d="M35.548,21.374l0.151,0.124C35.649,21.445,35.595,21.401,35.548,21.374z"/>
						<path fill="#F05D4C" d="M26.682,12.079c0.017,0.066,0.085,0.193,0.011,0.175C26.808,12.298,26.889,12.207,26.682,12.079z"/>
						<path fill="#F05D4C" d="M33.093,21.54c0.048,0.002,0.097,0.016,0.145,0.03C33.155,21.536,33.084,21.506,33.093,21.54z"/>
						<path fill="#F05D4C" d="M33.237,21.57l0.123,0.046C33.32,21.598,33.278,21.582,33.237,21.57z"/>
						<path fill="#F05D4C" d="M24.217,12.434c0.001-0.022-0.006-0.048-0.024-0.072C24.176,12.391,24.188,12.413,24.217,12.434z"/>
						<path fill="#F05D4C" d="M35.783,21.636c0.065-0.016,0.752,0.495,0.27-0.029c0.146-0.106,0.381,0.265,0.546,0.367
							c-0.067-0.126,0.13-0.032,0.146-0.106c-0.082-0.052-0.197-0.095-0.299-0.213c0.007-0.108,0.214,0.019,0.322,0.171
							c-0.094-0.227,0.304,0.104,0.128-0.174c-0.53-0.441-0.92-0.739-1.445-0.896c0.307,0.246,0.654,0.519,0.831,0.797l-0.205,0.013
							c-0.16-0.353-0.391-0.439-0.633-0.702l0.509,0.626c0.176,0.356-0.023,0.199-0.253,0.01
							C35.75,21.551,35.79,21.604,35.783,21.636z"/>
						<path fill="#F05D4C" d="M34.444,22.211l0.007,0.013c0.012,0.004,0.024,0.012,0.035,0.013L34.444,22.211z"/>
						<path fill="#F05D4C" d="M12.126,10.793l-0.004,0.09C12.142,10.824,12.141,10.798,12.126,10.793z"/>
						<path fill="#F05D4C" d="M34.634,21.344L34.634,21.344C34.63,21.342,34.629,21.341,34.634,21.344z"/>
						<path fill="#F05D4C" d="M13.301,9.545l0.004,0.016C13.306,9.553,13.302,9.55,13.301,9.545z"/>
						<path fill="#F05D4C" d="M11.177,6.947c-0.008-0.002-0.014-0.006-0.024-0.005C11.135,6.974,11.152,6.966,11.177,6.947z"/>
						<path fill="#F05D4C" d="M13.292,9.535c0.003,0.003,0.007,0.005,0.009,0.011C13.299,9.541,13.297,9.535,13.292,9.535z"/>
						<path fill="#F05D4C" d="M17.333,5.433c0,0,0-0.038-0.011-0.085C17.301,5.347,17.3,5.37,17.333,5.433z"/>
						<path fill="#F05D4C" d="M17.263,4.091c-0.011,0.003-0.02,0.006-0.033,0.01L17.263,4.091z"/>
						<path fill="#F05D4C" d="M26.897,11.312c-0.057-0.059-0.103-0.1-0.144-0.131C26.794,11.226,26.839,11.271,26.897,11.312z"/>
						<path fill="#F05D4C" d="M13.305,9.561c0,0.024-0.004,0.053-0.017,0.097C13.303,9.61,13.306,9.582,13.305,9.561z"/>
						<polygon fill="#F05D4C" points="19.659,6.656 19.611,6.632 19.626,6.659 						"/>
						<path fill="#F05D4C" d="M20.186,7.343c-0.033-0.008-0.055-0.005-0.078-0.005c0.262,0.171,0.611,0.619,0.774,0.55
							c-0.077-0.07-0.39-0.52-0.257-0.523c-0.18-0.122-0.322-0.427-0.423-0.489C20.387,7.188,20.131,7,19.925,6.872
							c-0.119-0.186,0.122-0.065,0.012-0.217l-0.365-0.34l0.292,0.323l-0.205,0.018c0.015,0.008,0.025,0.013,0.042,0.021
							C20.272,7.144,19.581,6.884,20.186,7.343z"/>
						<path fill="#F05D4C" d="M20.107,7.338c-0.04-0.025-0.077-0.045-0.111-0.056C20.047,7.33,20.078,7.337,20.107,7.338z"/>
						<path fill="#F05D4C" d="M22.045,9.644c0.029,0.02,0.063,0.042,0.109,0.074C22.132,9.703,22.089,9.673,22.045,9.644z"/>
						<path fill="#F05D4C" d="M7.46,14.138c0.043,0.022,0.404-0.226,0.31-0.303L7.481,14.09L7.46,14.138z"/>
						<path fill="#F05D4C" d="M28.323,14.924c-0.032-0.036-0.064-0.071-0.1-0.103l-0.033-0.006
							C28.198,14.848,28.281,14.898,28.323,14.924z"/>
						<path fill="#F05D4C" d="M20.759,7.418c-0.069-0.042-0.107-0.054-0.134-0.053C20.667,7.394,20.712,7.416,20.759,7.418z"/>
						<path fill="#F05D4C" d="M28.138,15.147c0.019,0.067,0.045,0.168,0.021,0.209c0.087,0.088,0.194,0.105,0.299,0.179
							C28.344,15.447,28.236,15.321,28.138,15.147z"/>
						<path fill="#F05D4C" d="M28.467,15.541l-0.01-0.005L28.467,15.541z"/>
						<path fill="#F05D4C" d="M7.249,14.29L7.19,14.39l0.016-0.065l-0.227,0.19c-0.019,0.031-0.039,0.064-0.068,0.102
							c0.01-0.017,0.01-0.037,0.007-0.052l-0.074,0.059c-0.068,0.257-0.397,0.747-0.458,0.921c-0.112,0.2-0.275,0.42-0.398,0.538
							c0.11-0.114,0.234-0.285,0.141-0.286c-0.272,0.187-0.531,0.159-0.777,0.688l0.219-0.241l-0.3,0.72
							c-0.256,0.112,0.15-0.359,0.148-0.5c-0.29,0.507-0.873,0.613-0.881,0.965c-0.127-0.067-0.338-0.179-0.583,0.104
							c0.299-0.09-0.078,0.233,0.196,0.186c-0.012,0.057-0.061,0.11-0.115,0.159l-0.015-0.473c0.078,0.087,0.144,0.184,0.198,0.146
							L4.153,17.57c0.313,0.598,0.7,0.492,0.976,0.598c0.594,0.484,0.786,0.791,1.255,1.202c-0.046,0.084-0.098,0.386,0.089,0.55
							c0.171-0.011,0.62,0.335,0.772,0.258c-0.278-0.356-0.357-0.153-0.578-0.311c-0.046-0.275,0.1-0.135-0.051-0.417
							c0.133,0.217,0.865,0.699,0.952,0.999l-0.084-0.05c0.246,0.365,0.032,0.71,0.716,1.027l0.315,0.162
							c-0.023,0.001-0.037,0.014-0.053,0.018c0.394,0.396,0.157,0.424,0.704,0.743c-0.042-0.024-0.032,0.009-0.075-0.017
							c0.192,0.308,0.575,0.419,0.793,0.574c0.025,0.209-0.119,0.069-0.258,0.07c0.413,0.463,1.056,0.755,1.447,0.9l0.235,0.331
							c-0.209-0.122-0.517-0.219-0.52-0.11c0.177,0.132,0.19,0.056,0.397,0.288c-0.098,0.025-0.247-0.006-0.427-0.027
							c0.367,0.545,0.313-0.122,0.458,0.377c0.146,0.14,0.316,0.129,0.404,0.069l0.171,0.35c0.12-0.068,0.452,0.236,0.68,0.425
							c0.065-0.017-0.076-0.266-0.192-0.306c0.087-0.06,0.349,0.12,0.494,0.261c-0.136,0.252,0.988,0.88,0.59,0.952
							c0.72,0.559,1.665,1.415,2.179,1.743c0.09,0.19,0.38,0.471,0.116,0.399c0.529,0.502,0.998,0.555,1.472,1.108
							c0.02,0.066-0.239-0.224-0.284-0.139c0.42,0.245,0.545,0.678,1.13,1.129c-0.093-0.081-0.159-0.064-0.191-0.055
							c0.022-0.043,0.284,0.138,0.452,0.236c0.062,0.09-0.125-0.074-0.107-0.007c0.938,1.073,1.982,1.544,2.999,2.524
							c-0.29-0.28-0.527-0.252-0.581-0.2l0.284,0.273c0.173,0.039,0.389,0.243,0.615,0.364c-0.001,0.046,0.061,0.155-0.059,0.103
							c0.439,0.671,1.115,0.595,1.744,1.322l-1.095-0.528l0.119,0.29l-0.484-0.229c0.15,0.283,0.504,0.295,0.435,0.421
							c-0.073-0.016-0.177-0.131-0.232-0.08c0.175,0.24,0.263,0.181,0.44,0.313c-0.614-0.193-1.434-0.976-1.925-1.346
							c-0.084-0.049,0.106,0.007,0.139-0.002c-0.187-0.164-0.235-0.331-0.496-0.511c-0.223-0.047,0.047,0.166,0.151,0.281
							c-0.087,0.061-0.14,0.002-0.275-0.104c0.068-0.126-0.652-0.686-0.697-0.96c-0.697-0.601-0.14,0.361-0.75-0.3l-0.086-0.299
							c-0.462-0.27-1.026-0.654-1.431-1.084l0.094,0.081c0.106,0.008,0.036-0.116,0.016-0.183c-0.277-0.355-0.7-0.491-0.787-0.792
							c-0.484-0.228-1.185-0.72-1.667-1.056c0.03-0.26,0.672,0.393,0.937,0.464l-0.384-0.363c0.239,0.223,0.388,0.254,0.611,0.303
							c-0.31-0.347-0.546-0.319-0.901-0.583c0.064-0.018,0.045-0.083-0.101-0.224l-0.137,0.061c0.005-0.011-0.004-0.033-0.043-0.083
							l-0.625-0.476c0.08,0.157,0.002,0.25,0.148,0.39c0.003-0.108,0.139-0.002,0.284,0.139c-0.191-0.057,0.091,0.191,0.036,0.242
							c-0.292-0.281-0.666-0.609-0.885-0.766l0.025-0.151c-0.258-0.289-0.603-0.518-0.768-0.725l0.106,0.008
							c-0.31-0.348-0.697-0.602-0.91-0.975c-0.4-0.179-0.861-0.448-1.211-0.569c-0.244-0.005-0.738-0.984-1.235-1.136
							c-0.011-0.034,0.317,0.13,0.476,0.194c-0.208-0.231-0.527-0.253-0.479-0.445c0.465,0.521,0.068-0.126,0.329,0.054
							c-0.238-0.222-0.509-0.436-0.667-0.5c0.383,0.361-0.301,0.045,0.138,0.357c-0.4-0.179-0.85-0.523-1.168-0.903
							c0.055-0.052,0.035-0.118-0.077-0.268l-0.182-0.022c-0.154-0.173,0.412,0.213,0.102-0.135
							c-0.474-0.193-0.971-1.064-1.359-0.959c-0.17-0.349,0.598,0.376,0.313-0.121c0.317,0.129,0.539,0.535,0.733,0.482
							c-0.261-0.18,0.017-0.184-0.129-0.323l-0.326-0.163l0.051,0.058c-0.536-0.285-1.156-0.979-1.717-1.473
							c-0.578-0.31-1.066-0.429-1.604-0.965c0.232,0.081-0.391-0.504,0.084-0.31c-0.193-0.307-0.518-0.468-0.575-0.419
							c0.207,0.231,0.063,0.092,0.226,0.298c-0.19-0.055-0.481-0.336-0.561-0.494c0.051,0.058,0.042,0.025,0.074,0.016
							c-0.178-0.235-0.194-0.135-0.301-0.159l-0.322-0.074l0.265-1.686c0.004-0.027,0.019-0.062,0.052-0.109
							c0.15,0.024,0.425-0.408,0.639-0.542l0.108-0.382c-0.045,0.224,0.262-0.218,0.38-0.185c0.111-0.243,0.147-0.499,0.434-0.76
							c-0.063,0.159,0.305-0.196,0.398-0.119c0.534-0.406,0.503-1.026,1.055-1.366c0.008,0.033-0.02,0.18,0.127,0.066
							c0.073-0.128,0.255-0.303,0.35-0.425l0,0.006l0.003-0.008c0.046-0.06,0.067-0.104,0.048-0.126
							c0.093-0.274,0.097-0.456,0.376-0.904c-0.127-0.066-0.386,0.292-0.483,0.461l-0.011,0.213
							c-0.259-0.027-0.292,0.368-0.425,0.407c0.033-0.395,0.687-1.011,0.943-1.507C6.5,11.627,5.993,12.13,5.586,12.602l0.248-0.144
							l-0.219,0.24l0.322-0.131c-0.229,0.208-0.382,0.43-0.578,0.628c0.22-0.241,0.446-0.204,0.298-0.089
							c-0.347,0.174-0.193,0.338-0.388,0.536c0.114-0.104,0.253-0.251,0.223-0.102c-0.495,0.289-0.516,0.471-0.985,0.716
							c0.211,0.111-0.407,0.472-0.32,0.655l0.172-0.157l-0.232,0.455C3.68,15.413,4.258,14.785,3.691,15.2
							c-0.449,0.45-0.261,0.603-0.588,0.981c0.012-0.213,0.196-0.584,0.473-0.877l-0.214,0.134c0.03-0.148,0.422-0.546,0.618-0.745
							c-0.198,0.444,0.182-0.125,0.414-0.195c-0.07-0.118-0.256,0.113-0.097-0.215c-0.22,0.241-0.245,0.283-0.564,0.554
							c0.656-0.618,0.214-0.904,0.829-1.404c-0.202,0.306,0.226,0.038,0.302,0.049c0.104-0.136,0.316-0.41,0.388-0.537l-0.227-0.036
							c0.25-0.391,0.654-0.232,0.869-0.752c-0.037-0.128-0.344,0.313-0.296,0.229c0.403-0.61,0.806-0.592,1.347-0.964
							c-0.018-0.065-0.111-0.142-0.033-0.375c0.036,0.129,0.192,0.048,0.082,0.29c0.182-0.124,0.292-0.367,0.388-0.536
							c-0.353,0.281,0.004-0.246,0.009-0.353c0.171-0.156,0.036,0.129-0.036,0.256c0.148-0.115,0.422-0.162,0.368-0.355
							c0.093,0.076-0.12,0.596-0.331,0.869l0.172-0.157c-0.063,0.159-0.097,0.169-0.267,0.325c0.222-0.102,0.282-0.015,0.31,0.082
							c-0.034,0.01-0.01-0.031-0.042-0.022c-0.148,0.115-0.221,0.241-0.145,0.254c0.005,0.232,0.249-0.12,0.394-0.156l0.168-0.23
							l0.273-1.059c0.236-0.343,0.453-0.394,0.721-0.566L8.932,9.533c0.254-0.252,0.516-0.47,0.489-0.182
							c-0.042-0.022-0.066,0.02-0.125,0.072C9.304,9.443,9.302,9.466,9.294,9.49L9.3,9.519c0.225-0.311,0.365-0.504,0.381-0.526
							C9.386,9.607,9.843,9.189,9.95,9.437L10.338,8.9c-0.328,0.238-0.093-0.077-0.021-0.204c0.128,0.066,0.359-0.388,0.53-0.544
							l0.009,0.032c0.181-0.124,0.425-0.408,0.579-0.628c-0.042-0.023,0.024-0.428,0.035-0.641
							c-0.349,0.299-0.205,0.063-0.293,0.031c0.038-0.029,0.097-0.09,0.09-0.109c0.016-0.075-0.099,0.029-0.141,0.007
							c-0.283,0.4-0.609,0.778-0.602,1.055c0.166-0.049,0.111-0.243,0.268-0.325c-0.068,0.265-0.298,0.475-0.575,0.768L10.042,8.36
							L9.812,8.7c0.07-0.166-0.088-0.174,0.184-0.501C9.879,8.164,9.728,8.524,9.523,8.69l0.022,0.203
							c-0.028-0.096-0.42,0.301-0.236-0.069l0.346-0.558l-0.199,0.06l0.349-0.42L9.776,8.054c0.518-0.715,0.401,0.02,0.867-0.75
							c0.051-0.33,0.238-0.561,0.64-0.926c-0.236,0.315,0.069,0.119,0.048,0.3c0.329-0.239,0.307-0.442,0.395-0.644
							c0.142-0.007,0.25-0.005-0.003,0.246c0.121,0.173,0.292-0.368,0.471-0.247c0.799-0.87,0.14-1.161,1.274-1.991l0.027,0.096
							c0.518-0.715,0.938-1.016,1.44-1.656l0.377-0.203l2.398-1.288l0.514,1.223l0.098,0.232c-0.05-0.031-0.141-0.074-0.228-0.102
							l-2.428-0.767l-0.229,0.816c-0.039,0.136-0.042,0.264,0.078,0.228C15.141,2.7,14.973,2.995,14.659,3.16
							c0.019,0.064,0.142-0.008,0.208-0.027c-0.139,0.146-0.281,0.153-0.434,0.375c0.042,0.021,0.28-0.155,0.151,0.024l-0.347,0.174
							c-0.283,0.4,0.076,0.396-0.358,0.772c-0.017-0.161,0.002-0.438,0.131-0.621c-0.197,0.173,0.183-0.304-0.033-0.179
							c-0.124,0.397-0.352,0.434-0.609,0.876c0.021-0.06,0.006-0.095,0.082-0.193l-0.549,0.479c0.199-0.06-0.322,0.517-0.162,0.574
							c0.573-0.522,0.349-0.42,1.013-1.004c-0.143,0.206-0.246,0.55-0.241,0.76c-0.009,0.001-0.021,0.007-0.042,0.025
							c0.021,0.204,0.145,0.131,0.341,0.317c0.133-0.425,0.431-0.514,0.673-0.937c-0.048-0.166-0.326,0.073-0.458,0.271l0.212-0.373
							l-0.006,0.106l0.757-0.743c-0.131,0.153-0.114,0.261-0.138,0.382c0.097-0.097,0.218-0.169,0.348-0.246
							c-0.125-0.073-0.185-0.155-0.092-0.251c0.424-0.414,0.744-0.613,1.006-0.702l1.183-0.402l0.146,0.378
							c0.018,0.046,0.028,0.085,0.037,0.124c0.021,0.016,0.044,0.034,0.063,0.049c0.022-0.183,0.526,0.159,0.781,0.204
							c-0.114,0.098,0.185,0.312,0.27,0.505c0.195-0.048,0.264-0.314,0.194-0.582c-0.437-0.215-0.295-0.071-0.606-0.067
							l-0.583-0.388l-1.372-0.914L15.94,2.862l-0.018,0.057l0.004-0.069l0.008-0.142l1.683,0.114l0.147,0.01
							c-0.026-0.032-0.048-0.06-0.071-0.087l-0.8-0.986l-1.043,1.021c-0.233,0.228-0.331,0.523-0.432,0.397
							c0.037-0.181,0.221-0.337,0.313-0.507L16.259,1.7l1.55,0.931c0.041,0.024,0.082,0.043,0.125,0.053l-0.065-0.113l-0.54-0.932
							l-1.655,0.975l-0.106,0.063c0.018-0.047,0.035-0.084,0.051-0.114l0.601-1.088l1.7,1.045c0.241,0.148-0.025,0.251,0.38,0.502
							C18.271,2.78,18.34,3.048,18.57,3.135c-0.052-0.201-0.68-0.619-0.387-0.69c0.271,0.112,0.432,0.858,0.866,0.931l-0.033,0.008
							c0.351,0.398,0.586,0.425,0.792,0.5c0.101,0.218,0.403,0.355,0.583,0.521l-0.057,0.049l0.266,0.221
							c-0.212-0.02-0.283-0.288-0.506-0.483L20.02,4.317c-0.124-0.358-0.462-0.341-0.734-0.443c0.357,0.187,0.745,0.792,1.001,0.664
							l0.069,0.268l0.116,0.044c0.051,0.2-0.194,0.189-0.459-0.032c-0.017-0.067-0.026-0.101,0.007-0.109
							c-0.157-0.069-0.337-0.096-0.587-0.392l0.198,0.094c-0.333-0.348-0.681-0.619-0.894-0.639c0.45,0.532,0.924,1.024,1.39,1.48
							c0.358-0.086,0.645-0.049,0.92-0.187c0.348,0.271,0.796,0.663,0.989,1.008L21.971,6.09c0.109,0.152,0.242,0.262,0.366,0.339
							c0.084,0.193-0.204,0.014-0.137,0.14l0.512,0.374c-0.12,0.066-0.494-0.307-0.678-0.477c0.041,0.026,0.125,0.078,0.115,0.043
							c-0.167-0.245-0.71-0.469-0.665-0.694c-0.124-0.077,0.304,0.104-0.029-0.243c-0.177-0.279-0.372-0.231-0.437-0.214
							c-0.057,0.049,0.285,0.43,0.096,0.368c0.184,0.17,0.322,0.173,0.498,0.45c-0.182-0.169-0.527-0.3-0.539-0.476
							c-0.446-0.248-0.645,0.05-0.495,0.228c0.039-0.117,0.729,0.537,0.375-0.02c0.305,0.104,0.679,0.477,1.009,0.682l-0.032,0.008
							l0.357,0.307c-0.074-0.019-0.199-0.096-0.255-0.046l0.602,0.318c-0.354-0.164,0.095,0.227,0.17,0.387
							c0.131-0.032,0.369,0.088,0.244-0.13c-0.136-0.252-0.157-0.069-0.34-0.239l0.378,0.122l0.009,0.034l0.255,0.046
							c0.332,0.347-0.392,0.094,0.146,0.427l0.086-0.199c0.483,0.525,0.971,1.333,1.393,1.623c-0.18-0.017-0.354,0.07-0.295,0.282
							c-0.13-0.178-0.443-0.481-0.677-0.688c-0.018-0.067,0.443,0.107,0.652,0.377c0.117-0.35-0.743-0.461-0.534-0.726
							c-0.527-0.692-0.683-0.227-1.063-0.883c-0.112,0.099-0.198-0.095-0.318-0.03c-0.02,0.326,0.698,0.686,0.974,1.083
							c-0.041-0.025-0.123-0.076-0.156-0.068c0.209,0.271,0.332,0.347,0.539,0.475l-0.009-0.034c0.396,0.19,0.103,0.26,0.229,0.479
							c0.083,0.051,0.292,0.322,0.331,0.206l0.212,0.413l0.103-0.133c0.184,0.169,0.144,0.286,0.375,0.374l0.113-0.099L25.05,9.8
							c0.256,0.187,0.162-0.04,0.429,0.182c-0.388-0.157,0.134,0.251,0.063,0.376l0.238,0.12l-0.073-0.018
							c0.086,0.195,0.206,0.128,0.356,0.306c-0.135-0.252-0.188-0.454-0.509-0.625c0.239,0.121,0.661,0.411,0.752,0.495
							c0.232,0.144,0.284,0.356,0.448,0.544c-0.381-0.296-0.201,0.439-0.804-0.315c0.032-0.008,0.083,0.052,0.092,0.085
							c0.044-0.226-0.415-0.398-0.614-0.494c-0.039,0.115-0.213-0.02,0.006,0.284c-0.036-0.135,0.393,0.047,0.577,0.359l-0.21,0.122
							l0.342,0.381l-0.042-0.026c0.028,0.243,0.406,0.365,0.592,0.677c0.239,0.121,0.881,0.856,0.759,0.386
							c0.119,0.328,0.447,0.391,0.714,0.612l-0.236-0.372c0.479,0.24,0.298,0.213,0.774,0.312c-0.017,0.074,0.011,0.176-0.096,0.166
							c0.474,0.491,1.115,1.227,1.535,1.374c0.332,0.348,0.19,0.597,0.744,0.997c0.123,0.077,0.077-0.234,0.345,0.13
							c0.009,0.034-0.427-0.181-0.063,0.158c0.379,0.123,0.519,0.659,0.955,0.874c0.126,0.218,0.442,0.499,0.278,0.538
							c-0.249-0.295-0.656-0.66-0.764-0.67c0.099-0.024-0.135-0.253,0.113-0.1c-0.336-0.488-0.33-0.205-0.647-0.626
							c-0.066,0.015,0.078,0.302,0.193,0.345c-0.137,0.14-0.796-0.662-0.633-0.168c0.384,0.407,0.789,0.236,0.985,0.724
							c-0.221-0.053-0.364-0.339-0.684-0.369l0.226,0.337l0.304,0.104l-0.032,0.008c0.37,0.623,0.602,0.317,1.115,0.692
							c-0.161-0.353,0.3-0.18,0.164-0.433c0.315,0.28,0.515,0.517,0.379,0.657c-0.669-0.443-0.178,0.115-0.829-0.262
							c0.034,0.134-0.325,0.08-0.034,0.401c0.444,0.247,0.012-0.218,0.402,0.08c0.008,0.033,0.017,0.066-0.017,0.075
							c0.23,0.087,0.159,0.211,0.431,0.323l-0.073-0.018c0.152,0.32,0.354,0.163,0.465,0.458c0.021-0.184,0.221,0.052,0.411,0.114
							c-0.167-0.245-0.132-0.503-0.547-0.902c-0.13,0.032-0.146,0.106-0.352-0.021l0.274,0.254c-0.07-0.043-0.135-0.066-0.203-0.102
							l-0.212-0.296c0.38,0.265,0.318,0.03,0.54,0.083c0.259,0.33,0.266,0.221,0.424,0.432c-0.138,0.101,0.365,0.772,0.628,1.187
							c-0.054-0.056-0.116-0.122-0.153-0.161c-0.321-0.172,0.07,0.269,0.047,0.311l0.239,0.12c-0.042-0.026-0.116-0.045-0.057,0.049
							c0.266,0.221,0.369,0.089,0.635,0.31c-0.048,0.083-0.353-0.022-0.236,0.163c-0.005,0.109,0.009,0.427,0.389,0.691
							c0.049-0.002,0.146,0.067,0.254,0.153c-0.017-0.01-0.036-0.024-0.048-0.025l0.144,0.285c-0.295-0.07-0.316-0.422-0.612-0.492
							l-0.122,0.09c-0.143-0.143-0.383-0.29-0.527-0.324c0.2,0.235,0.273,0.254,0.539,0.475c-0.033,0.102-0.254-0.02-0.286-0.037
							l0.097-0.024c-0.202-0.378-0.536-0.332-0.877-0.714c-0.051-0.059-0.01-0.032,0.022-0.041
							c-0.396-0.189-0.541-0.617-0.961-0.766l0.148,0.036c-0.231-0.135-0.721-0.419-1.201-0.699l-0.045,0.039
							c0.018,0.067-0.123-0.077-0.183-0.169l0.001,0c-0.243-0.145-0.472-0.282-0.652-0.389c0.022,0.073,0.062,0.155,0.126,0.232
							c0.107,0.011,0.415,0.398,0.479,0.24c0.094,0.228,0.447,0.391,0.524,0.551c-0.145-0.286,0.253,0.045,0.352,0.021
							c0.003,0.143,0.323,0.313,0.202,0.379c0.018,0.067-0.044-0.168-0.191-0.203c-0.313-0.138,0.336,0.489-0.028,0.291
							c0.423,0.291,0.864,0.79,1.318,1.071l-0.168-0.244c0.15,0.178,0.558,0.543,0.541,0.617c-0.132-0.11-0.272-0.253-0.447-0.39
							c-0.113,0.098,0.375,0.372,0.326,0.455l0.627,0.276l-0.192-0.203c0.189,0.061,0.524,0.551,0.816,0.872
							c-0.32-0.031-0.466-0.459-0.847-0.723c-0.288-0.18,0.006,0.284-0.251,0.097c0.023,0.092,0.173,0.232,0.28,0.268l0.061,0.113
							c-0.329-0.066-0.743-0.539-1.151-0.721c0.04,0.012,0.078,0.02,0.102,0.013c-0.176-0.278-0.409-0.507-0.665-0.693
							c0.075,0.158,0.149,0.177,0.232,0.229c-0.024,0.041-0.247-0.154-0.363-0.197c0.168,0.244-0.039,0.116,0.07,0.268
							c-0.166-0.103-0.266-0.221-0.415-0.397c-0.035-0.135,0.139,0.001,0.187-0.081c-0.208-0.129-0.129-0.362-0.45-0.533
							c0.3,0.355-0.229,0.055-0.386-0.014l0.051,0.059c-0.18-0.027-0.271-0.112-0.273-0.254c0.166,0.103,0.273,0.254,0.313,0.139
							c-0.093-0.085-0.184-0.17-0.308-0.247l0.147,0.035l-0.457-0.424c-0.138-0.002-0.352-0.021-0.513,0.019
							c-0.044-0.167-0.243-0.263-0.367-0.339l0.075,0.018c-0.136-0.253-0.617-0.636-0.714-0.612
							c-0.085-0.193,1.366,0.595,0.329-0.33c-0.373-0.373-0.426-0.039-0.705-0.185c0,0,0.031-0.007,0.023-0.041
							c-0.149-0.178-0.239-0.12-0.404-0.223c0.068,0.127,0.209,0.27,0.282,0.288c-0.13,0.032-0.332-0.347-0.521-0.408
							c0.287,0.038-0.268-0.363-0.078-0.301c-0.244-0.404-0.689-0.653-0.952-0.732c-0.063-0.376-0.407-0.365-0.692-0.795
							c0.051,0.059,0.174,0.136,0.233,0.229c0.303,0.104-0.318-0.422,0.087-0.2c-0.083-0.051-0.058,0.048,0.026,0.101
							c0.132,0.109,0.288,0.179,0.303,0.104l-0.203-0.379l0.126,0.078l-0.321-0.564c-0.031,0.008-0.015,0.074-0.006,0.108
							c-0.46-0.566-1.114-1.085-1.547-1.55c-0.364,0.196-1.226-0.986-1.761-1.177c0.178,0.017,0.373-0.071,0.371-0.19
							c0.092,0.069,0.371,0.122,0.531,0.329c-0.016,0.075,0.16,0.352-0.037,0.258c0.539,0.475,0.054-0.191,0.308-0.146
							c-0.589-0.535-1.083-0.7-1.504-0.989l0.024-0.042l-0.33-0.206c0.2,0.237,0.03,0.386-0.196,0.048l0.042,0.026
							c-0.094-0.228-0.508-0.484-0.749-0.746l-0.262-0.079c-0.242-0.262-0.082-0.444-0.062-0.628
							c-0.383-0.407-0.751-0.495-1.114-0.692c-0.052-0.201-0.626-0.81-0.222-0.587c-0.422-0.291-0.749,0.181-1.139-0.651l0.23,0.086
							c-0.599-0.569-1.575-1.258-1.768-1.604c0.474-0.042-0.466-0.992-0.317-1.349c-0.029,0.087-0.268-0.113-0.331-0.114
							c-0.018-0.078-0.069-0.187-0.207-0.219c0.177,0.278-0.423,0.103,0.115,0.436c-0.394-0.047-0.813-0.195-1.288-0.686
							l0.113-0.099l0.35,0.414c0.04-0.117,0.23,0.086,0.346,0.13c-0.65-0.77,0.34-0.154-0.399-0.866
							c-0.129-0.002-0.074,0.013-0.248-0.123c0.259-0.005,0.798-0.015,1.394-0.026c-0.004,0.006-0.012,0.019-0.022,0.034
							c0.01-0.011,0.017-0.022,0.023-0.033c-0.493,0.009-0.98,0.018-1.396,0.026c0.06,0.036,0.106,0.009,0.065-0.065
							c0.37-0.007,0.811-0.015,1.262-0.023c-0.02,0.011-0.044,0.031-0.072,0.061l-0.045,0.224c-0.296,0.064-0.044-0.223,0.025-0.37
							c-0.375,0.007-0.747,0.014-1.082,0.02c0.064,0.033,0.102,0.03,0.074-0.073c0.296-0.006,0.612-0.012,0.932-0.018h0v0
							c-0.299,0.006-0.597,0.011-0.931,0.018c0.363,0.197,0.893,0.638,0.937,0.413c-0.334-0.415-0.566-0.258-0.868-0.482
							c0.242-0.004,0.516-0.009,0.791-0.015c-0.047,0.069-0.114,0.142-0.209,0.222l-0.108-0.002
							c-0.122,0.212-0.052,0.33-0.082,0.479C16.75,4.7,16.684,4.721,16.57,4.824c-0.133,0.425-0.287,0.646-0.386,1.061
							c0.557-0.831,0.682-0.52,1.272-1.361c-0.063,0.159-0.518,0.716-0.397,0.888l-0.103-0.109
							c-0.168,0.296-0.337,0.591-0.657,0.862l0.111-0.243c-0.299,0.475-0.79,0.517-0.904,1.005c0.114-0.104,0.196-0.198,0.244-0.283
							c-0.144,0.254-0.397,0.505-0.626,0.713l-0.253,0.636c-0.051-0.054-0.329,0.239-0.283,0.015c-0.396,0.259-0.38,0.57-0.534,0.79
							c-0.437,0.237,0.226-0.347,0.106-0.521c-0.492,0.428-0.914,0.974-1.064,1.334c0.112-0.077,0.175-0.106,0.197-0.076
							c-0.048-0.018-0.217,0.182-0.317,0.288l0.003,0.14c-0.213,0.133-0.232,0.069-0.145-0.132
							c-0.171,0.157-0.223,0.486-0.488,0.566c0.184-0.37,0.602-0.67,0.689-0.871c-0.493,0.672-0.784,0.409-1.407,1.262
							c-0.043-0.022,0.012-0.214-0.127-0.067c-0.292,0.368,0.063,0.226,0.043,0.407c0.201-0.305,0.359-0.388,0.591-0.458
							l-0.008,0.124c-0.04-0.017-0.195,0.147-0.27,0.169l0.078,0.152c-0.112-0.141-0.458,0.033-0.603,0.287
							c0.29-0.123,0.232-0.071,0.434,0.01c-0.132,0.424-0.446,0.203-0.602,0.669c-0.019-0.063,0.216-0.379-0.046-0.161
							c-0.196,0.2-0.069,0.267-0.165,0.435c0.036-0.256-0.082-0.291-0.055-0.579c0.325-0.377,0.138-0.146,0.421-0.546l-0.372,0.216
							c0.269-0.325,0.084-0.34,0.066-0.404c-0.601,0.425-0.205,0.551-0.548,0.864c-0.078,0.233,0.311-0.304,0.151,0.025
							c-0.311,0.303,0.004,0.138-0.28,0.538l0.005-0.105c-0.166,0.049-0.186,0.23-0.292,0.366c-0.095,0.169,0.523,0.194,0.001,0.771
							c-0.004-0.056-0.014-0.084-0.027-0.096l-0.396-1.403c-0.534,0.58-1.178,1.222-1.86,1.833
							c-0.324-0.008,0.296-0.614,0.178-0.647l0.32-0.271c0.06,0.087-0.57,0.661-0.181,0.509c0.446-0.589,0.759-0.753,1.078-1.409
							c-0.326-0.007-0.593,0.703-1.04,0.907c0.141-0.129,0.231-0.265,0.312-0.403c-0.313,0.29-0.647,0.6-1.005,0.932l-0.031,0.12
							c0.242-0.221,0.412-0.373,0.438-0.388c-0.311,0.303-0.46,0.663-0.349,0.805l0.057-0.052L7.481,14.09L7.249,14.29z
							 M20.816,33.498c-0.03-0.006-0.059-0.006-0.087,0.002C20.758,33.492,20.757,33.468,20.816,33.498z M12.583,7.667
							c-0.414,0.398-0.841,0.81-1.238,1.191c0.94-0.494,1.615-0.829,0.472,0.392l-0.056,0.098c0.181-0.131,0.441-0.403,0.664-0.681
							c0.104-0.295,0.397-1.286,0.36-1.306c-0.141,0.007-0.163,0.189-0.311,0.304L12.583,7.667z M13.294,7.767
							c0.251-0.213,0.144-0.211,0.126-0.296l-0.214,0.27C13.249,7.721,13.282,7.722,13.294,7.767z M13.356,7.437
							c-0.026,0.025-0.05,0.046-0.068,0.052L13.356,7.437z M8.958,12.043c0.008-0.012,0.012-0.017,0.02-0.028l-0.172,0.162
							C8.835,12.161,8.882,12.124,8.958,12.043z M9.537,11.673l-0.042-0.145L9.333,11.68C9.393,11.702,9.448,11.717,9.537,11.673z
							 M11.3,10.396c-0.022-0.204,0.28-0.539,0.168-0.681c-0.014-0.052-0.091,0.006-0.174,0.074
							c-0.084,0.083-0.174,0.173-0.27,0.269c0.016,0.021,0.015,0.057,0.002,0.105c0.106-0.082,0.2-0.117,0.243-0.003
							c-0.407,0.088-0.084,0.34-0.38,0.569C10.902,10.9,11.261,10.512,11.3,10.396z M30.64,17.647
							c-0.003,0.018-0.006,0.072-0.006,0.143l-0.246-0.122c-0.301-0.355-0.382-0.799-0.833-0.938
							c-0.099-0.177-0.09-0.334-0.092-0.473c0.062,0.073,0.119,0.143,0.161,0.206C30.68,17.062,29.814,17.135,30.64,17.647z
							 M27.092,13.654c0.042,0.026,0.074,0.018,0.074,0.018c-0.964-0.501-1.635-1.037-2.021-1.441
							c-0.016,0.168,0.269,0.594,0.398,0.8l-0.254-0.044l-0.011-0.175l-0.354-0.164c0.002,0.143,0.226,0.337,0.312,0.531
							c0.032-0.008,0.602,0.317,0.791,0.378l-0.286-0.43c0.067,0.126,0.566,0.576,0.781,0.738c0.056-0.049-0.188-0.454-0.342-0.381
							c0.039-0.117,0.413,0.256,0.261-0.063c0.362,0.197,0.738,0.712,0.907,0.957l-0.096,0.166c0.176,0.277,0.311-0.004,0.505,0.34
							c-0.357-0.305-0.088,0.2-0.361-0.054c0.035,0.133-0.137,0.14,0.138,0.394c0.393,0.047,0.17,0.387,0.53,0.442
							c0.085,0.193-0.254-0.045-0.004,0.251c0.404,0.222,0.451,0.139,0.597,0.033c-0.258-0.329-0.492-0.165-0.702-0.436l0.692,0.26
							c-0.057-0.118-0.119-0.186-0.182-0.232c0.107,0.083,0.221,0.133,0.335,0.158c0.066,0.018,0.124,0.033,0.174,0.046
							c-0.269-0.271-0.506-0.514-0.494-0.61l0.098-0.024c-0.039-0.152-0.239-0.264-0.355-0.291
							c-0.249-0.236-0.575-0.392-0.549-0.524l0.147,0.036C27.508,14.053,27.467,14.028,27.092,13.654z M17.484,3.769
							c-0.044,0.404-0.043,0.8,0.837,1.602L18.239,5.32c0.283,0.564,1.012,0.64,1.372,1.312c-0.334-0.166-0.313-0.16-0.783-0.243
							l0.332,0.205c-0.196,0.047,0.134,0.252,0.326,0.455L19.167,7.02c-0.077-0.16-0.368-0.481-0.392-0.439
							c0.083,0.051-0.222-0.587-0.52-0.802c-0.072,0.125,0.509,0.626,0.107,0.545c0.281,0.146,0.209,0.27,0.466,0.458
							c-0.281-0.146-0.187,0.081-0.417-0.006l0.398,0.332c-0.023,0.042-0.604-0.459-0.426-0.039c0.198,0.095,0.524,0.55,0.636,0.451
							l-0.023,0.042c0.25,0.296,0.27-0.029,0.546,0.367c0.057-0.049,0.03-0.15-0.102-0.26c-0.125-0.078-0.214-0.021-0.438-0.215
							c-0.011-0.177,0.242,0.263,0.237-0.022c-0.002-0.142-0.613-0.493-0.303-0.497l0.25,0.296c0.113-0.099,0.304,0.104,0.384,0.014
							c0.206,0.128,0.244,0.404,0.507,0.483c0.139,0.002,0.143-0.249,0.37,0.089c0.063,0.377,0.743,0.996,1.01,1.217l0.28,0.146
							c0.047-0.083-0.416-0.398-0.195-0.346l0.357,0.306l-0.065,0.016c0.101,0.119,0.257,0.188,0.38,0.265
							c-0.18-0.027-0.388-0.298-0.451-0.14c0.135,0.178,0.117,0.242,0.282,0.365c-0.039-0.023-0.077-0.04-0.089-0.021
							c0.269,0.363,0.429,0.182,0.544,0.225c0.46,0.174-0.188-0.453-0.033-0.526l0.986,0.866c-0.114-0.043-0.229-0.087-0.245-0.012
							c0.177,0.278-0.08,0.091,0.244,0.404c0.128-0.173,0.495,0.308,0.808,0.446c0.044,0.167,0.054,0.201-0.179-0.027
							c-0.071,0.125,0.275,0.396,0.376,0.515c0.088,0.039,0.211,0.134,0.301,0.181c-0.043-0.141,0.058-0.163,0.299-0.005
							l0.032-0.009c-0.3-0.354-0.702-0.969-1.007-1.074l0.106,0.01c-0.294-0.463-1-0.648-0.989-1.008
							c0.089-0.057-0.06-0.093,0.053-0.192l-0.361-0.196l0.105,0.01l-0.498-0.451l0.032-0.007c-0.317-0.125-0.573-0.224-0.78-0.306
							c-0.047,0.046-0.046,0.075-0.155,0.033c-0.099-0.052-0.159-0.106-0.204-0.163H21.39l0.001,0
							c-0.104-0.13-0.114-0.273-0.23-0.444l0.452,0.43c0.114-0.042,0.158-0.161-0.003-0.432c0.091,0.085,0.188,0.062,0.089-0.057
							c-0.033,0.008-0.34-0.239-0.296-0.071c-0.447-0.39-0.92-1.274-1.705-1.761c0.546,0.367-0.261-0.471,0.278,0.004
							c-0.229-0.479-0.429-0.182-0.77-0.562c0.014-0.076,0.19,0.203,0.362,0.196c-0.55-0.65-1.215-0.81-1.758-1.429l0.073-0.123
							C17.761,3.99,17.625,3.881,17.484,3.769z M15.903,4.259c-0.096,0.126-0.193,0.254-0.292,0.385l0.035-0.032l-0.241,0.423
							c0.238-0.177,0.48-0.214,0.254,0.133c-0.019-0.064-0.151-0.024-0.079-0.151c-0.247,0.144-0.714,0.529-0.455,0.557
							c0.213-0.52,0.278,0.091,0.452-0.311c-0.051,0.255-0.246,0.374-0.343,0.569c0.065-0.237-0.224-0.138-0.486,0.064
							c-0.073,0.127-0.358,0.388-0.479,0.599c0.151,0.025,0.064,0.226,0.35-0.035c-0.072,0.126-0.202,0.305-0.417,0.44
							c0.05-0.086,0.154-0.222,0.112-0.244c-0.194,0.036-0.316,0.175-0.422,0.216L13.74,7.066c0.024-0.01,0.049-0.016,0.073-0.014
							l-0.102,0.275c0.201-0.306,0.156-0.082,0.208-0.028c-0.103-0.109-0.172,0.157-0.253,0.251l0.299-0.089
							C13.935,7.61,13.569,7.72,13.73,7.776c0.434-0.375,0.563-0.554,0.879-0.963l-0.232,0.07c0.332-0.485,0.398-0.12,0.837-0.602
							c0.103-0.275,0.662-0.724,0.507-0.887C15.716,5.5,16.144,5.232,16.222,5c0.018-0.321,0.506-0.887,0.284-0.785
							c-0.139,0.146-0.242,0.422-0.45,0.45l0.235-0.316l-0.257,0.112C16.154,4.391,16.065,4.326,15.903,4.259z M9.015,9.827
							L9.003,9.836l0.012-0.012L9.015,9.827z"/>
						<path fill="#F05D4C" d="M35.068,21.417c0.116,0.044,0.307,0.247,0.346,0.131C35.334,21.638,35.05,21.209,35.068,21.417z"/>
						<path fill="#F05D4C" d="M35.221,21.736c0.033-0.007,0.057-0.049,0.148,0.036l-0.265-0.221L35.221,21.736z"/>
						<path fill="#F05D4C" d="M34.884,22.566c0.188,0.063,0.304,0.105,0.495,0.309c-0.134,0.282-0.38-0.264-0.664-0.159
							c0.342,0.38,0.635,0.31,0.949,0.589C35.604,23.07,35.053,22.42,34.884,22.566z"/>
						<polygon fill="#F05D4C" points="34.46,22.67 34.708,22.823 34.7,22.791 34.452,22.638 						"/>
						<path fill="#F05D4C" d="M31.923,16.512c0.047-0.083-0.143-0.144-0.226-0.195C31.747,16.375,31.807,16.469,31.923,16.512z"/>
						<path fill="#F05D4C" d="M14.871,30.494l1.633,1.424C16.035,31.509,15.607,31.136,14.871,30.494z"/>
						<path fill="#F05D4C" d="M26.416,11.857c0.473,0.35,0.768,0.42,1.215,0.811c-0.42-0.682-0.933-0.523-1.261-1.12L26.416,11.857z
							"/>
						<path fill="#F05D4C" d="M27.08,11.482c-0.055,0.191-0.461-0.173-0.491-0.024c0.307,0.247,0.246,0.012,0.487,0.274
							L27.08,11.482z"/>
						<polygon fill="#F05D4C" points="26.916,15.373 26.728,15.312 26.852,15.389 						"/>
						<polygon fill="#F05D4C" points="25.098,9.717 25.171,9.735 25.003,9.49 						"/>
						<path fill="#F05D4C" d="M25.244,9.752l-0.073-0.017L25.244,9.752z"/>
						<polygon fill="#F05D4C" points="26.493,15.476 26.652,15.687 26.8,15.723 						"/>
						<path fill="#F05D4C" d="M25.516,13.182l0.205,0.126C25.68,13.283,25.504,13.006,25.516,13.182z"/>
						<polygon fill="#F05D4C" points="23.891,8.406 23.642,8.252 23.65,8.285 23.898,8.438 						"/>
						<path fill="#F05D4C" d="M23.88,12.223c0.021,0.208-0.356-0.306-0.204,0.014C23.9,12.432,23.864,12.297,23.88,12.223z"/>
						<path fill="#F05D4C" d="M22.086,9.15c-0.027-0.027-0.06-0.053-0.098-0.07C22.024,9.106,22.057,9.129,22.086,9.15z"/>
						<path fill="#F05D4C" d="M22.086,9.15c0.088,0.087,0.14,0.211,0.227,0.244C22.246,9.243,22.19,9.219,22.086,9.15z"/>
						<path fill="#F05D4C" d="M21.058,8.166l0.073,0.086c-0.128-0.035-0.083-0.003,0.027,0.032c0.088,0.082,0.112,0.047,0.143,0.037
							c0.028,0.005,0.058,0.01,0.089,0.015c-0.037-0.013-0.072-0.024-0.104-0.035C21.156,8.169,21.072,8.094,21.058,8.166z"/>
						<path fill="#F05D4C" d="M18.908,2.839c0.259,0.33,0.318,0.422,0.229,0.48c0.256,0.302,0.338,0.133,0.537,0.272
							C19.343,3.29,19.313,3.191,18.908,2.839z"/>
						<path fill="#F05D4C" d="M19.674,3.591c0.037,0.033,0.072,0.065,0.116,0.104C19.746,3.647,19.708,3.616,19.674,3.591z"/>
						<polygon fill="#F05D4C" points="21.434,10.142 21.139,10.071 21.222,10.123 						"/>
						<path fill="#F05D4C" d="M18.509,2.366c0.05,0.059,0.141,0.144,0.158,0.211C18.757,2.52,18.459,2.307,18.509,2.366z"/>
						<path fill="#F05D4C" d="M18.208,4.935c-0.015,0.075,0.2,0.236,0.26,0.33C18.367,5.146,18.413,4.921,18.208,4.935z"/>
						<path fill="#F05D4C" d="M14.943,3.144C15,3.092,15.132,3.053,15.16,3.149C15.199,3.032,15.168,2.797,14.943,3.144z"/>
						<polygon fill="#F05D4C" points="17.684,4.385 17.701,4.452 17.949,4.605 						"/>
						<path fill="#F05D4C" d="M17.321,6.184c0.313,0.139-0.148-0.57,0.315-0.254c-0.411-0.595-0.085,0.162-0.441-0.223
							C17.382,5.953,17.378,6.17,17.321,6.184z"/>
						<path fill="#F05D4C" d="M17.195,5.707c-0.027-0.036-0.059-0.073-0.096-0.11C17.138,5.642,17.168,5.677,17.195,5.707z"/>
						<path fill="#F05D4C" d="M15.19,5.939c0.022-0.043,0.033-0.076,0.042-0.107C15.215,5.865,15.201,5.9,15.19,5.939z"/>
						<path fill="#F05D4C" d="M15.938,4.594l0.47,0.208c-0.128-0.057-0.299-0.187-0.461-0.309c0.576-0.011,1.146-0.021,1.715-0.032
							c-0.168,0.242-0.321,0.468-0.221,0.521c0.141-0.114,0.269-0.273,0.342-0.408C17.091,4.587,16.405,4.6,15.83,4.61
							c0.064,0.04,0.121,0.065,0.167,0.077L15.938,4.594z"/>
						<path fill="#F05D4C" d="M11.563,6.224l0.087-0.202l-0.192,0.175C11.529,6.162,11.537,6.352,11.563,6.224z"/>
						<path fill="#F05D4C" d="M11.421,6.231l0.037-0.034C11.447,6.203,11.435,6.213,11.421,6.231z"/>
						<path fill="#F05D4C" d="M15.743,5.213c0.114-0.104,0.195-0.199,0.268-0.325C15.944,4.907,15.658,5.168,15.743,5.213z"/>
						<polygon fill="#F05D4C" points="10.766,7.477 10.976,7.204 10.731,7.487 						"/>
						<polygon fill="#F05D4C" points="9.45,8.433 9.384,8.453 9.239,8.706 9.306,8.686 						"/>
						<path fill="#F05D4C" d="M13.533,9.375c0.172-0.157,0.174-0.402,0.107-0.382l-0.301,0.334c0.185,0.015,0.082-0.094,0.287-0.26
							L13.533,9.375z"/>
						<path fill="#F05D4C" d="M3.418,19.852c-0.139,0.001-0.458-0.378-0.413-0.462c0.075,0.016,0.295,0.172,0.214,0.014
							l-0.446-0.095c-0.274-0.464,0.501,0.043,0.744,0.158c-0.316-0.337-0.525-0.375-0.845-0.637l-1.2-0.987l1.127-1.297
							C2.639,16.5,2.68,16.452,2.726,16.4c-0.059,0.049-0.115,0.083-0.167,0.107l-0.855,0.405l0.931,1.958
							c0.03,0.063,0.047,0.121,0.063,0.173c-0.037,0.05-0.104,0.025-0.19-0.038l-1.292-0.959l1.208-1.664
							c0.106-0.146,0.328-0.345,0.482-0.524c-0.215,0.125-0.167-0.018-0.097-0.189c0.018-0.026,0.024-0.048,0.026-0.066l0.023-0.06
							l-0.03,0.033c-0.012-0.015-0.035-0.023-0.08-0.021c-0.178,0.263-0.443,0.344-0.583,0.49c0.103,0.012,0.103,0.067,0.051,0.146
							l-1.351,2.045l1.448,0.974c0.177,0.119,0.47,0.512,0.638,0.59l0.231,0.183l0.08,0.075c-0.004,0.037-0.053,0.042-0.211-0.033
							c0.139,0.057,0.463,0.391,0.492,0.297l0.773,0.728c0.017,0.031,0.031,0.063,0.035,0.096c0.039,0.012,0.053,0.006,0.059-0.007
							l3.37,3.169c-0.151-0.173-0.251-0.354-0.402-0.538c0.381,0.112-0.257-0.288-0.065-0.341c0.158,0.063,0.313,0.237,0.385,0.362
							c0.097-0.027,0.006-0.218,0.094-0.277c-0.349-0.479-0.698-0.241-1.068-0.679c0.087-0.061,0.277-0.005-0.003-0.251l0.084,0.049
							c-0.514-0.327-0.177-0.49-0.646-0.543l0.11-0.102c-0.274-0.105-0.658-0.467-0.888-0.656l0.033-0.009
							c-0.724-0.45-0.365-0.296-1.094-0.889l0.433,0.17c-0.185-0.274-0.368-0.187-0.523-0.36c0.032-0.01,0.068-0.126,0.246,0.005
							l-1.008-0.589C3.193,19.554,3.432,19.776,3.418,19.852z"/>
						<path fill="#F05D4C" d="M2.726,16.4c0.047-0.039,0.096-0.086,0.146-0.149C2.816,16.307,2.77,16.354,2.726,16.4z"/>
						<path fill="#F05D4C" d="M8.016,24.528L7.78,24.306C7.847,24.381,7.92,24.455,8.016,24.528z"/>
						<path fill="#F05D4C" d="M3.595,14.983c-0.19,0.092,0.021-0.181,0.002-0.246l-0.478,0.519c0.044,0.037,0.044,0.132,0.092,0.158
							L3.595,14.983z"/>
						<path fill="#F05D4C" d="M2.9,15.333c0.013,0.044-0.011,0.124-0.043,0.208l0.262-0.284C3.085,15.229,3.027,15.234,2.9,15.333z"
							/>
						<polygon fill="#F05D4C" points="5.203,17.369 5.122,17.464 5.026,17.633 						"/>
						<path fill="#F05D4C" d="M4.767,17.761c-0.048-0.166-0.3-0.313-0.384-0.362C4.622,17.622,4.497,17.549,4.767,17.761z"/>
						<polygon fill="#F05D4C" points="5.117,16.805 5.379,16.985 5.37,16.953 						"/>
						<path fill="#F05D4C" d="M10.165,25.753l0.119,0.099C10.232,25.803,10.196,25.773,10.165,25.753z"/>
						<path fill="#F05D4C" d="M8.108,24c0.429,0.638-0.453-0.236-0.43,0.081l0.345,0.229l-0.065,0.018l0.375,0.329
							c-0.006-0.142-0.058-0.199,0.03-0.259c0.455,0.486,0.067,0.233,0.332,0.663l0.553,0.498l-0.065-0.02
							c0.047,0.042,0.076,0.051,0.104,0.054l1.862,1.675c0.387,0.254-0.055-0.309,0.294-0.188c-0.384-0.363-0.877-0.982-1.052-0.863
							c0.032-0.009,0.097-0.026,0.036-0.117l-0.338-0.087l0.174,0.239c-0.34-0.088-1.033-0.797-1.091-0.997
							c0.449,0.346,0.384,0.004,0.878,0.624c0.01-0.063-0.031-0.229,0.117-0.127C9.455,25.163,8.921,24.527,8.108,24z"/>
						<path fill="#F05D4C" d="M14.878,30.277l-0.018,0.009C14.879,30.29,14.889,30.289,14.878,30.277z"/>
						<path fill="#F05D4C" d="M14.671,30.047l-0.464-0.162l0.519,0.47l0.135-0.068c-0.07-0.017-0.297-0.133-0.328-0.238
							L14.671,30.047z"/>
						<path fill="#F05D4C" d="M13.745,29.616c0.303,0.204,0.404,0.069,0.313-0.122c0.294,0.172,0.003,0.251,0.291,0.28
							c0.077-0.093-0.268-0.322-0.352-0.371L13.745,29.616z"/>
						<polygon fill="#F05D4C" points="11.87,27.719 11.992,27.738 11.822,27.553 						"/>
						<path fill="#F05D4C" d="M11.992,27.738l0.167,0.185c0.023-0.049,0.045-0.098,0.04-0.15L11.992,27.738z"/>
						<path fill="#F05D4C" d="M12.599,28.406c0.068,0.081,0.146,0.168,0.245,0.269L12.599,28.406z"/>
						<path fill="#F05D4C" d="M12.422,28.18l-0.009,0.021l0.186,0.205C12.538,28.327,12.481,28.255,12.422,28.18z"/>
						<path fill="#F05D4C" d="M12.159,27.923c-0.051,0.112-0.102,0.234,0.182,0.458l0.072-0.18L12.159,27.923z"/>
						<polygon fill="#F05D4C" points="6.656,18.506 6.908,18.653 6.899,18.62 6.647,18.473 						"/>
						<path fill="#F05D4C" d="M7.772,19.711c0.065,0.034,0.119,0.055,0.169,0.071C7.879,19.741,7.823,19.715,7.772,19.711z"/>
						<path fill="#F05D4C" d="M9.208,19.969c0.161,0.314-0.442-0.204-0.029,0.259c-0.036,0.117-0.343,0.021-0.518-0.22
							c0.088-0.059,0.252,0.147,0.194-0.052c-0.223-0.047-0.22-0.156-0.278,0.003c-0.303-0.153-0.405-0.098-0.636-0.177
							c0.333,0.222,0.823,0.905,1.323,1.104c0.329,0.055,0.383-0.246,0.57-0.441C9.847,20.369,9.35,19.857,9.208,19.969z"/>
						<path fill="#F05D4C" d="M9.011,19.411c-0.103-0.116-0.145-0.141-0.229-0.189C8.737,19.306,8.917,19.328,9.011,19.411z"/>
						<path fill="#F05D4C" d="M10.192,23.332c0.048-0.008,0.284,0.15,0.286,0.061l-0.342-0.256
							C10.205,23.209,10.197,23.268,10.192,23.332z"/>
						<path fill="#F05D4C" d="M9.987,23.023l0.149,0.113C10.105,23.102,10.06,23.066,9.987,23.023z"/>
						<path fill="#F05D4C" d="M10.19,23.363l0.002-0.031C10.182,23.334,10.177,23.341,10.19,23.363z"/>
						<path fill="#F05D4C" d="M13.3,29.163c-0.055,0.05,0.113,0.147,0.197,0.196C13.445,29.302,13.383,29.21,13.3,29.163z"/>
						<path fill="#F05D4C" d="M18.666,33.845l0.081,0.157C18.729,33.937,18.718,33.902,18.666,33.845z"/>
						<path fill="#F05D4C" d="M21.928,34.145c0.013-0.008,0.03-0.008,0.05-0.005C21.96,34.135,21.942,34.136,21.928,34.145z"/>
						<path fill="#F05D4C" d="M21.978,34.14c0.126,0.034,0.315,0.346,0.472,0.365l-0.031,0.009l0.209,0.122
							C22.461,34.49,22.133,34.162,21.978,34.14z"/>
					</g>
				</g>
			</g>
		</g>
	</g>
</g>
</svg>
