<?xml version="1.0" encoding="utf-8"?>
<!-- Generator: Adobe Illustrator 16.0.3, SVG Export Plug-In . SVG Version: 6.00 Build 0)  -->
<!DOCTYPE svg PUBLIC "-//W3C//DTD SVG 1.1//EN" "http://www.w3.org/Graphics/SVG/1.1/DTD/svg11.dtd">
<svg version="1.1" id="Layer_1" xmlns="http://www.w3.org/2000/svg" xmlns:xlink="http://www.w3.org/1999/xlink" x="0px" y="0px"
	 width="140px" height="140px" viewBox="0 0 140 140" enable-background="new 0 0 140 140" xml:space="preserve">
<g>
	<g>
		<g>
			<g>
				<g>
					<g>
						<path fill="#F05D4C" d="M4.083,80.532c-0.148-0.937-0.156-1.77-0.075-1.422c-0.346-1.901-0.241-1.955-0.463-2.183
							c-0.196-1.23-0.156-2.563,0.035-1.162c0,0-0.099-0.889-0.199-1.777c-0.085-0.891-0.125-1.784-0.124-1.784
							c0,0,0.005,0.535,0.011,1.07c-0.007,0.536,0.044,1.07,0.044,1.07c-0.253-0.573-0.054-3.422-0.286-4.1
							c0,0,0.029,0.972,0.057,1.942c0.015,0.486,0.029,0.972,0.04,1.336c0.012,0.364,0.04,0.605,0.04,0.605l-0.072-0.191
							c0.129,0.879,0.231,2.595,0.257,3.193c-0.039-0.092-0.077-0.025-0.135-0.709c0.221,2.338,0.385,2.637,0.48,2.842
							c0.134,0.199,0.163,0.313,0.543,2.216C4.19,81.242,4.139,80.946,4.083,80.532z"/>
						<path fill="#F05D4C" d="M4.408,84.523l0.578,1.548c0,0,0.035,0.168,0.088,0.42c0.05,0.253,0.123,0.588,0.216,0.919
							c0.174,0.664,0.348,1.327,0.348,1.327c0.08,0.009,0.683,1.913,0.377,0.595c-0.084-0.252-0.248-0.748-0.357-1.156
							c0.12,0.126,0.387,0.995,0.617,1.73c0.25,0.729,0.483,1.316,0.429,0.912c-0.709-2.04-0.708-2.384-1.215-3.626
							c-0.444-1.931-0.764-3.34-0.848-4.266c-0.127-0.572-0.239-0.636-0.39-1.37c0.031,0.163,0.06,0.313,0.096,0.5L4.123,82.18
							c0.167,0.604,0.225,1.197,0.384,1.872c0,0-0.071-0.189-0.147-0.481c-0.079-0.292-0.185-0.682-0.29-1.07
							c-0.211-0.782-0.422-1.563-0.422-1.563c-0.021,0.531,0.142,1.574,0.326,2.642c0.213,1.063,0.489,2.139,0.581,2.771
							C4.398,84.768,4.933,87.542,4.408,84.523z"/>
						<path fill="#F05D4C" d="M4.251,81.557c-0.004-0.021-0.01-0.053-0.015-0.077C4.241,81.504,4.247,81.536,4.251,81.557z"/>
						<path fill="#F05D4C" d="M123.365,32.607c-0.392-0.542-0.55-0.667-0.63-0.729c0,0,0.271,0.381,0.68,0.954
							c0.419,0.564,0.942,1.341,1.438,2.136c0.506,0.789,1.021,1.571,1.356,2.189c0.351,0.609,0.584,1.015,0.584,1.015
							c-0.062-0.234-1.07-2.147-0.318-0.916c-0.234-0.611-1.354-2.23-1.581-2.421l0.375,0.405c-1.021-1.4-1.508-2.499-0.804-1.611
							l-0.082-0.121c0,0-0.794-0.91-1.587-1.82c-0.386-0.46-0.809-0.891-1.122-1.215c-0.312-0.325-0.52-0.542-0.52-0.542
							C122.215,31.328,122.137,30.879,123.365,32.607z"/>
						<path fill="#F05D4C" d="M5.37,59.29c0.149-0.964,0.148-1.085,0.105-0.981C5.431,58.656,5.393,58.988,5.37,59.29z"/>
						<path fill="#F05D4C" d="M120.378,29.125c0,0-0.257-0.273-0.535-0.526c-0.272-0.258-0.545-0.516-0.545-0.516
							C119.715,28.513,120.115,28.861,120.378,29.125z"/>
						<path fill="#F05D4C" d="M128.22,36.486c0.008-0.002,0.021,0.009,0.012-0.031l-0.413-0.563c0.006,0.009,0.008,0.013,0.01,0.016
							C127.97,36.117,128.099,36.308,128.22,36.486z"/>
						<path fill="#F05D4C" d="M93.009,10.017c-0.148-0.055-0.277-0.103-0.454-0.168C92.72,9.91,92.869,9.965,93.009,10.017z"/>
						<path fill="#F05D4C" d="M136.602,55.752c0,0-0.23-0.84-0.461-1.679c-0.214-0.843-0.503-1.665-0.503-1.666
							c0.192,0.429-0.285-1.18-0.009-0.497c-0.083-0.253-0.449-1.441-0.39-1.106l0.198,0.681c-0.699-1.702-0.421-0.631-1.535-3.447
							c0.245,0.907,0.458,1.546,0.661,2.074c0.18,0.535,0.349,0.958,0.529,1.424c0.102,0.322,0.187,0.59,0.272,0.862
							c0,0,0.066,0.169,0.165,0.422c0.103,0.252,0.23,0.591,0.339,0.936c0.23,0.688,0.46,1.375,0.46,1.375L136.602,55.752z"/>
						<path fill="#F05D4C" d="M27.492,18.866l0.019-0.036C27.489,18.855,27.486,18.865,27.492,18.866z"/>
						<path fill="#F05D4C" d="M27.585,18.686l-0.074,0.144C27.628,18.687,28.166,18.232,27.585,18.686z"/>
						<path fill="#F05D4C" d="M120.817,29.477c-0.058-0.014-0.212-0.136-0.439-0.351l0.776,0.806
							C121.061,29.805,120.935,29.636,120.817,29.477z"/>
						<path fill="#F05D4C" d="M122.723,31.222l1.66,2.286l0.65,0.819C124.439,33.42,123.647,32.431,122.723,31.222z"/>
						<path fill="#F05D4C" d="M96.996,11.826c-5.246-2.327,1.383,0.362-1-0.77c-1.465-0.645-2.057-0.688-2.987-1.04
							c2.138,0.792,1.96,0.819,1.784,0.853c-0.18,0.042-0.333,0.039,1.757,0.963c-0.341-0.035-1.102-0.348-1.977-0.68
							c-0.879-0.322-1.849-0.714-2.56-1.024c-0.797-0.368-0.419-0.29,0.206-0.098c0.619,0.208,1.49,0.514,1.712,0.499
							c-1.726-0.638-1.429-0.511-2.203-0.663c-1.358-0.479-2.78-0.928-4.091-1.234c-1.295-0.36-2.461-0.628-3.272-0.943
							c-2.039-0.441-1.935-0.267-3.127-0.393c-0.135,0.081,0.621,0.244,1.5,0.422c0.872,0.211,1.862,0.466,2.218,0.628
							c-0.15-0.053-0.446-0.157-0.352-0.165c0,0,0.434,0.111,0.868,0.222c0.436,0.102,0.861,0.243,0.861,0.243
							c-1.624-0.509,0.283-0.151,1.163,0.099c0.639,0.174,1.911,0.529,1.715,0.543c0,0-0.239-0.073-0.485-0.126
							c-0.244-0.058-0.488-0.115-0.488-0.115c1.223,0.407,2.757,0.736,4.007,1.29c0.051,0.068-0.436-0.1-0.523-0.09
							c1.471,0.425,2.863,0.919,4.955,1.793l-1.279-0.354c1.764,0.485,5.42,2.389,7.779,3.975c-0.253-0.193-0.735-0.492-0.418-0.358
							c1.456,0.822,2.424,1.648,1.721,1.313c0.744,0.346,1.998,1.264,3.297,2.238c0.657,0.477,1.281,1.027,1.893,1.489
							c0.604,0.456,1.153,0.871,1.615,1.22c0,0,0.525,0.369,1.314,0.923c0.796,0.547,1.785,1.367,2.816,2.153
							c0.983,0.834,1.979,1.671,2.7,2.326c0.709,0.67,1.183,1.116,1.183,1.116c-0.274-0.276-0.562-0.576-0.85-0.895
							c-0.486-0.827-0.838-1.201,0.377-0.065c-1.133-1.172-0.854-0.584-2.526-2.354c0.714,0.635,1.062,0.644-0.582-1.033
							c-1.091-0.981-2.099-1.869-3.128-2.623c-0.997-0.792-1.997-1.467-2.992-2.121c-1.979-1.321-4.012-2.457-6.368-3.773
							c-0.05-0.109-1.001-0.684-2.16-1.364c-1.174-0.653-2.581-1.368-3.506-1.828c0.777,0.197,2.167,0.862,3.587,1.588
							c-0.873-0.489-2.404-1.284-3.556-1.839L96.996,11.826z"/>
						<path fill="#F05D4C" d="M108.802,18.315c-0.115-0.093-0.233-0.188-0.352-0.282C108.509,18.089,108.616,18.174,108.802,18.315z
							"/>
						<path fill="#F05D4C" d="M101.568,13.861c0.02,0.005,0.015-0.002,0.024-0.003c-0.147-0.081-0.294-0.161-0.443-0.243
							C101.297,13.702,101.464,13.8,101.568,13.861z"/>
						<path fill="#F05D4C" d="M120.189,28.21c0.262,0.237,0.438,0.428,0.681,0.681c-0.144-0.161-0.317-0.37-0.501-0.556
							C120.192,28.16,120.101,28.083,120.189,28.21z"/>
						<path fill="#F05D4C" d="M120.746,29.274l-0.159-0.111c0.089,0.122,0.15,0.206,0.23,0.313
							C120.866,29.489,120.858,29.438,120.746,29.274z"/>
						<path fill="#F05D4C" d="M76.052,4.925l-0.561-0.013C75.827,4.936,75.974,4.934,76.052,4.925z"/>
						<path fill="#F05D4C" d="M91.15,9.215c1.899,0.638,0.308-0.148,2.954,0.882L93.334,9.78c1.956,0.605,5.191,2.166,7.335,3.299
							c-0.271-0.071,1.234,0.804,0.924,0.779c0.724,0.396,1.443,0.79,2.08,1.138c0.622,0.367,1.168,0.668,1.563,0.843
							c0.856,0.565,2.179,1.394,3.215,2.193c-0.404-0.383,1.675,0.869-0.979-0.901c0.217,0.141,0.096,0.033,0.309,0.172
							c-1.598-1.302-2.425-1.549-3.903-2.51c-0.851-0.636,1.519,0.828,0.695,0.264c-0.932-0.594-2.449-1.434-3.697-2.15
							c-1.283-0.652-2.315-1.146-2.313-0.984c-1.45-0.682-1.639-0.802-2.051-1.057c-0.607-0.197-1.444-0.542-2.385-0.886
							c-0.935-0.36-1.944-0.788-2.911-1.104c-1.909-0.708-3.569-1.145-3.607-0.959c0.446,0.121,1.031,0.28,1.67,0.454
							c0.629,0.203,1.313,0.414,1.969,0.592L91.15,9.215z"/>
						<path fill="#F05D4C" d="M117.916,25.673c-0.086-0.092-0.199-0.213-0.271-0.289C117.725,25.469,117.824,25.576,117.916,25.673z
							"/>
						<path fill="#F05D4C" d="M130.246,47.696l-0.544-0.682c-0.44-1.098-0.817-2.016-1.202-2.818
							c-0.38-0.804-0.664-1.539-1.025-2.216c-0.346-0.685-0.683-1.354-1.05-2.082c-0.385-0.719-0.836-1.478-1.349-2.375
							c-0.127-0.292,0.142,0.131,0.278,0.346c-1.476-2.503-3.923-6.12-5.388-7.659c-0.537-0.755-2.115-2.604-1.442-1.972
							c-0.312-0.325-0.665-0.7-0.999-1.099c-0.021-0.164,0.78,0.862,0.855,0.833c-0.264-0.314-0.355-0.447-0.439-0.5
							c0.515,0.473-0.239-0.752,1.881,1.703c0.641,1.099-1.482-1.691-1.188-0.969c0.702,0.812,0.691,0.659,0.773,0.71
							c0.875,1.05,0.781,1.08,0.702,1.051c0.369,0.375,1.388,1.76,1.872,2.3c1.556,2.156-0.228-0.013,0.78,1.398
							c0,0,0.194,0.17,0.389,0.34c0.198,0.167,0.383,0.346,0.383,0.346l1.521,2.457c2.145,3.598,0.099-0.763,2.531,3.393
							c-0.199-0.252-0.125,0.077,0.119,0.718c0.271,0.66,0.665,1.614,1.083,2.628c-0.275-0.609-0.7-1.459-1.2-2.325
							c-0.476-0.88-0.969-1.792-1.381-2.555c1.045,2.194-1.682-2.879-1.239-1.679c0.677,0.986,1.72,2.694,2.344,4.12l-0.252-0.442
							c0.751,1.467,1.496,2.503,2.334,4.633c0.423,1.053,0.282,0.881,0.157,0.717C129.936,46.894,130.295,47.676,130.246,47.696z
							 M129.295,45.418c-0.001,0-0.138-0.353-0.292-0.698c-0.151-0.348-0.302-0.695-0.302-0.695
							C128.809,44.37,129.057,44.879,129.295,45.418z"/>
						<path fill="#F05D4C" d="M12.587,104.987c-0.073-0.141-0.156-0.299-0.223-0.427C12.407,104.658,12.493,104.818,12.587,104.987z
							"/>
						<path fill="#F05D4C" d="M128.833,102.703l-0.464,0.791C128.551,103.184,128.698,102.934,128.833,102.703z"/>
						<path fill="#F05D4C" d="M116.826,119.506l-0.945,0.978C116.267,120.111,116.556,119.806,116.826,119.506z"/>
						<path fill="#F05D4C" d="M18.986,113.832l0.029,0.035c0.052,0.054,0.094,0.097,0.148,0.152L18.986,113.832z"/>
						<path fill="#F05D4C" d="M79.749,136.956c-0.206,0.006-0.437,0.017-0.75,0.042C79.04,137.017,79.32,136.999,79.749,136.956z"/>
						<path fill="#F05D4C" d="M116.999,119.326c-0.025,0.022-0.042,0.036-0.063,0.054c-0.035,0.04-0.074,0.085-0.11,0.126
							L116.999,119.326z"/>
						<path fill="#F05D4C" d="M133.318,94.738c0.065-0.189,0.125-0.359,0.195-0.562C133.415,94.439,133.36,94.604,133.318,94.738z"
							/>
						<path fill="#F05D4C" d="M132.208,95.696c0.069-0.2,0.135-0.388,0.188-0.54L132.208,95.696z"/>
						<path fill="#F05D4C" d="M137.423,64.568l-0.13-1.239C137.344,63.939,137.385,64.302,137.423,64.568z"/>
						<path fill="#F05D4C" d="M133.522,92.691c0.011-0.07,0.021-0.139,0.03-0.193C133.505,92.663,133.491,92.747,133.522,92.691z"/>
						<path fill="#F05D4C" d="M9.59,97.755c0.011,0.024,0.024,0.053,0.031,0.067l0.037,0.015L9.59,97.755z"/>
						<path fill="#F05D4C" d="M8.094,95.159c-0.135-0.325-0.276-0.665-0.415-0.998C7.825,94.535,7.975,94.895,8.094,95.159z"/>
						<path fill="#F05D4C" d="M61.843,136.769c-0.32-0.075-1.075-0.213-0.715-0.207C60.504,136.532,60.528,136.658,61.843,136.769z"
							/>
						<path fill="#F05D4C" d="M13.605,102.305c-0.123-0.147-0.263-0.342-0.403-0.536C13.454,102.136,13.672,102.457,13.605,102.305z
							"/>
						<path fill="#F05D4C" d="M13.202,101.769c-0.124-0.179-0.257-0.371-0.37-0.534C12.961,101.42,13.085,101.6,13.202,101.769z"/>
						<path fill="#F05D4C" d="M70.12,135.283c0.081,0.015,0.202,0.025,0.367,0.025C70.438,135.276,70.306,135.273,70.12,135.283z"/>
						<path fill="#F05D4C" d="M7.396,93.339c-0.131-0.155-1.745-4.573-0.508-0.816c-0.202-0.092-0.933-2.366-1.222-3.382
							c0.169,0.748-0.214-0.336-0.212-0.095c0.168,0.499,0.37,1.096,0.646,1.912c0.052,0.404-0.44-0.823-0.67-1.831
							c0.257,1.249-0.577-1.513-0.154,0.239c1.179,3.662,2.221,6.189,3.587,8.528c-0.234-0.493-0.475-1.001-0.717-1.511
							c-0.215-0.521-0.43-1.046-0.64-1.558c-0.204-0.516-0.402-1.019-0.592-1.498c-0.154-0.491-0.3-0.956-0.435-1.386l0.387,0.662
							c0.242,0.985,0.58,1.733,0.87,2.492c0.296,0.758,0.62,1.498,1.037,2.4c0,0-0.11-0.257-0.276-0.641
							c-0.174-0.381-0.371-0.903-0.563-1.428c-0.39-1.045-0.78-2.09-0.78-2.09c-0.535-2.025-0.122-0.686,0.524,0.822
							C7.534,93.787,7.408,93.442,7.396,93.339z"/>
						<path fill="#F05D4C" d="M9.741,95.597l-0.023-0.069c-0.028-0.057-0.061-0.124-0.081-0.164L9.741,95.597z"/>
						<path fill="#F05D4C" d="M134.329,65.045l-0.086-0.365C134.293,64.985,134.317,65.08,134.329,65.045z"/>
						<path fill="#F05D4C" d="M10.131,98.283l-0.002-0.003C10.143,98.306,10.146,98.313,10.131,98.283z"/>
						<path fill="#F05D4C" d="M134.409,74.254c-0.003-0.014-0.006-0.026-0.01-0.048C134.401,74.238,134.406,74.238,134.409,74.254z"
							/>
						<path fill="#F05D4C" d="M137.533,77.001c0.009-0.019,0.016-0.024,0.026-0.066C137.566,76.726,137.552,76.827,137.533,77.001z"
							/>
						<path fill="#F05D4C" d="M134.423,74.263c-0.005,0-0.01,0.006-0.014-0.009C134.413,74.263,134.417,74.278,134.423,74.263z"/>
						<path fill="#F05D4C" d="M117.465,114.812c0,0,0.119-0.095,0.292-0.231C117.806,114.51,117.734,114.56,117.465,114.812z"/>
						<path fill="#F05D4C" d="M123.282,108.063c0.038-0.043,0.061-0.068,0.108-0.122L123.282,108.063z"/>
						<path fill="#F05D4C" d="M63.946,137.692c0.462,0.031,0.81,0.055,1.103,0.075C64.71,137.738,64.345,137.711,63.946,137.692z"/>
						<path fill="#F05D4C" d="M134.399,74.206c-0.01-0.091-0.017-0.222-0.021-0.436C134.383,74.008,134.39,74.131,134.399,74.206z"
							/>
						<path fill="#F05D4C" d="M107.67,124.309c0.075-0.061,0.146-0.117,0.216-0.174l-0.138,0.089L107.67,124.309z"/>
						<path fill="#F05D4C" d="M103.671,126.767c0.129-0.095,0.184-0.146,0.253-0.205c-0.709,0.443-1.737,1.037-2.622,1.553
							c-0.905,0.476-1.66,0.889-1.785,1.045c0.252-0.131,1.045-0.512,1.727-0.82c0.674-0.322,1.223-0.6,1.029-0.428
							c1.001-0.61,2.557-1.388,3.062-1.774c-1.67,0.964-0.248-0.006,0.812-0.751c1.019-0.597-0.113,0.229,0.759-0.294l2.22-1.597
							l-1.953,1.362l0.499-0.549c-0.068,0.056-0.116,0.094-0.189,0.153c-1.63,1.177-1.764,1.13-1.865,1.15
							C105.499,125.609,105.399,125.656,103.671,126.767z"/>
						<path fill="#F05D4C" d="M103.924,126.562c0.217-0.13,0.39-0.27,0.526-0.373C104.134,126.396,104.017,126.487,103.924,126.562z
							"/>
						<path fill="#F05D4C" d="M88.921,132.937c-0.193,0.063-0.405,0.131-0.673,0.217C88.376,133.112,88.668,133.018,88.921,132.937z
							"/>
						<path fill="#F05D4C" d="M126.096,36.032c0.01,0.077,1.079,2.152,1.166,2.053c-0.334-0.606-0.672-1.219-1.01-1.833
							L126.096,36.032z"/>
						<path fill="#F05D4C" d="M45.118,131.575l0.732,0.291c0.055,0.015,0.107,0.028,0.148,0.039
							C45.856,131.829,45.367,131.66,45.118,131.575z"/>
						<path fill="#F05D4C" d="M101.671,128.322c0.365-0.23,0.522-0.344,0.602-0.411C102.036,128.059,101.819,128.2,101.671,128.322z
							"/>
						<path fill="#F05D4C" d="M45.09,131.254c-0.294-0.156-0.732-0.378-0.775-0.455c-0.616-0.279-1.077-0.418-1.715-0.682
							C43.324,130.408,44.12,130.838,45.09,131.254z"/>
						<path fill="#F05D4C" d="M42.546,130.096c0.019,0.008,0.038,0.016,0.053,0.021L42.546,130.096z"/>
						<path fill="#F05D4C" d="M125.39,34.835c-0.115-0.164-0.234-0.334-0.356-0.508l0.201,0.253
							c-0.286-0.456-0.547-0.924-0.849-1.365c-0.117-0.155-0.244-0.323-0.399-0.528c0.063,0.081,0.121,0.14,0.16,0.172l-0.286-0.427
							c-0.811-1-2.845-3.444-3.491-4.097c-0.847-0.87-1.798-2.004-2.453-2.662c0.608,0.61,1.348,1.479,1.184,1.169
							c-0.535-0.696-0.945-1.204-1.476-1.819c-0.529-0.614-1.185-1.335-2.356-2.299c0,0,0.321,0.306,0.644,0.612
							c0.323,0.304,0.637,0.618,0.637,0.618s-0.183-0.17-0.475-0.407c-0.288-0.24-0.672-0.559-1.056-0.878
							c-0.384-0.318-0.767-0.636-1.055-0.875c-0.298-0.225-0.497-0.375-0.497-0.375c-0.489-0.497-0.093-0.198,0.488,0.263
							c0.564,0.479,1.292,1.142,1.527,1.296c-2.304-2.067-4.11-3.939-5.39-4.641c-0.084-0.223-0.176-0.662-1.862-1.823
							c1.106,0.98-1.057-0.627-0.17,0.21c-0.613-0.353-1.83-1.351-1.999-1.311l0.192,0.056c-1.402-1.035-2.393-1.637-3.226-2.006
							c-0.824-0.382-1.437-0.629-2.122-0.921c-0.927-0.467-1.728-0.87-2.456-1.237c-0.739-0.341-1.405-0.647-2.049-0.944
							c-0.64-0.309-1.269-0.579-1.94-0.837c-0.67-0.263-1.365-0.556-2.162-0.84c-0.095-0.129-0.886-0.667-2.182-1.095
							c-0.636-0.105-3.613-0.862-3.953-0.785c2.321,0.709,1.946,0.407,3.361,0.766c1.097,0.549,0.055,0.194,1.587,0.819
							c-1.219-0.573-5.782-1.645-7.181-2.074l0.507,0.094c-1.077-0.323-1.794-0.538-2.647-0.794
							c-0.861-0.244-1.93-0.484-3.884-0.586c0,0-0.464-0.034-0.927-0.068c-0.464-0.038-0.928-0.035-0.928-0.034
							c0.091-0.009,0.101-0.027,0.15-0.038c-3.023-0.245-2.188-0.407-5.568-0.339c0.26-0.004,0.097-0.026,0.361-0.031
							c-0.963-0.09-1.914-0.021-2.822,0.038c-0.903,0.059-1.746,0.131-2.466,0.221c-0.89-0.067,0.202-0.147,0.743-0.286
							c-3.383,0.131-6.972,0.887-8.984,1.455c0,0-0.541,0.057-1.07,0.172c-0.532,0.103-1.064,0.205-1.064,0.205
							c1.233-0.371,2.764-0.77,2.36-0.779c-1.175,0.231-0.931,0.258-2.587,0.612c0.264-0.146,0.937-0.392,1.697-0.666
							c-3.462,0.64-0.698,0.47-3.154,0.764c-1.069,0.285-1.646,0.591-1.736,0.721c0,0-0.489,0.104-0.978,0.207
							c-0.492,0.095-0.973,0.229-0.973,0.229c-0.163,0.216-2.516,0.943-3.992,1.598c-0.158,0.132,1.25-0.362,1.813-0.598
							c-0.091,0.11-1.655,0.802-2.679,1.197c-0.251-0.081-1.889,0.676-3.334,1.335c-1.423,0.704-2.642,1.346-2.139,0.899
							c-1.107,0.558-2.257,1.296-3.468,1.998c-1.177,0.758-2.395,1.521-3.513,2.334c-1.121,0.811-2.198,1.59-3.104,2.36
							c-0.459,0.375-0.891,0.729-1.288,1.054c-0.377,0.345-0.72,0.66-1.021,0.936c-0.43,0.324-1.065,0.84-1.47,1.167
							c-0.394,0.338-0.576,0.466-0.143-0.037c-0.722,0.688-1.344,1.306-1.916,1.886c-0.564,0.588-1.046,1.171-1.548,1.732
							c-0.506,0.557-0.989,1.132-1.499,1.762c-0.506,0.632-1.109,1.259-1.718,2.036c-0.114,0.119,0.158-0.234,0.446-0.605
							c0.301-0.36,0.613-0.742,0.532-0.72c-1.572,2.044-3.089,3.562-5.218,6.968c0.36-0.571,0.418-0.767,0.445-0.862
							c0.077-0.034-0.808,1.437-1.329,2.331c-0.323,0.486,0.383-0.673,0.184-0.413c-2.083,3.271-3.545,6.378-4.784,9.547
							c-1.249,3.17-2.178,6.446-3.062,10.18c0.47-2.143,0.591-2.973,0.506-3.02c0,0-0.148,0.519-0.296,1.037
							c-0.152,0.517-0.259,1.046-0.259,1.046c-0.087,0.834-0.498,2.401-0.635,3.751c-0.063,0.158-0.215,0.797-0.14,0.13
							c-0.498,2.075-0.58,3.753-0.686,5.527c-0.026,0.89-0.054,1.81-0.084,2.822c-0.001,1.027-0.01,2.162-0.068,3.47
							c0,0-0.052-1.588-0.104-3.176c0.022-1.58,0.044-3.16,0.044-3.16l-0.248,1.554c0,0,0.011-0.699,0.022-1.398
							c-0.004-0.703,0.063-1.398,0.063-1.398c-0.309,1.65-0.127,3.124-0.299,3.313c-0.012-0.354,0.064-1.203-0.008-1.237
							c-0.165,1.603-0.113,1.737-0.104,2.938c-0.071-0.792-0.027-1.78,0.011-2.869c0.02-1.092,0.145-2.271,0.279-3.456
							c0.26-2.37,0.712-4.739,1.077-6.384c0.097-0.52-0.036,0.458-0.029,0.556c0.149-0.669,0.292-1.2,0.44-1.775
							c0.165-0.571,0.356-1.18,0.567-2.02c0.178-1.065-0.309,0.765-0.554,1.583c-0.068-0.141,0.056-0.553,0.3-1.472
							c0.14-0.174,1.589-4.978,2.279-6.025c0.896-2.37,0.813-2.188,0.628-2.029c-0.161,0.169-0.315,0.356,0.736-1.896
							c0,0,0.191-0.32,0.382-0.64c0.205-0.313,0.409-0.625,0.409-0.625c1.13-2.651,2.976-5.917,4.869-8.579l-0.396,0.564
							c-0.209,0.411,0.265-0.183,0.487-0.436c0.74-0.984,1.382-1.961,2.032-2.785c0.636-0.833,1.185-1.583,1.748-2.083
							c1.631-2.298,4.865-5.73,7.279-7.872c0.398-0.205-0.371,0.514-1.345,1.412c-0.93,0.947-2.093,2.047-2.5,2.585
							c0,0,0.126-0.132,0.315-0.331c0.198-0.189,0.463-0.441,0.728-0.694c0.529-0.505,1.058-1.009,1.058-1.009
							c-1.305,1.249-1.778,1.789-2.426,2.665c0.881-0.925,1.495-1.511,2.06-2.126c0.563-0.617,1.122-1.218,2.033-2.022
							c-0.106,0.167,0.164-0.02,1.01-0.751l0.152-0.315c0.022-0.006,0.123-0.079,0.403-0.285c0,0,0.837-0.685,1.674-1.37
							c0.413-0.351,0.848-0.672,1.176-0.911c0.326-0.242,0.543-0.403,0.543-0.403c-0.776,0.494-0.909,0.392-1.79,1.085
							c0.364-0.183-0.375,0.417-1.256,1.107c0.718-0.676-0.912,0.613-0.934,0.549c0.884-0.697,1.869-1.474,2.778-2.191
							c0.934-0.684,1.79-1.311,2.388-1.75l0.472-0.154c0.916-0.559,1.825-1.184,2.695-1.709c0.876-0.514,1.678-0.985,2.317-1.331
							l-0.363,0.286c1.124-0.622,2.274-1.174,3.371-1.75c1.128-0.511,2.225-1.01,3.297-1.4c2.061-1.007,4.745-2.097,6.513-2.762
							c0.467-0.196,2.091-0.684,3.951-1.028c1.842-0.424,3.91-0.7,5.169-1.045c0.172-0.026-1.737,0.432-2.596,0.646
							c1.699-0.29,3.024-0.716,3.588-0.59c-3.834,0.513,0.22,0.07-1.491,0.4c0.889-0.158,1.813-0.253,2.616-0.381
							c0.804-0.128,1.496-0.223,1.937-0.276c-2.915,0.291,1.008-0.391-1.932,0.04c1.13-0.247,2.488-0.361,3.901-0.504
							c1.427-0.12,2.864-0.127,4.293-0.128c-0.028,0.075,0.302,0.118,1.308,0.174l0.813-0.088c1.264,0.051-2.443,0.066,0.098,0.169
							c0.648-0.044,1.48-0.011,2.384,0.063c0.895,0.077,1.865,0.114,2.76,0.253c0.899,0.118,1.754,0.225,2.458,0.29
							c0.703,0.082,1.253,0.147,1.556,0.109c0.988,0.246,0.03,0.109-0.799,0c-0.83-0.112-1.535-0.159-0.042,0.158
							c-1.771-0.145-4.176-0.595-4.787-0.438c1.746,0.086,0.62,0.199,1.732,0.324l1.931,0.139l-0.425-0.061
							c3.245,0.253,8.285,1.421,12.212,2.763c3.376,0.972,5.748,1.66,9.52,3.61c-0.58-0.24,0.192,0.183,0.801,0.534
							c0.604,0.361,1.038,0.655-0.176,0.104c0.846,0.489,1.674,0.996,2.325,1.331c0.648,0.34,1.096,0.554,1.128,0.539
							c-1.456-0.907-0.519-0.323-1.746-1.088c0.443,0.209,1.167,0.578,1.852,1c0.678,0.431,1.341,0.875,1.716,1.151
							c-0.357-0.237-0.23-0.135-0.326-0.163c1.698,1.163,0.88,0.459,2.123,1.28c0.156,0.188,0.82,0.671,1.579,1.212
							c0.733,0.576,1.558,1.216,2.071,1.661c0,0,0.425,0.258,0.82,0.554c0.403,0.289,0.806,0.578,0.806,0.578
							c-0.903-0.615,1.413,1.259,1.551,1.568c1.07,0.921,2.074,1.598,3.52,3.204c-0.66-0.601,1.299,1.48,1.204,1.614
							c0.581,0.715,1.137,1.347,1.678,1.937c0.518,0.603,1.013,1.18,1.504,1.752c0.506,0.56,0.965,1.147,1.426,1.774
							c0.453,0.63,0.949,1.271,1.375,2.037c-0.082-0.076-0.528-0.625-0.002,0.252c0.452,0.666,1.233,1.835,1.66,2.583l-0.017-0.022
							c0.01,0.014,0.016,0.023,0.026,0.038c0.216,0.362,0.359,0.582,0.392,0.579c0.419,0.605,0.745,1.076,1.163,1.68
							c0.388,0.63,0.855,1.421,1.564,2.697c0.018-0.246-1.123-2.435-1.692-3.337l-0.578-0.731c-0.128-0.432-0.464-0.998-0.801-1.531
							c-0.355-0.522-0.724-1.005-0.874-1.307c0.599,0.656,1.497,2.097,2.443,3.699c0.903,1.624,1.849,3.41,2.513,4.774
							c-0.522-1.792-2.363-5.402-4.254-8.37c0,0,0.191,0.337,0.382,0.675c0.196,0.334,0.361,0.687,0.361,0.687
							s-0.22-0.405-0.476-0.787c-0.249-0.387-0.498-0.774-0.498-0.774s0.209,0.394,0.418,0.788c0.216,0.389,0.397,0.798,0.397,0.798
							c-0.42-0.762-0.887-1.427-1.31-2.094c-0.424-0.666-0.852-1.304-1.313-1.939c1.08,1.492,1.245,2.237,0.729,1.335
							c-1.039-1.769-1.299-1.696-2.188-2.976c0.493,0.715,1.147,1.639,0.66,1.091c-0.804-1.317-1.438-2.065-1.997-2.824
							c-0.557-0.763-1.147-1.452-2-2.572c0.019,0.216-0.528-0.469-1.207-1.164c-0.67-0.702-1.403-1.478-1.615-1.563l0.883,0.954
							c0,0-0.5-0.474-1-0.947c-0.502-0.47-1.032-0.909-1.032-0.909c-1.708-1.888,1.764,1.417-0.948-1.352
							c-2.652-2.398-2.744-2.148-4.959-3.86c0.404,0.23,1.063,0.667,1.843,1.222c0.769,0.57,1.626,1.299,2.485,2.04l-0.995-0.95
							c0.625,0.39,2.924,2.541,4.012,3.672c-0.965-0.868-0.764-0.639-0.221-0.089c0.528,0.565,1.385,1.468,1.745,1.935
							c0.246,0.072-0.912-1.128,0.512,0.233c-1.276-1.325-1.427-1.555-3.08-3.221c3.516,3.64,3.548,2.94,6.291,6.445
							c-1.313-1.573,0.294,0.681,0.393,0.911c0.636,0.725,1.747,2.33,2.253,2.956l-0.265-0.702c0.802,1.021,1.18,1.82,1.627,2.627
							c0.219,0.407,0.454,0.817,0.732,1.285c0.264,0.476,0.581,1.003,0.996,1.626c0.292,0.282-1.274-2.3-0.994-1.84
							c1.073,1.74,1.751,2.959,2.263,4.195c0.261,0.609,0.519,1.213,0.799,1.868c0.251,0.668,0.526,1.389,0.865,2.227
							c0.124,0.167,0.256,0.062,0.817,1.203c-0.257-0.323,0.05,0.563-0.574-0.718c0.421,1.132,1.015,2.438,1.442,3.418
							c-0.419-1.188-0.295-0.961-0.022-0.388c0.265,0.575,0.61,1.521,0.723,1.728c0.401,1.248-0.236-0.341-0.525-1.089
							c0.309,1.004,0.546,2.234,0.899,2.746c-0.051,0.038-0.36-0.632-0.738-1.537c-0.185-0.458-0.391-0.969-0.595-1.475
							c-0.219-0.508-0.436-1.01-0.626-1.452l0.46,1.219c-0.388-0.815-0.433-0.977-0.89-2.187c0.379,1.215,0.235,1.133,0.049,0.893
							c-0.046-0.162,0.06,0.075,0.018-0.079c-0.348-0.979-0.682-1.701-0.652-1.455c-0.508-0.795,0.455,1.367,0.622,2.054
							c0.197,0.491,0.422,0.973,0.596,1.464c0,0,0.555,1.233,1.109,2.466c0.521,1.248,1.003,2.521,1.002,2.521
							c0.366,1.101,0.498,1.934,0.649,2.685c0.133,0.755,0.267,1.437,0.364,2.302l0.221,0.441c0.375,1.98,0.54,3.872,0.204,2.619
							c0.03-0.076,0.007-0.339-0.069-0.769c-0.029-0.055-0.061-0.152-0.094-0.274c-0.016-0.037-0.027-0.063-0.041-0.095
							c0.382,2.113,0.532,3.448,0.567,3.57c-0.66-3.593-0.273-0.152-0.596-0.729c0,0,0.034,0.227,0.085,0.566
							c0.054,0.339,0.12,0.792,0.156,1.249c0.09,0.911,0.179,1.822,0.179,1.822c-0.09-2.22,0.118-0.049,0.211,0.739
							c-0.119,0.232,0.11,2.929,0.075,4.265l-0.026-0.095c-0.081,1.171-0.087,3.205-0.203,4.721
							c0.045-0.069,0.157,1.884,0.145,2.804c0.353-2.546,0.216-1.03,0.341-1.221c-0.024,0.269-0.099,0.74-0.084,0.798
							c-0.007,0.37,0.115-0.491,0.17-0.559c0.069-1.379,0.183-2.81,0.191-3.974c-0.008-1.152-0.037-2.108-0.12-2.653
							c-0.108,0.813,0.049,1.394-0.033,2.305c-0.048-0.66-0.056-1.415-0.043-2.281c0.006-0.952-0.038-1.905-0.058-3.052l0.097-0.748
							l-0.23-2.27c0.12,0.944,0.239,0.361,0.387,2.755c0.138-0.314-0.185-2.372-0.251-3.839l-0.239-0.732
							c0.122,0.28-0.258-2.843,0.141-0.639c0,0,0.036,0.225,0.091,0.562c0.06,0.337,0.127,0.787,0.17,1.24
							c0.101,0.906,0.201,1.811,0.201,1.811l0.028-1.019c0,0,0.065,0.769,0.131,1.539c0.04,0.384,0.055,0.77,0.063,1.059
							c0.01,0.289,0.017,0.482,0.017,0.482l-0.099-0.724c0.116,2.499,0.051,2.792-0.012,3.262c-0.076,0.356-0.144,0.716-0.113,3.133
							c0.074,1.554,0.035,3.318-0.436,6.322c0.238-2.2-0.102-0.241-0.104-1.08c-0.336,2.225-0.369,2.985-0.492,4.153
							c-0.199,0.547-0.35,0.933,0.018-1.043c-0.165-0.286-0.409,2.611-0.703,2.739c-0.704,3.244-0.989,4.548-1.247,6.014
							c-0.352,1.435-0.698,3.044-2.334,6.597l0.041-0.299c-1.888,4.585-3.38,7.056-5.813,10.94c0,0-0.134,0.182-0.333,0.456
							c-0.212,0.265-0.495,0.618-0.777,0.971c-0.567,0.703-1.134,1.405-1.134,1.405c0.441-0.677,1.559-2.531,0.888-1.769
							c0.611-0.639,1.118-1.385,1.634-2.146c0.521-0.757,1.031-1.542,1.538-2.338c0.047-0.197-0.373,0.449-0.568,0.719
							c0.563-0.984,0.949-1.423,1.643-2.756c-0.055,0.053-0.935,1.438-0.338,0.356c0,0,0.274-0.431,0.535-0.871
							c0.263-0.439,0.525-0.879,0.525-0.879c0.603-1.229,0.669-1.568,0.768-1.959c0.104-0.389,0.246-0.823,0.934-2.27
							c-0.133,0.589-0.475,1.772-0.964,2.922c0.312-0.666,0.14-0.206-0.066,0.257c-0.209,0.461-0.42,0.94-0.081,0.357
							c0.405-0.981,0.685-1.717,1.055-2.508c0.375-0.789,0.737-1.679,1.195-3.012c-0.098,0.316-0.098,0.412-0.341,1.059
							c0,0,0.393-0.944,0.785-1.889c0.374-0.952,0.706-1.921,0.706-1.921c-0.212,0.463,0.031-0.347,0.293-1.231
							c0.25-0.89,0.461-1.87,0.341-1.707c-0.3,1.044-0.528,1.742-0.723,2.277c-0.181,0.539-0.309,0.921-0.442,1.32
							c-0.247,0.807-0.6,1.656-1.547,3.941c0.467-1.321,1.029-3.038,1.132-3.896c0.019-0.038,0.046-0.104,0.097-0.245
							c0.096-0.763-0.189-0.052-0.439-0.153c-0.247,1.096-0.614,1.956-0.969,2.872c-0.344,0.921-0.78,1.855-1.278,3.078
							c-0.086,0.51,0.838-1.306,1.275-2.547c0,0-0.173,0.559-0.4,1.096c-0.218,0.542-0.436,1.083-0.436,1.083l0.127-0.446
							c0,0-0.155,0.336-0.388,0.839c-0.233,0.503-0.532,1.18-0.888,1.828c-0.343,0.654-0.685,1.31-0.941,1.801
							c-0.249,0.495-0.449,0.807-0.449,0.807c0.546-0.979,0.613-1.373,0.83-1.915c-0.357,0.671-0.712,1.335-1.163,2.001
							c0.208-0.079,0.241,0.063-0.131,0.705c-1.916,3.289-3.289,4.916-4.226,5.96c-0.081,0.12-0.172,0.254-0.247,0.364
							c0.519-0.409-1.419,2.298-2.055,3.308c-0.077-0.139-1.352,1.424-2.126,2.2c-0.266,0.547,0.436,0.135,1.415-0.795
							c1.575-2.057,0.824-1.203,1.415-2.289c0,0,0.608-0.835,1.217-1.669c0.57-0.86,1.141-1.72,1.141-1.72l-0.422,0.83
							c1.275-1.626,2.168-3.405,2.236-3.183c-0.465,0.999-1.562,2.433-2.102,3.379l0.847-1.078
							c-1.274,2.063-0.812,0.943-2.522,3.312c0.782-0.755-0.148,0.218-0.855,1.259c0.363-0.354,1.145-1.381,1.804-2.202
							c0.658-0.822,1.125-1.495,0.982-1.053c-0.779,1.335-3.378,3.865-4.533,5.529l0.042-0.093c-2.045,2.16-2.688,2.996-3.443,3.826
							c-0.956,0.838-2.203,2.07-3.245,2.976l-0.022-0.079c0,0-0.353,0.336-0.736,0.634c-0.377,0.307-0.754,0.613-0.754,0.613
							c0.656-0.66,1.769-1.431,3.013-2.546l-0.248,0.031c0.792-0.555,1.339-1.146,1.844-1.696c0.494-0.563,0.953-1.082,1.411-1.673
							c-0.702,0.824-1.835,1.851-2.782,2.769c-0.99,0.872-1.813,1.623-1.918,1.895c0,0-0.27,0.2-0.559,0.377
							c-0.285,0.18-0.571,0.359-0.571,0.359l-0.47,0.435c-0.856,0.527-0.137-0.212,1.329-1.456c0.275-0.191,0.414-0.288,0.356-0.2
							c0.62-0.653,1.227-1.206,2.793-2.693l-0.786,0.85c1.992-1.818,3.621-3.658,4.152-4.414c-2.656,2.828-5.491,5.393-8.354,7.64
							c-0.636,0.926-1.573,1.82-1.859,2.37c-1.946,1.528-4.817,3.289-6.74,4.247l0.145-0.148c-0.916,0.503-1.787,0.919-2.482,1.327
							c-1.017,0.434,0.605-0.483-0.1-0.169c0,0-0.193,0.105-0.483,0.265c-0.287,0.165-0.68,0.366-1.079,0.554
							c-0.794,0.386-1.588,0.771-1.588,0.771c0.073-0.105,0.785-0.464,1.639-0.869c0.858-0.396,1.813-0.933,2.442-1.247
							c-0.23,0.131-0.699,0.396-0.538,0.333c1.51-0.659,4.023-2.411,4.731-2.621c0.656-0.46-1.295,0.997,0.991-0.455
							c1.578-0.908,1.956-1.402,2.074-1.562c0.001-0.048-2.422,1.484-1.638,0.865c-1.18,0.76-1.583,1.177-3.188,1.995
							c1.223-0.674,2.715-1.848,3.404-2.146c2.21-1.649,1.648-1.748,0.599-1.005c0.338-0.056-4.126,2.814-1.021,1.001
							c-1.271,1.012-3.809,2.544-5.666,3.567l0.072-0.069c0,0-0.582,0.309-1.164,0.616c-0.577,0.319-1.177,0.591-1.177,0.591
							c0.326-0.178,1.021-0.568,1.009-0.649c0,0-0.197,0.114-0.492,0.287c-0.304,0.158-0.707,0.369-1.111,0.58
							c-0.811,0.421-1.621,0.843-1.621,0.843c0.91-0.485,0.609-0.375-0.026-0.104c-0.64,0.264-1.639,0.634-2.082,0.782
							c-0.319,0.25-1.62,0.852-0.322,0.411c1.465-0.488,0.813-0.387,2.111-0.908l-1.778,0.896l-0.167,0.047
							c0,0-0.266,0.145-0.53,0.288c-0.265,0.148-0.534,0.281-0.534,0.281c-2.57,0.859,1.005-0.703-2.231,0.545l0.49,0.047
							c-0.95,0.334-1.991,0.614-3.053,0.883c-1.055,0.294-2.141,0.529-3.195,0.735c-0.525,0.109-1.042,0.218-1.542,0.321
							c-0.505,0.084-0.994,0.164-1.46,0.241c-0.934,0.146-1.768,0.337-2.471,0.43c0.761-0.215,1.068-0.445-0.008-0.41
							c0.608-0.04,1.506-0.229,2.474-0.39c0.969-0.155,1.991-0.383,2.836-0.6c0.168-0.021-0.35,0.16-1.144,0.394
							c-0.796,0.224-1.882,0.437-2.82,0.589c0.48,0.077,1.656-0.169,2.733-0.432c1.071-0.297,2.053-0.573,2.201-0.437
							c4.726-1.124,3.406-1.227,7.359-2.358c-0.001-0.16,1.059-0.495,1.213-0.698c-1.187,0.288-5.153,1.853-7.753,2.448
							c0.249-0.082,0.747-0.246,0.836-0.301c-1.835,0.47-2.605,0.616-3.882,0.987l0.166-0.02c-2.244,0.591-1.433,0.154-2.778,0.337
							c-0.514,0.144-2.396,0.337-2.081,0.403c0,0-0.615,0.042-1.23,0.085c-0.615,0.045-1.23,0.073-1.23,0.073l0.135,0.157
							c-1.388,0.116-1.698,0.028-2.947,0.226l-0.051,0.153c0,0,0.864-0.053,1.729-0.105c0.432-0.026,0.864-0.053,1.188-0.072
							c0.325-0.018,0.539-0.051,0.539-0.051c-1.745,0.217-0.473,0.189-2.398,0.375c2.141-0.335-1.531,0.052-1.749-0.108l-1.417,0.12
							l0.362-0.049c-1.125-0.062-1.299,0.118-2.652,0.072c1.585,0.095,2.563,0.163,4.524-0.023
							c-0.708,0.104-1.771,0.144-2.744,0.212c-0.504,0.025-0.909,0.064-1.376,0.067c-0.376-0.002-0.676-0.003-0.845-0.003
							c-1.462,0.025-2.465-0.094-3.898-0.241c1.361,0.072,1.125-0.06,1.231-0.144c0.111-0.074,0.542-0.135,3.169-0.017
							c-0.099,0.026-0.524,0.009-0.688-0.013c0.174,0.053,0.458,0.083,0.804,0.098c0.086,0.003,0.177,0.006,0.27,0.009l0.18,0.003
							l0.15-0.006c0.201-0.012,0.413-0.023,0.628-0.036c0.861-0.057,1.774-0.149,2.352-0.2c-0.303-0.103,0.908-0.16-1.149-0.169
							c0.339,0.026-0.092,0.099-0.854,0.159c-0.394,0.025-0.816,0.067-1.364,0.064c-0.482-0.008-0.99-0.026-1.471-0.062l0.346-0.226
							c0,0-0.7-0.024-1.399-0.049c-0.693-0.01-1.413-0.087-1.414-0.087l0.268,0.009c-1.062-0.237-3.056-0.166-4.978-0.541
							c-1.424-0.014-6.724-1.18-4.487-0.467c-1.686-0.537-3.244-0.652-5.097-1.181c0,0,0.571,0.187,1.142,0.374
							c0.568,0.199,1.151,0.342,1.151,0.341c-2.793-0.554-1.967-0.461-4.234-0.842c-0.2-0.135-0.663-0.348-0.206-0.265
							c-3.661-1.126-8.631-3.396-10.671-4.344c-1.21-0.602-1.83-1.096-2.6-1.589c-0.775-0.489-1.638-1.084-3.252-2.065
							c-0.673-0.423,0.369,0.565-1.64-0.938c-0.125-0.11,2.063,1.253-0.217-0.346c-0.43-0.25-0.879-0.55-1.345-0.88
							c-0.453-0.346-0.916-0.731-1.395-1.124c-0.974-0.771-1.941-1.658-2.966-2.448c-1.001-0.927-2.687-2.583-2.242-2.331
							c1.5,1.549,3.86,3.485,4.252,3.734c-0.289-0.116,1.151,1.013-0.138,0.083c2.509,2.083,1.682,1.281,4.024,3.03
							c0.199,0.064-1.14-0.988-1.664-1.331c0.084-0.127,4.749,3.237,2.754,1.571c-2.526-1.794-3.505-2.05-5.463-3.921
							c0.892,0.617,2.173,1.724,3.382,2.395c0-0.001-0.434-0.341-0.852-0.702c-0.421-0.356-0.843-0.713-0.843-0.713
							s-0.337-0.22-0.675-0.44c-0.342-0.215-0.667-0.453-0.667-0.453l0.091,0.041c-2.832-2.686-2.86-2.216-5.421-4.616
							c1.31,1.564-0.574-0.1,0.439,1.06c-1.667-1.674-2.823-2.967-2.671-3.123c3.109,3.115,0.302,0.071,3.252,2.852
							c-0.415-0.523,0.861,0.495-0.791-1.248c-1.971-1.866,0.441,0.698-1.472-1.215c-0.097-0.127-0.199-0.26-0.112-0.21
							c-0.893-0.871-0.923-1.12-1.996-2.187l0.264,0.245c-1.101-1.495-1.374-1.502-2.27-2.831c0.265,0.603-0.738-0.788-1.375-1.555
							c0.889,1.359,1.236,2.203,3.289,4.686c0.342,0.22,0.238,0.003,1.142,0.961l-1.375-1.565c0.312,0.319,0.555,0.568,0.843,0.863
							l1.267,1.554c-1.727-1.866-1.054-0.904-1.854-1.646c-1.462-1.82-1.232-1.482-2.123-2.649c0.174,0.048-2.431-3.796-3.719-6.139
							c0.222,0.353,0.507,0.805,0.661,1.049c1.141,1.574-0.611-1.192-0.59-1.286l-0.777-1.182c0.143,0.226,0.358,0.522,0.08-0.012
							c-0.988-1.635-1.061-1.468-1.964-3.158c0.019-0.167,0.878,1.203,0.381,0.126c-0.057-0.2-0.186-0.614-0.453-1.253
							c-0.247-0.648-0.603-1.535-1.162-2.666c-0.116-0.146-0.383-0.745-0.67-1.446c0.043,0.094,0.097,0.211,0.119,0.26L7.691,93.82
							c0.664,1.273,0.981,2.72,1.743,3.952l0.188,0.05c0.433,1.025,1.197,2.334,1.582,2.916c-0.756-1.515-0.957-1.813-1.754-3.533
							c-0.021-0.278,0.591,0.904,0.679,1.075l-0.194-0.222c0.39,1.064,0.843,1.784,1.292,2.578c0.466,0.793,0.963,1.64,1.669,2.841
							c0.205,0.368,0.067,0.15-0.005,0.083c1.26,1.889,2.329,3.854,3.78,5.527l-0.48-0.538c0.452,0.6,1.144,1.467,2.004,2.427
							c0.822,0.99,1.848,2.039,2.857,3.094l0.058-0.022c-0.19-0.264,0.529,0.562,0.928,0.991l-0.003-0.003
							c0.529,0.505,1.048,1,1.538,1.467c0.51,0.446,0.99,0.867,1.421,1.246c-0.241-0.28-0.558-0.624-0.942-1.002
							c-0.389-0.254-2.171-2.245-2.04-1.868c-0.79-0.95-2.166-2.392-2.713-3.118c0.971,1.346-0.839-0.8-1.073-0.987
							c-0.133-0.251-0.515-0.732-0.833-1.141c-0.305-0.419-0.539-0.769-0.424-0.719c-0.158-0.289,0.388,0.726,0.903,1.221
							c0.584,0.644,0.115,0.003-0.32-0.594c-0.416-0.612-0.786-1.19-0.116-0.345c-1.713-2.146-3.623-5.219-5.092-7.641l0.744,1.403
							c-0.657-1.08-2.007-3.738-2.058-3.962c0.448,0.822,0.921,1.811,1.523,2.843c0.123-0.002-1.32-2.552-1.307-2.709
							c0,0-0.113-0.187-0.282-0.466c-0.155-0.286-0.362-0.668-0.569-1.051c-0.415-0.767-0.83-1.533-0.83-1.533l0.621,1.392
							c-0.497-0.831-1.664-3.807-2.364-6.063c0.314,0.608,0.585,1.455,0.968,2.413c0.366,0.963,0.75,2.074,1.322,3.179
							c0.812,1.608-0.278-1.094,0.469,0.438c-0.135-0.424-0.608-1.427-0.866-1.912l-0.21-0.637c0.705,1.348,2.122,4.431,3.325,6.344
							c-0.107-0.166-0.204-0.31-0.252-0.356c0.776,1.552,1.639,3.099,2.619,4.48c-0.431-0.786-0.663-1.057-0.947-1.484
							c-0.007-0.07,0.881,1.259,1.247,1.741c-0.802-1.352-0.066-0.307-0.577-1.16c0.601,0.829,0.997,1.559,1.707,2.581
							c0.317,0.566-0.389-0.379-0.389-0.221c0.805,1.002,0.918,1.648,2.164,3.069c-1.513-1.994,0.565,0.4,1.146,1.033l-0.253-0.332
							c0.564,0.56,0.993,1.072,1.284,1.543c-0.719-0.729-1.276-1.55-1.19-1.247c0.412,0.537,0.857,1.041,1.386,1.596l-0.517-0.476
							c0,0,0.554,0.632,1.109,1.263c0.542,0.643,1.137,1.235,1.137,1.235c0.438,0.319,1.148,0.866,1.568,1.101
							c0.49,0.642,1.371,1.341,1.936,1.845l-0.283-0.213c0.492,0.553,1.38,1.343,2.184,2.002c0.787,0.679,1.505,1.202,1.646,1.247
							c0.735,0.791-6.038-4.424-0.292,0.363c2.243,1.751,1.544,0.9,2.917,1.762c0,0-0.091-0.031,0.029,0.076
							c1.003,0.728,1.15,0.736,2.022,1.26c-0.6-0.435-1.46-1.081-1.769-1.241c0.185,0.062,0.707,0.436,1.287,0.854
							c0.584,0.411,1.253,0.828,1.673,1.05c-1.13-0.513,1.977,1.345,1.127,0.908c1.043,0.65,2.133,1.315,3.154,1.797
							c1.023,0.478,1.92,0.877,2.53,1.096c1.428,0.888,2.661,1.209,5.153,2.266c-0.385-0.159-1.1-0.405-1.631-0.641
							c-1.492-0.438,2.586,1.099,0.324,0.345c0.482,0.166,0.061-0.056-0.432-0.227c-0.863-0.304-1.661-0.624-1.48-0.467
							c0,0,0.485,0.273,0.994,0.494c0.505,0.232,1.009,0.465,1.009,0.465l-0.734-0.253c0,0,0.769,0.349,1.538,0.698
							c0.384,0.178,0.771,0.352,1.068,0.461c0.294,0.116,0.491,0.194,0.491,0.194c0.097,0.004-0.193-0.132-0.34-0.2
							c3.664,1.403,8.053,2.405,11.44,2.929c0.173-0.06,0.783-0.029,1.646,0.034c0.86,0.059,1.975,0.229,3.144,0.279
							c1.17,0.078,2.396,0.182,3.56,0.166c0.573,0,1.115,0,1.604,0c0.122-0.002,0.24-0.004,0.354-0.005l0.085-0.002
							c-0.038-0.002,0.037-0.004,0.049-0.006l0.159-0.013c0.206-0.021,0.397-0.039,0.572-0.056c-0.368,0.066-0.654,0.152-0.791,0.23
							c-0.094,0.07-0.087,0.149,0.106,0.184c-0.575,0.014-1.901,0.132-3.309,0.065c-0.232-0.063-1.937-0.279-0.833-0.263
							c-3.834-0.248,0.509,0.213-0.628,0.273c4.327,0.226,6.842-0.083,9.533-0.383l0.072,0.042c0,0,0.507-0.061,1.015-0.122
							c0.508-0.052,1.012-0.139,1.012-0.139c-0.829,0.086-1.232,0.027-1.155-0.021c0.075-0.063,0.63-0.11,1.696-0.222l-0.258,0.044
							c0.612-0.03,1.547-0.154,2.565-0.297c1.011-0.19,2.105-0.396,3.045-0.573c0-0.001,0.312-0.093,0.62-0.201
							c0.309-0.104,0.616-0.209,0.616-0.209c1.864-0.419,2.006-0.187,2.643-0.226c2.911-0.784,4.499-1.538,6.444-2.408
							c0.461-0.142,1.761-0.568,2.631-0.942c0.877-0.358,1.376-0.542,0.314,0.008c2.432-1.222,1.714-1.422,5.916-3.375l-0.993,0.688
							c1.927-1.097,4.211-2.525,6.121-3.961c0.481-0.354,0.948-0.695,1.39-1.02c0.428-0.341,0.832-0.663,1.202-0.959
							c0.745-0.584,1.353-1.061,1.76-1.38c-0.501,0.676,0.604-0.159,1.947-1.2c1.3-1.088,2.821-2.401,3.204-2.586
							c-0.211,0.104,0.928-1.131,1.065-1.339c0.291-0.231,0.735-0.654,1.099-1.202c-1.212,1.251,0.564-1.133-1.587,1.398
							c0.504-0.681,1.056-1.474,1.78-2.441c0.744-0.974,1.621-2.12,2.727-3.565l0.087,0.135l-1.826,2.254
							c0.282-0.148-0.692,0.983-1.059,1.475c0.909-0.999,1.33-1.471,1.521-1.669c0.197-0.192,0.176-0.101,0.155-0.014
							c-0.045,0.173-0.08,0.334,1.616-1.862c0.232-0.496,0.063-0.189,0.867-1.386c-0.389,0.556-0.375,0.715,0.261-0.177l0.51-0.923
							c0.619-0.75,0.248-0.035-0.227,0.658c-0.461,0.701-0.95,1.429-0.398,0.803c-1.107,1.854-3.464,4.761-2.876,4.346
							c2.275-2.71,1.724-2.685,3.912-5.637l0.279-0.284c0.652-1.121,0.655-1.369,0.968-2.004c0.073-0.03,0.292-0.281,0.71-1
							c0.947-1.972,1.563-3.278,2.276-5.158c-0.565,1.204-0.994,2.054-1.344,2.73c-0.369,0.668-0.683,1.15-0.985,1.645
							c-0.599,0.993-1.246,1.977-2.717,4.296c0.465-0.728,2.478-4.025,2.378-4.354l0.104,0.121c0.841-1.575,1.596-3.183,2.597-5.179
							c0,0-0.122,0.32-0.243,0.64c-0.135,0.313-0.271,0.627-0.271,0.627c0.615-1.347,1.142-2.46,1.655-3.495
							c0.451-1.062,0.891-2.05,1.17-3.193c-0.283,0.776-0.548,1.393-0.707,1.878c0.529-1.432,1.136-3.244,1.673-4.813
							c0,0,0.175-0.84,0.349-1.681c0.088-0.419,0.175-0.838,0.239-1.152c0.051-0.317,0.084-0.528,0.084-0.528
							c0.065,0.046,0.558-2.064,0.438-1.02c0.166-0.594,0.295-1.114,0.396-1.581c0.078-0.473,0.134-0.891,0.18-1.277
							c0.086-0.771,0.159-1.429,0.237-2.125c0.237-1.239,0.187-0.696,0.098,0.194c-0.132,0.884-0.322,2.11-0.242,2.253
							c0.161-0.856,0.354-1.723,0.47-2.583c0.104-0.861,0.206-1.705,0.303-2.504c0.124-1.599,0.182-2.98,0.163-3.975
							c-0.05,0.723-0.127,1.045-0.152,1.013c0.075-0.087,0.117-1.507,0.129-2.312l-0.083-0.551c0.099-1.329,0.151-1.139,0.196-0.008
							c0.013-0.317,0.013-0.649,0.009-0.991c-0.003-0.275-0.042-0.66-0.061-0.99c-0.044-0.686-0.073-1.376-0.02-2.021
							c0.074,1.051,0.145,2.294,0.12,3.332c-0.029,1.104-0.062,2.077-0.039,2.645c0.005-1.135,0.033-1.986,0.072-2.716
							c0.047-0.67,0.036-1.301,0.064-1.927c0.059-1.271,0.06-2.699-0.27-5.508c0.037-0.076,0.248,0.866,0.112-0.215
							c-0.355-2.505-0.282-0.631-0.489-1.4c0.327,1.915,0.324,2.823,0.282,3.952l-0.118-0.507c0.029-0.081-0.042-1.293-0.055-1.651
							l-0.199-0.292c0.182,0.128,0.115-1.829-0.205-3.328c0.129,1.542,0.038,1.134-0.096,1.577
							c-0.213-1.051-0.304-1.646-0.363-2.281c-0.082-0.63-0.107-1.309-0.484-2.454c0.12,0.157,0.544,2.21,0.245,0.422
							c-0.331-1.464-0.421-1.239-0.689-2.206c0.398,1.069,0.44,0.759,0.89,1.922c0.529,2.619,0.214,1.057,0.733,3.625l-0.267-2.205
							c0.424,2.233,0.458,1.6,0.548,1.777c-0.527-3.87-0.755-2.847-1.265-5.292c-0.369-1.149,0.506,2.286-0.021,0.474
							c-0.509-2.277-0.207-0.497-0.96-3l0.185,0.403c-0.139-0.792-0.436-1.532-0.763-2.396c-0.383-0.938-0.09,1.229-1.497-2.671
							c0.113,0.174,0.165,0.234,0.181,0.228c0.001,0,0.174,0.205,0.408,0.526c0.232,0.323,0.542,0.755,0.853,1.187
							c0.313,0.438,0.625,0.875,0.858,1.204c0.236,0.331,0.372,0.56,0.372,0.56c-1.232-4.109-3.082-8.721-5.476-13.086
							c-0.191-0.565,0.314,0.17,0.815,1.036c0.485,0.874,1.006,1.854,0.985,1.694c0,0,0.258,0.508,0.487,1.03
							c0.224,0.524,0.447,1.049,0.447,1.049c-0.091-0.101-2.136-4.265-1.369-2.349c1.841,3.567,2.442,5.29,3.872,8.828
							c-0.116-1.217-1.729-4.723-2.645-7.032c0.409,0.961,0.82,1.742,1.172,2.524c-0.435-1.084-0.939-2.185-1.436-3.333
							c-0.568-1.113-1.098-2.295-1.749-3.457l-0.35-0.491c0.898,1.554,1.376,2.704,1.461,2.839
							c-1.024-2.149-2.228-3.772-2.432-3.827l0.204,0.368l-0.475-0.714C125.964,35.779,125.676,35.305,125.39,34.835z M6.119,54.492
							c0.015-0.143,0.021-0.259,0.016-0.345C6.141,54.236,6.179,54.145,6.119,54.492z M135.731,79.198
							c0.495-3.15,0.665-6.367,0.703-9.421c-0.076,1.398-0.225,2.646-0.314,3.641c-0.126,0.99-0.263,1.696-0.332,1.945
							c-0.181,0.494-0.006-0.82,0.038-5.394l-0.04-0.6c0.008,0.599-0.019,1.401-0.052,2.315c-0.034,0.907-0.022,1.914-0.105,2.876
							c-0.006,0.78,0.057,2.448-0.027,3.911c-0.023,0.732-0.045,1.415-0.061,1.915c-0.037,0.494-0.055,0.804-0.043,0.791
							c0.211-0.534,0.212-1.359,0.364-2.365L135.731,79.198z M134.81,81.336c-0.353,1.752-0.204,1.364-0.185,1.651
							c0.103-0.621,0.204-1.241,0.305-1.854C134.87,81.363,134.825,81.476,134.81,81.336z M134.713,82.896
							c0.037-0.197,0.07-0.365,0.096-0.452L134.713,82.896z M132.345,48.497c0.028,0.077,0.038,0.104,0.063,0.173
							c-0.132-0.401-0.265-0.806-0.403-1.226C132.06,47.612,132.159,47.921,132.345,48.497z M133.28,52.018l0.24,0.374
							c-0.104-0.383-0.209-0.771-0.317-1.169C133.185,51.369,133.175,51.521,133.28,52.018z M135.089,63.508
							c0.213,0.712,0.403,3.163,0.594,3.305c0.058,0.152,0.036-0.365,0.007-0.944c-0.045-0.648-0.093-1.341-0.143-2.075
							c-0.031-0.021-0.057-0.167-0.111-0.407c0.046,0.726,0.029,1.214-0.1,0.931c0.082-1.879-0.357-1.64-0.532-3.638
							C134.6,60.066,134.961,62.91,135.089,63.508z M28.505,121.426c-0.042-0.049-0.173-0.201-0.351-0.409l1.171,0.809
							c0.484,0.404,0.945,0.79,1.395,1.165c0.459,0.358,0.904,0.706,1.34,1.046c0.869,0.694,1.775,1.284,2.797,1.802
							c0.86,0.632,1.294,1.02,1.725,1.37c-0.45-0.268-0.875-0.515-1.206-0.755c-2.805-1.571-3.408-2.185-3.912-2.647
							c-0.249-0.238-0.465-0.454-0.889-0.789C30.168,122.662,29.557,122.183,28.505,121.426z M54.35,134.579
							c-0.259-0.049-0.358-0.042-0.358-0.042c5.617,1.043,10.274,1.335,13.322,1.481c-0.297-0.06-1.128-0.161-2.038-0.29
							c-0.911-0.129-1.909-0.205-2.548-0.336c0,0,0.289-0.001,0.577-0.001c0.289-0.016,0.577-0.031,0.577-0.031l0.7,0.17
							l1.982,0.017c-0.548-0.142-2.141-0.242-3.193-0.398c-0.048,0.013-0.926-0.052-1.916-0.118c-0.495-0.033-1.017-0.068-1.477-0.1
							c-0.455-0.048-0.847-0.089-1.091-0.114c0,0,0.671,0.157,1.348,0.281c0.68,0.112,1.36,0.224,1.36,0.224
							c-0.738-0.097-4.352-0.649-5.768-0.965c-0.021,0.026,0.567,0.232,1.215,0.369c0.648,0.134,1.345,0.246,1.513,0.194
							c0.275,0.161-2.567-0.346-0.792,0.092c-1.083-0.104-2.446-0.456-3.743-0.762c-1.292-0.33-2.486-0.748-3.251-0.981
							l-0.207-0.251c-1.636-0.618-1.19-0.165-3.129-0.931c2.435,0.785-0.34-0.329,1.589,0.309c-0.587-0.281,0.044-0.171-1.869-0.844
							c-1.653-0.41-1.949-0.884-3.48-1.354c-0.941-0.509,1.104,0.338-0.791-0.555c-1.127-0.425-1.655-0.636-1.934-0.716
							c-0.281-0.075-0.314-0.016-0.421,0.029c1.994,1.073,2.396,0.866,4.05,1.68c0,0-0.867-0.307-1.734-0.612
							c-0.435-0.155-0.87-0.31-1.196-0.426c-0.327-0.116-0.537-0.212-0.537-0.212c0.582,0.354,1.05,0.539,1.435,0.709
							c-0.682-0.285-1.275-0.504-1.779-0.704c-0.29-0.112-0.555-0.214-0.798-0.308c0.465,0.239,0.918,0.472,1.339,0.689
							c0.43,0.199,0.828,0.384,1.177,0.546c0.695,0.326,1.187,0.57,1.322,0.673l-0.298-0.04c0.637,0.4,1.802,0.763,2.341,0.914
							c1.74,0.723,3.582,1.127,3.927,1.389l-0.701-0.154c1.095,0.373,1.717,0.537,2.41,0.723
							C52.183,133.994,52.929,134.271,54.35,134.579z M122.241,111.218c-0.564,0.449-1.107,0.956-2.1,1.916
							c-0.974,0.974-2.325,2.462-4.657,4.727l0.355-0.37c-2.467,2.139-4.564,4.506-7.954,6.645c1.512-1.211,1.437-1.142,2.936-2.678
							l-1.569,1.348c0.364-0.47-1.261,0.795-2.501,1.667l0.971-0.942c0.383-0.244,1.071-0.683,1.622-1.102
							c0.549-0.423,0.994-0.781,0.952-0.777c-0.195,0.167,0.454-0.261,1.345-0.892c0.853-0.676,1.956-1.543,2.66-2.233
							c-0.228,0.055-3.344,2.798-2.086,1.417c-1.162,1.153-1.452,1.119-2.747,2.225c1.227-1.084,0.203-0.399,1.093-1.228
							c0,0-0.54,0.439-1.079,0.878c-0.532,0.449-1.098,0.855-1.098,0.855c-0.05,0.05,3.133-2.569,1.244-1.289
							c-0.799,0.788-3.313,2.376-3.259,2.547l-0.082,0.002c-1.769,1.097-0.648,0.685-2.862,1.974
							c0.018,0.084,0.463-0.122,1.226-0.638c0.629-0.454,0.692-0.579,1.997-1.493c0.324-0.161-0.066,0.12-0.42,0.369
							c-0.36,0.238-0.675,0.459-0.153,0.242c0.525-0.211,3.399-2.51,2.58-1.646l-1.722,1.186c0.054,0.17-1.218,0.994-1.123,1.065
							c-1.049,0.743-2.149,1.258-3.231,2.002c-0.426,0.353,0.494,0.045-1.437,1.046c-0.82,0.266-2.291,1.064-3.854,1.719
							c-1.536,0.717-3.13,1.349-3.996,1.703c0,0-0.373,0.173-0.745,0.346c-0.38,0.153-0.76,0.308-0.76,0.308
							c0.177,0.082,2.925-1.123,1.986-0.626c0,0-0.593,0.243-1.185,0.486c-0.604,0.214-1.206,0.428-1.206,0.428l0.166-0.117
							c-0.809,0.251-1.604,0.612-2.339,0.858c0.736-0.325,2.488-0.899,2.094-0.922c-1.146,0.343-1.325,0.397-2.382,0.714
							c0.229-0.076,0.424-0.147,0.388-0.16c-2.348,0.597-2.206,0.808-2.779,1.023c-1.166,0.376-0.55,0.304,0.314,0.108
							c0.862-0.202,1.983-0.481,1.854-0.362c0,0-0.43,0.128-1.075,0.319c-0.642,0.204-1.507,0.442-2.383,0.641
							c-1.737,0.458-3.508,0.77-3.508,0.771c0.595-0.158,1.191-0.315,0.953-0.338c-1.743,0.238-0.063-0.112-2.488,0.329
							c0.104,0.102-0.66,0.235-1.668,0.384c-1.005,0.162-2.254,0.316-3.122,0.423c-0.821-0.025-0.989-0.029,0.789-0.168
							c-0.218-0.137-2.593,0.145-3.444,0.132c-0.5,0.035-1.327,0.095-1.861,0.132c0.711,0.046,0.417,0.158-1.141,0.231l-0.091,0.026
							c1.277,0.007,2.899,0.036,4.406-0.036c1.504-0.093,2.893-0.174,3.673-0.372l-0.441,0.125c2.956-0.2,6.296-1.205,7.662-1.294
							c-0.099,0.129,0.583-0.11,0.567,0.047c0,0,0.523-0.15,1.047-0.302c0.516-0.176,1.031-0.352,1.031-0.352l-0.418,0.189
							c0,0,0.888-0.261,1.775-0.521c0.893-0.242,1.759-0.57,1.759-0.57l-0.085,0.058c0.809-0.347,1.53-0.656,2.177-0.933
							c0.629-0.31,1.185-0.582,1.68-0.825c-0.021-0.062-0.135-0.039,0.39-0.297c0.541-0.238,0.94-0.415,1.301-0.573
							c0.004-0.002,0.004-0.002,0.004-0.003v0.001c0.827-0.354,1.414-0.516,2.443-0.938c0,0-0.778,0.355-1.557,0.712
							c-0.389,0.178-0.778,0.356-1.07,0.49c-0.289,0.138-0.49,0.212-0.49,0.212c-0.218,0.201,0.105,0.226,1.668-0.409
							c-0.625,0.287-0.854,0.485-0.07,0.146c0.075-0.065,2.025-0.993,1.236-0.733c2.924-1.415,7.731-3.748,11.561-6.94
							c-1.4,1.101-0.808,0.705-0.246,0.345c0.539-0.392,1.063-0.722-0.529,0.458c1.19-0.717,1.599-1.169,2.044-1.575
							c0.429-0.43,0.882-0.835,1.943-1.76c0.224-0.105-1.159,1.002-1.606,1.48c3.692-2.906,5.76-5.426,8.77-8.782l0.231-0.056
							C121.074,112.769,121.652,112.012,122.241,111.218z M127.136,103.74c0.411-0.766,0.862-1.522,1.258-2.325
							c-0.04,0.076-0.078,0.148-0.121,0.228l1.088-2.369c-0.777,1.4-1.39,2.263-0.436,0.245c-0.035,0.193,0.326-0.357,0.002,0.349
							c0.792-1.277,2.149-4.283,1.627-3.572c-1.01,2.703-0.512,0.504-1.322,2.615c0.387-1.157,0.938-2.222,1.337-3.291
							c-0.354,1.142,0.354-0.15,1.048-1.806c0.291-0.725,0.96-2.729,1.333-3.97c-0.27,0.399,0.021-0.688-0.684,1.293
							c0.107-0.369,0.251-0.84,0.428-1.373c0.151-0.541,0.334-1.147,0.548-1.782c-0.123,0.516-0.362,1.414-0.3,1.365
							c0.349-0.799,0.62-1.776,0.822-2.302c0.125-0.428,0.197-0.876,0.297-1.304c-0.04,0.125-0.08,0.233-0.116,0.309l0.224-1.47
							c-0.385,1.934-0.262,0.872-0.329,0.832c0.134,0.086,0.304-1.23,0.451-1.889l-0.484,1.393c0.041-0.354,0.209-0.954,0.338-1.427
							c0.108-0.477,0.177-0.824,0.068-0.657c-0.318,1.515-0.611,2.547-0.826,3.558c-0.266,0.999-0.521,1.963-0.882,3.316l0.428-1.06
							c-0.372,1.54-0.634,1.971-0.85,2.463c-0.254,0.479-0.436,1.034-1.104,2.673c-0.381,1.435-2.091,4.895-1.929,5.054
							c0.131-0.427-1.168,1.887-1.668,2.995c-0.251,0.629-0.857,1.844-1.36,2.747c-0.52,0.893-0.878,1.509-0.505,1.014
							c0.62-0.915,1.259-2.261,1.812-2.965l-1.035,1.875l0.803-1.16C126.697,103.953,126.826,103.949,127.136,103.74z
							 M136.186,56.997c-0.003-0.025-0.008-0.054-0.012-0.083l0.016,0.091L136.186,56.997z"/>
						<path fill="#F05D4C" d="M9.086,96.592c-0.326-0.536-0.845-1.985-0.848-1.66c0.049-0.039,0.305,0.598,0.524,1.135
							C9.002,96.595,9.208,97.021,9.086,96.592z"/>
						<path fill="#F05D4C" d="M8.497,94.851c-0.066-0.089-0.082-0.002-0.338-0.641l0.723,1.749L8.497,94.851z"/>
						<path fill="#F05D4C" d="M8.567,92.781c-0.398-0.882-0.639-1.445-1.118-2.884c0.102-0.629,0.868,2.324,1.355,2.874
							c-0.44-1.309-0.775-2.147-1.109-2.926c-0.309-0.786-0.578-1.523-0.906-2.616c0.111,0.555,0.407,1.969,0.83,3.208
							C8.035,91.678,8.445,92.781,8.567,92.781z"/>
						<path fill="#F05D4C" d="M9.366,93.79c0,0-0.156-0.351-0.312-0.701c-0.163-0.349-0.3-0.707-0.301-0.707l0.033,0.151l0.62,1.405
							L9.366,93.79z"/>
						<path fill="#F05D4C" d="M26.968,122.389c0.051,0.162,0.893,0.705,1.324,1.017C27.956,123.133,27.492,122.741,26.968,122.389z"
							/>
						<path fill="#F05D4C" d="M21.483,23.047c0,0-0.521,0.554-1.301,1.385c-0.762,0.848-1.755,2.001-2.71,3.183
							c-0.934,1.2-1.871,2.396-2.502,3.346c-0.652,0.935-1.085,1.559-1.085,1.559C15.861,29.638,17.767,27.01,21.483,23.047z"/>
						<path fill="#F05D4C" d="M63.755,136.949c-1.623-0.101-2.779-0.229-3.96-0.311c-1.166-0.163-2.354-0.28-3.975-0.613
							c1.049,0.299,1.948,0.419,2.736,0.558c0.79,0.134,1.483,0.21,2.159,0.248c1.348,0.103,2.597,0.205,4.432,0.411L63.755,136.949
							z"/>
						<path fill="#F05D4C" d="M62.538,137.566c-0.529-0.203,2.544,0.031,2.079-0.146c-2.21-0.129-1.049,0.102-3.028-0.156
							L62.538,137.566z"/>
						<polygon fill="#F05D4C" points="49.03,131.633 49.958,131.851 49.224,131.638 						"/>
						<polygon fill="#F05D4C" points="77.39,137.42 77.036,137.505 78.665,137.354 						"/>
						<path fill="#F05D4C" d="M76.681,137.578c0,0,0.355-0.074,0.355-0.073C77.036,137.504,76.681,137.578,76.681,137.578z"/>
						<polygon fill="#F05D4C" points="50.298,131.669 48.982,131.185 48.299,131.037 						"/>
						<path fill="#F05D4C" d="M62.274,135.206l-1.271-0.105C61.255,135.122,62.978,135.412,62.274,135.206z"/>
						<polygon fill="#F05D4C" points="87.224,135.684 88.748,135.183 88.586,135.21 87.066,135.711 						"/>
						<path fill="#F05D4C" d="M72.207,135.142c-0.878-0.104,2.517-0.112,0.718-0.172C71.33,135.03,71.979,135.083,72.207,135.142z"
							/>
						<path fill="#F05D4C" d="M90.694,132.766c0.201-0.068,0.408-0.144,0.604-0.226C91.063,132.628,90.863,132.702,90.694,132.766z"
							/>
						<path fill="#F05D4C" d="M90.694,132.766c-0.645,0.2-1.278,0.397-1.739,0.541C89.789,133.144,90.067,132.996,90.694,132.766z"
							/>
						<path fill="#F05D4C" d="M97.907,129.865l-0.566,0.245c0.545-0.319,0.278-0.188-0.209,0.091
							c-0.594,0.273-0.543,0.297-0.603,0.355c-0.111,0.068-0.225,0.139-0.344,0.212c0.174-0.099,0.332-0.188,0.469-0.265
							C97.574,130.089,98.134,129.829,97.907,129.865z"/>
						<path fill="#F05D4C" d="M122.317,113.789c-1.577,1.745-1.992,2.187-1.986,2.021c-1.549,1.594-1.188,1.461-2.086,2.467
							c0.872-0.913,1.396-1.463,1.964-2.058C120.77,115.619,121.339,114.939,122.317,113.789z"/>
						<path fill="#F05D4C" d="M118.245,118.277c-0.193,0.207-0.395,0.388-0.628,0.62
							C117.883,118.644,118.086,118.458,118.245,118.277z"/>
						<path fill="#F05D4C" d="M89.107,132.067c0,0,0.319-0.14,0.635-0.291c0.316-0.148,0.632-0.298,0.632-0.298l-0.475,0.185
							c0,0-0.197,0.103-0.395,0.205C89.309,131.975,89.107,132.067,89.107,132.067z"/>
						<path fill="#F05D4C" d="M124.525,111.088c-0.274,0.338-0.704,0.893-0.943,1.14C123.586,112.392,124.8,110.749,124.525,111.088
							z"/>
						<path fill="#F05D4C" d="M117.162,116.534c-0.19,0.141-1.22,1.173-1.669,1.563C116.112,117.514,116.772,117.19,117.162,116.534
							z"/>
						<path fill="#F05D4C" d="M127.937,105.278c-0.232,0.365-0.655,0.887-0.571,0.599
							C127.068,106.432,126.768,107.251,127.937,105.278z"/>
						<path fill="#F05D4C" d="M119.996,113.478l-0.238,0.222c0,0-0.243,0.306-0.486,0.612c-0.238,0.311-0.497,0.604-0.496,0.604
							c-0.001-0.001,0.317-0.35,0.615-0.716C119.693,113.839,119.996,113.478,119.996,113.478z"/>
						<path fill="#F05D4C" d="M115.113,116.442c-1.157,1.278,2.186-1.677,0.112,0.449c2.808-2.618-0.308,0.107,1.672-1.908
							C115.739,116.166,115.025,116.591,115.113,116.442z"/>
						<path fill="#F05D4C" d="M116.897,114.983c0.169-0.173,0.352-0.359,0.549-0.56
							C117.227,114.647,117.051,114.827,116.897,114.983z"/>
						<path fill="#F05D4C" d="M130.745,95.058c-0.075,0.238-0.128,0.406-0.177,0.562C130.628,95.431,130.685,95.249,130.745,95.058z
							"/>
						<path fill="#F05D4C" d="M122.57,107.99c0,0-0.338,0.553-0.676,1.104c-0.362,0.536-0.725,1.071-0.725,1.071
							c1.027-1.393,3.437-4.999,3.111-4.887c-0.759,1.18-1.738,2.547-2.064,3.169L122.57,107.99z"/>
						<path fill="#F05D4C" d="M137.144,81.459l-0.134,1.167l0.278-1.439C137.188,81.595,137.187,80.828,137.144,81.459z"/>
						<path fill="#F05D4C" d="M137.342,80.908l-0.054,0.278C137.304,81.125,137.32,81.038,137.342,80.908z"/>
						<path fill="#F05D4C" d="M128.78,99.598c-0.397,0.744-0.695,1.351-1.026,2.05C127.938,101.384,128.923,99.518,128.78,99.598z"
							/>
						<path fill="#F05D4C" d="M137.735,73.215c0,0,0.007,0.461-0.031,0.956c-0.029,0.486-0.058,0.974-0.058,0.974
							s0.036-0.531,0.073-1.063c0.022-0.269,0.033-0.529,0.032-0.718c0.004-0.191,0.006-0.319,0.006-0.319L137.735,73.215z"/>
						<path fill="#F05D4C" d="M137.847,64.245l0.009-0.336c0,0-0.039-0.4-0.103-0.796c-0.067-0.396-0.134-0.792-0.134-0.792
							l0.008,0.339c0,0,0.074,0.394,0.125,0.791C137.799,63.848,137.847,64.245,137.847,64.245z"/>
						<path fill="#F05D4C" d="M134.241,75.742c-0.09,1.219-0.085,2.205-0.001,1.887c0,0,0.019-0.149,0.047-0.375
							c0.032-0.225,0.063-0.523,0.08-0.821c0.043-0.596,0.087-1.191,0.087-1.191c-0.201,0.596-0.024,0.658-0.21,2.041
							c0,0,0.025-0.389,0.01-0.772C134.247,76.126,134.241,75.742,134.241,75.742z"/>
						<path fill="#F05D4C" d="M102.458,10.648c0.532,0.202,2.925,1.616,2.982,1.792c-0.325-0.178-1.656-0.873-0.867-0.359
							c0,0,0.511,0.21,0.998,0.464c0.493,0.246,0.986,0.491,0.986,0.491c2.364,1.708-2.011-0.974-3.329-1.545
							c1.279,0.741,2.119,1.202,2.956,1.717c0.847,0.499,1.724,0.997,2.995,1.928c-0.747-0.549-1.18-0.957-1.569-1.258
							c0.005-0.107,0.606,0.27,1.407,0.845c0.81,0.564,1.831,1.306,2.649,1.969c-1.009-0.885-0.363-0.456,0.448,0.098
							c0.143,0.105,0.239,0.17,0.312,0.212c0.095,0.064,0.186,0.126,0.277,0.188l-0.2-0.157c0.025-0.004-0.004-0.056-0.127-0.192
							c-1.409-1.08-2.438-1.97-3.374-2.631c0.374,0.451-0.401-0.139-1.487-0.84c-1.083-0.705-2.421-1.612-3.078-1.911l-1.451-0.803
							l-0.537-0.307c-0.098-0.086,0.077-0.038,0.924,0.39c-0.691-0.386-3.05-1.562-2.864-1.383c0,0-0.335-0.171-0.836-0.427
							c-0.507-0.246-1.195-0.545-1.878-0.856c-1.357-0.646-2.768-1.164-2.768-1.164c-0.171-0.079-0.339-0.16-0.462-0.23
							c-0.199-0.06-0.235-0.059-0.217-0.037c0,0-0.381-0.147-1.048-0.406c-0.678-0.229-1.646-0.556-2.809-0.948
							c-2.347-0.706-5.503-1.59-8.734-2.105c-1.604-0.324-3.235-0.463-4.753-0.672c-1.536-0.108-3.027-0.261-4.209-0.285
							c-1.211-0.026-2.221-0.049-2.927-0.064c-0.715,0.018-1.123,0.028-1.123,0.028c0.322,0,0.633,0,0.941,0l0.229,0.001
							l0.165,0.003l0.11,0.007l0.44,0.027c0.588,0.034,1.182,0.069,1.824,0.106c-1.945,0.125,2.114,0.09,1.561,0.271
							c-0.912-0.017-2.155-0.027-2.92-0.101c-0.285,0.08,0.794,0.183,0.664,0.283c1.584,0.072,2.544,0.083,3.494,0.075
							c0.951-0.019,1.898-0.035,3.479,0.218c-0.139,0.087-1.131,0.052,0.949,0.302l-0.53-0.045c1.674,0.132,2.298,0.374,2.783,0.477
							c0.482,0.129,0.817,0.191,1.881,0.257l-0.083,0.134c0.751,0.115,1.849,0.339,2.962,0.579c1.104,0.276,2.215,0.6,3.021,0.814
							H89.61c4.496,1.312,2.54,0.703,7.433,2.627c0,0-0.143-0.052-0.355-0.131c-0.212-0.082-0.498-0.182-0.789-0.268
							c-0.579-0.182-1.157-0.363-1.157-0.363c1.66,0.715,2.098,0.734,3.276,1.285c-0.096-0.012,0.133,0.211-0.995-0.268
							c0,0,0.369,0.148,0.923,0.372c0.552,0.228,1.302,0.504,2.019,0.853c0.725,0.333,1.449,0.667,1.992,0.918
							c0.546,0.25,0.893,0.447,0.893,0.447C104.226,11.734,102.633,10.822,102.458,10.648z"/>
						<path fill="#F05D4C" d="M109.18,15.136c0.277,0.199,0.586,0.421,0.954,0.686C109.779,15.567,109.473,15.347,109.18,15.136z"/>
						<path fill="#F05D4C" d="M66.91,2.237l1.835-0.048C68.176,2.195,67.585,2.207,66.91,2.237z"/>
						<path fill="#F05D4C" d="M116.476,20.688c-0.754-0.825,0.675,0.494,0.855,0.587c0,0-0.723-0.688-1.444-1.375
							c-0.753-0.655-1.505-1.31-1.505-1.31c-0.023,0.056-0.365-0.155-0.339-0.062c0,0,0.616,0.53,1.233,1.061
							c0.313,0.26,0.61,0.537,0.829,0.749C116.327,20.547,116.476,20.688,116.476,20.688z"/>
						<path fill="#F05D4C" d="M113.577,17.75c-0.123-0.063-0.48-0.295-0.873-0.561c0,0,0.438,0.327,0.851,0.686
							c0.413,0.357,0.827,0.715,0.827,0.715C114.398,18.548,114.239,18.357,113.577,17.75z"/>
						<path fill="#F05D4C" d="M111.919,20.379l-0.516-0.437l-0.831-0.597c0,0,0.341,0.252,0.683,0.504
							C111.597,20.102,111.919,20.378,111.919,20.379z"/>
						<path fill="#F05D4C" d="M103.446,14.036c0.665,0.468,1.973,1.273,2.426,1.523C104.372,14.614,105.055,14.967,103.446,14.036z"
							/>
						<polygon fill="#F05D4C" points="104.799,15.983 103.354,15.119 103.479,15.215 						"/>
						<path fill="#F05D4C" d="M53.639,4.756c-0.281,0.068-0.554,0.131-0.833,0.22C53.183,4.863,53.438,4.812,53.639,4.756z"/>
						<path fill="#F05D4C" d="M68.595,2.641c-4.197-0.06,2.71-0.211,1.487-0.388L67.73,2.379l0.196-0.063
							c0,0-0.703,0.023-1.405,0.046c-0.701,0.057-1.401,0.114-1.401,0.114c0.583,0.055,1.014,0.028,0.895,0.142
							c-3.731,0.264-1.188-0.082-3.934,0.094c0,0-1.04,0.137-2.08,0.274c-1.038,0.154-2.067,0.36-2.067,0.36l0.331-0.091
							c-0.349,0.064-0.5,0.105-0.617,0.143c0,0-3.486,0.612-6.862,1.665c-0.853,0.229-1.686,0.523-2.468,0.793
							c-0.779,0.279-1.521,0.498-2.131,0.758c-1.229,0.491-2.049,0.818-2.049,0.818c-2.345,1.045,1.382-0.364-0.312,0.487
							c2.734-1.16,6.954-2.409,7.152-2.626c-0.087,0.054-0.258,0.162,0.325,0.021l1.607-0.632l-1.592,0.395
							c0.405-0.157,1.043-0.375,1.794-0.599c0.764-0.185,1.63-0.394,2.475-0.598c1.699-0.377,3.34-0.581,3.842-0.633
							c-3.11,0.644-1.524,0.45-5.845,1.342c0.206,0.006,1.013-0.085,0.054,0.165C58.643,3.479,63.257,2.947,68.595,2.641z"/>
						<path fill="#F05D4C" d="M22.155,22.578l0.016-0.043C22.112,22.61,22.096,22.638,22.155,22.578z"/>
						<path fill="#F05D4C" d="M23.421,21.397c0,0,0.421-0.471,0.842-0.942c0.417-0.476,0.872-0.914,0.872-0.914
							c0,0-0.749,0.637-1.445,1.331c-0.708,0.681-1.416,1.362-1.416,1.362l-0.104,0.3c0.218-0.27,1.17-1.268,1.593-1.597
							L23.421,21.397z"/>
						<path fill="#F05D4C" d="M27.288,17.551c-1.532,1.336-1.313,1.418-0.436,0.745c-1.355,1.275-0.861,0.507-1.712,1.479
							c0.116,0.068,1.784-1.501,2.19-1.839L27.288,17.551z"/>
						<polygon fill="#F05D4C" points="39.931,9.531 39.453,9.854 40.714,9.231 						"/>
						<path fill="#F05D4C" d="M39.453,9.854L38.2,10.475c0.11,0.001,0.22,0.002,0.438-0.07L39.453,9.854z"/>
						<path fill="#F05D4C" d="M34.989,12.236c-0.512,0.297-1.064,0.651-1.737,1.074c0,0,0.434-0.27,0.867-0.54
							C34.552,12.5,34.989,12.236,34.989,12.236z"/>
						<path fill="#F05D4C" d="M36.394,11.477l-0.051,0.004l-1.354,0.755C35.491,11.965,35.942,11.721,36.394,11.477z"/>
						<path fill="#F05D4C" d="M38.2,10.475c-0.259-0.004-0.557,0.003-2.293,1.05l0.437-0.043c0,0,0.461-0.257,0.922-0.515
							C37.722,10.7,38.2,10.475,38.2,10.475z"/>
						<polygon fill="#F05D4C" points="94.001,10.217 92.561,9.72 92.703,9.796 94.144,10.293 						"/>
						<path fill="#F05D4C" d="M85.665,7.408c-0.369-0.059-0.652-0.104-0.914-0.145C85.141,7.34,85.454,7.392,85.665,7.408z"/>
						<path fill="#F05D4C" d="M79.126,6.948c-1.746-0.34,2.456,0.154-0.804-0.312c-0.278-0.129,1.287-0.135,2.807,0.227
							c-0.14,0.08-1.502-0.202-0.578,0.071c1.035,0.063,1.407,0.212,1.081-0.003c1.735,0.195,1.938,0.173,3.119,0.332
							c-2.048-0.492-6.438-1.333-9.107-1.34c-1.47,0.076-0.598,0.398-0.627,0.667c0.109,0.053,1.079,0.108,2.064,0.233
							C78.063,6.941,79.042,7.027,79.126,6.948z"/>
						<path fill="#F05D4C" d="M81.83,7.673c0.803,0.147,1.044,0.191,1.542,0.282C83.263,7.824,82.481,7.774,81.83,7.673z"/>
						<path fill="#F05D4C" d="M62.899,4.912c-0.158,0.059-1.663,0.298-1.332,0.323c0,0,0.572-0.085,1.143-0.17
							c0.571-0.097,1.147-0.141,1.147-0.141C63.317,4.954,63.123,4.932,62.899,4.912z"/>
						<path fill="#F05D4C" d="M64.867,4.827l-1.009,0.097C64.11,4.908,64.422,4.879,64.867,4.827z"/>
						<path fill="#F05D4C" d="M62.788,4.902c0.037,0.003,0.072,0.007,0.112,0.01C62.931,4.9,62.922,4.893,62.788,4.902z"/>
						<path fill="#F05D4C" d="M30.135,15.396c-0.016-0.079-0.863,0.566-1.26,0.927C29.224,16.066,29.71,15.708,30.135,15.396z"/>
						<path fill="#F05D4C" d="M6.591,46.983l-0.359,0.869C6.372,47.55,6.441,47.393,6.591,46.983z"/>
						<path fill="#F05D4C" d="M5.132,61.239c0.012,0.026,0.015,0.096,0.015,0.186C5.149,61.335,5.145,61.269,5.132,61.239z"/>
						<path fill="#F05D4C" d="M5.147,61.425c-0.018,0.624-0.366,2.51-0.292,3.204l-0.021-0.091l-0.042,1.276
							c0.043-0.596,0.111-1.519,0.174-2.379C5.066,62.575,5.148,61.775,5.147,61.425z"/>
					</g>
				</g>
			</g>
		</g>
	</g>
</g>
</svg>
