<?xml version="1.0" encoding="utf-8"?>
<!-- Generator: Adobe Illustrator 16.0.3, SVG Export Plug-In . SVG Version: 6.00 Build 0)  -->
<!DOCTYPE svg PUBLIC "-//W3C//DTD SVG 1.1//EN" "http://www.w3.org/Graphics/SVG/1.1/DTD/svg11.dtd">
<svg version="1.1" id="Layer_1" xmlns="http://www.w3.org/2000/svg" xmlns:xlink="http://www.w3.org/1999/xlink" x="0px" y="0px"
	 width="239px" height="195.333px" viewBox="0 0 239 195.333" enable-background="new 0 0 239 195.333" xml:space="preserve">
<path fill="none" stroke="#FFFFFF" stroke-width="1.5" stroke-miterlimit="10" stroke-dasharray="4,2" d="M239,2.333
	c-50,16-31,73-86,101c-45.495,23.161-41.081,95.519-22.07,89.954c13.557-3.969-13.812-39.72-41.976-24.337
	C33.42,199.284,51,131.333,0,123.333"/>
<g>
	<path fill="#FFFFFF" d="M100.103,175.513c-0.381-0.224-0.85-0.427-1.45-0.611c-1.558-0.483-2.466-0.346-3.345-0.211
		c-0.463,0.07-0.913,0.141-1.455,0.119c-0.456-0.023-0.977-0.104-1.627-0.304c-0.476-0.151-1.363-0.46-1.75-0.747
		c-0.133-0.097-0.164-0.308-0.113-0.424c0.772-1.743,3.314-2.561,6.037-1.715c2.119,0.658,3.635,2.113,4.001,3.586
		C100.468,175.467,100.357,175.665,100.103,175.513z"/>
	<path fill="#FFFFFF" d="M90.162,174.89c0.381,0.225,0.852,0.428,1.451,0.612c1.557,0.483,2.467,0.345,3.344,0.21
		c0.465-0.069,0.914-0.141,1.457-0.117c0.457,0.021,0.973,0.102,1.625,0.305c0.477,0.149,1.365,0.457,1.751,0.744
		c0.133,0.098,0.162,0.309,0.112,0.422c-0.771,1.746-3.314,2.563-6.035,1.717c-2.12-0.658-3.636-2.113-4.006-3.588
		C89.796,174.936,89.91,174.739,90.162,174.89z"/>
</g>
<g>
	<path fill="#FFFFFF" d="M83.994,152.051c0.633,0.031,1.355,0.159,2.217,0.409c2.244,0.642,3.225,1.521,4.172,2.373
		c0.498,0.448,0.982,0.887,1.652,1.285c0.559,0.335,1.246,0.645,2.182,0.912c0.689,0.195,1.992,0.523,2.682,0.484
		c0.235-0.013,0.439-0.24,0.469-0.418c0.447-2.693-1.959-5.67-5.877-6.797c-3.057-0.876-6.015-0.322-7.615,1.15
		C83.594,151.71,83.575,152.032,83.994,152.051z"/>
	<path fill="#FFFFFF" d="M96.385,159.115c-0.631-0.032-1.352-0.159-2.215-0.407c-2.246-0.643-3.221-1.523-4.17-2.375
		c-0.5-0.449-0.982-0.887-1.652-1.285c-0.558-0.334-1.246-0.643-2.182-0.911c-0.69-0.197-1.995-0.524-2.685-0.483
		c-0.231,0.012-0.437,0.24-0.466,0.417c-0.447,2.691,1.955,5.672,5.877,6.795c3.057,0.876,6.016,0.324,7.615-1.147
		C96.785,159.458,96.81,159.134,96.385,159.115z"/>
</g>
<g>
	<path fill="#FFFFFF" d="M75.25,155.317c-0.031,0.631-0.158,1.355-0.408,2.217c-0.641,2.244-1.521,3.224-2.372,4.17
		c-0.451,0.501-0.887,0.984-1.287,1.652c-0.332,0.56-0.645,1.248-0.912,2.182c-0.195,0.689-0.523,1.994-0.484,2.684
		c0.012,0.233,0.242,0.439,0.42,0.466c2.693,0.448,5.669-1.955,6.796-5.876c0.877-3.058,0.322-6.015-1.15-7.612
		C75.591,154.917,75.267,154.896,75.25,155.317z"/>
	<path fill="#FFFFFF" d="M68.184,167.708c0.029-0.633,0.16-1.354,0.408-2.218c0.643-2.244,1.525-3.222,2.377-4.167
		c0.445-0.501,0.885-0.984,1.283-1.653c0.336-0.56,0.643-1.247,0.912-2.183c0.195-0.689,0.523-1.994,0.482-2.684
		c-0.01-0.232-0.24-0.439-0.418-0.467c-2.689-0.446-5.672,1.957-6.793,5.878c-0.877,3.058-0.324,6.015,1.146,7.614
		C67.844,168.106,68.165,168.131,68.184,167.708z"/>
</g>
<g>
	<g>
		<path fill="#FFFFFF" d="M177.932,99.907c-0.01-0.441,0.043-0.951,0.174-1.565c0.34-1.595,0.904-2.319,1.451-3.021
			c0.289-0.37,0.57-0.729,0.816-1.211c0.203-0.409,0.387-0.903,0.529-1.567c0.102-0.489,0.266-1.415,0.203-1.893
			c-0.018-0.163-0.188-0.293-0.313-0.306c-1.9-0.179-3.855,1.641-4.447,4.429c-0.461,2.171,0.068,4.204,1.172,5.243
			C177.713,100.204,177.941,100.203,177.932,99.907z"/>
		<path fill="#FFFFFF" d="M182.248,90.929c0.008,0.441-0.045,0.951-0.176,1.565c-0.338,1.594-0.904,2.32-1.451,3.021
			c-0.287,0.37-0.57,0.729-0.814,1.213c-0.205,0.41-0.387,0.898-0.529,1.566c-0.102,0.49-0.268,1.414-0.205,1.892
			c0.02,0.164,0.189,0.294,0.313,0.305c1.9,0.18,3.855-1.638,4.447-4.427c0.463-2.172-0.066-4.204-1.172-5.248
			C182.467,90.634,182.24,90.636,182.248,90.929z"/>
	</g>
	<g>
		<g>
			<path fill="#FFFFFF" d="M158.936,107.363c0.585,0.241,1.293,0.433,2.18,0.576c2.303,0.373,3.564-0.006,4.786-0.371
				c0.642-0.194,1.267-0.384,2.042-0.459c0.646-0.065,1.4-0.053,2.361,0.103c0.707,0.118,2.025,0.376,2.633,0.706
				c0.207,0.111,0.294,0.404,0.246,0.577c-0.742,2.629-4.188,4.296-8.213,3.646c-3.139-0.51-5.579-2.271-6.398-4.285
				C158.426,107.502,158.549,107.201,158.936,107.363z"/>
			<path fill="#FFFFFF" d="M173.154,106.25c-0.585-0.24-1.291-0.433-2.177-0.575c-2.306-0.374-3.563,0.008-4.784,0.372
				c-0.645,0.194-1.268,0.385-2.043,0.46c-0.648,0.064-1.4,0.051-2.361-0.106c-0.709-0.114-2.028-0.374-2.635-0.705
				c-0.204-0.108-0.294-0.404-0.244-0.575c0.74-2.628,4.185-4.299,8.211-3.646c3.139,0.511,5.58,2.271,6.4,4.283
				C173.662,106.111,173.547,106.415,173.154,106.25z"/>
		</g>
		<g>
			<path fill="#FFFFFF" d="M178.08,125.233c0.244-0.584,0.437-1.294,0.576-2.18c0.377-2.304-0.001-3.564-0.369-4.782
				c-0.194-0.646-0.383-1.27-0.46-2.044c-0.063-0.648-0.051-1.404,0.104-2.362c0.117-0.708,0.375-2.028,0.704-2.635
				c0.11-0.207,0.407-0.294,0.579-0.243c2.629,0.743,4.295,4.184,3.645,8.212c-0.51,3.139-2.271,5.579-4.283,6.396
				C178.221,125.742,177.918,125.62,178.08,125.233z"/>
			<path fill="#FFFFFF" d="M176.971,111.014c-0.245,0.584-0.434,1.293-0.576,2.181c-0.377,2.304,0.006,3.563,0.374,4.781
				c0.19,0.645,0.381,1.269,0.458,2.043c0.064,0.649,0.049,1.401-0.105,2.363c-0.117,0.708-0.377,2.026-0.707,2.633
				c-0.109,0.206-0.404,0.296-0.574,0.244c-2.626-0.74-4.299-4.187-3.645-8.212c0.509-3.138,2.27-5.58,4.28-6.399
				C176.832,110.509,177.131,110.623,176.971,111.014z"/>
		</g>
	</g>
</g>
</svg>
