<?xml version="1.0" standalone="no"?>
<!DOCTYPE svg PUBLIC "-//W3C//DTD SVG 1.1//EN" "http://www.w3.org/Graphics/SVG/1.1/DTD/svg11.dtd" >
<svg xmlns="http://www.w3.org/2000/svg">
<metadata></metadata>
<defs>
<font id="xeniaextendedcregular" horiz-adv-x="763" >
<font-face units-per-em="2048" ascent="1475" descent="-573" />
<missing-glyph horiz-adv-x="477" />
<glyph horiz-adv-x="0" />
<glyph horiz-adv-x="682" />
<glyph unicode=" "  horiz-adv-x="477" />
<glyph unicode="&#x09;" horiz-adv-x="477" />
<glyph unicode="&#xa0;" horiz-adv-x="477" />
<glyph unicode="!" horiz-adv-x="880" d="M147 1325q-8 56 1 79q26 58 161 58h262q52 0 87.5 -9t51.5 -20.5t22.5 -32t5.5 -34t-4 -35.5q-1 -4 -1 -6l-104 -770h-377zM199 215q0 97 71 168.5t168 71.5t168.5 -71.5t71.5 -168.5t-71.5 -168.5t-168.5 -71.5t-168 71.5t-71 168.5z" />
<glyph unicode="&#x22;" horiz-adv-x="972" d="M119 1434h317l-82 -422h-153zM539 1434h315l-82 -422h-151z" />
<glyph unicode="#" horiz-adv-x="1931" d="M119 281l49 272l326 -2l69 401h-325l43 246h315l66 363h256l-64 -363h367l63 363h258l-63 -363h333l-40 -246h-326l-72 -399h326l-47 -272h-316l-61 -353h-258l61 353h-366l-60 -353h-258l62 353h-338zM750 553h368l70 399h-369z" />
<glyph unicode="$" horiz-adv-x="1693" d="M119 406h538q4 -48 17.5 -81t28 -49.5t40.5 -25t41 -9.5t43 -1h9q194 0 194 104q0 19 -8 35.5t-25.5 30.5t-36 25t-48 22.5t-51 19t-56.5 19t-55 18.5q-24 8 -73 25q-77 26 -115.5 40t-104.5 41.5t-100 49.5t-78.5 58t-66.5 73t-38 88.5t-16 111.5q0 96 34.5 175 t91.5 131.5t132.5 89t155.5 53t163 16.5v201h266v-203q102 -4 184 -19.5t155.5 -47.5t122.5 -80.5t77.5 -122t28.5 -168.5h-535q7 46 -1.5 79t-25 49.5t-46 26t-51.5 11.5t-54 2q-21 0 -30.5 -0.5t-32.5 -2t-35.5 -7t-28 -14t-22.5 -23.5t-7 -35q0 -35 18 -63.5t44 -46.5 t72 -35.5t83.5 -27.5t97.5 -25.5t97 -26.5q174 -52 255 -97q207 -116 208 -331q0 -30 -4.5 -61.5t-19 -77t-39 -86.5t-68.5 -85.5t-102.5 -78.5t-146 -61t-194.5 -38v-254h-266v248q-110 0 -201 16.5t-153 43t-110 64t-76 76t-45.5 83.5t-24 82t-6.5 76z" />
<glyph unicode="%" horiz-adv-x="2267" d="M119 1073q0 52 9 101.5t37.5 106t73.5 98t124 69t182 27.5q102 0 180.5 -27.5t123 -69t72.5 -98t37 -106t9 -101.5q0 -54 -9 -103.5t-37 -106t-72.5 -97t-122.5 -67.5t-181 -27t-182 27t-124 67.5t-73 96.5t-37.5 106t-9.5 104zM463 938q0 -33 24.5 -55.5t55.5 -22.5 t55.5 22.5t24.5 55.5v270q0 32 -22 55t-58 23t-58 -23t-22 -55v-270zM471 -199l1020 1735l225 -137l-1020 -1735zM1300 295q0 52 9 101.5t37.5 106t73.5 97.5t124 68.5t182 27.5q102 0 180.5 -27.5t123 -68.5t72.5 -97.5t37 -106t9 -101.5q0 -54 -9 -103.5t-37 -106 t-72.5 -97t-122.5 -67.5t-181 -27t-182 27t-124 67.5t-73 96.5t-37.5 106t-9.5 104zM1645 160q0 -33 24.5 -55.5t54.5 -22.5q31 0 55.5 22.5t24.5 55.5v270q0 32 -22 55t-58 23q-35 0 -57 -23t-22 -55v-270z" />
<glyph unicode="&#x26;" horiz-adv-x="2037" d="M143 389q0 34 6 71t31 93.5t65.5 104.5t118 97t181.5 79q-61 65 -91 138.5t-30 131.5q0 154 144.5 260t400.5 106q78 0 141 -13.5t103.5 -33.5t70.5 -49.5t45.5 -56.5t25 -59t11.5 -52t2 -41q0 -59 -26 -111t-74 -94t-96.5 -72.5t-112.5 -62.5v-16q55 -103 128 -208.5 t126 -160.5h14q109 126 109 156q0 8 -4 13t-14.5 6.5t-17 2t-24.5 0.5h-51v246h549l2 -262h-39q-37 0 -95.5 -51.5t-143 -141t-136.5 -133.5q22 -35 55.5 -60.5t69.5 -25.5q91 0 133 72l174 -143q-86 -154 -297 -154q-95 0 -202.5 31.5t-182.5 87.5q-109 -65 -215.5 -92 t-238.5 -27q-109 0 -199 15.5t-152.5 41t-110.5 61t-76.5 73t-46 80.5t-24 79.5t-6.5 73.5zM594 408q0 -109 72.5 -166.5t181.5 -57.5q68 0 174 60q-186 146 -336 379q-92 -83 -92 -215zM813 1178q0 -86 96 -166h23q56 36 91.5 84.5t35.5 99.5q0 55 -31 86t-74 31 q-56 0 -98.5 -36t-42.5 -99z" />
<glyph unicode="'" horiz-adv-x="555" d="M119 1434h317l-82 -422h-153z" />
<glyph unicode="(" horiz-adv-x="1130" d="M119 498q0 82 15 169t55.5 194.5t103 208t167 207t238.5 193.5l242 -237q-146 -154 -233.5 -352.5t-88.5 -399.5q1 -205 88 -400t234 -349l-242 -238q-149 94 -264 220t-182 260t-100 266.5t-33 257.5z" />
<glyph unicode=")" horiz-adv-x="1128" d="M190 -268q149 157 236.5 359.5t83.5 389.5q4 185 -84 391.5t-236 360.5l240 237q262 -166 421 -424.5t159 -547.5q0 -298 -157.5 -570.5t-422.5 -433.5z" />
<glyph unicode="*" horiz-adv-x="1075" d="M119 1090q0 65 26.5 114t77.5 49q39 0 75.5 -12.5t65 -47t23.5 -85.5l70 -25l49 39v74q-49 11 -77 51t-28 84q0 57 40 98t98 41q56 0 95.5 -40.5t39.5 -98.5q0 -44 -28 -84t-77 -51v-74l49 -39l70 25q-1 74 47.5 109.5t116.5 35.5q51 0 77.5 -49t26.5 -114 q0 -47 -46.5 -77t-114.5 -30q-52 0 -86 61l-68 -22l-18 -64l41 -57q64 27 124 -7.5t60 -105.5q0 -61 -32.5 -107t-86.5 -46t-101.5 31.5t-47.5 93.5t30 102l-37 62h-65l-43 -62q31 -45 31 -102q0 -55 -45.5 -90t-104.5 -35q-52 0 -86.5 46.5t-34.5 106.5q0 61 58.5 102.5 t128.5 10.5l41 57l-15 64l-71 22q-34 -61 -86 -61q-68 0 -115 30t-47 77z" />
<glyph unicode="+" horiz-adv-x="1300" d="M119 567v262h399v400h264v-400h400v-262h-400v-399h-264v399h-399z" />
<glyph unicode="," d="M119 227q0 102 74 176t176 74q37 0 73.5 -10t74 -35t65.5 -62t45.5 -95.5t17.5 -131.5q0 -85 -26.5 -169t-75.5 -161.5t-100.5 -140.5t-118.5 -131l-170 125q83 110 123.5 175.5t68.5 127.5v11q-72 7 -126 48.5t-77.5 94t-23.5 104.5z" />
<glyph unicode="-" horiz-adv-x="1097" d="M119 412v311h860v-311h-860z" />
<glyph unicode="." d="M119 240q0 108 78 185t186 77q109 0 185.5 -76.5t76.5 -185.5q0 -110 -76.5 -187.5t-185.5 -77.5q-107 0 -185.5 78t-78.5 187z" />
<glyph unicode="/" horiz-adv-x="1323" d="M119 -332l823 1802l262 -143l-823 -1800z" />
<glyph unicode="0" horiz-adv-x="1511" d="M43 717q0 284 154 491q59 78 134.5 133t153 81.5t142.5 37t129 10.5t129 -10.5t142.5 -37t153 -81.5t134.5 -133q153 -206 153 -491q0 -123 -27.5 -234t-55.5 -167t-60 -99q-32 -42 -76 -81t-112 -80t-167 -66t-214 -25q-181 0 -330 66t-240 186q-74 99 -108.5 231 t-34.5 269zM596 621q0 -50 1.5 -85.5t6.5 -79t16 -72.5t28 -55.5t44.5 -39.5t63.5 -13t63.5 13t44.5 39.5t27.5 55.5t15.5 73t6.5 78.5t1.5 85.5v139q0 47 -0.5 77t-3.5 76.5t-9 76.5t-18 65.5t-28.5 55.5t-42 34t-57.5 14q-36 0 -63.5 -15t-44.5 -46t-28 -64.5t-16 -84 t-6.5 -91t-1.5 -98.5v-139z" />
<glyph unicode="1" horiz-adv-x="1062" d="M119 854v262q135 60 226 135.5t157 182.5h311v-1090v-7q0 -19 1.5 -29t8.5 -22.5t25.5 -18t48.5 -5.5h70v-262h-822v262h80q53 0 69.5 16t16.5 66v510h-192z" />
<glyph unicode="2" horiz-adv-x="1454" d="M61 0v297q149 71 271 145t199.5 135.5t135.5 124.5t87.5 109t47 91t21.5 68.5t4 43.5q0 78 -38 111.5t-89 33.5q-34 0 -58.5 -11.5t-40 -29.5t-26.5 -50.5t-16 -64.5t-10 -81h-481q4 75 22.5 143.5t67.5 145t123 131.5t199 91.5t286 36.5q86 0 172 -15t168 -49.5 t144.5 -83t100.5 -121.5t38 -161q0 -96 -42.5 -190t-115 -173t-168.5 -148.5t-201.5 -121.5t-216.5 -88v-8h338q30 0 47 0.5t33.5 6.5t23 8.5t19 19.5t17 25t20.5 39h264l-68 -410h-1278z" />
<glyph unicode="3" horiz-adv-x="1456" d="M66 473h460q-3 -60 14.5 -102.5t47.5 -61t57 -26t55 -7.5q57 0 102.5 33t49.5 109v37q-4 43 -25 73t-53.5 44t-62.5 20t-62 6h-121v311h148q176 0 176 133q0 32 -13 55.5t-30 35t-39.5 18t-34.5 7.5t-22 1q-22 0 -44 -7t-46 -22.5t-41.5 -47.5t-22.5 -76h-469 q2 45 12.5 88t33 90t56.5 87.5t86.5 77.5t118.5 63.5t157 42t198 15.5q272 0 434 -104t162 -272q0 -57 -18.5 -106t-48 -84t-69 -61.5t-80.5 -42t-83 -22.5v-10q342 -57 342 -379q0 -38 -7 -75.5t-26 -80.5t-49 -80t-80 -72.5t-114 -60.5t-156.5 -40t-202.5 -15 q-151 0 -271.5 29.5t-197.5 78.5t-128 116t-72 137t-21 147z" />
<glyph unicode="4" horiz-adv-x="1470" d="M37 367v280l870 787h328v-805h164v-262h-164v-37q0 -16 1.5 -23.5t8 -20.5t25.5 -18.5t49 -5.5h70v-262h-809v262h67q48 0 71.5 20.5t12.5 84.5h-694zM440 629h330v299z" />
<glyph unicode="5" horiz-adv-x="1456" d="M59 453h461q3 -43 19 -80.5t54.5 -67t94.5 -29.5q70 0 113 45.5t51 118.5q3 33 0 66q-5 47 -24 80.5t-48.5 53.5t-76.5 31.5t-97.5 15t-122.5 3.5q-127 0 -303 -18l60 762h1007v-248q-45 -45 -109.5 -69.5t-172.5 -24.5q-122 0 -326 30l-14 -180q74 8 155 8 q301 0 456 -123.5t155 -337.5q0 -78 -21.5 -151.5t-71 -142t-121.5 -119t-182 -81t-245 -30.5q-121 0 -221.5 17t-170 44.5t-123.5 68t-86 82.5t-52.5 92.5t-28.5 93.5t-9 90z" />
<glyph unicode="6" horiz-adv-x="1466" d="M68 659q0 72 5 136t22.5 149.5t46 155t81.5 141t123.5 120t176.5 79t237 30.5q249 0 407.5 -105t208.5 -341h-469q-12 60 -54.5 97.5t-100.5 37.5q-50 0 -85 -21.5t-52.5 -61t-25 -84.5t-7.5 -103v-39q120 57 297 57q248 0 384 -125t136 -317q0 -225 -175.5 -362.5 t-459.5 -137.5q-339 0 -517.5 179t-178.5 515zM606 457q0 -114 33 -159.5t113 -45.5q82 0 114.5 45.5t32.5 159.5q0 93 -30 137.5t-117 44.5q-85 0 -115.5 -44.5t-30.5 -137.5z" />
<glyph unicode="7" horiz-adv-x="1247" d="M72 954l22 480h1178v-275q-104 -135 -171 -229t-133.5 -207t-103.5 -211.5t-59.5 -215t-22.5 -243.5v-53h-592q7 148 74.5 315t149.5 303q93 152 181.5 256.5t233.5 247.5h-325q-84 0 -121 -34.5t-49 -133.5h-262z" />
<glyph unicode="8" horiz-adv-x="1462" d="M66 430q0 68 30 125.5t80 96.5t108.5 64t123.5 36v10q-31 7 -63.5 20t-77.5 40t-79 61.5t-58 90t-24 120.5q0 75 37.5 141.5t111.5 119.5t196.5 84t279.5 31t279.5 -31t196.5 -84t111.5 -119.5t37.5 -141.5q0 -65 -24 -120.5t-58 -90t-78.5 -61.5t-77.5 -40t-63 -20v-10 q65 -11 123.5 -36t108.5 -64t80 -96.5t30 -125.5q0 -465 -666 -465q-124 0 -225.5 17t-169 44t-118.5 67t-79.5 79.5t-45.5 88.5t-22 87.5t-5 81.5zM586 430q0 -102 35 -142t110 -40t110.5 40t35.5 142q0 180 -146 180q-145 0 -145 -180zM590 1051q0 -19 3 -37.5t12 -40.5 t24 -38t41 -27t61 -11t61 11t41 27t24 38t12 40.5t3 37.5q0 46 -14 78t-37 46.5t-45 20.5t-45 6t-45 -6t-45 -20.5t-37 -46.5t-14 -78z" />
<glyph unicode="9" horiz-adv-x="1466" d="M68 969q0 103 37 188t99 142t144.5 96.5t171 57t182.5 17.5q66 0 127.5 -7t133 -27t132 -51.5t118 -85.5t97.5 -125t64.5 -173.5t24.5 -226.5q0 -81 -6.5 -154t-26 -157t-51 -153t-85 -135t-124.5 -111t-173 -72t-226 -27q-93 0 -173.5 15t-139.5 40t-107.5 61 t-80.5 74.5t-56.5 85t-38 88.5t-21.5 87h469q12 -55 52 -97.5t102 -42.5q93 0 132.5 70t39.5 199v39q-131 -58 -297 -58q-106 0 -199 28.5t-165 82.5t-114 139.5t-42 192.5zM567 977q0 -29 1 -45.5t8.5 -46t21.5 -46.5t43.5 -30.5t71.5 -13.5q84 0 115.5 43t31.5 139 q0 39 -2.5 66.5t-11.5 55.5t-24.5 45.5t-43 28.5t-65.5 11q-41 0 -70 -14t-43.5 -32t-22 -50t-9 -54t-1.5 -57z" />
<glyph unicode=":" d="M119 240q0 107 77.5 184.5t186.5 77.5t185.5 -76.5t76.5 -185.5q0 -112 -76.5 -188.5t-185.5 -76.5q-108 0 -186 77.5t-78 187.5zM119 870q0 107 78.5 185t185.5 78q109 0 185.5 -77t76.5 -186t-76.5 -186.5t-185.5 -77.5q-112 0 -188 78.5t-76 185.5z" />
<glyph unicode=";" horiz-adv-x="778" d="M119 870q0 107 78.5 185t185.5 78q109 0 185.5 -77t76.5 -186t-76.5 -186.5t-185.5 -77.5q-112 0 -188 78.5t-76 185.5zM133 227q0 104 73 177t177 73q37 0 73.5 -10t74 -35t65.5 -62t45.5 -95.5t17.5 -131.5q0 -276 -323 -602l-170 125q3 4 23 30t23.5 31t20 27.5t21 29 t18.5 27t19.5 30t17 28t18.5 32.5l16 32t17 36v11q-99 9 -163 79.5t-64 167.5z" />
<glyph unicode="&#x3c;" horiz-adv-x="1488" d="M119 686l1120 649l131 -239l-696 -404v-12l696 -401l-131 -238z" />
<glyph unicode="=" horiz-adv-x="1325" d="M119 354v262h1087v-262h-1087zM119 760v262h1087v-262h-1087z" />
<glyph unicode="&#x3e;" horiz-adv-x="1572" d="M203 279l696 401v12l-696 404l131 239l1120 -649l-1118 -645z" />
<glyph unicode="?" horiz-adv-x="1538" d="M143 922q3 51 11 98.5t28 104t49.5 104t79 93.5t112.5 77.5t154.5 51t200.5 19.5q89 0 174 -13.5t166 -45.5t142 -78.5t98 -118t37 -159.5q0 -55 -10.5 -101.5t-26.5 -79t-42.5 -61t-50 -46t-57.5 -34.5t-57 -25.5t-56 -20t-48 -17.5q-49 -20 -75.5 -45t-37.5 -70h-379 q-2 59 5 104.5t19.5 73.5t36.5 54.5t44.5 42t56 41.5t59.5 47q80 69 80 176q0 50 -38.5 78t-86.5 28q-44 0 -75.5 -15.5t-49.5 -38.5t-29.5 -62t-15.5 -74.5t-6 -87.5h-412zM522 215q0 97 70.5 168.5t169.5 71.5t168 -70.5t69 -169.5t-69 -169.5t-168 -70.5t-169.5 71.5 t-70.5 168.5z" />
<glyph unicode="@" horiz-adv-x="2158" d="M119 670q0 145 38.5 284t119 263.5t193.5 218.5t273 149t347 55q184 0 341.5 -51t268 -137.5t188.5 -200t115 -239t37 -254.5q0 -83 -18.5 -161.5t-58.5 -150.5t-98 -125.5t-143.5 -85.5t-187.5 -32q-195 0 -279 143h-16q-87 -79 -166.5 -111t-169.5 -32 q-153 0 -256.5 105t-103.5 280q0 161 66 296.5t180.5 213.5t250.5 78q92 0 169 -40t122 -116h19l30 84h236l-141 -475q-31 -105 -31 -164q0 -119 131 -119q67 0 122 38.5t88 100t50.5 133.5t17.5 144q0 103 -30 203.5t-93.5 191.5t-152 160t-214.5 110t-273 41 q-226 0 -402 -98.5t-273.5 -276t-97.5 -403.5q0 -153 43 -283t116 -220t169.5 -153.5t203.5 -93.5t218 -30q281 0 465 149l84 -153q-248 -187 -537 -187q-143 0 -281.5 39t-261 119.5t-215.5 192t-147.5 266.5t-54.5 334zM805 571q0 -110 48.5 -167.5t125.5 -57.5 q127 0 205 129l108 399q-9 60 -47.5 103t-105.5 43q-131 0 -232.5 -131t-101.5 -318z" />
<glyph unicode="A" horiz-adv-x="1662" d="M0 0v262h37q67 0 90.5 24t52.5 103l252 686q4 12 10 27.5t8.5 23.5t2.5 15q0 30 -56 30h-88v263h856l340 -1049q1 -3 5.5 -18.5t6 -19t6.5 -16.5t7.5 -17t8.5 -14t11.5 -13.5t14 -9.5t17.5 -8.5t20.5 -4.5t25.5 -2h35v-262h-764v262h59q33 0 48.5 9.5t15.5 23.5 q0 21 -16 57h-498l-6 -24q-4 -13 -4.5 -20.5t2.5 -20t19.5 -19t45.5 -6.5h25v-262h-590zM616 664h289l-129 399h-12z" />
<glyph unicode="B" horiz-adv-x="1613" d="M72 0v262h67q30 0 48.5 5.5t25.5 18.5t8.5 22t1.5 29v7v746v7q0 19 -1.5 28.5t-8.5 22t-25.5 18t-48.5 5.5h-67v263h661q89 0 144 -1t132 -4.5t124.5 -10t107 -19.5t95.5 -31t74.5 -45.5t58.5 -63t33.5 -83t13.5 -105.5q0 -135 -102.5 -223t-242.5 -88h-28v-19h45 q43 0 91 -11t100.5 -37.5t93.5 -65t67.5 -100.5t26.5 -138q0 -237 -213 -324q-146 -60 -454 -65h-263h-565zM725 311h104q18 0 35 1.5t43.5 9t45.5 20t33.5 38t14.5 60.5q0 39 -14.5 66.5t-34.5 42t-51 22.5t-53.5 9.5t-52.5 1.5h-70v-271zM725 868h106q50 0 84 14.5t48 38 t19 41.5t5 37q0 38 -14.5 63.5t-44 38t-62.5 17t-80 4.5h-61v-254z" />
<glyph unicode="C" horiz-adv-x="1665" d="M37 717q0 284 170 489q103 125 262.5 194.5t343.5 69.5q144 0 281 -42t245 -116.5t176 -186t72 -240.5h-573v11q0 40 -6 78q-7 42 -25.5 86.5t-59 71.5t-98.5 27q-32 0 -53 -4.5t-47.5 -24.5t-42.5 -57.5t-27.5 -108.5t-11.5 -171v-146q0 -52 2 -90.5t8 -85t18.5 -78.5 t31.5 -60t50 -42.5t72 -14.5q29 0 54.5 7t52 27.5t45.5 52.5t30 86q9 46 9 103v21h612q-2 -175 -107 -314.5t-288 -216.5t-410 -77q-45 0 -92.5 3.5t-123 19t-142.5 41t-140.5 75t-127.5 115.5q-160 197 -160 498z" />
<glyph unicode="D" horiz-adv-x="1720" d="M72 0v262h67q31 0 50 6t26 20.5t8.5 24t1.5 31.5v746q0 21 -1.5 30.5t-8.5 24t-26 20.5t-50 6h-67v263h807q77 0 144 -5t152 -23.5t153.5 -48.5t136.5 -84.5t114 -127.5t75 -182t29 -244q0 -356 -217 -549q-41 -36 -88.5 -63.5t-89 -45.5t-105 -30t-104.5 -18t-121.5 -9 t-122.5 -3.5t-139 -0.5h-624zM727 389q0 -22 1.5 -31.5t8.5 -23t25.5 -18.5t50.5 -6h68q34 0 56.5 4t51.5 22.5t46 52.5t29.5 99.5t12.5 158.5v137q0 93 -12.5 158.5t-29.5 100t-46 53t-51.5 22.5t-56.5 4h-68q-26 0 -43 -4.5t-25.5 -10t-12.5 -19t-4.5 -21.5t-0.5 -27v-651 z" />
<glyph unicode="E" horiz-adv-x="1445" d="M72 0v262h69q30 0 48.5 5.5t25.5 18.5t8.5 22t1.5 29v7v746v25t-4 20.5t-12 19.5t-24.5 10.5t-41.5 5.5h-71v263h1276v-461h-263q-4 36 -16 90q-10 38 -34 48.5t-95 10.5h-213v-239h328v-312h-328v-260h201q82 0 113.5 17.5t48.5 58.5q18 44 20 80h264l-12 -467h-1290z " />
<glyph unicode="F" horiz-adv-x="1355" d="M72 0v262h69q30 0 48.5 5.5t25.5 18.5t8.5 22t1.5 29v7v746v7q0 19 -1.5 28.5t-8.5 22t-25.5 18t-48.5 5.5h-69v263h1284v-461h-264q-3 27 -17 90q-10 38 -34 48.5t-95 10.5h-219v-239h342v-312h-342v-217q0 -54 15.5 -73t70.5 -19h92v-262h-833z" />
<glyph unicode="G" horiz-adv-x="1685" d="M37 715q0 125 44 257.5t128 235.5q65 79 146.5 134t165 81t152.5 36.5t140 10.5q189 0 337 -41t241.5 -114t141.5 -170t48 -213h-516q-11 227 -213 227q-43 0 -71 -7t-57 -32.5t-45 -72.5t-26 -130t-10 -202q0 -117 10.5 -197.5t27.5 -128t47.5 -73t62.5 -33t81 -7.5 q92 0 148.5 24.5t56.5 70.5v10q0 16 -0.5 22.5t-2.5 19t-8 17.5t-16.5 11.5t-27.5 9t-41 2.5h-45v262h750v-262q-62 -4 -84.5 -22.5t-22.5 -63.5v-377h-264l-29 109h-12q-99 -82 -194 -113t-224 -31q-454 0 -659 244q-160 192 -160 506z" />
<glyph unicode="H" horiz-adv-x="1804" d="M72 0v262h67q49 0 67.5 16.5t18.5 65.5v746q0 49 -18.5 65t-67.5 16h-67v263h749v-263h-12q-29 0 -47 -6t-25 -20t-8.5 -24.5t-1.5 -30.5v-177h350v177q0 49 -18.5 65t-67.5 16h-12v263h754v-263h-70q-30 0 -48.5 -6t-25.5 -20t-8.5 -24.5t-1.5 -30.5v-746 q0 -16 0.5 -24.5t5 -21.5t12.5 -19.5t25 -11.5t41 -5h70v-262h-754v262h12q49 0 67.5 16.5t18.5 65.5v258h-350v-258q0 -22 1.5 -31.5t8.5 -24t26 -20.5t50 -6h12v-262h-753z" />
<glyph unicode="I" horiz-adv-x="913" d="M72 0v262h59q47 0 60.5 19t13.5 63v746q0 44 -13.5 62.5t-60.5 18.5h-59v263h770v-263h-62q-44 0 -58.5 -17.5t-14.5 -63.5v-746q0 -46 14.5 -64t58.5 -18h62v-262h-770z" />
<glyph unicode="J" horiz-adv-x="966" d="M0 18v312q39 -29 67 -41.5t66 -12.5q43 0 65.5 27t22.5 92v692q0 52 -18 68t-70 16h-92v263h829v-263h-67q-29 0 -46 -6t-24 -20t-8.5 -24.5t-1.5 -30.5v-603q0 -34 -0.5 -56t-4.5 -66.5t-11 -77t-21.5 -76.5t-35 -76t-52.5 -66t-72.5 -55t-97 -35t-123.5 -14 q-133 0 -200 13t-105 40z" />
<glyph unicode="K" horiz-adv-x="1812" d="M72 0v262h57q63 0 79.5 14.5t16.5 49.5v764q0 21 -1.5 30.5t-8 24t-25 20.5t-49.5 6h-69v263h774v-263h-33q-41 0 -63.5 -13.5t-22.5 -53.5v-234l268 246q8 7 20.5 22t12.5 21q0 12 -51 12h-23v263h742l2 -263h-47q-111 0 -215.5 -65t-178.5 -156l306 -495 q114 -186 225 -193v-262h-819v262h37q30 0 41.5 16t11.5 35q0 17 -41 84l-131 213l-160 -155v-107q0 -16 2 -27t9 -26.5t25 -24t46 -8.5h16v-262h-753z" />
<glyph unicode="L" horiz-adv-x="1523" d="M96 0v262h68q49 0 67.5 16.5t18.5 65.5v746q0 49 -18.5 65t-67.5 16h-68v263h815v-263h-88q-31 0 -48 -8.5t-20 -16.5t-3 -20v-815h204q90 0 104 2q47 9 70 57q19 41 35 132h262v-502h-1331z" />
<glyph unicode="M" horiz-adv-x="2121" d="M72 0v262h69q24 0 41 5t25 11.5t12.5 19.5t5 21.5t0.5 24.5v746q0 20 -1.5 30.5t-8.5 24.5t-25.5 20t-48.5 6h-69v263h688l289 -562h18l268 562h715v-263h-68q-31 0 -50 -6t-26 -20.5t-8.5 -24t-1.5 -30.5v-746q0 -22 1.5 -31.5t8.5 -24t26 -20.5t50 -6h68v-262h-784v262 h45q24 0 41 5t25 11.5t12.5 19.5t5 21.5t0.5 24.5v487h-13l-290 -608h-228l-313 608l-14 3v-490q0 -16 0.5 -24.5t5 -21.5t12.5 -19.5t25 -11.5t41 -5h45v-262h-594z" />
<glyph unicode="N" horiz-adv-x="1759" d="M72 0v262h67q29 0 47 6t25 20.5t8.5 25t1.5 30.5v746q0 20 -1.5 30.5t-8.5 24.5t-25 20t-47 6h-67v263h600l555 -783v406q0 7 0.5 27t0 26t-2.5 20t-7.5 18.5t-14.5 11.5t-23.5 9t-34.5 2h-66v263h609v-263h-68q-29 0 -47 -6t-25 -20t-8.5 -24.5t-1.5 -30.5v-1090h-459 l-547 768v-391q0 -72 13.5 -93.5t66.5 -21.5h66v-262h-606z" />
<glyph unicode="O" horiz-adv-x="1658" d="M37 717q0 284 172 491q53 63 120.5 111.5t131.5 76.5t135 45.5t125.5 23t107.5 5.5q54 0 109 -5.5t126 -23t135.5 -45.5t132 -76.5t120.5 -111.5q81 -96 125.5 -226.5t44.5 -264.5q0 -124 -35 -258t-125 -242q-108 -130 -281.5 -191t-351.5 -61q-113 0 -221.5 22.5 t-221 81.5t-187.5 148q-162 192 -162 500zM643 647q0 -52 2 -90.5t8 -85t18.5 -78.5t32.5 -60.5t51.5 -42.5t73.5 -14t73.5 14.5t51.5 42.5t33 60t19 78.5t8 85t2 90.5v137q0 70 -4 121.5t-15.5 102t-31.5 81.5t-54.5 50.5t-81.5 19.5q-42 0 -73.5 -14t-51.5 -42.5 t-32.5 -60.5t-18.5 -78.5t-8 -85.5t-2 -92v-139z" />
<glyph unicode="P" horiz-adv-x="1544" d="M72 0v262h67q31 0 50 6t26 20.5t8.5 24t1.5 31.5v746q0 21 -1.5 30.5t-8.5 24t-26 20.5t-50 6h-67v263h620q102 0 182.5 -4t169.5 -17t156 -34t129.5 -58t102.5 -87t64 -122t24 -162q0 -81 -23 -148.5t-60 -113t-90 -80.5t-107 -54.5t-117.5 -32t-115 -16t-104.5 -3.5 l-176 2v-160q0 -22 1.5 -31.5t8.5 -24t26 -20.5t50 -6h92v-262h-833zM727 815h35q51 0 89.5 12t59 29t33 40.5t16 42t3.5 38.5q0 146 -208 146q-13 0 -28 -1v-307z" />
<glyph unicode="Q" horiz-adv-x="1658" d="M37 717q0 284 172 491q53 63 120.5 111.5t131.5 76.5t135 45.5t125.5 23t107.5 5.5q213 0 371 -74.5t252 -187.5q52 -62 88 -134.5t52.5 -140.5t23 -119t6.5 -97q0 -306 -162 -500q-102 -123 -272 -189q-164 -63 -333 -63h-15v-10q62 -18 134 -55t127 -62.5t99 -25.5 q27 0 56.5 18.5t48.5 54.5l163 -90q-47 -96 -96.5 -162t-91 -95.5t-70.5 -40.5t-53 -11q-39 0 -94.5 22t-88 40.5t-50.5 31.5q-130 84 -240 84q-50 0 -78 -43l-164 103q72 115 135.5 167.5t129.5 73.5v6q-140 11 -280 76.5t-228 169.5q-162 192 -162 500zM643 647 q0 -53 2 -91.5t8 -85t18.5 -79t32.5 -60.5t51.5 -42.5t73.5 -14.5t73.5 14.5t51.5 42.5t33 60.5t19 78.5t8 85t2 92v137q0 44 -1 74t-5 72.5t-11 71.5t-21 61t-33.5 51.5t-49 32t-66.5 12.5q-42 0 -73.5 -14.5t-51.5 -42.5t-32.5 -60.5t-18.5 -79t-8 -85t-2 -91.5v-139z" />
<glyph unicode="R" horiz-adv-x="1689" d="M72 0v262h67q21 0 36 3t24 10t14 12.5t7 17.5t2.5 18t0.5 21v746q0 21 -1.5 30.5t-8 24t-25 20.5t-49.5 6h-67v263h626q100 0 158.5 -1t148.5 -6t144 -17t123.5 -31t110 -50.5t79 -74.5t55.5 -104.5t17 -137.5q0 -105 -60 -188t-157 -126l129 -209q12 -19 33 -54.5 t30 -49.5t27.5 -38t34 -36t40 -25.5t54.5 -23.5v-262h-758v262q5 1 17.5 3t17.5 2.5t14.5 3t13.5 4.5t10 5.5t8.5 8t4.5 11.5t2 15q0 27 -41 93l-94 155h-135v-219v-20t4 -20.5t11.5 -22.5t24 -13.5t40.5 -5.5v-262h-733zM725 850h80q45 0 78.5 12t50.5 28.5t27 40t12 39.5 t2 34q0 41 -16.5 69t-47.5 41t-63.5 18t-77.5 5h-45v-287z" />
<glyph unicode="S" horiz-adv-x="1599" d="M72 406h538q7 -74 49.5 -102t124.5 -28q168 0 168 76q0 74 -145 121q-29 10 -85 29q-94 31 -140 47.5t-123.5 48t-117.5 55.5t-92 62.5t-76.5 78t-43 92.5t-18.5 115q0 48 7.5 91t29.5 91.5t57 88.5t94.5 77.5t137 63.5t189 41.5t246.5 15.5q323 0 480 -100t170 -344 h-535q2 14 2 27q1 54 -31 77q-38 29 -131 29q-139 0 -139 -90q0 -28 12 -48.5t42.5 -35.5t49 -21t65.5 -18q15 -4 22 -6q237 -60 339 -102q238 -98 293 -264q17 -54 17 -115q0 -42 -6.5 -82t-26.5 -91t-52.5 -94t-90.5 -86t-133.5 -73.5t-188 -49t-248.5 -18.5 q-72 0 -131.5 3t-135 14t-134 29.5t-118.5 52t-99.5 78.5t-65 112.5t-26.5 151.5z" />
<glyph unicode="T" horiz-adv-x="1587" d="M37 932l14 502h1485l14 -502h-264l-26 121q-9 45 -30.5 57t-99.5 12h-86v-778q0 -16 0.5 -24.5t5 -21.5t12.5 -19.5t25 -11.5t41 -5h93v-262h-856v262h92q49 0 67.5 16.5t18.5 65.5v778h-86q-42 0 -66 -3t-36.5 -13t-16.5 -19.5t-10 -33.5l-27 -121h-264z" />
<glyph unicode="U" horiz-adv-x="1726" d="M72 1171v263h807v-263h-68q-51 0 -67.5 -17.5t-16.5 -63.5v-396q0 -46 0.5 -76.5t3 -70t7.5 -66t14 -57.5t21.5 -51t31 -40t42.5 -31.5t55.5 -18.5t70.5 -7q43 0 76.5 11t56.5 29t39 48t25 60t14 74.5t6.5 81.5t1.5 90v420q0 53 -21 67t-65 14h-68v263h617v-263h-68 q-51 0 -67.5 -17.5t-16.5 -63.5v-611q0 -74 -13 -140.5t-51.5 -137t-99 -121t-164 -83t-239.5 -32.5q-135 0 -244 21t-182 54.5t-127 84t-83.5 101t-47 115t-22.5 115.5t-5 113v521q0 49 -18.5 65t-67.5 16h-67z" />
<glyph unicode="V" horiz-adv-x="1597" d="M0 1171v263h811v-263h-68q-30 0 -30 -26q0 -7 22 -64l146 -366h26l135 348q5 15 11.5 31.5t10 24.5t5.5 15.5t2 12.5q0 24 -57 24h-41v263h624v-263l-63 -2q-20 -1 -27 -1.5t-22.5 -5t-25 -14.5t-23.5 -27.5t-28 -46.5t-30 -70l-393 -1004h-338l-448 1024 q-42 96 -72.5 121.5t-95.5 25.5h-31z" />
<glyph unicode="W" horiz-adv-x="2525" d="M0 1434h860v-263h-96q-31 0 -31 -24q0 -14 27 -74l155 -336h13l276 697h275l315 -676h12l133 338q13 35 13 47q0 18 -16.5 23t-75.5 5h-58v263h723v-263l-41 -2h-7q-55 -3 -74 -16q-33 -22 -78 -128q-12 -26 -27 -64l-381 -961h-344l-285 614h-16l-266 -614h-347 l-426 975q-30 69 -51.5 107t-46.5 58.5t-48 25.5t-64 5h-21z" />
<glyph unicode="X" horiz-adv-x="1845" d="M72 1171v263h815v-263h-27q-14 0 -24.5 -8t-10.5 -22q0 -7 2.5 -13.5t5 -9.5t7.5 -8.5t6 -7.5l92 -121h23l94 121q28 35 28 47q0 22 -39 22h-30v263h665v-263h-57q-54 0 -93.5 -28t-111.5 -121l-178 -227l295 -394q25 -35 34.5 -46.5t30 -35.5t33.5 -32.5t33 -16.5t41 -8 h68v-262h-850v262q67 2 67 35q0 17 -35 65l-86 117h-22l-105 -131q-22 -29 -22 -55q0 -10 6 -16t19 -9t21 -4t24 -2v-262h-717v262h65q30 0 47.5 3t43.5 17t55 44t69 82l207 266l-278 373q-8 11 -24 33.5t-21.5 29.5t-18 21.5t-19.5 18.5t-20 11t-26.5 8.5t-30.5 1.5h-51z " />
<glyph unicode="Y" horiz-adv-x="1576" d="M25 1171v263h800v-263h-34q-22 0 -31.5 -0.5t-19 -6.5t-9.5 -19q0 -21 12 -39l136 -246h12l131 252q12 24 12 37q0 4 -1 7.5t-3 5.5t-4 3.5t-6 2.5t-6.5 2t-7 1h-7h-7.5h-7h-51v263h618v-263h-51q-35 0 -51 -8t-39 -41.5t-65 -117.5l-285 -570v-112q0 -12 1 -19.5 t5 -18.5t15.5 -16.5t29.5 -5.5h107v-262h-824v262h78q86 0 86 47v119l-342 594q-46 80 -81 114.5t-89 34.5h-22z" />
<glyph unicode="Z" horiz-adv-x="1589" d="M96 0v330l787 792h-322q-33 0 -50.5 -0.5t-34.5 -6.5t-24 -11t-15 -23t-11.5 -33.5t-11.5 -50.5l-25 -114h-262l14 551h1311v-351l-764 -772h371q47 0 68.5 2t38.5 17.5t23 36t17 69.5l25 115h262l-16 -551h-1381z" />
<glyph unicode="[" horiz-adv-x="1015" d="M119 -506v1976h657v-215h-139q-30 0 -48.5 -5.5t-25.5 -18t-8.5 -22t-1.5 -28.5v-7v-1383q0 -16 0.5 -24.5t5 -21.5t12.5 -19.5t25 -11.5t41 -5h139v-215h-657z" />
<glyph unicode="\" horiz-adv-x="1323" d="M119 1327l262 143l823 -1802l-262 -141z" />
<glyph unicode="]" horiz-adv-x="1015" d="M240 -291h137q49 0 67.5 16.5t18.5 65.5v1383q0 50 -16 65.5t-70 15.5h-137v215h657v-1976h-657v215z" />
<glyph unicode="^" horiz-adv-x="1265" d="M119 954l508 516l520 -516h-305l-215 211l-205 -211h-303z" />
<glyph unicode="_" horiz-adv-x="1267" d="M0 -166h1268v-264h-1268v264z" />
<glyph unicode="`" horiz-adv-x="735" d="M119 1640h461l36 -364h-170z" />
<glyph unicode="a" horiz-adv-x="1433" d="M72 303q0 64 19 116.5t53 89t81 64.5t103 44t118.5 27.5t128 14.5t131.5 5q33 1 65.5 1t64.5 -1q0 7 -1 20q-4 94 -17 119q-24 38 -95 39q-131 0 -145 -86h-428v6q0 64 20 116q22 54 56.5 91t88 63.5t104.5 40.5t118 22.5t116.5 10.5t110.5 2q81 0 147.5 -8.5t115.5 -21 t87.5 -35t64 -44t43 -54t27 -58t14.5 -64t6 -64t1 -65.5v-352v-10.5v-11.5t1 -11t3 -11.5t5 -9.5t8.5 -9.5t12.5 -6t17 -5t22 -1.5q15 0 23 2v-293h-201q-107 0 -173.5 25.5t-90.5 93.5h-23q-90 -66 -189.5 -92.5t-219.5 -26.5q-197 0 -295 89.5t-98 238.5zM573 336 q0 -14 5 -28t18 -30t41 -26t68 -10q61 0 96 27t35 65v125h-14q-56 0 -100 -7q-50 -8 -77 -21t-44 -31t-22.5 -33t-5.5 -31z" />
<glyph unicode="b" horiz-adv-x="1527" d="M96 0v215h43q18 0 27.5 1t23 7t19.5 20.5t6 37.5v1077q0 23 -6 37.5t-19.5 20t-23 6.5t-27.5 1h-43v215h553v-598h15q121 68 268 68q83 0 159 -20t143 -64t116 -108.5t77.5 -159t28.5 -209.5q0 -113 -29.5 -208t-80 -161t-118.5 -112.5t-144 -68.5t-158 -22 q-196 0 -305 117h-11l-41 -92h-473zM649 281q58 -39 148 -39q32 0 57 9.5t41.5 22.5t28 39t17.5 47.5t9 59.5t3.5 64t0.5 71q0 165 -33.5 226t-117.5 61q-138 0 -154 -121v-440z" />
<glyph unicode="c" horiz-adv-x="1427" d="M72 543q0 106 38.5 201.5t102.5 166.5q181 197 506 197q149 0 267.5 -38t192 -102.5t115 -140t52.5 -159.5h-478q-2 174 -145 174q-39 0 -67 -14.5t-44 -36t-25 -57t-11.5 -67.5t-2.5 -77v-94q0 -78 10.5 -129.5t32 -78t46.5 -36.5t61 -10q40 0 69 14.5t44 35t23.5 48 t10 50t0.5 44.5h486q-3 -64 -25.5 -126.5t-72 -123.5t-120.5 -107t-178 -74t-237 -28q-163 0 -299.5 50.5t-218.5 140.5q-133 149 -133 377z" />
<glyph unicode="d" horiz-adv-x="1566" d="M72 543q0 117 38.5 219t110.5 179.5t184 122t250 44.5q120 0 207 -47h17v297q0 30 -12 45t-25.5 17.5t-38.5 2.5h-92v215h602v-1357q0 -30 12 -45t26 -18t38 -3h81v-215h-579l-27 94h-8q-116 -119 -293 -119q-39 0 -79.5 5.5t-90 22.5t-93.5 43t-86.5 70.5t-73.5 101.5 t-49.5 141t-18.5 184zM573 461q0 -130 35 -174.5t129 -44.5q86 0 142 41v487q-53 72 -154 72q-31 0 -54 -7.5t-39.5 -18.5t-27.5 -32.5t-17 -42t-9 -54t-4 -61t-1 -71.5v-94z" />
<glyph unicode="e" horiz-adv-x="1421" d="M72 541q0 100 37.5 199.5t103.5 170.5q185 197 516 197q134 0 241.5 -36.5t177 -96t115.5 -140.5t65.5 -165.5t19.5 -175.5h-775v-52q3 -104 33.5 -152t116.5 -48q39 0 67.5 14.5t44 39.5t23 51t10.5 56h482q-10 -73 -40 -135t-71 -105t-94.5 -77t-107.5 -54.5 t-112 -33.5t-105.5 -18t-90.5 -5q-60 0 -119.5 7.5t-134 26.5t-145.5 59.5t-125 99.5q-133 147 -133 373zM584 705h282q-2 159 -141 159q-67 0 -105 -46q-36 -44 -36 -106v-7z" />
<glyph unicode="f" horiz-adv-x="1050" d="M96 819v266h144v220q0 44 8 84t35 87t70 80t121 55.5t181 22.5q202 0 371 -96v-266h-215q-1 37 -4 55t-18 33.5t-44 15.5q-71 0 -71 -61v-230h186v-266h-186v-538q0 -17 2.5 -26.5t12.5 -20t34 -15t63 -4.5h33v-215h-700v215h45q24 0 38 3t26 18t12 45v538h-144z" />
<glyph unicode="g" horiz-adv-x="1697" d="M96 666q0 69 23.5 132t74.5 120t125.5 99t184.5 66.5t244 24.5q246 0 417 -129q109 92 246 92t240 -45v-281h-215q-10 111 -93 111q-26 0 -53 -12q51 -71 51 -185q0 -56 -16 -110.5t-58 -112t-105.5 -100.5t-168 -70.5t-235.5 -27.5q-110 0 -203 22q-46 -1 -65 -22 t-19 -45q0 -19 5.5 -34.5t18.5 -26.5t25 -19t35 -12.5t38 -7.5t44 -4l43.5 -1.5t46 0t41.5 0.5q26 0 78.5 2t77.5 2q204 0 276 -10q165 -24 213 -127q23 -49 23 -119q0 -62 -36.5 -134.5t-90.5 -131.5h-340q15 24 27 63t12 66q0 30 -20.5 40.5t-57.5 14.5q-20 2 -49 2 t-68 -2q-165 -10 -199 -10q-88 0 -160.5 13t-122.5 34t-88.5 51t-61 61.5t-36.5 68.5t-19 68.5t-5 65.5q0 133 201 220v10q-92 21 -159 127.5t-67 202.5zM557 627q0 -134 39.5 -181t122.5 -47t122.5 47t39.5 181v84q0 116 -33.5 171.5t-128.5 55.5t-128.5 -55.5 t-33.5 -171.5v-84z" />
<glyph unicode="h" horiz-adv-x="1560" d="M96 0v215h45q45 0 60.5 15t15.5 51v1077v24q0 41 -76 41h-45v215h555v-610h13q188 80 350 80q67 0 121.5 -10t90.5 -25.5t63 -39.5t42 -47.5t23.5 -53.5t11 -54t2.5 -53v-553q0 -26 13 -39t26.5 -15.5t36.5 -2.5h45v-215h-635v215q27 -3 45 2.5t24.5 18.5t8.5 22.5 t2 22.5v415q0 74 -26.5 110t-98.5 36q-87 0 -122.5 -35t-35.5 -121v-405q0 -18 1.5 -26.5t8 -19.5t23 -15.5t43.5 -4.5h8v-215h-639z" />
<glyph unicode="i" horiz-adv-x="854" d="M96 0v215h43q44 0 60 14t16 52v524q0 23 -6 37.5t-19.5 20t-23 6.5t-27.5 1h-43v215h553v-804q0 -36 15.5 -51t60.5 -15h33v-215h-662zM231 1440q0 85 59 143.5t144 58.5q84 0 143.5 -58.5t59.5 -143.5t-59 -144t-144 -59q-86 0 -144.5 59.5t-58.5 143.5z" />
<glyph unicode="j" horiz-adv-x="851" d="M37 -465l39 279q45 -29 108 -29q25 0 40.5 11t22 34t8 41.5t1.5 50.5v883q0 23 -6 37.5t-19.5 20t-23 6.5t-27.5 1h-67v215h577v-1136q0 -60 -8 -110t-26.5 -100.5t-53 -89.5t-84.5 -69.5t-124.5 -46.5t-168.5 -16q-93 0 -188 18zM242 1436q0 73 55 137.5t147 64.5 q93 0 149 -65t56 -137q0 -84 -60.5 -143.5t-144.5 -59.5q-91 0 -146.5 64.5t-55.5 138.5z" />
<glyph unicode="k" horiz-adv-x="1632" d="M96 0v215h45q45 0 60.5 15t15.5 51v1101q0 41 -76 41h-45v215h555v-991l228 170q20 15 20 29q0 24 -57 24h-33v215h672v-215h-27q-68 0 -156 -44t-153 -103l219 -373q46 -78 81.5 -106.5t100.5 -28.5h39v-215h-751v215h45q61 0 61 25q0 18 -20 45l-115 184l-154 -115v-73 q0 -32 13 -49t51 -17h20v-215h-639z" />
<glyph unicode="l" horiz-adv-x="856" d="M96 0v215h45q45 0 60.5 15t15.5 51v1093q0 28 -19 38.5t-57 10.5h-45v215h555v-1357q0 -38 16 -52t60 -14h33v-215h-664z" />
<glyph unicode="m" horiz-adv-x="2295" d="M96 0v215h45q45 0 60.5 15t15.5 51v546q0 43 -76 43h-45v215h555v-57h13q187 80 350 80q224 0 303 -102l20 -2q81 51 185 77.5t207 26.5q180 0 268 -67.5t88 -215.5v-551q0 -20 6.5 -33t19.5 -18t23.5 -6.5t26.5 -1.5h39v-215h-637v215h20q39 0 53.5 14.5t14.5 51.5v419 q0 72 -31 107t-107 35q-80 0 -112.5 -35.5t-32.5 -116.5v-418q0 -57 57 -57h15v-215h-586v215h20q60 0 60 66v419q0 76 -30 109t-105 33q-48 0 -80.5 -13.5t-45.5 -34.5t-17.5 -36.5t-4.5 -30.5v-446q0 -20 2.5 -32t18.5 -23t47 -11h16v-215h-639z" />
<glyph unicode="n" horiz-adv-x="1546" d="M96 0v215h45q45 0 60.5 15t15.5 51v546q0 43 -76 43h-45v215h555v-57h13q189 80 362 80q90 0 156 -17.5t103 -44t59.5 -66t29 -75t6.5 -80.5v-553q0 -26 13 -39t26.5 -15.5t36.5 -2.5h43v-215h-633v215q27 -3 45 2.5t24.5 18.5t8.5 22.5t2 22.5v419q0 74 -29.5 108 t-105.5 34q-87 0 -123.5 -32.5t-36.5 -119.5v-409v-10v-11t1 -9.5t3 -10t5.5 -8t9 -7.5t13 -5t18.5 -4t24 -1h8v-215h-637z" />
<glyph unicode="o" horiz-adv-x="1454" d="M74 543q0 210 141 368q186 197 512 197q328 0 512 -197q141 -151 141 -368q0 -107 -34 -207t-99 -170q-76 -81 -207.5 -136t-312.5 -55q-186 0 -317 57t-203 134q-65 70 -99 170t-34 207zM575 496q0 -69 9 -118t22 -75t35 -40.5t40.5 -17.5t45.5 -3t45.5 3t40.5 17.5 t35 40.5t22 75t9 118v98q0 128 -31 188t-121 60q-89 0 -120.5 -61.5t-31.5 -190.5v-94z" />
<glyph unicode="p" horiz-adv-x="1523" d="M96 -215h43q44 0 60 13.5t16 51.5v955q0 23 -6 37.5t-19.5 20t-23 6.5t-27.5 1h-43v215h473l33 -100h12q104 68 181.5 95.5t187.5 27.5q94 0 172.5 -29.5t130.5 -77t89 -110.5t55 -127.5t22 -130.5q2 -21 2 -42t-2 -42q-11 -261 -156.5 -417.5t-390.5 -156.5 q-94 0 -148 16t-98 52h-10v-190q0 -17 2 -27t9 -19.5t23 -14t42 -5.5l94 -2v-215h-723v215zM649 297q52 -55 133 -55q35 0 62.5 10t45 24t29.5 38t18 43t9 48.5t3.5 44t0.5 40.5v8v88q-1 61 -5.5 101t-18 78.5t-42.5 57.5t-73 19q-45 0 -92.5 -29t-69.5 -90v-426z" />
<glyph unicode="q" horiz-adv-x="1521" d="M96 535q0 82 19 160.5t63.5 154t109 132.5t162.5 91.5t218 34.5q174 0 250 -88h16l45 65h471v-215h-45q-18 0 -26.5 -1t-22 -6.5t-19.5 -20t-6 -37.5v-955q0 -37 15 -51t59 -14h45v-215h-721v215l92 2q19 0 29 1t23 7t18.5 20t5.5 38v223q-153 -101 -324 -101 q-106 0 -190.5 34.5t-137 90t-87.5 130.5t-48.5 150t-13.5 155zM598 485q0 -121 32.5 -182t117.5 -61q15 0 32 4t41 14.5t44.5 35t31.5 60.5v408q-21 41 -59.5 62.5t-85.5 21.5q-36 0 -62.5 -9.5t-43 -30t-26.5 -42t-14.5 -57t-6 -63.5t-1.5 -71v-90z" />
<glyph unicode="r" horiz-adv-x="1148" d="M96 0v215h45q45 0 60.5 15t15.5 51v546q0 43 -76 43h-45v215h555v-81h13q49 49 109.5 76.5t117.5 27.5q164 0 211 -127v-334h-215v58q0 73 -30 105t-93 32t-88 -33t-25 -119v-409q0 -16 1 -22.5t7 -19.5t23 -18.5t45 -5.5h55v-215h-686z" />
<glyph unicode="s" horiz-adv-x="1277" d="M72 299h415q2 -92 134 -92q21 0 34 0.5t36 5.5t36.5 14t24 27.5t10.5 44.5q0 34 -41.5 55.5t-163.5 55.5q-90 25 -150 45t-123.5 51.5t-100 67.5t-60 87.5t-23.5 116.5q0 330 574 330q95 0 169 -9.5t138.5 -32.5t106.5 -60t66.5 -94.5t25.5 -133.5h-412q-7 53 -36.5 72.5 t-98.5 19.5q-107 0 -107 -63q0 -15 7.5 -27t17.5 -19.5t30 -14.5t33.5 -10t39.5 -8.5t38 -8.5q22 -6 68.5 -16.5t71 -16.5t66.5 -18.5t66 -22t58.5 -26.5t54 -33.5t42.5 -41t35 -51.5t20 -62t8 -75q0 -71 -22.5 -129t-58.5 -97t-87 -68t-101.5 -45.5t-110.5 -26 t-104.5 -12.5t-91.5 -3q-51 0 -92.5 2t-98.5 9.5t-101.5 20.5t-91 37.5t-77.5 57.5t-51.5 83.5t-21.5 113.5z" />
<glyph unicode="t" horiz-adv-x="1095" d="M47 819v266q72 0 134 21t116.5 66t93 125t55.5 190h265v-402h274v-266h-274v-434q0 -30 0.5 -46t4.5 -38t11.5 -32.5t22 -18.5t36.5 -8q52 0 101 49l112 -109q-61 -94 -158.5 -150.5t-226.5 -56.5q-70 0 -125 15.5t-90 36.5t-59.5 62t-37 72t-18.5 87.5t-7 88.5t-1 93 v389h-229z" />
<glyph unicode="u" horiz-adv-x="1556" d="M72 893v192h553v-700q0 -79 30.5 -111t104.5 -32q39 0 67.5 10t43 23.5t23 31.5t10 29t1.5 22v476q0 14 -21 25t-53 11h-32v215h540v-804q0 -38 16 -52t60 -14h45v-215h-524l-18 94h-11q-201 -119 -356 -119q-189 0 -275 75t-86 233v569q0 41 -73 41h-45z" />
<glyph unicode="v" horiz-adv-x="1476" d="M47 870v215h748v-215h-72q-42 0 -47 -22v-14q5 -27 20 -54l140 -286h16l127 276q27 58 27 74q0 26 -29 26h-70v215h570v-215h-66q-19 0 -33.5 -6.5t-26.5 -23t-18 -28t-18 -39.5t-17 -38l-337 -735h-369l-381 797q-19 40 -38.5 56.5t-59.5 16.5h-66z" />
<glyph unicode="w" horiz-adv-x="2103" d="M47 870v215h705v-215h-80q-30 0 -37 -6q-4 -4 -5.5 -8t-1 -6t3 -7.5t3.5 -6.5l135 -314h16l258 563h199l281 -546h16l88 278q10 35 10 45q0 8 -57 8h-45v215h567v-215h-41q-32 0 -52 -6t-35 -27t-20 -33.5t-19 -54.5q-3 -9 -5 -14l-239 -735h-371l-203 395h-22l-183 -395 h-364l-330 772q-24 55 -39 70q-28 28 -82 28h-51z" />
<glyph unicode="x" horiz-adv-x="1386" d="M0 0v215h49q41 0 66.5 4.5t46.5 20t33.5 31t37.5 51.5l144 206l-221 271q-5 6 -15.5 20t-14.5 18t-14 13t-18.5 11.5t-22 5.5t-30.5 3h-41v215h674v-215h-39q-5 0 -12 -4t-7 -8q0 -2 2 -5t4 -6.5t3 -4.5l98 -119h2l88 125q4 8 4 14q0 8 -14 8h-33v215h555v-215h-22 q-65 0 -97.5 -11.5t-62.5 -53.5l-162 -232l238 -272q40 -46 72.5 -66t80.5 -20h14v-215h-684v215h37q29 0 29 14q0 13 -12 25l-111 127l-100 -141q-6 -12 -6 -13q0 -12 24 -12h41v-215h-604z" />
<glyph unicode="y" horiz-adv-x="1484" d="M0 870v215h772v-215h-84q-9 0 -17 -1t-21 -6.5t-13.5 -16t6.5 -29.5l197 -373h26l138 353q14 38 14 47q0 6 -2 11t-6 8t-8 4.5t-11.5 2t-11.5 0.5h-13.5h-13.5h-45v215h578v-215h-53q-24 0 -41.5 -8.5t-28 -24.5t-16.5 -30.5t-12.5 -36.5t-10.5 -31l-446 -1015 q-12 -27 -27.5 -52.5t-47 -59.5t-69 -58.5t-96.5 -42t-127 -17.5q-86 0 -172 37v311q77 -20 108 -20q18 0 37 8t38 26.5t30 55.5q10 33 10 78v8l-422 795q-23 44 -44.5 60.5t-65.5 16.5h-29z" />
<glyph unicode="z" horiz-adv-x="1331" d="M119 0v283l592 536h-211q-72 0 -87 -12.5t-30 -81.5l-14 -66h-215v426h1071v-280l-600 -539h297q14 0 22 2t17.5 8.5t16 21t11.5 38.5l21 90h215v-426h-1106z" />
<glyph unicode="{" horiz-adv-x="1161" d="M119 418v250q49 6 89 24t74.5 51.5t54 92t19.5 135.5q0 67 -4 141.5t-4 97.5q0 38 6 70.5t22 67t42.5 62t70 52.5t102 41.5t141 26.5t183.5 10h103v-215q-52 -5 -88.5 -23.5t-53.5 -45t-23.5 -51.5t-6.5 -52q0 -39 4 -117q4 -86 4 -129q0 -48 -6 -86.5t-24 -80t-48.5 -74 t-81 -62t-119.5 -49.5v-25q69 -20 119.5 -49.5t81 -62t48.5 -74t24 -80t6 -86.5q0 -43 -4 -129q-4 -78 -4 -117q0 -27 6.5 -52t23.5 -51.5t53.5 -45t88.5 -23.5v-215h-103q-101 0 -183.5 10t-141 26.5t-102 41.5t-70 52.5t-42.5 62t-22 67t-6 70.5q0 23 4 98t4 142 q0 77 -19.5 135.5t-54 92t-74.5 51.5t-89 24z" />
<glyph unicode="|" horiz-adv-x="503" d="M119 -573v2156h266v-2156h-266z" />
<glyph unicode="}" horiz-adv-x="1161" d="M119 -240q52 5 88.5 23.5t53.5 45t23.5 51.5t6.5 52q0 39 -4 117q-4 86 -4 129q0 48 6 86.5t24 80t48 74t80.5 62t119.5 49.5v25q-69 20 -119.5 49.5t-80.5 62t-48 74t-24 80t-6 86.5q0 43 4 129q4 78 4 117q0 27 -6.5 52t-23.5 51.5t-53.5 45t-88.5 23.5v215h102 q101 0 183.5 -10t141 -26.5t102 -41.5t70 -52.5t42.5 -62t22 -67t6 -70.5q0 -23 -4 -97.5t-4 -141.5q0 -77 19.5 -135.5t54.5 -92t75 -51.5t89 -24v-250q-49 -6 -89 -24t-75 -51.5t-54.5 -92t-19.5 -135.5q0 -67 4 -142t4 -98q0 -38 -6 -70.5t-22 -67t-42.5 -62t-70 -52.5 t-102 -41.5t-141 -26.5t-183.5 -10h-102v215z" />
<glyph unicode="~" horiz-adv-x="1433" d="M119 623q71 141 167.5 216.5t200.5 75.5q40 0 76.5 -5.5t55.5 -11t67.5 -21.5t71.5 -23q16 -4 51 -16t55 -17q66 -16 99 -16q37 0 68 13.5t50.5 35t29 36.5t15.5 28l189 -58q-40 -85 -85.5 -148.5t-83.5 -96.5t-79.5 -53t-68.5 -25t-54 -5q-42 0 -88 9.5t-70 18t-84 30.5 q-58 21 -84.5 30t-72 19t-84.5 10q-43 0 -86.5 -19t-65.5 -63z" />
<glyph unicode="&#xa4;" horiz-adv-x="1599" d="M119 156l205 204q-119 160 -119 353q0 191 119 354l-205 205l123 121l202 -203q80 56 173.5 87.5t183.5 31.5q192 0 352 -119l205 205l123 -123l-205 -205q119 -163 119 -354q0 -192 -119 -355l203 -202l-121 -123l-203 203q-160 -117 -354 -117q-189 0 -357 117 l-202 -203zM444 713q0 -146 106 -250.5t251 -104.5q146 0 250 105t104 250q0 146 -104.5 251t-249.5 105q-143 0 -250 -105t-107 -251z" />
<glyph unicode="&#xa7;" horiz-adv-x="1527" d="M119 -35h346q2 -50 4.5 -78t9.5 -57t18.5 -43t33 -26t51 -15.5t73.5 -3.5q95 0 144 39t49 90q0 45 -30 83t-85 68t-108.5 52.5t-127 50.5t-114.5 47q-62 30 -103.5 56t-81.5 62.5t-59.5 83.5t-19.5 105q0 55 23 103.5t62.5 85t79.5 62t87 46.5v23q-181 115 -181 307 q0 65 37.5 128t107 116.5t183.5 86.5t252 33q105 0 200 -20.5t155 -47.5t112 -63t73.5 -57t35.5 -39l2 -211h-344q-1 63 -7.5 100t-26.5 66.5t-57.5 41t-99.5 11.5q-100 0 -144 -41t-44 -100q0 -31 19 -59t48 -49t80 -46t97.5 -44t120 -49.5t128.5 -55.5q70 -32 114 -57.5 t89 -65t66.5 -90.5t21.5 -117q0 -76 -36 -137t-97 -125q-52 -52 -78 -70v-12q115 -82 115 -227q0 -72 -43.5 -139.5t-124 -121t-207 -86t-279.5 -32.5q-96 0 -191.5 19.5t-194 73t-154.5 134.5v211zM483 569q0 -36 35 -70.5t127 -76.5l318 -148q35 29 50 54t15 61 q0 37 -44.5 66.5t-199.5 103.5l-229 111q-34 -9 -53 -36.5t-19 -64.5z" />
<glyph unicode="&#xa9;" horiz-adv-x="1742" d="M119 719q0 153 60 292.5t161 239.5t240 159.5t292 59.5q152 0 291 -59t240 -159t161 -239.5t60 -293.5q0 -204 -101.5 -378t-274.5 -275t-376 -101q-153 0 -292.5 60.5t-240.5 161.5t-160.5 240.5t-59.5 291.5zM301 719q0 -156 77 -287.5t208.5 -208t285.5 -76.5 q155 0 286 76t207.5 207.5t76.5 288.5q0 116 -45 221.5t-121.5 181.5t-182 121t-221.5 45q-155 0 -286.5 -76.5t-208 -207.5t-76.5 -285zM479 717q0 156 88 268q110 143 316 143q25 0 55 -4.5t73.5 -15t83 -34t75.5 -56.5t59.5 -87.5t27.5 -121.5h-286q3 81 -24 113t-64 32 q-39 0 -64.5 -39t-25.5 -106v-170q0 -65 22 -111.5t68 -46.5q37 0 58 25t26.5 56t5.5 77h289q-3 -67 -27 -125t-69 -105t-117.5 -74.5t-165.5 -27.5q-214 0 -322 137q-82 110 -82 273z" />
<glyph unicode="&#xab;" horiz-adv-x="1675" d="M119 627l479 583l303 -73l-348 -535l260 -555l-281 -47zM821 610l410 502l276 -78l-254 -444l224 -469l-299 -51z" />
<glyph unicode="&#xac;" horiz-adv-x="1325" d="M119 565v264h1087v-493h-264v229h-823z" />
<glyph unicode="&#xad;" horiz-adv-x="1097" d="M119 412v311h860v-311h-860z" />
<glyph unicode="&#xae;" horiz-adv-x="1937" d="M119 737q0 172 68.5 329.5t183 272t271 182.5t325.5 68q171 0 328.5 -68t272 -182.5t183 -272t68.5 -329.5q0 -170 -68 -327t-182.5 -270.5t-272 -181t-329.5 -67.5q-170 0 -326.5 68t-271 181.5t-182.5 270t-68 326.5zM319 737q0 -132 51.5 -252t138 -207t206.5 -138.5 t252 -51.5q180 0 330 88t235.5 237t85.5 324q0 177 -86.5 327t-236.5 237.5t-328 87.5q-131 0 -250.5 -51t-206.5 -137.5t-139 -208t-52 -255.5zM598 346v150h33q21 0 31.5 9.5t12 18t1.5 23.5v448q0 6 -1.5 10.5t-5.5 7t-7 4.5t-8.5 2.5t-8 0.5h-8.5h-6h-33v154h416 q138 0 220.5 -60t82.5 -184q0 -24 -5.5 -51t-32 -67t-71.5 -64l62 -134q16 -35 50 -76.5t71 -41.5h20v-150h-403v150h14q11 0 21 9t10 21q0 11 -23 56l-47 90h-65v-131q0 -45 26 -45h17v-150h-363zM918 836h26q33 0 54 10t28.5 27.5t9.5 28.5t2 26q0 17 -2.5 27.5 t-11.5 22.5t-30.5 17.5t-55.5 5.5h-20v-165z" />
<glyph unicode="&#xb0;" horiz-adv-x="835" d="M119 1171q0 123 88 211t211 88t211 -88t88 -211t-88 -211t-211 -88t-211 88t-88 211zM287 1171q0 -53 39.5 -92t91.5 -39t91.5 39t39.5 92t-39.5 92.5t-91.5 39.5t-91.5 -39.5t-39.5 -92.5z" />
<glyph unicode="&#xb1;" horiz-adv-x="1300" d="M119 0v262h1063v-262h-1063zM119 758v262h401v399h262v-399h400v-262h-400v-400h-262v400h-401z" />
<glyph unicode="&#xb6;" horiz-adv-x="1785" d="M240 1096q0 68 18 122.5t44.5 89t69 60t79.5 38t90 19.5t85.5 8t78.5 1h841v-281h-112v-1659h-281v1659h-252v-1659h-280v1286h-39q-84 0 -148 22.5t-99.5 55.5t-58 78t-29.5 82.5t-7 77.5z" />
<glyph unicode="&#xb7;" d="M119 692q0 109 78.5 186.5t185.5 77.5q109 0 185.5 -77t76.5 -187q0 -109 -76.5 -185.5t-185.5 -76.5q-108 0 -186 77t-78 185z" />
<glyph unicode="&#xbb;" horiz-adv-x="1697" d="M190 1034l277 78l410 -502l-355 -540l-301 51l223 469zM799 1137l301 73l479 -583l-414 -627l-280 47l262 555z" />
<glyph unicode="&#x2c6;" horiz-adv-x="1013" d="M96 1640h195l215 -202l217 202h195l-205 -364h-412z" />
<glyph unicode="&#x2dc;" horiz-adv-x="1202" d="M96 1292q13 36 27 69t41.5 79t58 79t76 56.5t94.5 23.5q64 0 115 -12q60 -14 142 -46t124 -32q65 0 106 27t62 88l164 -49q-13 -38 -28 -72.5t-42.5 -82t-58.5 -81t-75.5 -58t-92.5 -24.5q-63 0 -113 13q-48 12 -107.5 34.5t-105 35t-96.5 12.5q-38 0 -74 -30.5 t-51 -76.5z" />
<glyph unicode="&#x2000;" horiz-adv-x="833" />
<glyph unicode="&#x2001;" horiz-adv-x="1667" />
<glyph unicode="&#x2002;" horiz-adv-x="833" />
<glyph unicode="&#x2003;" horiz-adv-x="1667" />
<glyph unicode="&#x2004;" horiz-adv-x="555" />
<glyph unicode="&#x2005;" horiz-adv-x="416" />
<glyph unicode="&#x2006;" horiz-adv-x="277" />
<glyph unicode="&#x2007;" horiz-adv-x="277" />
<glyph unicode="&#x2008;" horiz-adv-x="208" />
<glyph unicode="&#x2009;" horiz-adv-x="333" />
<glyph unicode="&#x200a;" horiz-adv-x="92" />
<glyph unicode="&#x2010;" horiz-adv-x="1097" d="M119 412v311h860v-311h-860z" />
<glyph unicode="&#x2011;" horiz-adv-x="1097" d="M119 412v311h860v-311h-860z" />
<glyph unicode="&#x2012;" horiz-adv-x="1097" d="M119 412v311h860v-311h-860z" />
<glyph unicode="&#x2013;" horiz-adv-x="1325" d="M119 565v264h1087v-264h-1087z" />
<glyph unicode="&#x2014;" horiz-adv-x="1921" d="M119 432v252h1683v-252h-1683z" />
<glyph unicode="&#x2018;" d="M119 868q0 82 27.5 166t78 162.5t101 141t116.5 132.5l170 -127q-9 -12 -34 -46t-33 -45t-27 -37.5t-28 -41t-23 -38t-25.5 -46t-23.5 -47.5v-10q99 -10 163 -81t64 -167q0 -105 -72.5 -177t-177.5 -72q-127 0 -201.5 91t-74.5 242z" />
<glyph unicode="&#x2019;" d="M119 1221q0 102 74 175.5t176 73.5q47 0 93 -17.5t88.5 -54t68.5 -104t26 -157.5q0 -85 -26.5 -169t-75.5 -161.5t-100.5 -140.5t-118.5 -131l-170 124q82 110 123 175.5t69 128.5v10q-55 5 -100 30.5t-71.5 62t-41 77t-14.5 78.5z" />
<glyph unicode="&#x201a;" d="M119 227q0 102 74 176t176 74q37 0 73.5 -10t74 -35t65.5 -62t45.5 -95.5t17.5 -131.5q0 -85 -26.5 -169t-75.5 -161.5t-100.5 -140.5t-118.5 -131l-170 125q83 110 123.5 175.5t68.5 127.5v11q-72 7 -126 48.5t-77.5 94t-23.5 104.5z" />
<glyph unicode="&#x201c;" horiz-adv-x="1400" d="M119 868q0 82 27.5 166t78 162.5t101 141t116.5 132.5l170 -127q-9 -12 -34 -46t-33 -45t-27 -37.5t-28 -41t-23 -38t-25.5 -46t-23.5 -47.5v-10q99 -10 163 -81t64 -167q0 -105 -72.5 -177t-177.5 -72q-127 0 -201.5 91t-74.5 242zM756 868q0 279 323 602l170 -127 q-124 -155 -194 -301v-10q106 -11 166.5 -88t60.5 -160q0 -58 -27 -113.5t-86 -95.5t-137 -40q-126 0 -201 91t-75 242z" />
<glyph unicode="&#x201d;" horiz-adv-x="1433" d="M119 1225q0 100 73.5 172.5t176.5 72.5q47 0 93 -17.5t88.5 -54t68.5 -104t26 -157.5q0 -85 -26.5 -169t-75.5 -161.5t-100.5 -140.5t-118.5 -131l-170 124q82 110 123 175.5t69 128.5v10q-73 6 -126.5 47.5t-77 95.5t-23.5 109zM788 1225q0 101 72.5 173t177.5 72 q47 0 93 -17.5t89 -54t69 -104t26 -157.5q0 -275 -324 -602l-170 124q133 165 195 304v10q-99 9 -163.5 80t-64.5 172z" />
<glyph unicode="&#x201e;" horiz-adv-x="1400" d="M119 227q0 102 74 176t176 74q37 0 73.5 -10t74 -35t65.5 -62t45.5 -95.5t17.5 -131.5q0 -85 -26.5 -169t-75.5 -161.5t-100.5 -140.5t-118.5 -131l-170 125q83 110 123.5 175.5t68.5 127.5v11q-72 7 -126 48.5t-77.5 94t-23.5 104.5zM756 227q0 102 74 176t176 74 q37 0 73.5 -10t74 -35t65.5 -62t45.5 -95.5t17.5 -131.5q0 -85 -26.5 -169t-75.5 -161.5t-100.5 -140.5t-118.5 -131l-170 125q83 110 123.5 175.5t68.5 127.5v11q-72 7 -126 48.5t-77.5 94t-23.5 104.5z" />
<glyph unicode="&#x2022;" horiz-adv-x="882" d="M119 684q0 132 95.5 227t227.5 95q134 0 228 -94.5t94 -227.5q0 -134 -94.5 -229t-227.5 -95q-131 0 -227 95.5t-96 228.5z" />
<glyph unicode="&#x2026;" horiz-adv-x="2150" d="M96 240q0 109 76.5 185.5t185.5 76.5t186 -76.5t77 -185.5t-77 -186t-186 -77t-185.5 77t-76.5 186zM813 240q0 109 76.5 185.5t185.5 76.5t185.5 -76.5t76.5 -185.5t-76.5 -186t-185.5 -77t-185.5 77t-76.5 186zM1530 240q0 109 76.5 185.5t185.5 76.5t185.5 -76.5 t76.5 -185.5t-76.5 -186t-185.5 -77t-185.5 77t-76.5 186z" />
<glyph unicode="&#x202f;" horiz-adv-x="333" />
<glyph unicode="&#x205f;" horiz-adv-x="416" />
<glyph unicode="&#x20ac;" horiz-adv-x="1511" d="M45 485l72 144h88q-4 23 -4 65q0 36 2 54h-158l72 143h98q46 284 222.5 431.5t508.5 147.5q178 0 277.5 -25.5t158.5 -72.5l21 -262h-78q-25 123 -88 177t-180 54q-135 0 -206.5 -111.5t-90.5 -338.5h479l-70 -143h-415v-62v-57h356l-70 -144h-278q12 -193 88.5 -292 t208.5 -99q112 0 177.5 53t90.5 164h76l-21 -252q-66 -48 -161 -70t-275 -22q-332 0 -499 129.5t-216 388.5h-186z" />
<glyph unicode="&#x2122;" horiz-adv-x="2101" d="M119 1157v277h745v-277h-153v17q0 30 -4 49.5t-12 27.5t-14 10.5t-15 2.5h-43v-416q0 -31 45 -31h41v-151h-435v151h41q45 0 45 31v416h-41q-27 0 -34.5 -16t-10.5 -66l-2 -25h-153zM965 666v151q35 -1 53 8.5t18 22.5v403q0 13 -18 22.5t-53 8.5v152h385l137 -301 l108 301h387v-152h-26q-45 0 -45 -31v-403q0 -31 45 -31h26v-151h-376v151h12q10 0 20.5 10.5t10.5 20.5v258h-15l-133 -371h-110l-170 371h-15v-258q0 -31 47 -31h9v-151h-297z" />
<glyph unicode="&#x25fc;" horiz-adv-x="1085" d="M0 0v1085h1085v-1085h-1085z" />
</font>
</defs>
</svg>
